G04 (created by PCBNEW-RS274X (2012-01-19 BZR 3256)-stable) date 12/30/2012 11:34:10 PM*
G01*
G70*
G90*
%MOIN*%
G04 Gerber Fmt 3.4, Leading zero omitted, Abs format*
%FSLAX34Y34*%
G04 APERTURE LIST*
%ADD10C,0.006000*%
%ADD11R,0.017700X0.059100*%
%ADD12C,0.047200*%
%ADD13R,0.035000X0.055000*%
%ADD14R,0.094500X0.094500*%
%ADD15R,0.070900X0.070900*%
%ADD16R,0.078700X0.051200*%
G04 APERTURE END LIST*
G54D10*
G54D11*
X52264Y-43406D03*
X52764Y-43406D03*
X53264Y-43406D03*
X53764Y-43406D03*
X51764Y-43406D03*
X51264Y-43406D03*
X50764Y-43406D03*
X50764Y-45768D03*
X51264Y-45768D03*
X51764Y-45768D03*
X52264Y-45768D03*
X52764Y-45768D03*
X53264Y-45768D03*
X53764Y-45768D03*
G54D12*
X47165Y-47165D03*
X47444Y-45216D03*
G54D13*
X54384Y-39862D03*
X53634Y-39862D03*
X52059Y-39862D03*
X52809Y-39862D03*
G54D14*
X54087Y-41240D03*
X52355Y-41240D03*
G54D10*
G36*
X44030Y-24752D02*
X43895Y-25122D01*
X43452Y-24960D01*
X43587Y-24590D01*
X44030Y-24752D01*
X44030Y-24752D01*
G37*
G36*
X44488Y-23495D02*
X44353Y-23865D01*
X43910Y-23703D01*
X44045Y-23333D01*
X44488Y-23495D01*
X44488Y-23495D01*
G37*
G36*
X45806Y-25399D02*
X45671Y-25769D01*
X45228Y-25607D01*
X45363Y-25237D01*
X45806Y-25399D01*
X45806Y-25399D01*
G37*
G36*
X46264Y-24142D02*
X46129Y-24512D01*
X45686Y-24350D01*
X45821Y-23980D01*
X46264Y-24142D01*
X46264Y-24142D01*
G37*
G36*
X52394Y-29458D02*
X52672Y-29180D01*
X53006Y-29514D01*
X52728Y-29792D01*
X52394Y-29458D01*
X52394Y-29458D01*
G37*
G36*
X51448Y-30404D02*
X51726Y-30126D01*
X52060Y-30460D01*
X51782Y-30738D01*
X51448Y-30404D01*
X51448Y-30404D01*
G37*
G36*
X51058Y-28122D02*
X51336Y-27844D01*
X51670Y-28178D01*
X51392Y-28456D01*
X51058Y-28122D01*
X51058Y-28122D01*
G37*
G36*
X50112Y-29068D02*
X50390Y-28790D01*
X50724Y-29124D01*
X50446Y-29402D01*
X50112Y-29068D01*
X50112Y-29068D01*
G37*
G36*
X53463Y-31209D02*
X52790Y-31428D01*
X52571Y-30755D01*
X53244Y-30536D01*
X53463Y-31209D01*
X53463Y-31209D01*
G37*
G36*
X53925Y-32631D02*
X53252Y-32850D01*
X53033Y-32177D01*
X53706Y-31958D01*
X53925Y-32631D01*
X53925Y-32631D01*
G37*
G36*
X25541Y-33096D02*
X25760Y-32423D01*
X26433Y-32642D01*
X26214Y-33315D01*
X25541Y-33096D01*
X25541Y-33096D01*
G37*
G36*
X24119Y-32634D02*
X24338Y-31961D01*
X25011Y-32180D01*
X24792Y-32853D01*
X24119Y-32634D01*
X24119Y-32634D01*
G37*
G36*
X24505Y-39381D02*
X23832Y-39162D01*
X24051Y-38489D01*
X24724Y-38708D01*
X24505Y-39381D01*
X24505Y-39381D01*
G37*
G36*
X24043Y-40803D02*
X23370Y-40584D01*
X23589Y-39911D01*
X24262Y-40130D01*
X24043Y-40803D01*
X24043Y-40803D01*
G37*
G36*
X23489Y-36644D02*
X22816Y-36425D01*
X23035Y-35752D01*
X23708Y-35971D01*
X23489Y-36644D01*
X23489Y-36644D01*
G37*
G36*
X23027Y-38066D02*
X22354Y-37847D01*
X22573Y-37174D01*
X23246Y-37393D01*
X23027Y-38066D01*
X23027Y-38066D01*
G37*
G36*
X23997Y-38015D02*
X23324Y-37796D01*
X23543Y-37123D01*
X24216Y-37342D01*
X23997Y-38015D01*
X23997Y-38015D01*
G37*
G36*
X23535Y-39437D02*
X22862Y-39218D01*
X23081Y-38545D01*
X23754Y-38764D01*
X23535Y-39437D01*
X23535Y-39437D01*
G37*
G36*
X30802Y-25536D02*
X30396Y-24956D01*
X30976Y-24550D01*
X31382Y-25130D01*
X30802Y-25536D01*
X30802Y-25536D01*
G37*
G36*
X29576Y-26394D02*
X29170Y-25814D01*
X29750Y-25408D01*
X30156Y-25988D01*
X29576Y-26394D01*
X29576Y-26394D01*
G37*
G36*
X27266Y-27344D02*
X27721Y-27887D01*
X27178Y-28342D01*
X26723Y-27799D01*
X27266Y-27344D01*
X27266Y-27344D01*
G37*
G36*
X28412Y-26382D02*
X28867Y-26925D01*
X28324Y-27380D01*
X27869Y-26837D01*
X28412Y-26382D01*
X28412Y-26382D01*
G37*
G36*
X28209Y-29906D02*
X28652Y-29534D01*
X28757Y-29660D01*
X28314Y-30032D01*
X28209Y-29906D01*
X28209Y-29906D01*
G37*
G36*
X28373Y-30102D02*
X28816Y-29730D01*
X28921Y-29856D01*
X28478Y-30228D01*
X28373Y-30102D01*
X28373Y-30102D01*
G37*
G36*
X28538Y-30299D02*
X28981Y-29927D01*
X29086Y-30053D01*
X28643Y-30425D01*
X28538Y-30299D01*
X28538Y-30299D01*
G37*
G36*
X28702Y-30495D02*
X29145Y-30123D01*
X29250Y-30249D01*
X28807Y-30621D01*
X28702Y-30495D01*
X28702Y-30495D01*
G37*
G36*
X29404Y-27906D02*
X29847Y-27534D01*
X29952Y-27660D01*
X29509Y-28032D01*
X29404Y-27906D01*
X29404Y-27906D01*
G37*
G36*
X27715Y-29318D02*
X28158Y-28946D01*
X28263Y-29072D01*
X27820Y-29444D01*
X27715Y-29318D01*
X27715Y-29318D01*
G37*
G36*
X27879Y-29514D02*
X28322Y-29142D01*
X28427Y-29268D01*
X27984Y-29640D01*
X27879Y-29514D01*
X27879Y-29514D01*
G37*
G36*
X28044Y-29710D02*
X28487Y-29338D01*
X28592Y-29464D01*
X28149Y-29836D01*
X28044Y-29710D01*
X28044Y-29710D01*
G37*
G36*
X30555Y-29274D02*
X30998Y-28902D01*
X31103Y-29028D01*
X30660Y-29400D01*
X30555Y-29274D01*
X30555Y-29274D01*
G37*
G36*
X30391Y-29078D02*
X30834Y-28706D01*
X30939Y-28832D01*
X30496Y-29204D01*
X30391Y-29078D01*
X30391Y-29078D01*
G37*
G36*
X30226Y-28882D02*
X30669Y-28510D01*
X30774Y-28636D01*
X30331Y-29008D01*
X30226Y-28882D01*
X30226Y-28882D01*
G37*
G36*
X30061Y-28686D02*
X30504Y-28314D01*
X30609Y-28440D01*
X30166Y-28812D01*
X30061Y-28686D01*
X30061Y-28686D01*
G37*
G36*
X29897Y-28490D02*
X30340Y-28118D01*
X30445Y-28244D01*
X30002Y-28616D01*
X29897Y-28490D01*
X29897Y-28490D01*
G37*
G36*
X29732Y-28293D02*
X30175Y-27921D01*
X30280Y-28047D01*
X29837Y-28419D01*
X29732Y-28293D01*
X29732Y-28293D01*
G37*
G36*
X28867Y-30691D02*
X29310Y-30319D01*
X29415Y-30445D01*
X28972Y-30817D01*
X28867Y-30691D01*
X28867Y-30691D01*
G37*
G36*
X29566Y-28099D02*
X30009Y-27727D01*
X30114Y-27853D01*
X29671Y-28225D01*
X29566Y-28099D01*
X29566Y-28099D01*
G37*
G36*
X27550Y-29122D02*
X27993Y-28750D01*
X28098Y-28876D01*
X27655Y-29248D01*
X27550Y-29122D01*
X27550Y-29122D01*
G37*
G36*
X29031Y-30887D02*
X29474Y-30515D01*
X29579Y-30641D01*
X29136Y-31013D01*
X29031Y-30887D01*
X29031Y-30887D01*
G37*
G36*
X30720Y-29470D02*
X31163Y-29098D01*
X31268Y-29224D01*
X30825Y-29596D01*
X30720Y-29470D01*
X30720Y-29470D01*
G37*
G36*
X29239Y-27705D02*
X29682Y-27333D01*
X29787Y-27459D01*
X29344Y-27831D01*
X29239Y-27705D01*
X29239Y-27705D01*
G37*
G36*
X27386Y-28927D02*
X27829Y-28555D01*
X27934Y-28681D01*
X27491Y-29053D01*
X27386Y-28927D01*
X27386Y-28927D01*
G37*
G36*
X29195Y-31082D02*
X29638Y-30710D01*
X29743Y-30836D01*
X29300Y-31208D01*
X29195Y-31082D01*
X29195Y-31082D01*
G37*
G36*
X30884Y-29665D02*
X31327Y-29293D01*
X31432Y-29419D01*
X30989Y-29791D01*
X30884Y-29665D01*
X30884Y-29665D01*
G37*
G36*
X29075Y-27510D02*
X29518Y-27138D01*
X29623Y-27264D01*
X29180Y-27636D01*
X29075Y-27510D01*
X29075Y-27510D01*
G37*
G36*
X27222Y-28730D02*
X27665Y-28358D01*
X27770Y-28484D01*
X27327Y-28856D01*
X27222Y-28730D01*
X27222Y-28730D01*
G37*
G36*
X29360Y-31278D02*
X29803Y-30906D01*
X29908Y-31032D01*
X29465Y-31404D01*
X29360Y-31278D01*
X29360Y-31278D01*
G37*
G36*
X31048Y-29862D02*
X31491Y-29490D01*
X31596Y-29616D01*
X31153Y-29988D01*
X31048Y-29862D01*
X31048Y-29862D01*
G37*
G36*
X28910Y-27314D02*
X29353Y-26942D01*
X29458Y-27068D01*
X29015Y-27440D01*
X28910Y-27314D01*
X28910Y-27314D01*
G37*
G36*
X32180Y-25733D02*
X31774Y-25153D01*
X32354Y-24747D01*
X32760Y-25327D01*
X32180Y-25733D01*
X32180Y-25733D01*
G37*
G36*
X30954Y-26591D02*
X30548Y-26011D01*
X31128Y-25605D01*
X31534Y-26185D01*
X30954Y-26591D01*
X30954Y-26591D01*
G37*
G36*
X33557Y-25930D02*
X33151Y-25350D01*
X33731Y-24944D01*
X34137Y-25524D01*
X33557Y-25930D01*
X33557Y-25930D01*
G37*
G36*
X32331Y-26788D02*
X31925Y-26208D01*
X32505Y-25802D01*
X32911Y-26382D01*
X32331Y-26788D01*
X32331Y-26788D01*
G37*
G36*
X48433Y-44495D02*
X49047Y-44849D01*
X48693Y-45463D01*
X48079Y-45109D01*
X48433Y-44495D01*
X48433Y-44495D01*
G37*
G36*
X49181Y-43199D02*
X49795Y-43553D01*
X49441Y-44167D01*
X48827Y-43813D01*
X49181Y-43199D01*
X49181Y-43199D01*
G37*
G36*
X34674Y-51678D02*
X34375Y-52319D01*
X33734Y-52020D01*
X34033Y-51379D01*
X34674Y-51678D01*
X34674Y-51678D01*
G37*
G36*
X36030Y-52310D02*
X35731Y-52951D01*
X35090Y-52652D01*
X35389Y-52011D01*
X36030Y-52310D01*
X36030Y-52310D01*
G37*
G36*
X30426Y-50124D02*
X30842Y-49552D01*
X31414Y-49968D01*
X30998Y-50540D01*
X30426Y-50124D01*
X30426Y-50124D01*
G37*
G36*
X29216Y-49244D02*
X29632Y-48672D01*
X30204Y-49088D01*
X29788Y-49660D01*
X29216Y-49244D01*
X29216Y-49244D01*
G37*
G36*
X27867Y-49238D02*
X28283Y-48666D01*
X28855Y-49082D01*
X28439Y-49654D01*
X27867Y-49238D01*
X27867Y-49238D01*
G37*
G36*
X26657Y-48358D02*
X27073Y-47786D01*
X27645Y-48202D01*
X27229Y-48774D01*
X26657Y-48358D01*
X26657Y-48358D01*
G37*
G36*
X27572Y-50124D02*
X27988Y-49552D01*
X28560Y-49968D01*
X28144Y-50540D01*
X27572Y-50124D01*
X27572Y-50124D01*
G37*
G36*
X26362Y-49244D02*
X26778Y-48672D01*
X27350Y-49088D01*
X26934Y-49660D01*
X26362Y-49244D01*
X26362Y-49244D01*
G37*
G36*
X27276Y-51010D02*
X27692Y-50438D01*
X28264Y-50854D01*
X27848Y-51426D01*
X27276Y-51010D01*
X27276Y-51010D01*
G37*
G36*
X26066Y-50130D02*
X26482Y-49558D01*
X27054Y-49974D01*
X26638Y-50546D01*
X26066Y-50130D01*
X26066Y-50130D01*
G37*
G54D15*
X52579Y-46673D03*
X51083Y-46673D03*
X48228Y-47559D03*
X49724Y-47559D03*
G54D10*
G36*
X34320Y-52505D02*
X34021Y-53146D01*
X33380Y-52847D01*
X33679Y-52206D01*
X34320Y-52505D01*
X34320Y-52505D01*
G37*
G36*
X35676Y-53137D02*
X35377Y-53778D01*
X34736Y-53479D01*
X35035Y-52838D01*
X35676Y-53137D01*
X35676Y-53137D01*
G37*
G36*
X35864Y-55036D02*
X35741Y-55733D01*
X35044Y-55610D01*
X35167Y-54913D01*
X35864Y-55036D01*
X35864Y-55036D01*
G37*
G36*
X37338Y-55296D02*
X37215Y-55993D01*
X36518Y-55870D01*
X36641Y-55173D01*
X37338Y-55296D01*
X37338Y-55296D01*
G37*
G36*
X46295Y-52318D02*
X45879Y-51746D01*
X46451Y-51330D01*
X46867Y-51902D01*
X46295Y-52318D01*
X46295Y-52318D01*
G37*
G36*
X45085Y-53198D02*
X44669Y-52626D01*
X45241Y-52210D01*
X45657Y-52782D01*
X45085Y-53198D01*
X45085Y-53198D01*
G37*
G36*
X46885Y-53105D02*
X46469Y-52533D01*
X47041Y-52117D01*
X47457Y-52689D01*
X46885Y-53105D01*
X46885Y-53105D01*
G37*
G36*
X45675Y-53985D02*
X45259Y-53413D01*
X45831Y-52997D01*
X46247Y-53569D01*
X45675Y-53985D01*
X45675Y-53985D01*
G37*
G36*
X47476Y-53893D02*
X47060Y-53321D01*
X47632Y-52905D01*
X48048Y-53477D01*
X47476Y-53893D01*
X47476Y-53893D01*
G37*
G36*
X46266Y-54773D02*
X45850Y-54201D01*
X46422Y-53785D01*
X46838Y-54357D01*
X46266Y-54773D01*
X46266Y-54773D01*
G37*
G36*
X51708Y-50458D02*
X51292Y-49886D01*
X51864Y-49470D01*
X52280Y-50042D01*
X51708Y-50458D01*
X51708Y-50458D01*
G37*
G36*
X50498Y-51338D02*
X50082Y-50766D01*
X50654Y-50350D01*
X51070Y-50922D01*
X50498Y-51338D01*
X50498Y-51338D01*
G37*
G36*
X47095Y-25147D02*
X46481Y-24793D01*
X46835Y-24179D01*
X47449Y-24533D01*
X47095Y-25147D01*
X47095Y-25147D01*
G37*
G36*
X46347Y-26443D02*
X45733Y-26089D01*
X46087Y-25475D01*
X46701Y-25829D01*
X46347Y-26443D01*
X46347Y-26443D01*
G37*
G54D15*
X52106Y-47559D03*
X50610Y-47559D03*
G54D10*
G36*
X50856Y-27826D02*
X50355Y-27325D01*
X50856Y-26824D01*
X51357Y-27325D01*
X50856Y-27826D01*
X50856Y-27826D01*
G37*
G36*
X49798Y-28884D02*
X49297Y-28383D01*
X49798Y-27882D01*
X50299Y-28383D01*
X49798Y-28884D01*
X49798Y-28884D01*
G37*
G54D15*
X55600Y-41448D03*
X55600Y-39952D03*
X54921Y-44842D03*
X54921Y-43346D03*
G54D10*
G36*
X53857Y-37016D02*
X53184Y-37235D01*
X52965Y-36562D01*
X53638Y-36343D01*
X53857Y-37016D01*
X53857Y-37016D01*
G37*
G36*
X54319Y-38438D02*
X53646Y-38657D01*
X53427Y-37984D01*
X54100Y-37765D01*
X54319Y-38438D01*
X54319Y-38438D01*
G37*
G36*
X55825Y-36425D02*
X55152Y-36644D01*
X54933Y-35971D01*
X55606Y-35752D01*
X55825Y-36425D01*
X55825Y-36425D01*
G37*
G36*
X56287Y-37847D02*
X55614Y-38066D01*
X55395Y-37393D01*
X56068Y-37174D01*
X56287Y-37847D01*
X56287Y-37847D01*
G37*
G36*
X54841Y-36721D02*
X54168Y-36940D01*
X53949Y-36267D01*
X54622Y-36048D01*
X54841Y-36721D01*
X54841Y-36721D01*
G37*
G36*
X55303Y-38143D02*
X54630Y-38362D01*
X54411Y-37689D01*
X55084Y-37470D01*
X55303Y-38143D01*
X55303Y-38143D01*
G37*
G36*
X52187Y-32445D02*
X52860Y-32226D01*
X53079Y-32899D01*
X52406Y-33118D01*
X52187Y-32445D01*
X52187Y-32445D01*
G37*
G36*
X51725Y-31023D02*
X52398Y-30804D01*
X52617Y-31477D01*
X51944Y-31696D01*
X51725Y-31023D01*
X51725Y-31023D01*
G37*
G36*
X49637Y-29632D02*
X49136Y-30133D01*
X48635Y-29632D01*
X49136Y-29131D01*
X49637Y-29632D01*
X49637Y-29632D01*
G37*
G36*
X50695Y-30690D02*
X50194Y-31191D01*
X49693Y-30690D01*
X50194Y-30189D01*
X50695Y-30690D01*
X50695Y-30690D01*
G37*
G36*
X44399Y-25627D02*
X44089Y-26263D01*
X43453Y-25953D01*
X43763Y-25317D01*
X44399Y-25627D01*
X44399Y-25627D01*
G37*
G36*
X45743Y-26283D02*
X45433Y-26919D01*
X44797Y-26609D01*
X45107Y-25973D01*
X45743Y-26283D01*
X45743Y-26283D01*
G37*
G36*
X47977Y-29057D02*
X48393Y-28485D01*
X48965Y-28901D01*
X48549Y-29473D01*
X47977Y-29057D01*
X47977Y-29057D01*
G37*
G36*
X46767Y-28177D02*
X47183Y-27605D01*
X47755Y-28021D01*
X47339Y-28593D01*
X46767Y-28177D01*
X46767Y-28177D01*
G37*
G54D15*
X41352Y-23200D03*
X42848Y-23200D03*
G54D10*
G36*
X36164Y-22948D02*
X36287Y-23645D01*
X35590Y-23768D01*
X35467Y-23071D01*
X36164Y-22948D01*
X36164Y-22948D01*
G37*
G36*
X37638Y-22688D02*
X37761Y-23385D01*
X37064Y-23508D01*
X36941Y-22811D01*
X37638Y-22688D01*
X37638Y-22688D01*
G37*
G54D15*
X41352Y-24100D03*
X42848Y-24100D03*
X41352Y-25000D03*
X42848Y-25000D03*
G54D10*
G36*
X41822Y-54718D02*
X41672Y-53946D01*
X41826Y-53916D01*
X41976Y-54688D01*
X41822Y-54718D01*
X41822Y-54718D01*
G37*
G36*
X42074Y-54669D02*
X41924Y-53897D01*
X42078Y-53867D01*
X42228Y-54639D01*
X42074Y-54669D01*
X42074Y-54669D01*
G37*
G36*
X42325Y-54620D02*
X42175Y-53848D01*
X42329Y-53818D01*
X42479Y-54590D01*
X42325Y-54620D01*
X42325Y-54620D01*
G37*
G36*
X42576Y-54571D02*
X42426Y-53799D01*
X42580Y-53769D01*
X42730Y-54541D01*
X42576Y-54571D01*
X42576Y-54571D01*
G37*
G36*
X42827Y-54523D02*
X42677Y-53751D01*
X42831Y-53721D01*
X42981Y-54493D01*
X42827Y-54523D01*
X42827Y-54523D01*
G37*
G36*
X40644Y-54947D02*
X40494Y-54175D01*
X41460Y-53987D01*
X41610Y-54759D01*
X40644Y-54947D01*
X40644Y-54947D01*
G37*
G36*
X43194Y-54451D02*
X43044Y-53679D01*
X44010Y-53491D01*
X44160Y-54263D01*
X43194Y-54451D01*
X43194Y-54451D01*
G37*
G36*
X43804Y-55416D02*
X43661Y-54682D01*
X44432Y-54532D01*
X44575Y-55266D01*
X43804Y-55416D01*
X43804Y-55416D01*
G37*
G36*
X40635Y-56032D02*
X40492Y-55298D01*
X41263Y-55148D01*
X41406Y-55882D01*
X40635Y-56032D01*
X40635Y-56032D01*
G37*
G36*
X26130Y-43563D02*
X25796Y-43229D01*
X26130Y-42895D01*
X26464Y-43229D01*
X26130Y-43563D01*
X26130Y-43563D01*
G37*
G36*
X25740Y-43952D02*
X25406Y-43618D01*
X25740Y-43284D01*
X26074Y-43618D01*
X25740Y-43952D01*
X25740Y-43952D01*
G37*
G36*
X24961Y-43173D02*
X24627Y-42839D01*
X24961Y-42505D01*
X25295Y-42839D01*
X24961Y-43173D01*
X24961Y-43173D01*
G37*
G36*
X25351Y-44342D02*
X25017Y-44008D01*
X25351Y-43674D01*
X25685Y-44008D01*
X25351Y-44342D01*
X25351Y-44342D01*
G37*
G36*
X24961Y-44733D02*
X24627Y-44399D01*
X24961Y-44065D01*
X25295Y-44399D01*
X24961Y-44733D01*
X24961Y-44733D01*
G37*
G36*
X24181Y-43172D02*
X23847Y-42838D01*
X24181Y-42504D01*
X24515Y-42838D01*
X24181Y-43172D01*
X24181Y-43172D01*
G37*
G36*
X24571Y-42783D02*
X24237Y-42449D01*
X24571Y-42115D01*
X24905Y-42449D01*
X24571Y-42783D01*
X24571Y-42783D01*
G37*
G36*
X24960Y-42393D02*
X24626Y-42059D01*
X24960Y-41725D01*
X25294Y-42059D01*
X24960Y-42393D01*
X24960Y-42393D01*
G37*
G36*
X23791Y-43563D02*
X23457Y-43229D01*
X23791Y-42895D01*
X24125Y-43229D01*
X23791Y-43563D01*
X23791Y-43563D01*
G37*
G36*
X24180Y-43952D02*
X23846Y-43618D01*
X24180Y-43284D01*
X24514Y-43618D01*
X24180Y-43952D01*
X24180Y-43952D01*
G37*
G36*
X24571Y-44343D02*
X24237Y-44009D01*
X24571Y-43675D01*
X24905Y-44009D01*
X24571Y-44343D01*
X24571Y-44343D01*
G37*
G36*
X25350Y-42783D02*
X25016Y-42449D01*
X25350Y-42115D01*
X25684Y-42449D01*
X25350Y-42783D01*
X25350Y-42783D01*
G37*
G36*
X25740Y-43173D02*
X25406Y-42839D01*
X25740Y-42505D01*
X26074Y-42839D01*
X25740Y-43173D01*
X25740Y-43173D01*
G37*
G36*
X24961Y-43952D02*
X24627Y-43618D01*
X24961Y-43284D01*
X25295Y-43618D01*
X24961Y-43952D01*
X24961Y-43952D01*
G37*
G36*
X25351Y-43563D02*
X25017Y-43229D01*
X25351Y-42895D01*
X25685Y-43229D01*
X25351Y-43563D01*
X25351Y-43563D01*
G37*
G36*
X24571Y-43562D02*
X24237Y-43228D01*
X24571Y-42894D01*
X24905Y-43228D01*
X24571Y-43562D01*
X24571Y-43562D01*
G37*
G36*
X32173Y-53992D02*
X31976Y-54334D01*
X31737Y-54196D01*
X31934Y-53854D01*
X32173Y-53992D01*
X32173Y-53992D01*
G37*
G36*
X32348Y-52938D02*
X32151Y-53280D01*
X31912Y-53142D01*
X32109Y-52800D01*
X32348Y-52938D01*
X32348Y-52938D01*
G37*
G36*
X32998Y-53313D02*
X32801Y-53655D01*
X32562Y-53517D01*
X32759Y-53175D01*
X32998Y-53313D01*
X32998Y-53313D01*
G37*
G36*
X37684Y-53203D02*
X37615Y-53591D01*
X37418Y-53557D01*
X37487Y-53169D01*
X37684Y-53203D01*
X37684Y-53203D01*
G37*
G36*
X36947Y-53073D02*
X36878Y-53461D01*
X36681Y-53427D01*
X36750Y-53039D01*
X36947Y-53073D01*
X36947Y-53073D01*
G37*
G36*
X37493Y-54289D02*
X37424Y-54677D01*
X37227Y-54643D01*
X37296Y-54255D01*
X37493Y-54289D01*
X37493Y-54289D01*
G37*
G36*
X37316Y-53138D02*
X37247Y-53526D01*
X37050Y-53492D01*
X37119Y-53104D01*
X37316Y-53138D01*
X37316Y-53138D01*
G37*
G36*
X36756Y-54159D02*
X36687Y-54547D01*
X36490Y-54513D01*
X36559Y-54125D01*
X36756Y-54159D01*
X36756Y-54159D01*
G37*
G36*
X31103Y-52090D02*
X30802Y-52504D01*
X30167Y-52042D01*
X30468Y-51628D01*
X31103Y-52090D01*
X31103Y-52090D01*
G37*
G36*
X29479Y-50910D02*
X29178Y-51324D01*
X28543Y-50862D01*
X28844Y-50448D01*
X29479Y-50910D01*
X29479Y-50910D01*
G37*
G36*
X29849Y-50400D02*
X29548Y-50814D01*
X28913Y-50352D01*
X29214Y-49938D01*
X29849Y-50400D01*
X29849Y-50400D01*
G37*
G36*
X29108Y-51420D02*
X28807Y-51834D01*
X28172Y-51372D01*
X28473Y-50958D01*
X29108Y-51420D01*
X29108Y-51420D01*
G37*
G36*
X30733Y-52600D02*
X30432Y-53014D01*
X29797Y-52552D01*
X30098Y-52138D01*
X30733Y-52600D01*
X30733Y-52600D01*
G37*
G36*
X31474Y-51580D02*
X31173Y-51994D01*
X30538Y-51532D01*
X30839Y-51118D01*
X31474Y-51580D01*
X31474Y-51580D01*
G37*
G36*
X49699Y-50645D02*
X50000Y-51059D01*
X49365Y-51521D01*
X49064Y-51107D01*
X49699Y-50645D01*
X49699Y-50645D01*
G37*
G36*
X48075Y-51825D02*
X48376Y-52239D01*
X47741Y-52701D01*
X47440Y-52287D01*
X48075Y-51825D01*
X48075Y-51825D01*
G37*
G36*
X47704Y-51315D02*
X48005Y-51729D01*
X47370Y-52191D01*
X47069Y-51777D01*
X47704Y-51315D01*
X47704Y-51315D01*
G37*
G36*
X48445Y-52335D02*
X48746Y-52749D01*
X48111Y-53211D01*
X47810Y-52797D01*
X48445Y-52335D01*
X48445Y-52335D01*
G37*
G36*
X50070Y-51155D02*
X50371Y-51569D01*
X49736Y-52031D01*
X49435Y-51617D01*
X50070Y-51155D01*
X50070Y-51155D01*
G37*
G36*
X49329Y-50135D02*
X49630Y-50549D01*
X48995Y-51011D01*
X48694Y-50597D01*
X49329Y-50135D01*
X49329Y-50135D01*
G37*
G36*
X53459Y-33002D02*
X53946Y-32844D01*
X54189Y-33592D01*
X53702Y-33750D01*
X53459Y-33002D01*
X53459Y-33002D01*
G37*
G36*
X54079Y-34912D02*
X54566Y-34754D01*
X54809Y-35502D01*
X54322Y-35660D01*
X54079Y-34912D01*
X54079Y-34912D01*
G37*
G36*
X53480Y-35107D02*
X53967Y-34949D01*
X54210Y-35697D01*
X53723Y-35855D01*
X53480Y-35107D01*
X53480Y-35107D01*
G37*
G36*
X54678Y-34717D02*
X55165Y-34559D01*
X55408Y-35307D01*
X54921Y-35465D01*
X54678Y-34717D01*
X54678Y-34717D01*
G37*
G36*
X54058Y-32807D02*
X54545Y-32649D01*
X54788Y-33397D01*
X54301Y-33555D01*
X54058Y-32807D01*
X54058Y-32807D01*
G37*
G36*
X52860Y-33197D02*
X53347Y-33039D01*
X53590Y-33787D01*
X53103Y-33945D01*
X52860Y-33197D01*
X52860Y-33197D01*
G37*
G54D16*
X38366Y-23917D03*
X40374Y-23917D03*
X40374Y-24547D03*
X40374Y-23287D03*
X38366Y-23287D03*
X38366Y-24547D03*
G54D10*
G36*
X24794Y-33041D02*
X25281Y-33199D01*
X25038Y-33947D01*
X24551Y-33789D01*
X24794Y-33041D01*
X24794Y-33041D01*
G37*
G36*
X24174Y-34951D02*
X24661Y-35109D01*
X24418Y-35857D01*
X23931Y-35699D01*
X24174Y-34951D01*
X24174Y-34951D01*
G37*
G36*
X23575Y-34756D02*
X24062Y-34914D01*
X23819Y-35662D01*
X23332Y-35504D01*
X23575Y-34756D01*
X23575Y-34756D01*
G37*
G36*
X24773Y-35146D02*
X25260Y-35304D01*
X25017Y-36052D01*
X24530Y-35894D01*
X24773Y-35146D01*
X24773Y-35146D01*
G37*
G36*
X25393Y-33236D02*
X25880Y-33394D01*
X25637Y-34142D01*
X25150Y-33984D01*
X25393Y-33236D01*
X25393Y-33236D01*
G37*
G36*
X24195Y-32846D02*
X24682Y-33004D01*
X24439Y-33752D01*
X23952Y-33594D01*
X24195Y-32846D01*
X24195Y-32846D01*
G37*
G36*
X30938Y-49416D02*
X31354Y-48844D01*
X31926Y-49260D01*
X31510Y-49832D01*
X30938Y-49416D01*
X30938Y-49416D01*
G37*
G36*
X29728Y-48536D02*
X30144Y-47964D01*
X30716Y-48380D01*
X30300Y-48952D01*
X29728Y-48536D01*
X29728Y-48536D01*
G37*
G36*
X34002Y-25920D02*
X34408Y-26500D01*
X33828Y-26906D01*
X33422Y-26326D01*
X34002Y-25920D01*
X34002Y-25920D01*
G37*
G36*
X35228Y-25062D02*
X35634Y-25642D01*
X35054Y-26048D01*
X34648Y-25468D01*
X35228Y-25062D01*
X35228Y-25062D01*
G37*
M02*
