G04 (created by PCBNEW-RS274X (2012-01-19 BZR 3256)-stable) date 12/30/2012 11:34:10 PM*
G01*
G70*
G90*
%MOIN*%
G04 Gerber Fmt 3.4, Leading zero omitted, Abs format*
%FSLAX34Y34*%
G04 APERTURE LIST*
%ADD10C,0.006000*%
%ADD11C,0.003900*%
%ADD12C,0.008000*%
%ADD13C,0.007900*%
%ADD14C,0.005000*%
%ADD15C,0.015000*%
%ADD16C,0.009800*%
G04 APERTURE END LIST*
G54D10*
G54D11*
X38898Y-56575D02*
X46339Y-55118D01*
X56593Y-39370D02*
X56264Y-42715D01*
X55293Y-45933D01*
X53715Y-48901D01*
X51590Y-51505D01*
X49000Y-53648D01*
X46044Y-55247D01*
X42833Y-56241D01*
X39490Y-56592D01*
X36143Y-56287D01*
X32919Y-55338D01*
X29940Y-53781D01*
X27320Y-51675D01*
X25160Y-49100D01*
X23540Y-46154D01*
X22524Y-42950D01*
X22149Y-39610D01*
X22430Y-36261D01*
X23357Y-33030D01*
X24893Y-30041D01*
X26981Y-27406D01*
X29541Y-25228D01*
X32475Y-23588D01*
X35672Y-22549D01*
X39010Y-22151D01*
X42360Y-22409D01*
X45598Y-23313D01*
X48598Y-24829D01*
X51247Y-26898D01*
X53443Y-29443D01*
X55103Y-32365D01*
X56164Y-35555D01*
X56586Y-38890D01*
X56593Y-39370D01*
G54D12*
X49248Y-28069D02*
X46821Y-26305D01*
X47996Y-24687D02*
X50423Y-26451D01*
X50423Y-26451D02*
X49248Y-28069D01*
X46821Y-26305D02*
X47996Y-24687D01*
G54D13*
X53839Y-44036D02*
X53837Y-44051D01*
X53833Y-44066D01*
X53825Y-44079D01*
X53816Y-44091D01*
X53804Y-44101D01*
X53790Y-44108D01*
X53775Y-44113D01*
X53760Y-44114D01*
X53746Y-44113D01*
X53731Y-44109D01*
X53717Y-44102D01*
X53705Y-44092D01*
X53695Y-44080D01*
X53688Y-44067D01*
X53683Y-44052D01*
X53682Y-44037D01*
X53683Y-44022D01*
X53687Y-44007D01*
X53694Y-43994D01*
X53704Y-43982D01*
X53715Y-43972D01*
X53729Y-43964D01*
X53744Y-43959D01*
X53759Y-43958D01*
X53773Y-43959D01*
X53788Y-43963D01*
X53802Y-43970D01*
X53814Y-43979D01*
X53824Y-43991D01*
X53832Y-44004D01*
X53837Y-44019D01*
X53838Y-44034D01*
X53839Y-44036D01*
X50571Y-45335D02*
X53957Y-45335D01*
X53957Y-43839D02*
X50571Y-43839D01*
X53957Y-43839D02*
X53957Y-45335D01*
X50571Y-43839D02*
X50571Y-45335D01*
G54D14*
X54709Y-39562D02*
X54708Y-39571D01*
X54705Y-39581D01*
X54700Y-39589D01*
X54694Y-39597D01*
X54686Y-39603D01*
X54678Y-39608D01*
X54669Y-39610D01*
X54659Y-39611D01*
X54650Y-39611D01*
X54641Y-39608D01*
X54632Y-39603D01*
X54625Y-39597D01*
X54618Y-39590D01*
X54614Y-39581D01*
X54611Y-39572D01*
X54610Y-39562D01*
X54610Y-39553D01*
X54613Y-39544D01*
X54617Y-39535D01*
X54624Y-39528D01*
X54631Y-39521D01*
X54639Y-39517D01*
X54649Y-39514D01*
X54658Y-39513D01*
X54667Y-39513D01*
X54677Y-39516D01*
X54685Y-39520D01*
X54693Y-39526D01*
X54699Y-39534D01*
X54704Y-39542D01*
X54707Y-39551D01*
X54708Y-39561D01*
X54709Y-39562D01*
X54209Y-39562D02*
X54609Y-39562D01*
X54609Y-39562D02*
X54609Y-40162D01*
X54609Y-40162D02*
X54209Y-40162D01*
X53809Y-40162D02*
X53409Y-40162D01*
X53409Y-40162D02*
X53409Y-39562D01*
X53409Y-39562D02*
X53809Y-39562D01*
X51834Y-40162D02*
X51833Y-40171D01*
X51830Y-40181D01*
X51825Y-40189D01*
X51819Y-40197D01*
X51811Y-40203D01*
X51803Y-40208D01*
X51794Y-40210D01*
X51784Y-40211D01*
X51775Y-40211D01*
X51766Y-40208D01*
X51757Y-40203D01*
X51750Y-40197D01*
X51743Y-40190D01*
X51739Y-40181D01*
X51736Y-40172D01*
X51735Y-40162D01*
X51735Y-40153D01*
X51738Y-40144D01*
X51742Y-40135D01*
X51749Y-40128D01*
X51756Y-40121D01*
X51764Y-40117D01*
X51774Y-40114D01*
X51783Y-40113D01*
X51792Y-40113D01*
X51802Y-40116D01*
X51810Y-40120D01*
X51818Y-40126D01*
X51824Y-40134D01*
X51829Y-40142D01*
X51832Y-40151D01*
X51833Y-40161D01*
X51834Y-40162D01*
X52234Y-40162D02*
X51834Y-40162D01*
X51834Y-40162D02*
X51834Y-39562D01*
X51834Y-39562D02*
X52234Y-39562D01*
X52634Y-39562D02*
X53034Y-39562D01*
X53034Y-39562D02*
X53034Y-40162D01*
X53034Y-40162D02*
X52634Y-40162D01*
G54D15*
X54205Y-41831D02*
X54205Y-41909D01*
X54205Y-41909D02*
X52237Y-41909D01*
X52237Y-41909D02*
X52237Y-41831D01*
X52237Y-40649D02*
X52237Y-40571D01*
X52237Y-40571D02*
X54205Y-40571D01*
X54205Y-40571D02*
X54205Y-40649D01*
X44488Y-23956D02*
X44337Y-24026D01*
X44337Y-24026D02*
X44283Y-24175D01*
X45066Y-25591D02*
X44030Y-25214D01*
X44030Y-25214D02*
X44192Y-24769D01*
X44192Y-24769D02*
X44122Y-24618D01*
X44122Y-24618D02*
X44324Y-24063D01*
X44488Y-23956D02*
X44650Y-23511D01*
X44650Y-23511D02*
X45686Y-23888D01*
X45686Y-23888D02*
X45524Y-24333D01*
X45524Y-24333D02*
X45594Y-24484D01*
X45594Y-24484D02*
X45379Y-25076D01*
X45379Y-25076D02*
X45228Y-25146D01*
X45228Y-25146D02*
X45066Y-25591D01*
X51642Y-29987D02*
X51809Y-29987D01*
X51809Y-29987D02*
X51921Y-29875D01*
X51810Y-28261D02*
X52589Y-29040D01*
X52589Y-29040D02*
X52255Y-29374D01*
X52255Y-29374D02*
X52255Y-29541D01*
X52255Y-29541D02*
X51837Y-29959D01*
X51642Y-29987D02*
X51308Y-30321D01*
X51308Y-30321D02*
X50529Y-29542D01*
X50529Y-29542D02*
X50863Y-29208D01*
X50863Y-29208D02*
X50863Y-29041D01*
X50863Y-29041D02*
X51309Y-28595D01*
X51309Y-28595D02*
X51476Y-28595D01*
X51476Y-28595D02*
X51810Y-28261D01*
X53696Y-31796D02*
X53550Y-31347D01*
X52800Y-31590D02*
X52946Y-32039D01*
X24930Y-32940D02*
X25379Y-33086D01*
X25622Y-32336D02*
X25173Y-32190D01*
X24349Y-39992D02*
X24495Y-39543D01*
X23745Y-39300D02*
X23599Y-39749D01*
X23333Y-37255D02*
X23479Y-36806D01*
X22729Y-36563D02*
X22583Y-37012D01*
X23841Y-38626D02*
X23987Y-38177D01*
X23237Y-37934D02*
X23091Y-38383D01*
X30309Y-25930D02*
X30695Y-25659D01*
X30243Y-25014D02*
X29857Y-25285D01*
X27723Y-26908D02*
X27361Y-27212D01*
X27867Y-27816D02*
X28229Y-27512D01*
G54D14*
X28692Y-27229D02*
X27619Y-28129D01*
X31199Y-30217D02*
X30126Y-31117D01*
X31199Y-30217D02*
X28692Y-27229D01*
X27619Y-28129D02*
X30126Y-31117D01*
X28154Y-28166D02*
X28151Y-28187D01*
X28145Y-28208D01*
X28135Y-28227D01*
X28121Y-28244D01*
X28104Y-28258D01*
X28085Y-28269D01*
X28064Y-28275D01*
X28042Y-28277D01*
X28022Y-28276D01*
X28001Y-28269D01*
X27981Y-28259D01*
X27964Y-28246D01*
X27950Y-28229D01*
X27940Y-28210D01*
X27933Y-28189D01*
X27931Y-28167D01*
X27932Y-28146D01*
X27938Y-28125D01*
X27948Y-28106D01*
X27962Y-28089D01*
X27979Y-28075D01*
X27998Y-28064D01*
X28018Y-28057D01*
X28040Y-28055D01*
X28061Y-28056D01*
X28082Y-28062D01*
X28102Y-28072D01*
X28119Y-28085D01*
X28133Y-28102D01*
X28144Y-28121D01*
X28151Y-28142D01*
X28153Y-28163D01*
X28154Y-28166D01*
G54D15*
X31687Y-26127D02*
X32073Y-25856D01*
X31621Y-25211D02*
X31235Y-25482D01*
X33064Y-26324D02*
X33450Y-26053D01*
X32998Y-25408D02*
X32612Y-25679D01*
X48714Y-43930D02*
X48478Y-44338D01*
X49160Y-44732D02*
X49396Y-44324D01*
X35262Y-51908D02*
X34835Y-51708D01*
X34502Y-52422D02*
X34929Y-52622D01*
X29892Y-49786D02*
X30274Y-50063D01*
X30738Y-49426D02*
X30356Y-49149D01*
X27333Y-48900D02*
X27715Y-49177D01*
X28179Y-48540D02*
X27797Y-48263D01*
X27038Y-49786D02*
X27420Y-50063D01*
X27884Y-49426D02*
X27502Y-49149D01*
X26742Y-50672D02*
X27124Y-50949D01*
X27588Y-50312D02*
X27206Y-50035D01*
X51595Y-47067D02*
X52067Y-47067D01*
X52067Y-46279D02*
X51595Y-46279D01*
X49212Y-47165D02*
X48740Y-47165D01*
X48740Y-47953D02*
X49212Y-47953D01*
X34908Y-52735D02*
X34481Y-52535D01*
X34148Y-53249D02*
X34575Y-53449D01*
X36492Y-55106D02*
X36027Y-55024D01*
X35890Y-55800D02*
X36355Y-55882D01*
X45809Y-52721D02*
X46191Y-52444D01*
X45727Y-51807D02*
X45345Y-52084D01*
X46399Y-53508D02*
X46781Y-53231D01*
X46317Y-52594D02*
X45935Y-52871D01*
X46990Y-54296D02*
X47372Y-54019D01*
X46908Y-53382D02*
X46526Y-53659D01*
X51222Y-50861D02*
X51604Y-50584D01*
X51140Y-49947D02*
X50758Y-50224D01*
X46814Y-25712D02*
X47050Y-25304D01*
X46368Y-24910D02*
X46132Y-25318D01*
X51122Y-47953D02*
X51594Y-47953D01*
X51594Y-47165D02*
X51122Y-47165D01*
X50439Y-28299D02*
X50772Y-27966D01*
X50215Y-27409D02*
X49882Y-27742D01*
X55206Y-40464D02*
X55206Y-40936D01*
X55994Y-40936D02*
X55994Y-40464D01*
X54527Y-43858D02*
X54527Y-44330D01*
X55315Y-44330D02*
X55315Y-43858D01*
X54090Y-37603D02*
X53944Y-37154D01*
X53194Y-37397D02*
X53340Y-37846D01*
X56058Y-37012D02*
X55912Y-36563D01*
X55162Y-36806D02*
X55308Y-37255D01*
X55074Y-37308D02*
X54928Y-36859D01*
X54178Y-37102D02*
X54324Y-37551D01*
X51954Y-31858D02*
X52100Y-32307D01*
X52850Y-32064D02*
X52704Y-31615D01*
X50110Y-30049D02*
X49777Y-29716D01*
X49220Y-30273D02*
X49553Y-30606D01*
X44983Y-25867D02*
X44559Y-25660D01*
X44213Y-26369D02*
X44637Y-26576D01*
X47443Y-28719D02*
X47825Y-28996D01*
X48289Y-28359D02*
X47907Y-28082D01*
X42336Y-22806D02*
X41864Y-22806D01*
X41864Y-23594D02*
X42336Y-23594D01*
X36778Y-22799D02*
X36313Y-22881D01*
X36450Y-23657D02*
X36915Y-23575D01*
X42336Y-23706D02*
X41864Y-23706D01*
X41864Y-24494D02*
X42336Y-24494D01*
X42336Y-24606D02*
X41864Y-24606D01*
X41864Y-25394D02*
X42336Y-25394D01*
G54D11*
X41163Y-55969D02*
X41194Y-56124D01*
X41194Y-56124D02*
X44091Y-55561D01*
X44091Y-55561D02*
X44061Y-55406D01*
X43858Y-54363D02*
X43904Y-54595D01*
X40961Y-54926D02*
X41006Y-55159D01*
X41663Y-54108D02*
X41528Y-54134D01*
X42900Y-53867D02*
X43036Y-53841D01*
X42649Y-53916D02*
X42669Y-53912D01*
X42398Y-53965D02*
X42417Y-53961D01*
X42146Y-54014D02*
X42166Y-54010D01*
X41895Y-54063D02*
X41915Y-54059D01*
G54D14*
X32528Y-53501D02*
X32688Y-53824D01*
X31922Y-53151D02*
X32810Y-53664D01*
X32810Y-53664D02*
X32510Y-54183D01*
X32510Y-54183D02*
X31622Y-53671D01*
X31622Y-53671D02*
X31922Y-53151D01*
X36435Y-54098D02*
X36557Y-53409D01*
X36557Y-53409D02*
X37739Y-53618D01*
X37739Y-53618D02*
X37617Y-54307D01*
X37617Y-54307D02*
X36435Y-54098D01*
G54D15*
X29818Y-52194D02*
X29816Y-52209D01*
X29812Y-52224D01*
X29804Y-52237D01*
X29795Y-52249D01*
X29783Y-52259D01*
X29769Y-52266D01*
X29754Y-52271D01*
X29739Y-52272D01*
X29725Y-52271D01*
X29710Y-52267D01*
X29696Y-52260D01*
X29684Y-52250D01*
X29674Y-52238D01*
X29667Y-52225D01*
X29662Y-52210D01*
X29661Y-52195D01*
X29662Y-52180D01*
X29666Y-52165D01*
X29673Y-52152D01*
X29683Y-52140D01*
X29694Y-52130D01*
X29708Y-52122D01*
X29723Y-52117D01*
X29738Y-52116D01*
X29752Y-52117D01*
X29767Y-52121D01*
X29781Y-52128D01*
X29793Y-52137D01*
X29803Y-52149D01*
X29811Y-52162D01*
X29816Y-52177D01*
X29817Y-52192D01*
X29818Y-52194D01*
X31267Y-51163D02*
X31313Y-51099D01*
X31313Y-51099D02*
X29721Y-49942D01*
X29721Y-49942D02*
X29675Y-50006D01*
X29971Y-52946D02*
X29925Y-53010D01*
X29925Y-53010D02*
X28333Y-51853D01*
X28333Y-51853D02*
X28379Y-51789D01*
X49456Y-51975D02*
X49454Y-51990D01*
X49450Y-52005D01*
X49442Y-52018D01*
X49433Y-52030D01*
X49421Y-52040D01*
X49407Y-52047D01*
X49392Y-52052D01*
X49377Y-52053D01*
X49363Y-52052D01*
X49348Y-52048D01*
X49334Y-52041D01*
X49322Y-52031D01*
X49312Y-52019D01*
X49305Y-52006D01*
X49300Y-51991D01*
X49299Y-51976D01*
X49300Y-51961D01*
X49304Y-51946D01*
X49311Y-51933D01*
X49321Y-51921D01*
X49332Y-51911D01*
X49346Y-51903D01*
X49361Y-51898D01*
X49376Y-51897D01*
X49390Y-51898D01*
X49405Y-51902D01*
X49419Y-51909D01*
X49431Y-51918D01*
X49441Y-51930D01*
X49449Y-51943D01*
X49454Y-51958D01*
X49455Y-51973D01*
X49456Y-51975D01*
X48868Y-50203D02*
X48822Y-50139D01*
X48822Y-50139D02*
X47230Y-51296D01*
X47230Y-51296D02*
X47276Y-51360D01*
X50164Y-51986D02*
X50210Y-52050D01*
X50210Y-52050D02*
X48618Y-53207D01*
X48618Y-53207D02*
X48572Y-53143D01*
X54702Y-33721D02*
X54700Y-33736D01*
X54696Y-33750D01*
X54688Y-33764D01*
X54679Y-33775D01*
X54667Y-33785D01*
X54654Y-33792D01*
X54639Y-33797D01*
X54624Y-33798D01*
X54610Y-33797D01*
X54595Y-33793D01*
X54582Y-33786D01*
X54570Y-33776D01*
X54560Y-33765D01*
X54553Y-33751D01*
X54548Y-33737D01*
X54547Y-33722D01*
X54548Y-33707D01*
X54552Y-33693D01*
X54559Y-33679D01*
X54568Y-33667D01*
X54580Y-33657D01*
X54593Y-33650D01*
X54608Y-33645D01*
X54623Y-33644D01*
X54637Y-33645D01*
X54652Y-33649D01*
X54665Y-33656D01*
X54677Y-33665D01*
X54687Y-33677D01*
X54695Y-33690D01*
X54700Y-33704D01*
X54701Y-33719D01*
X54702Y-33721D01*
X52782Y-33657D02*
X52707Y-33681D01*
X52707Y-33681D02*
X53315Y-35553D01*
X53315Y-35553D02*
X53390Y-35528D01*
X54878Y-32976D02*
X54953Y-32951D01*
X54953Y-32951D02*
X55561Y-34823D01*
X55561Y-34823D02*
X55486Y-34847D01*
X39095Y-23287D02*
X39093Y-23302D01*
X39089Y-23317D01*
X39081Y-23330D01*
X39072Y-23342D01*
X39060Y-23352D01*
X39046Y-23359D01*
X39031Y-23364D01*
X39016Y-23365D01*
X39002Y-23364D01*
X38987Y-23360D01*
X38973Y-23353D01*
X38961Y-23343D01*
X38951Y-23331D01*
X38944Y-23318D01*
X38939Y-23303D01*
X38938Y-23288D01*
X38939Y-23273D01*
X38943Y-23258D01*
X38950Y-23245D01*
X38960Y-23233D01*
X38971Y-23223D01*
X38985Y-23215D01*
X39000Y-23210D01*
X39015Y-23209D01*
X39029Y-23210D01*
X39044Y-23214D01*
X39058Y-23221D01*
X39070Y-23230D01*
X39080Y-23242D01*
X39088Y-23255D01*
X39093Y-23270D01*
X39094Y-23285D01*
X39095Y-23287D01*
X38386Y-25019D02*
X38386Y-25098D01*
X38386Y-25098D02*
X40354Y-25098D01*
X40354Y-25098D02*
X40354Y-25019D01*
X38386Y-22815D02*
X38386Y-22736D01*
X38386Y-22736D02*
X40354Y-22736D01*
X40354Y-22736D02*
X40354Y-22815D01*
X25394Y-34307D02*
X25392Y-34322D01*
X25388Y-34337D01*
X25380Y-34350D01*
X25371Y-34362D01*
X25359Y-34372D01*
X25345Y-34379D01*
X25330Y-34384D01*
X25315Y-34385D01*
X25301Y-34384D01*
X25286Y-34380D01*
X25272Y-34373D01*
X25260Y-34363D01*
X25250Y-34351D01*
X25243Y-34338D01*
X25238Y-34323D01*
X25237Y-34308D01*
X25238Y-34293D01*
X25242Y-34278D01*
X25249Y-34265D01*
X25259Y-34253D01*
X25270Y-34243D01*
X25284Y-34235D01*
X25299Y-34230D01*
X25314Y-34229D01*
X25328Y-34230D01*
X25343Y-34234D01*
X25357Y-34241D01*
X25369Y-34250D01*
X25379Y-34262D01*
X25387Y-34275D01*
X25392Y-34290D01*
X25393Y-34305D01*
X25394Y-34307D01*
X23862Y-33173D02*
X23787Y-33148D01*
X23787Y-33148D02*
X23179Y-35020D01*
X23179Y-35020D02*
X23254Y-35044D01*
X25958Y-33854D02*
X26033Y-33878D01*
X26033Y-33878D02*
X25425Y-35750D01*
X25425Y-35750D02*
X25350Y-35725D01*
X30404Y-49078D02*
X30786Y-49355D01*
X31250Y-48718D02*
X30868Y-48441D01*
X34495Y-25526D02*
X34109Y-25797D01*
X34561Y-26442D02*
X34947Y-26171D01*
G54D11*
X47605Y-27373D02*
X47767Y-27150D01*
X47852Y-27212D01*
X47866Y-27238D01*
X47868Y-27256D01*
X47864Y-27284D01*
X47840Y-27317D01*
X47814Y-27330D01*
X47796Y-27333D01*
X47767Y-27328D01*
X47683Y-27266D01*
X47945Y-27620D02*
X47818Y-27528D01*
X47881Y-27574D02*
X48043Y-27350D01*
X47999Y-27367D01*
X47963Y-27372D01*
X47934Y-27369D01*
G54D14*
X50455Y-45125D02*
X50205Y-45125D01*
X50431Y-44864D02*
X50443Y-44876D01*
X50455Y-44911D01*
X50455Y-44935D01*
X50443Y-44971D01*
X50419Y-44995D01*
X50396Y-45006D01*
X50348Y-45018D01*
X50312Y-45018D01*
X50265Y-45006D01*
X50241Y-44995D01*
X50217Y-44971D01*
X50205Y-44935D01*
X50205Y-44911D01*
X50217Y-44876D01*
X50229Y-44864D01*
X50455Y-44626D02*
X50455Y-44768D01*
X50455Y-44697D02*
X50205Y-44697D01*
X50241Y-44721D01*
X50265Y-44745D01*
X50277Y-44768D01*
G54D16*
X35765Y-44143D02*
X35762Y-44186D01*
X35719Y-44270D01*
X35679Y-44310D01*
X35601Y-44347D01*
X35525Y-44343D01*
X35469Y-44317D01*
X35378Y-44247D01*
X35325Y-44178D01*
X35275Y-44067D01*
X35259Y-44002D01*
X35265Y-43915D01*
X35307Y-43833D01*
X35348Y-43792D01*
X35426Y-43753D01*
X35464Y-43756D01*
X35855Y-43890D02*
X36058Y-43688D01*
X35921Y-44067D02*
X35691Y-43449D01*
X36204Y-43785D01*
X36345Y-43643D02*
X35974Y-43166D01*
X36135Y-43005D01*
X36194Y-42986D01*
X36232Y-42989D01*
X36287Y-43014D01*
X36341Y-43082D01*
X36355Y-43148D01*
X36353Y-43191D01*
X36330Y-43254D01*
X36169Y-43416D01*
X36732Y-43216D02*
X36810Y-43179D01*
X36911Y-43078D01*
X36934Y-43014D01*
X36937Y-42971D01*
X36921Y-42906D01*
X36886Y-42860D01*
X36831Y-42834D01*
X36792Y-42833D01*
X36734Y-42850D01*
X36636Y-42909D01*
X36577Y-42926D01*
X36540Y-42923D01*
X36484Y-42898D01*
X36449Y-42853D01*
X36434Y-42787D01*
X36436Y-42744D01*
X36459Y-42681D01*
X36560Y-42580D01*
X36638Y-42542D01*
X36979Y-42566D02*
X37120Y-42424D01*
X37376Y-42613D02*
X37173Y-42815D01*
X36802Y-42338D01*
X37004Y-42136D01*
X37557Y-42431D02*
X37186Y-41954D01*
X37800Y-42189D01*
X37429Y-41711D01*
X37964Y-41984D02*
X38043Y-41946D01*
X38144Y-41845D01*
X38166Y-41781D01*
X38169Y-41739D01*
X38154Y-41674D01*
X38118Y-41627D01*
X38063Y-41602D01*
X38025Y-41600D01*
X37967Y-41617D01*
X37869Y-41676D01*
X37810Y-41694D01*
X37772Y-41690D01*
X37717Y-41665D01*
X37681Y-41620D01*
X37666Y-41554D01*
X37668Y-41511D01*
X37692Y-41448D01*
X37792Y-41348D01*
X37871Y-41309D01*
X38115Y-41025D02*
X38196Y-40944D01*
X38255Y-40925D01*
X38330Y-40931D01*
X38421Y-41002D01*
X38545Y-41161D01*
X38595Y-41272D01*
X38591Y-41357D01*
X38567Y-41421D01*
X38487Y-41502D01*
X38429Y-41519D01*
X38353Y-41514D01*
X38262Y-41444D01*
X38138Y-41285D01*
X38088Y-41174D01*
X38093Y-41087D01*
X38115Y-41025D01*
X39093Y-40895D02*
X38775Y-40809D01*
X38851Y-41138D02*
X38480Y-40661D01*
X38641Y-40499D01*
X38699Y-40480D01*
X38737Y-40484D01*
X38793Y-40509D01*
X38846Y-40577D01*
X38861Y-40643D01*
X38859Y-40686D01*
X38835Y-40749D01*
X38674Y-40910D01*
G54D14*
X53934Y-39447D02*
X53922Y-39459D01*
X53887Y-39471D01*
X53863Y-39471D01*
X53827Y-39459D01*
X53803Y-39435D01*
X53792Y-39412D01*
X53780Y-39364D01*
X53780Y-39328D01*
X53792Y-39281D01*
X53803Y-39257D01*
X53827Y-39233D01*
X53863Y-39221D01*
X53887Y-39221D01*
X53922Y-39233D01*
X53934Y-39245D01*
X54149Y-39305D02*
X54149Y-39471D01*
X54089Y-39209D02*
X54030Y-39388D01*
X54184Y-39388D01*
X52832Y-39408D02*
X52820Y-39420D01*
X52785Y-39432D01*
X52761Y-39432D01*
X52725Y-39420D01*
X52701Y-39396D01*
X52690Y-39373D01*
X52678Y-39325D01*
X52678Y-39289D01*
X52690Y-39242D01*
X52701Y-39218D01*
X52725Y-39194D01*
X52761Y-39182D01*
X52785Y-39182D01*
X52820Y-39194D01*
X52832Y-39206D01*
X53059Y-39182D02*
X52940Y-39182D01*
X52928Y-39301D01*
X52940Y-39289D01*
X52963Y-39277D01*
X53023Y-39277D01*
X53047Y-39289D01*
X53059Y-39301D01*
X53070Y-39325D01*
X53070Y-39385D01*
X53059Y-39408D01*
X53047Y-39420D01*
X53023Y-39432D01*
X52963Y-39432D01*
X52940Y-39420D01*
X52928Y-39408D01*
G54D11*
X53477Y-42041D02*
X53661Y-42317D01*
X53661Y-42041D02*
X53477Y-42317D01*
X53911Y-42317D02*
X53754Y-42317D01*
X53832Y-42317D02*
X53832Y-42041D01*
X53806Y-42080D01*
X53780Y-42106D01*
X53754Y-42120D01*
X45123Y-23525D02*
X45155Y-23551D01*
X45217Y-23573D01*
X45246Y-23570D01*
X45263Y-23561D01*
X45284Y-23541D01*
X45293Y-23517D01*
X45290Y-23488D01*
X45282Y-23470D01*
X45262Y-23449D01*
X45217Y-23419D01*
X45197Y-23398D01*
X45189Y-23381D01*
X45186Y-23352D01*
X45195Y-23327D01*
X45216Y-23307D01*
X45233Y-23299D01*
X45262Y-23296D01*
X45324Y-23318D01*
X45356Y-23344D01*
X45513Y-23681D02*
X45365Y-23627D01*
X45439Y-23654D02*
X45533Y-23395D01*
X45495Y-23422D01*
X45462Y-23438D01*
X45433Y-23442D01*
X52144Y-28387D02*
X52162Y-28423D01*
X52209Y-28470D01*
X52236Y-28479D01*
X52255Y-28478D01*
X52283Y-28469D01*
X52301Y-28451D01*
X52310Y-28423D01*
X52311Y-28404D01*
X52302Y-28377D01*
X52274Y-28330D01*
X52264Y-28302D01*
X52264Y-28284D01*
X52274Y-28256D01*
X52293Y-28237D01*
X52320Y-28228D01*
X52339Y-28228D01*
X52366Y-28237D01*
X52413Y-28284D01*
X52431Y-28321D01*
X52497Y-28405D02*
X52515Y-28405D01*
X52543Y-28414D01*
X52590Y-28461D01*
X52599Y-28488D01*
X52599Y-28507D01*
X52590Y-28534D01*
X52571Y-28553D01*
X52534Y-28572D01*
X52310Y-28572D01*
X52431Y-28693D01*
X53604Y-31038D02*
X53587Y-31030D01*
X53562Y-30997D01*
X53554Y-30972D01*
X53554Y-30930D01*
X53572Y-30897D01*
X53593Y-30877D01*
X53639Y-30848D01*
X53676Y-30836D01*
X53731Y-30832D01*
X53759Y-30836D01*
X53792Y-30853D01*
X53817Y-30887D01*
X53825Y-30912D01*
X53825Y-30953D01*
X53816Y-30969D01*
X53660Y-31296D02*
X53611Y-31147D01*
X53635Y-31221D02*
X53898Y-31136D01*
X53853Y-31123D01*
X53820Y-31107D01*
X53799Y-31086D01*
X53741Y-31547D02*
X53693Y-31397D01*
X53717Y-31471D02*
X53979Y-31386D01*
X53934Y-31373D01*
X53901Y-31357D01*
X53880Y-31336D01*
X24753Y-31902D02*
X24736Y-31911D01*
X24695Y-31911D01*
X24670Y-31903D01*
X24636Y-31878D01*
X24620Y-31845D01*
X24616Y-31816D01*
X24620Y-31762D01*
X24632Y-31725D01*
X24661Y-31678D01*
X24681Y-31657D01*
X24714Y-31641D01*
X24756Y-31641D01*
X24780Y-31649D01*
X24814Y-31673D01*
X24822Y-31690D01*
X25055Y-31738D02*
X25005Y-31722D01*
X24976Y-31726D01*
X24960Y-31734D01*
X24923Y-31763D01*
X24894Y-31810D01*
X24862Y-31910D01*
X24866Y-31938D01*
X24874Y-31956D01*
X24895Y-31976D01*
X24945Y-31993D01*
X24974Y-31988D01*
X24991Y-31979D01*
X25011Y-31958D01*
X25032Y-31895D01*
X25027Y-31867D01*
X25019Y-31850D01*
X24998Y-31830D01*
X24948Y-31813D01*
X24919Y-31818D01*
X24903Y-31826D01*
X24882Y-31847D01*
X23418Y-40997D02*
X23371Y-40843D01*
X23269Y-40948D02*
X23354Y-40686D01*
X23454Y-40718D01*
X23475Y-40738D01*
X23483Y-40755D01*
X23487Y-40783D01*
X23475Y-40822D01*
X23455Y-40842D01*
X23438Y-40851D01*
X23409Y-40855D01*
X23310Y-40822D01*
X23668Y-41078D02*
X23519Y-41029D01*
X23593Y-41053D02*
X23678Y-40791D01*
X23642Y-40820D01*
X23609Y-40837D01*
X23580Y-40842D01*
X23841Y-40844D02*
X24016Y-40901D01*
X23818Y-41127D01*
X22560Y-38320D02*
X22513Y-38166D01*
X22410Y-38272D02*
X22496Y-38009D01*
X22595Y-38042D01*
X22616Y-38062D01*
X22625Y-38079D01*
X22629Y-38107D01*
X22617Y-38145D01*
X22596Y-38166D01*
X22580Y-38174D01*
X22551Y-38179D01*
X22451Y-38146D01*
X22870Y-38131D02*
X22820Y-38115D01*
X22791Y-38119D01*
X22775Y-38127D01*
X22738Y-38156D01*
X22709Y-38203D01*
X22677Y-38303D01*
X22681Y-38331D01*
X22689Y-38349D01*
X22710Y-38369D01*
X22760Y-38386D01*
X22789Y-38381D01*
X22806Y-38372D01*
X22826Y-38351D01*
X22847Y-38288D01*
X22842Y-38260D01*
X22834Y-38243D01*
X22813Y-38223D01*
X22763Y-38206D01*
X22734Y-38211D01*
X22718Y-38219D01*
X22697Y-38240D01*
X22827Y-39619D02*
X22780Y-39465D01*
X22678Y-39570D02*
X22763Y-39308D01*
X22863Y-39340D01*
X22884Y-39360D01*
X22892Y-39377D01*
X22896Y-39405D01*
X22884Y-39444D01*
X22864Y-39464D01*
X22847Y-39473D01*
X22818Y-39477D01*
X22719Y-39444D01*
X23077Y-39700D02*
X22928Y-39651D01*
X23002Y-39675D02*
X23087Y-39413D01*
X23051Y-39442D01*
X23018Y-39459D01*
X22989Y-39464D01*
X23255Y-39495D02*
X23272Y-39486D01*
X23300Y-39482D01*
X23363Y-39502D01*
X23384Y-39523D01*
X23392Y-39539D01*
X23397Y-39568D01*
X23388Y-39594D01*
X23364Y-39627D01*
X23165Y-39728D01*
X23327Y-39781D01*
X31367Y-24567D02*
X31215Y-24512D01*
X31238Y-24657D02*
X31080Y-24431D01*
X31166Y-24371D01*
X31194Y-24367D01*
X31213Y-24370D01*
X31238Y-24384D01*
X31261Y-24416D01*
X31265Y-24445D01*
X31262Y-24463D01*
X31248Y-24489D01*
X31162Y-24549D01*
X31582Y-24416D02*
X31453Y-24506D01*
X31517Y-24462D02*
X31359Y-24236D01*
X31360Y-24282D01*
X31354Y-24319D01*
X31340Y-24345D01*
X28685Y-26476D02*
X28666Y-26475D01*
X28631Y-26454D01*
X28614Y-26434D01*
X28599Y-26395D01*
X28603Y-26358D01*
X28614Y-26331D01*
X28647Y-26287D01*
X28676Y-26262D01*
X28725Y-26238D01*
X28754Y-26231D01*
X28790Y-26234D01*
X28826Y-26257D01*
X28843Y-26277D01*
X28858Y-26315D01*
X28856Y-26333D01*
X28924Y-26414D02*
X28943Y-26416D01*
X28969Y-26427D01*
X29012Y-26478D01*
X29018Y-26506D01*
X29017Y-26525D01*
X29005Y-26551D01*
X28985Y-26569D01*
X28946Y-26584D01*
X28724Y-26564D01*
X28834Y-26695D01*
G54D14*
X30704Y-30795D02*
X30834Y-30950D01*
X30857Y-30961D01*
X30874Y-30963D01*
X30900Y-30956D01*
X30937Y-30925D01*
X30948Y-30901D01*
X30949Y-30885D01*
X30943Y-30859D01*
X30812Y-30704D01*
X31165Y-30735D02*
X31056Y-30826D01*
X31110Y-30780D02*
X30950Y-30589D01*
X30954Y-30632D01*
X30951Y-30665D01*
X30941Y-30689D01*
G54D11*
X32745Y-24764D02*
X32593Y-24709D01*
X32616Y-24854D02*
X32458Y-24628D01*
X32544Y-24568D01*
X32572Y-24564D01*
X32591Y-24567D01*
X32616Y-24581D01*
X32639Y-24613D01*
X32643Y-24642D01*
X32640Y-24660D01*
X32626Y-24686D01*
X32540Y-24746D01*
X32688Y-24499D02*
X32691Y-24480D01*
X32705Y-24455D01*
X32759Y-24417D01*
X32788Y-24413D01*
X32806Y-24416D01*
X32832Y-24430D01*
X32847Y-24452D01*
X32859Y-24491D01*
X32820Y-24711D01*
X32960Y-24613D01*
X34122Y-24961D02*
X33970Y-24906D01*
X33993Y-25051D02*
X33835Y-24825D01*
X33921Y-24765D01*
X33949Y-24761D01*
X33968Y-24764D01*
X33993Y-24778D01*
X34016Y-24810D01*
X34020Y-24839D01*
X34017Y-24857D01*
X34003Y-24883D01*
X33917Y-24943D01*
X34039Y-24682D02*
X34179Y-24584D01*
X34164Y-24723D01*
X34196Y-24700D01*
X34225Y-24696D01*
X34243Y-24699D01*
X34269Y-24713D01*
X34307Y-24767D01*
X34311Y-24796D01*
X34308Y-24815D01*
X34294Y-24840D01*
X34230Y-24885D01*
X34201Y-24890D01*
X34181Y-24886D01*
X49379Y-43158D02*
X49365Y-42998D01*
X49243Y-43079D02*
X49381Y-42840D01*
X49472Y-42893D01*
X49488Y-42917D01*
X49493Y-42935D01*
X49491Y-42964D01*
X49471Y-42999D01*
X49447Y-43015D01*
X49429Y-43019D01*
X49400Y-43018D01*
X49309Y-42965D01*
X49597Y-42965D02*
X49618Y-43296D01*
X49756Y-43057D02*
X49459Y-43204D01*
X49893Y-43136D02*
X49916Y-43149D01*
X49932Y-43174D01*
X49937Y-43191D01*
X49935Y-43221D01*
X49920Y-43273D01*
X49887Y-43330D01*
X49850Y-43369D01*
X49825Y-43385D01*
X49807Y-43390D01*
X49778Y-43388D01*
X49755Y-43375D01*
X49739Y-43351D01*
X49734Y-43332D01*
X49736Y-43303D01*
X49751Y-43252D01*
X49784Y-43194D01*
X49822Y-43155D01*
X49846Y-43139D01*
X49864Y-43134D01*
X49893Y-43136D01*
X33680Y-51614D02*
X33687Y-51631D01*
X33682Y-51672D01*
X33671Y-51696D01*
X33642Y-51726D01*
X33607Y-51739D01*
X33578Y-51739D01*
X33524Y-51729D01*
X33489Y-51712D01*
X33446Y-51678D01*
X33428Y-51655D01*
X33416Y-51621D01*
X33421Y-51579D01*
X33432Y-51556D01*
X33460Y-51526D01*
X33477Y-51519D01*
X33760Y-51505D02*
X33782Y-51458D01*
X33781Y-51428D01*
X33774Y-51411D01*
X33750Y-51371D01*
X33707Y-51336D01*
X33612Y-51292D01*
X33583Y-51293D01*
X33566Y-51299D01*
X33543Y-51317D01*
X33521Y-51365D01*
X33521Y-51394D01*
X33528Y-51412D01*
X33546Y-51434D01*
X33606Y-51462D01*
X33635Y-51461D01*
X33652Y-51455D01*
X33676Y-51437D01*
X33698Y-51389D01*
X33696Y-51360D01*
X33690Y-51343D01*
X33672Y-51320D01*
X31567Y-50279D02*
X31548Y-50282D01*
X31509Y-50270D01*
X31488Y-50255D01*
X31463Y-50221D01*
X31458Y-50184D01*
X31463Y-50155D01*
X31483Y-50104D01*
X31506Y-50073D01*
X31548Y-50038D01*
X31574Y-50024D01*
X31610Y-50018D01*
X31650Y-50031D01*
X31671Y-50047D01*
X31695Y-50080D01*
X31698Y-50098D01*
X31772Y-50266D02*
X31758Y-50240D01*
X31755Y-50222D01*
X31761Y-50192D01*
X31768Y-50182D01*
X31794Y-50168D01*
X31812Y-50165D01*
X31841Y-50170D01*
X31884Y-50201D01*
X31897Y-50227D01*
X31900Y-50245D01*
X31895Y-50274D01*
X31888Y-50284D01*
X31861Y-50299D01*
X31843Y-50302D01*
X31815Y-50297D01*
X31772Y-50266D01*
X31743Y-50261D01*
X31725Y-50264D01*
X31698Y-50278D01*
X31668Y-50320D01*
X31663Y-50349D01*
X31665Y-50368D01*
X31679Y-50393D01*
X31722Y-50425D01*
X31750Y-50429D01*
X31769Y-50426D01*
X31795Y-50412D01*
X31825Y-50370D01*
X31831Y-50341D01*
X31828Y-50323D01*
X31815Y-50297D01*
X28519Y-48686D02*
X28522Y-48525D01*
X28392Y-48593D02*
X28554Y-48370D01*
X28639Y-48432D01*
X28653Y-48458D01*
X28655Y-48476D01*
X28651Y-48504D01*
X28627Y-48537D01*
X28601Y-48550D01*
X28583Y-48553D01*
X28554Y-48548D01*
X28470Y-48486D01*
X28740Y-48651D02*
X28726Y-48625D01*
X28723Y-48607D01*
X28729Y-48577D01*
X28736Y-48567D01*
X28762Y-48553D01*
X28780Y-48550D01*
X28809Y-48555D01*
X28852Y-48586D01*
X28865Y-48612D01*
X28868Y-48630D01*
X28863Y-48659D01*
X28856Y-48669D01*
X28829Y-48684D01*
X28811Y-48687D01*
X28783Y-48682D01*
X28740Y-48651D01*
X28711Y-48646D01*
X28693Y-48649D01*
X28666Y-48663D01*
X28636Y-48705D01*
X28631Y-48734D01*
X28633Y-48753D01*
X28647Y-48778D01*
X28690Y-48810D01*
X28718Y-48814D01*
X28737Y-48811D01*
X28763Y-48797D01*
X28793Y-48755D01*
X28799Y-48726D01*
X28796Y-48708D01*
X28783Y-48682D01*
X26010Y-48490D02*
X26013Y-48329D01*
X25883Y-48398D02*
X26045Y-48174D01*
X26130Y-48236D01*
X26144Y-48262D01*
X26147Y-48280D01*
X26142Y-48309D01*
X26118Y-48341D01*
X26093Y-48355D01*
X26074Y-48357D01*
X26046Y-48353D01*
X25961Y-48291D01*
X26223Y-48645D02*
X26096Y-48552D01*
X26159Y-48598D02*
X26321Y-48375D01*
X26277Y-48391D01*
X26241Y-48397D01*
X26212Y-48393D01*
X26523Y-48635D02*
X26415Y-48784D01*
X26531Y-48511D02*
X26363Y-48632D01*
X26500Y-48732D01*
X25774Y-49395D02*
X25777Y-49234D01*
X25647Y-49303D02*
X25809Y-49079D01*
X25894Y-49141D01*
X25908Y-49167D01*
X25911Y-49185D01*
X25906Y-49214D01*
X25882Y-49246D01*
X25857Y-49260D01*
X25838Y-49262D01*
X25810Y-49258D01*
X25725Y-49196D01*
X25987Y-49550D02*
X25860Y-49457D01*
X25923Y-49503D02*
X26085Y-49280D01*
X26041Y-49296D01*
X26005Y-49302D01*
X25976Y-49298D01*
X26094Y-49627D02*
X26136Y-49658D01*
X26165Y-49663D01*
X26184Y-49659D01*
X26228Y-49643D01*
X26270Y-49608D01*
X26331Y-49523D01*
X26336Y-49494D01*
X26333Y-49476D01*
X26320Y-49450D01*
X26277Y-49419D01*
X26248Y-49414D01*
X26230Y-49417D01*
X26204Y-49431D01*
X26166Y-49484D01*
X26161Y-49513D01*
X26164Y-49531D01*
X26176Y-49557D01*
X26219Y-49589D01*
X26249Y-49593D01*
X26267Y-49590D01*
X26293Y-49576D01*
X53340Y-47153D02*
X53208Y-47245D01*
X53340Y-47310D02*
X53064Y-47310D01*
X53064Y-47205D01*
X53077Y-47179D01*
X53090Y-47166D01*
X53116Y-47153D01*
X53156Y-47153D01*
X53182Y-47166D01*
X53195Y-47179D01*
X53208Y-47205D01*
X53208Y-47310D01*
X53208Y-46982D02*
X53340Y-46982D01*
X53064Y-47074D02*
X53208Y-46982D01*
X53064Y-46890D01*
X53195Y-46705D02*
X53208Y-46666D01*
X53221Y-46653D01*
X53248Y-46640D01*
X53287Y-46640D01*
X53313Y-46653D01*
X53327Y-46666D01*
X53340Y-46692D01*
X53340Y-46797D01*
X53064Y-46797D01*
X53064Y-46705D01*
X53077Y-46679D01*
X53090Y-46666D01*
X53116Y-46653D01*
X53143Y-46653D01*
X53169Y-46666D01*
X53182Y-46679D01*
X53195Y-46705D01*
X53195Y-46797D01*
X53064Y-46469D02*
X53064Y-46442D01*
X53077Y-46416D01*
X53090Y-46403D01*
X53116Y-46390D01*
X53169Y-46377D01*
X53235Y-46377D01*
X53287Y-46390D01*
X53313Y-46403D01*
X53327Y-46416D01*
X53340Y-46442D01*
X53340Y-46469D01*
X53327Y-46495D01*
X53313Y-46508D01*
X53287Y-46521D01*
X53235Y-46534D01*
X53169Y-46534D01*
X53116Y-46521D01*
X53090Y-46508D01*
X53077Y-46495D01*
X53064Y-46469D01*
X48063Y-48349D02*
X47971Y-48217D01*
X47906Y-48349D02*
X47906Y-48073D01*
X48011Y-48073D01*
X48037Y-48086D01*
X48050Y-48099D01*
X48063Y-48125D01*
X48063Y-48165D01*
X48050Y-48191D01*
X48037Y-48204D01*
X48011Y-48217D01*
X47906Y-48217D01*
X48234Y-48217D02*
X48234Y-48349D01*
X48142Y-48073D02*
X48234Y-48217D01*
X48326Y-48073D01*
X48471Y-48073D02*
X48498Y-48073D01*
X48524Y-48086D01*
X48537Y-48099D01*
X48550Y-48125D01*
X48563Y-48178D01*
X48563Y-48244D01*
X48550Y-48296D01*
X48537Y-48322D01*
X48524Y-48336D01*
X48498Y-48349D01*
X48471Y-48349D01*
X48445Y-48336D01*
X48432Y-48322D01*
X48419Y-48296D01*
X48406Y-48244D01*
X48406Y-48178D01*
X48419Y-48125D01*
X48432Y-48099D01*
X48445Y-48086D01*
X48471Y-48073D01*
X33230Y-52676D02*
X33237Y-52694D01*
X33232Y-52735D01*
X33221Y-52758D01*
X33193Y-52789D01*
X33157Y-52801D01*
X33128Y-52802D01*
X33075Y-52791D01*
X33039Y-52775D01*
X32997Y-52741D01*
X32979Y-52718D01*
X32966Y-52683D01*
X32971Y-52642D01*
X32982Y-52618D01*
X33010Y-52588D01*
X33028Y-52582D01*
X33365Y-52449D02*
X33299Y-52592D01*
X33332Y-52521D02*
X33082Y-52404D01*
X33106Y-52444D01*
X33119Y-52479D01*
X33121Y-52508D01*
X33184Y-52248D02*
X33177Y-52230D01*
X33177Y-52201D01*
X33204Y-52141D01*
X33227Y-52123D01*
X33245Y-52117D01*
X33274Y-52116D01*
X33298Y-52128D01*
X33328Y-52156D01*
X33404Y-52366D01*
X33477Y-52211D01*
X35526Y-54787D02*
X35397Y-54765D01*
X35445Y-54493D01*
X35647Y-54555D02*
X35663Y-54544D01*
X35690Y-54536D01*
X35755Y-54547D01*
X35779Y-54565D01*
X35789Y-54580D01*
X35798Y-54608D01*
X35793Y-54634D01*
X35773Y-54670D01*
X35590Y-54799D01*
X35759Y-54828D01*
X46614Y-51289D02*
X46667Y-51137D01*
X46522Y-51162D02*
X46745Y-50999D01*
X46807Y-51084D01*
X46812Y-51113D01*
X46809Y-51131D01*
X46796Y-51157D01*
X46763Y-51180D01*
X46735Y-51185D01*
X46716Y-51182D01*
X46691Y-51169D01*
X46629Y-51084D01*
X46692Y-51395D02*
X46723Y-51437D01*
X46749Y-51452D01*
X46768Y-51454D01*
X46815Y-51452D01*
X46865Y-51431D01*
X46950Y-51370D01*
X46964Y-51344D01*
X46966Y-51326D01*
X46962Y-51297D01*
X46931Y-51254D01*
X46905Y-51241D01*
X46887Y-51238D01*
X46858Y-51243D01*
X46804Y-51282D01*
X46791Y-51307D01*
X46788Y-51325D01*
X46792Y-51355D01*
X46823Y-51398D01*
X46850Y-51410D01*
X46868Y-51413D01*
X46897Y-51409D01*
X45041Y-53780D02*
X45093Y-53628D01*
X44948Y-53653D02*
X45172Y-53491D01*
X45233Y-53576D01*
X45238Y-53604D01*
X45235Y-53622D01*
X45222Y-53648D01*
X45190Y-53672D01*
X45161Y-53676D01*
X45143Y-53674D01*
X45117Y-53660D01*
X45055Y-53575D01*
X45195Y-53993D02*
X45103Y-53866D01*
X45149Y-53929D02*
X45372Y-53766D01*
X45325Y-53768D01*
X45289Y-53763D01*
X45262Y-53750D01*
X45566Y-54033D02*
X45489Y-53927D01*
X45375Y-53993D01*
X45393Y-53996D01*
X45419Y-54009D01*
X45458Y-54063D01*
X45462Y-54091D01*
X45460Y-54110D01*
X45446Y-54135D01*
X45393Y-54174D01*
X45364Y-54179D01*
X45345Y-54177D01*
X45319Y-54163D01*
X45281Y-54110D01*
X45276Y-54081D01*
X45280Y-54062D01*
X45671Y-54607D02*
X45723Y-54455D01*
X45578Y-54480D02*
X45802Y-54318D01*
X45863Y-54403D01*
X45868Y-54431D01*
X45865Y-54449D01*
X45852Y-54475D01*
X45820Y-54499D01*
X45791Y-54503D01*
X45773Y-54501D01*
X45747Y-54487D01*
X45685Y-54402D01*
X45935Y-54546D02*
X45953Y-54549D01*
X45979Y-54562D01*
X46018Y-54615D01*
X46023Y-54644D01*
X46020Y-54662D01*
X46007Y-54688D01*
X45985Y-54704D01*
X45946Y-54716D01*
X45725Y-54681D01*
X45825Y-54820D01*
X46149Y-54796D02*
X46165Y-54818D01*
X46170Y-54846D01*
X46167Y-54864D01*
X46154Y-54890D01*
X46118Y-54932D01*
X46065Y-54971D01*
X46015Y-54991D01*
X45987Y-54995D01*
X45968Y-54993D01*
X45942Y-54980D01*
X45926Y-54958D01*
X45921Y-54929D01*
X45925Y-54911D01*
X45938Y-54885D01*
X45973Y-54844D01*
X46026Y-54805D01*
X46077Y-54784D01*
X46105Y-54779D01*
X46123Y-54782D01*
X46149Y-54796D01*
X51205Y-49740D02*
X51203Y-49759D01*
X51179Y-49793D01*
X51158Y-49808D01*
X51118Y-49821D01*
X51081Y-49815D01*
X51055Y-49801D01*
X51013Y-49766D01*
X50990Y-49734D01*
X50970Y-49684D01*
X50965Y-49655D01*
X50971Y-49619D01*
X50995Y-49585D01*
X51017Y-49570D01*
X51056Y-49557D01*
X51074Y-49560D01*
X51434Y-49608D02*
X51307Y-49700D01*
X51370Y-49654D02*
X51207Y-49431D01*
X51209Y-49478D01*
X51204Y-49514D01*
X51191Y-49541D01*
X51410Y-49284D02*
X51432Y-49268D01*
X51460Y-49263D01*
X51478Y-49266D01*
X51504Y-49279D01*
X51546Y-49315D01*
X51585Y-49368D01*
X51605Y-49418D01*
X51609Y-49446D01*
X51607Y-49465D01*
X51594Y-49491D01*
X51572Y-49507D01*
X51543Y-49512D01*
X51525Y-49508D01*
X51499Y-49495D01*
X51458Y-49460D01*
X51419Y-49407D01*
X51398Y-49356D01*
X51393Y-49328D01*
X51396Y-49310D01*
X51410Y-49284D01*
X47672Y-24939D02*
X47512Y-24953D01*
X47593Y-25075D02*
X47354Y-24937D01*
X47407Y-24846D01*
X47431Y-24830D01*
X47449Y-24825D01*
X47478Y-24827D01*
X47513Y-24847D01*
X47529Y-24871D01*
X47533Y-24889D01*
X47532Y-24918D01*
X47479Y-25009D01*
X47631Y-24642D02*
X47790Y-24734D01*
X47507Y-24646D02*
X47645Y-24801D01*
X47730Y-24654D01*
X52841Y-47934D02*
X52855Y-47947D01*
X52868Y-47986D01*
X52868Y-48012D01*
X52855Y-48052D01*
X52828Y-48078D01*
X52802Y-48091D01*
X52749Y-48104D01*
X52710Y-48104D01*
X52657Y-48091D01*
X52631Y-48078D01*
X52605Y-48052D01*
X52592Y-48012D01*
X52592Y-47986D01*
X52605Y-47947D01*
X52618Y-47934D01*
X52855Y-47828D02*
X52868Y-47789D01*
X52868Y-47723D01*
X52855Y-47697D01*
X52841Y-47684D01*
X52815Y-47671D01*
X52789Y-47671D01*
X52763Y-47684D01*
X52749Y-47697D01*
X52736Y-47723D01*
X52723Y-47776D01*
X52710Y-47802D01*
X52697Y-47815D01*
X52671Y-47828D01*
X52644Y-47828D01*
X52618Y-47815D01*
X52605Y-47802D01*
X52592Y-47776D01*
X52592Y-47710D01*
X52605Y-47671D01*
X52592Y-47500D02*
X52592Y-47473D01*
X52605Y-47447D01*
X52618Y-47434D01*
X52644Y-47421D01*
X52697Y-47408D01*
X52763Y-47408D01*
X52815Y-47421D01*
X52841Y-47434D01*
X52855Y-47447D01*
X52868Y-47473D01*
X52868Y-47500D01*
X52855Y-47526D01*
X52841Y-47539D01*
X52815Y-47552D01*
X52763Y-47565D01*
X52697Y-47565D01*
X52644Y-47552D01*
X52618Y-47539D01*
X52605Y-47526D01*
X52592Y-47500D01*
X50519Y-27002D02*
X50360Y-26973D01*
X50408Y-27113D02*
X50212Y-26918D01*
X50287Y-26843D01*
X50314Y-26834D01*
X50333Y-26834D01*
X50360Y-26843D01*
X50389Y-26872D01*
X50398Y-26899D01*
X50398Y-26918D01*
X50389Y-26945D01*
X50314Y-27019D01*
X50500Y-26630D02*
X50408Y-26722D01*
X50491Y-26824D01*
X50491Y-26806D01*
X50500Y-26778D01*
X50547Y-26732D01*
X50575Y-26722D01*
X50593Y-26722D01*
X50620Y-26732D01*
X50667Y-26778D01*
X50676Y-26806D01*
X50677Y-26825D01*
X50668Y-26853D01*
X50621Y-26899D01*
X50594Y-26908D01*
X50575Y-26908D01*
X55073Y-40755D02*
X55073Y-40886D01*
X54797Y-40886D01*
X55073Y-40519D02*
X55073Y-40676D01*
X55073Y-40598D02*
X54797Y-40598D01*
X54836Y-40624D01*
X54862Y-40650D01*
X54876Y-40676D01*
X55636Y-43235D02*
X55650Y-43248D01*
X55663Y-43287D01*
X55663Y-43313D01*
X55650Y-43353D01*
X55623Y-43379D01*
X55597Y-43392D01*
X55544Y-43405D01*
X55505Y-43405D01*
X55452Y-43392D01*
X55426Y-43379D01*
X55400Y-43353D01*
X55387Y-43313D01*
X55387Y-43287D01*
X55400Y-43248D01*
X55413Y-43235D01*
X55663Y-42972D02*
X55663Y-43129D01*
X55663Y-43051D02*
X55387Y-43051D01*
X55426Y-43077D01*
X55452Y-43103D01*
X55466Y-43129D01*
X53999Y-38942D02*
X53871Y-38844D01*
X53850Y-38990D02*
X53765Y-38728D01*
X53865Y-38695D01*
X53893Y-38699D01*
X53910Y-38708D01*
X53930Y-38728D01*
X53942Y-38767D01*
X53938Y-38795D01*
X53930Y-38812D01*
X53909Y-38832D01*
X53809Y-38864D01*
X54249Y-38860D02*
X54100Y-38909D01*
X54174Y-38885D02*
X54089Y-38622D01*
X54076Y-38667D01*
X54060Y-38700D01*
X54039Y-38721D01*
X54327Y-38545D02*
X54352Y-38537D01*
X54381Y-38541D01*
X54398Y-38549D01*
X54418Y-38570D01*
X54447Y-38616D01*
X54467Y-38679D01*
X54471Y-38733D01*
X54467Y-38761D01*
X54458Y-38779D01*
X54438Y-38799D01*
X54412Y-38807D01*
X54383Y-38803D01*
X54367Y-38794D01*
X54346Y-38773D01*
X54318Y-38728D01*
X54297Y-38665D01*
X54293Y-38610D01*
X54298Y-38582D01*
X54306Y-38565D01*
X54327Y-38545D01*
X55928Y-38390D02*
X55800Y-38292D01*
X55779Y-38438D02*
X55694Y-38176D01*
X55794Y-38143D01*
X55822Y-38147D01*
X55839Y-38156D01*
X55859Y-38176D01*
X55871Y-38215D01*
X55867Y-38243D01*
X55859Y-38260D01*
X55838Y-38280D01*
X55738Y-38312D01*
X55952Y-38119D02*
X55960Y-38103D01*
X55981Y-38082D01*
X56044Y-38062D01*
X56072Y-38066D01*
X56089Y-38075D01*
X56109Y-38095D01*
X56118Y-38121D01*
X56117Y-38162D01*
X56016Y-38361D01*
X56178Y-38308D01*
X56429Y-38227D02*
X56279Y-38275D01*
X56353Y-38251D02*
X56268Y-37989D01*
X56255Y-38034D01*
X56239Y-38067D01*
X56218Y-38088D01*
X54943Y-38705D02*
X54815Y-38607D01*
X54794Y-38753D02*
X54709Y-38491D01*
X54809Y-38458D01*
X54837Y-38462D01*
X54854Y-38471D01*
X54874Y-38491D01*
X54886Y-38530D01*
X54882Y-38558D01*
X54874Y-38575D01*
X54853Y-38595D01*
X54753Y-38627D01*
X55193Y-38623D02*
X55044Y-38672D01*
X55118Y-38648D02*
X55033Y-38385D01*
X55020Y-38430D01*
X55004Y-38463D01*
X54983Y-38484D01*
X55334Y-38288D02*
X55283Y-38304D01*
X55262Y-38324D01*
X55254Y-38341D01*
X55241Y-38386D01*
X55245Y-38440D01*
X55278Y-38540D01*
X55298Y-38561D01*
X55315Y-38570D01*
X55344Y-38574D01*
X55394Y-38558D01*
X55415Y-38538D01*
X55423Y-38520D01*
X55427Y-38492D01*
X55407Y-38429D01*
X55386Y-38408D01*
X55370Y-38400D01*
X55341Y-38395D01*
X55291Y-38412D01*
X55270Y-38432D01*
X55262Y-38449D01*
X55257Y-38477D01*
X51677Y-32148D02*
X51660Y-32139D01*
X51635Y-32106D01*
X51627Y-32082D01*
X51627Y-32040D01*
X51645Y-32007D01*
X51666Y-31986D01*
X51712Y-31957D01*
X51749Y-31945D01*
X51803Y-31941D01*
X51832Y-31946D01*
X51865Y-31962D01*
X51890Y-31996D01*
X51898Y-32021D01*
X51897Y-32062D01*
X51889Y-32079D01*
X51942Y-32158D02*
X51995Y-32321D01*
X51867Y-32266D01*
X51879Y-32304D01*
X51875Y-32332D01*
X51866Y-32349D01*
X51846Y-32369D01*
X51783Y-32390D01*
X51754Y-32385D01*
X51737Y-32377D01*
X51716Y-32357D01*
X51692Y-32281D01*
X51696Y-32253D01*
X51705Y-32235D01*
X49559Y-31134D02*
X49587Y-30976D01*
X49448Y-31023D02*
X49643Y-30828D01*
X49717Y-30902D01*
X49727Y-30930D01*
X49727Y-30948D01*
X49717Y-30976D01*
X49689Y-31004D01*
X49661Y-31013D01*
X49643Y-31013D01*
X49616Y-31004D01*
X49541Y-30930D01*
X49745Y-31320D02*
X49634Y-31209D01*
X49689Y-31264D02*
X49884Y-31069D01*
X49838Y-31078D01*
X49801Y-31078D01*
X49773Y-31070D01*
X49931Y-31506D02*
X49820Y-31395D01*
X49875Y-31450D02*
X50070Y-31255D01*
X50024Y-31264D01*
X49987Y-31264D01*
X49959Y-31256D01*
X45746Y-27126D02*
X45753Y-27144D01*
X45748Y-27185D01*
X45736Y-27208D01*
X45707Y-27238D01*
X45672Y-27250D01*
X45642Y-27250D01*
X45589Y-27239D01*
X45554Y-27222D01*
X45512Y-27187D01*
X45494Y-27164D01*
X45483Y-27129D01*
X45488Y-27087D01*
X45500Y-27064D01*
X45529Y-27034D01*
X45546Y-27028D01*
X45886Y-26902D02*
X45817Y-27043D01*
X45851Y-26973D02*
X45603Y-26852D01*
X45627Y-26892D01*
X45639Y-26927D01*
X45640Y-26956D01*
X45678Y-26698D02*
X45753Y-26544D01*
X45807Y-26673D01*
X45825Y-26637D01*
X45848Y-26619D01*
X45865Y-26613D01*
X45894Y-26613D01*
X45954Y-26642D01*
X45971Y-26665D01*
X45978Y-26683D01*
X45978Y-26712D01*
X45944Y-26783D01*
X45921Y-26801D01*
X45902Y-26807D01*
X47644Y-29302D02*
X47806Y-29079D01*
X47859Y-29117D01*
X47883Y-29151D01*
X47889Y-29188D01*
X47884Y-29216D01*
X47864Y-29267D01*
X47841Y-29298D01*
X47799Y-29334D01*
X47773Y-29347D01*
X47737Y-29353D01*
X47697Y-29340D01*
X47644Y-29302D01*
X48004Y-29255D02*
X48022Y-29252D01*
X48050Y-29257D01*
X48104Y-29295D01*
X48117Y-29321D01*
X48120Y-29339D01*
X48115Y-29368D01*
X48100Y-29390D01*
X48066Y-29414D01*
X47845Y-29449D01*
X47984Y-29549D01*
X43577Y-23406D02*
X43445Y-23498D01*
X43577Y-23563D02*
X43301Y-23563D01*
X43301Y-23458D01*
X43314Y-23432D01*
X43327Y-23419D01*
X43353Y-23406D01*
X43393Y-23406D01*
X43419Y-23419D01*
X43432Y-23432D01*
X43445Y-23458D01*
X43445Y-23563D01*
X43577Y-23143D02*
X43577Y-23300D01*
X43577Y-23222D02*
X43301Y-23222D01*
X43340Y-23248D01*
X43366Y-23274D01*
X43380Y-23300D01*
X43419Y-22985D02*
X43406Y-23011D01*
X43393Y-23024D01*
X43366Y-23037D01*
X43353Y-23037D01*
X43327Y-23024D01*
X43314Y-23011D01*
X43301Y-22985D01*
X43301Y-22932D01*
X43314Y-22906D01*
X43327Y-22893D01*
X43353Y-22880D01*
X43366Y-22880D01*
X43393Y-22893D01*
X43406Y-22906D01*
X43419Y-22932D01*
X43419Y-22985D01*
X43432Y-23011D01*
X43445Y-23024D01*
X43472Y-23037D01*
X43524Y-23037D01*
X43550Y-23024D01*
X43564Y-23011D01*
X43577Y-22985D01*
X43577Y-22932D01*
X43564Y-22906D01*
X43550Y-22893D01*
X43524Y-22880D01*
X43472Y-22880D01*
X43445Y-22893D01*
X43432Y-22906D01*
X43419Y-22932D01*
X36508Y-24037D02*
X36498Y-24053D01*
X36462Y-24072D01*
X36436Y-24077D01*
X36395Y-24071D01*
X36364Y-24049D01*
X36347Y-24026D01*
X36325Y-23976D01*
X36318Y-23937D01*
X36322Y-23883D01*
X36330Y-23855D01*
X36351Y-23825D01*
X36388Y-23805D01*
X36414Y-23801D01*
X36455Y-23807D01*
X36470Y-23817D01*
X36556Y-23776D02*
X36737Y-23744D01*
X36669Y-24036D01*
X43577Y-24312D02*
X43445Y-24404D01*
X43577Y-24469D02*
X43301Y-24469D01*
X43301Y-24364D01*
X43314Y-24338D01*
X43327Y-24325D01*
X43353Y-24312D01*
X43393Y-24312D01*
X43419Y-24325D01*
X43432Y-24338D01*
X43445Y-24364D01*
X43445Y-24469D01*
X43577Y-24049D02*
X43577Y-24206D01*
X43577Y-24128D02*
X43301Y-24128D01*
X43340Y-24154D01*
X43366Y-24180D01*
X43380Y-24206D01*
X43301Y-23957D02*
X43301Y-23786D01*
X43406Y-23878D01*
X43406Y-23838D01*
X43419Y-23812D01*
X43432Y-23799D01*
X43458Y-23786D01*
X43524Y-23786D01*
X43550Y-23799D01*
X43564Y-23812D01*
X43577Y-23838D01*
X43577Y-23917D01*
X43564Y-23943D01*
X43550Y-23957D01*
X40702Y-25388D02*
X40610Y-25256D01*
X40545Y-25388D02*
X40545Y-25112D01*
X40650Y-25112D01*
X40676Y-25125D01*
X40689Y-25138D01*
X40702Y-25164D01*
X40702Y-25204D01*
X40689Y-25230D01*
X40676Y-25243D01*
X40650Y-25256D01*
X40545Y-25256D01*
X40794Y-25112D02*
X40978Y-25112D01*
X40860Y-25388D01*
X40436Y-54684D02*
X40217Y-54726D01*
X40194Y-54744D01*
X40183Y-54759D01*
X40175Y-54787D01*
X40185Y-54839D01*
X40203Y-54862D01*
X40219Y-54872D01*
X40247Y-54880D01*
X40466Y-54838D01*
X40463Y-54959D02*
X40478Y-54970D01*
X40496Y-54993D01*
X40509Y-55058D01*
X40501Y-55086D01*
X40491Y-55101D01*
X40467Y-55119D01*
X40441Y-55124D01*
X40400Y-55118D01*
X40215Y-54993D01*
X40248Y-55161D01*
G54D14*
X41102Y-52331D02*
X41245Y-52331D01*
X41173Y-52581D02*
X41173Y-52331D01*
X41328Y-52581D02*
X41328Y-52331D01*
X41423Y-52331D01*
X41447Y-52343D01*
X41458Y-52355D01*
X41470Y-52379D01*
X41470Y-52415D01*
X41458Y-52438D01*
X41447Y-52450D01*
X41423Y-52462D01*
X41328Y-52462D01*
X41708Y-52581D02*
X41566Y-52581D01*
X41637Y-52581D02*
X41637Y-52331D01*
X41613Y-52367D01*
X41589Y-52391D01*
X41566Y-52403D01*
X42953Y-52882D02*
X43096Y-52882D01*
X43024Y-53132D02*
X43024Y-52882D01*
X43179Y-53132D02*
X43179Y-52882D01*
X43274Y-52882D01*
X43298Y-52894D01*
X43309Y-52906D01*
X43321Y-52930D01*
X43321Y-52966D01*
X43309Y-52989D01*
X43298Y-53001D01*
X43274Y-53013D01*
X43179Y-53013D01*
X43417Y-52906D02*
X43429Y-52894D01*
X43452Y-52882D01*
X43512Y-52882D01*
X43536Y-52894D01*
X43548Y-52906D01*
X43559Y-52930D01*
X43559Y-52954D01*
X43548Y-52989D01*
X43405Y-53132D01*
X43559Y-53132D01*
X39104Y-54724D02*
X39116Y-54688D01*
X39128Y-54677D01*
X39152Y-54665D01*
X39188Y-54665D01*
X39211Y-54677D01*
X39223Y-54688D01*
X39235Y-54712D01*
X39235Y-54807D01*
X38985Y-54807D01*
X38985Y-54724D01*
X38997Y-54700D01*
X39009Y-54688D01*
X39033Y-54677D01*
X39057Y-54677D01*
X39080Y-54688D01*
X39092Y-54700D01*
X39104Y-54724D01*
X39104Y-54807D01*
X38985Y-54593D02*
X38985Y-54450D01*
X39235Y-54522D02*
X38985Y-54522D01*
X39235Y-54237D02*
X39235Y-54379D01*
X39235Y-54308D02*
X38985Y-54308D01*
X39021Y-54332D01*
X39045Y-54356D01*
X39057Y-54379D01*
X31499Y-53511D02*
X31283Y-53386D01*
X31312Y-53335D01*
X31341Y-53310D01*
X31374Y-53301D01*
X31400Y-53303D01*
X31447Y-53316D01*
X31478Y-53334D01*
X31513Y-53369D01*
X31528Y-53390D01*
X31537Y-53423D01*
X31529Y-53460D01*
X31499Y-53511D01*
X31689Y-53182D02*
X31618Y-53305D01*
X31654Y-53243D02*
X31437Y-53118D01*
X31457Y-53157D01*
X31465Y-53190D01*
X31464Y-53216D01*
X37812Y-53783D02*
X38012Y-53818D01*
X38037Y-53812D01*
X38051Y-53802D01*
X38067Y-53780D01*
X38075Y-53733D01*
X38067Y-53707D01*
X38057Y-53694D01*
X38037Y-53679D01*
X37837Y-53643D01*
X37854Y-53549D02*
X37880Y-53397D01*
X37959Y-53495D01*
X37966Y-53460D01*
X37982Y-53438D01*
X37996Y-53429D01*
X38021Y-53422D01*
X38080Y-53432D01*
X38101Y-53447D01*
X38111Y-53461D01*
X38118Y-53487D01*
X38106Y-53558D01*
X38090Y-53578D01*
X38076Y-53588D01*
G54D11*
X28621Y-52547D02*
X28515Y-52470D01*
X28677Y-52247D01*
X28781Y-52484D02*
X28855Y-52538D01*
X28802Y-52678D02*
X28696Y-52601D01*
X28858Y-52378D01*
X28964Y-52455D01*
X28898Y-52748D02*
X29060Y-52525D01*
X29113Y-52563D01*
X29137Y-52597D01*
X29143Y-52633D01*
X29138Y-52662D01*
X29118Y-52712D01*
X29095Y-52744D01*
X29053Y-52779D01*
X29027Y-52793D01*
X28990Y-52799D01*
X28950Y-52786D01*
X28898Y-52748D01*
X29262Y-52671D02*
X29400Y-52772D01*
X29264Y-52802D01*
X29296Y-52826D01*
X29309Y-52852D01*
X29312Y-52870D01*
X29308Y-52899D01*
X29269Y-52952D01*
X29243Y-52965D01*
X29224Y-52969D01*
X29196Y-52964D01*
X29132Y-52918D01*
X29118Y-52892D01*
X29115Y-52873D01*
X49382Y-53146D02*
X49276Y-53223D01*
X49114Y-53000D01*
X49371Y-52975D02*
X49445Y-52921D01*
X49562Y-53015D02*
X49456Y-53092D01*
X49294Y-52869D01*
X49400Y-52792D01*
X49659Y-52945D02*
X49496Y-52722D01*
X49549Y-52684D01*
X49589Y-52671D01*
X49625Y-52676D01*
X49651Y-52690D01*
X49693Y-52725D01*
X49716Y-52757D01*
X49736Y-52807D01*
X49741Y-52836D01*
X49736Y-52873D01*
X49711Y-52907D01*
X49659Y-52945D01*
X49869Y-52565D02*
X49977Y-52714D01*
X49754Y-52519D02*
X49817Y-52716D01*
X49955Y-52616D01*
X55270Y-33560D02*
X55230Y-33435D01*
X55492Y-33350D01*
X55436Y-33602D02*
X55465Y-33690D01*
X55339Y-33772D02*
X55298Y-33647D01*
X55561Y-33562D01*
X55601Y-33687D01*
X55376Y-33885D02*
X55638Y-33800D01*
X55658Y-33862D01*
X55658Y-33904D01*
X55642Y-33936D01*
X55621Y-33957D01*
X55574Y-33985D01*
X55537Y-33998D01*
X55483Y-34002D01*
X55454Y-33997D01*
X55420Y-33981D01*
X55396Y-33947D01*
X55376Y-33885D01*
X55764Y-34187D02*
X55723Y-34062D01*
X55595Y-34090D01*
X55611Y-34099D01*
X55632Y-34119D01*
X55652Y-34182D01*
X55648Y-34211D01*
X55639Y-34227D01*
X55619Y-34248D01*
X55556Y-34268D01*
X55527Y-34264D01*
X55510Y-34256D01*
X55489Y-34235D01*
X55469Y-34172D01*
X55473Y-34143D01*
X55483Y-34127D01*
X39061Y-22632D02*
X38930Y-22632D01*
X38930Y-22356D01*
X39153Y-22487D02*
X39245Y-22487D01*
X39284Y-22632D02*
X39153Y-22632D01*
X39153Y-22356D01*
X39284Y-22356D01*
X39403Y-22632D02*
X39403Y-22356D01*
X39468Y-22356D01*
X39508Y-22369D01*
X39534Y-22395D01*
X39547Y-22421D01*
X39560Y-22474D01*
X39560Y-22513D01*
X39547Y-22566D01*
X39534Y-22592D01*
X39508Y-22619D01*
X39468Y-22632D01*
X39403Y-22632D01*
X39666Y-22382D02*
X39679Y-22369D01*
X39705Y-22356D01*
X39771Y-22356D01*
X39797Y-22369D01*
X39810Y-22382D01*
X39823Y-22408D01*
X39823Y-22435D01*
X39810Y-22474D01*
X39652Y-22632D01*
X39823Y-22632D01*
X23279Y-34304D02*
X23239Y-34429D01*
X22976Y-34344D01*
X23170Y-34172D02*
X23198Y-34085D01*
X23348Y-34092D02*
X23307Y-34217D01*
X23045Y-34132D01*
X23085Y-34007D01*
X23385Y-33979D02*
X23122Y-33894D01*
X23142Y-33832D01*
X23167Y-33798D01*
X23200Y-33781D01*
X23229Y-33777D01*
X23283Y-33781D01*
X23320Y-33793D01*
X23366Y-33822D01*
X23387Y-33842D01*
X23405Y-33875D01*
X23405Y-33917D01*
X23385Y-33979D01*
X23515Y-33580D02*
X23466Y-33729D01*
X23490Y-33655D02*
X23228Y-33570D01*
X23257Y-33606D01*
X23273Y-33639D01*
X23279Y-33668D01*
X31814Y-49925D02*
X31795Y-49929D01*
X31756Y-49916D01*
X31735Y-49901D01*
X31710Y-49867D01*
X31705Y-49830D01*
X31710Y-49801D01*
X31731Y-49751D01*
X31754Y-49719D01*
X31795Y-49684D01*
X31821Y-49671D01*
X31857Y-49665D01*
X31897Y-49678D01*
X31918Y-49693D01*
X31942Y-49727D01*
X31945Y-49745D01*
X32011Y-50102D02*
X31884Y-50009D01*
X31947Y-50055D02*
X32109Y-49832D01*
X32065Y-49848D01*
X32029Y-49854D01*
X32000Y-49850D01*
X32311Y-50092D02*
X32203Y-50241D01*
X32319Y-49968D02*
X32151Y-50089D01*
X32288Y-50189D01*
X35902Y-25509D02*
X35751Y-25453D01*
X35774Y-25599D02*
X35616Y-25373D01*
X35702Y-25313D01*
X35730Y-25308D01*
X35748Y-25312D01*
X35774Y-25325D01*
X35797Y-25358D01*
X35801Y-25387D01*
X35798Y-25405D01*
X35784Y-25431D01*
X35698Y-25491D01*
X35846Y-25243D02*
X35849Y-25225D01*
X35863Y-25200D01*
X35917Y-25162D01*
X35946Y-25157D01*
X35964Y-25161D01*
X35989Y-25175D01*
X36005Y-25197D01*
X36017Y-25236D01*
X35978Y-25456D01*
X36118Y-25358D01*
X36061Y-25092D02*
X36064Y-25074D01*
X36078Y-25049D01*
X36132Y-25011D01*
X36161Y-25007D01*
X36179Y-25010D01*
X36205Y-25024D01*
X36220Y-25046D01*
X36232Y-25085D01*
X36193Y-25305D01*
X36333Y-25207D01*
M02*
