M48
INCH,TZ
T1C0.020
T2C0.025
T3C0.039
T4C0.040
%
G90
G05
T1
X4.158Y-5.295
X4.260Y-5.280
T2
X2.325Y-3.701
X2.533Y-3.464
X2.758Y-2.959
X2.778Y-3.116
X2.779Y-2.749
X2.794Y-3.322
X2.795Y-3.265
X2.846Y-3.065
X2.913Y-2.921
X2.914Y-2.969
X2.917Y-2.651
X2.972Y-2.696
X2.982Y-3.000
X3.000Y-2.956
X3.030Y-3.088
X3.036Y-2.982
X3.079Y-2.996
X3.121Y-2.709
X3.126Y-2.878
X3.157Y-2.915
X3.167Y-2.651
X3.422Y-2.418
X3.606Y-5.197
X3.926Y-2.470
X4.197Y-2.331
X4.199Y-2.377
X4.199Y-5.166
X4.209Y-5.259
X4.291Y-2.614
X4.314Y-2.653
X4.583Y-2.504
X4.674Y-2.726
X4.738Y-2.522
X5.041Y-4.612
X5.140Y-4.497
X5.157Y-4.257
X5.212Y-4.285
X5.237Y-3.767
X5.260Y-4.040
X5.270Y-3.453
X5.333Y-3.924
X5.341Y-3.421
T3
X3.919Y-5.359
X3.919Y-5.556
T4
X4.752Y-2.619
X4.811Y-2.539
X4.833Y-2.678
X4.892Y-2.597
X4.914Y-2.737
X4.973Y-2.656
T0
M30
