G04 (created by PCBNEW-RS274X (2012-01-19 BZR 3256)-stable) date 12/30/2012 11:34:10 PM*
G01*
G70*
G90*
%MOIN*%
G04 Gerber Fmt 3.4, Leading zero omitted, Abs format*
%FSLAX34Y34*%
G04 APERTURE LIST*
%ADD10C,0.006000*%
%ADD11C,0.009800*%
%ADD12C,0.060000*%
%ADD13R,0.047200X0.047200*%
%ADD14C,0.049200*%
%ADD15C,0.078700*%
%ADD16C,0.035000*%
%ADD17C,0.008000*%
G04 APERTURE END LIST*
G54D10*
G54D11*
X41434Y-38139D02*
X41463Y-38167D01*
X41549Y-38196D01*
X41606Y-38196D01*
X41691Y-38167D01*
X41749Y-38110D01*
X41777Y-38053D01*
X41806Y-37939D01*
X41806Y-37853D01*
X41777Y-37739D01*
X41749Y-37682D01*
X41691Y-37624D01*
X41606Y-37596D01*
X41549Y-37596D01*
X41463Y-37624D01*
X41434Y-37653D01*
X41177Y-38196D02*
X41177Y-37596D01*
X41177Y-37882D02*
X40834Y-37882D01*
X40834Y-38196D02*
X40834Y-37596D01*
X40577Y-38024D02*
X40291Y-38024D01*
X40634Y-38196D02*
X40434Y-37596D01*
X40234Y-38196D01*
X40034Y-38196D02*
X40034Y-37596D01*
X39834Y-38024D01*
X39634Y-37596D01*
X39634Y-38196D01*
X39348Y-37882D02*
X39148Y-37882D01*
X39062Y-38196D02*
X39348Y-38196D01*
X39348Y-37596D01*
X39062Y-37596D01*
X38519Y-38196D02*
X38805Y-38196D01*
X38805Y-37596D01*
X38319Y-37882D02*
X38119Y-37882D01*
X38033Y-38196D02*
X38319Y-38196D01*
X38319Y-37596D01*
X38033Y-37596D01*
X37662Y-37596D02*
X37548Y-37596D01*
X37490Y-37624D01*
X37433Y-37682D01*
X37405Y-37796D01*
X37405Y-37996D01*
X37433Y-38110D01*
X37490Y-38167D01*
X37548Y-38196D01*
X37662Y-38196D01*
X37719Y-38167D01*
X37776Y-38110D01*
X37805Y-37996D01*
X37805Y-37796D01*
X37776Y-37682D01*
X37719Y-37624D01*
X37662Y-37596D01*
X37147Y-38196D02*
X37147Y-37596D01*
X36804Y-38196D01*
X36804Y-37596D01*
X44334Y-40072D02*
X44334Y-39472D01*
X44106Y-39472D01*
X44048Y-39500D01*
X44020Y-39529D01*
X43991Y-39586D01*
X43991Y-39672D01*
X44020Y-39729D01*
X44048Y-39758D01*
X44106Y-39786D01*
X44334Y-39786D01*
X43734Y-40072D02*
X43734Y-39672D01*
X43734Y-39786D02*
X43706Y-39729D01*
X43677Y-39700D01*
X43620Y-39672D01*
X43563Y-39672D01*
X43277Y-40072D02*
X43335Y-40043D01*
X43363Y-40015D01*
X43392Y-39958D01*
X43392Y-39786D01*
X43363Y-39729D01*
X43335Y-39700D01*
X43277Y-39672D01*
X43192Y-39672D01*
X43135Y-39700D01*
X43106Y-39729D01*
X43077Y-39786D01*
X43077Y-39958D01*
X43106Y-40015D01*
X43135Y-40043D01*
X43192Y-40072D01*
X43277Y-40072D01*
X42820Y-39672D02*
X42820Y-40186D01*
X42849Y-40243D01*
X42906Y-40272D01*
X42934Y-40272D01*
X42820Y-39472D02*
X42849Y-39500D01*
X42820Y-39529D01*
X42792Y-39500D01*
X42820Y-39472D01*
X42820Y-39529D01*
X42306Y-40043D02*
X42363Y-40072D01*
X42477Y-40072D01*
X42534Y-40043D01*
X42563Y-39986D01*
X42563Y-39758D01*
X42534Y-39700D01*
X42477Y-39672D01*
X42363Y-39672D01*
X42306Y-39700D01*
X42277Y-39758D01*
X42277Y-39815D01*
X42563Y-39872D01*
X41763Y-40043D02*
X41820Y-40072D01*
X41934Y-40072D01*
X41992Y-40043D01*
X42020Y-40015D01*
X42049Y-39958D01*
X42049Y-39786D01*
X42020Y-39729D01*
X41992Y-39700D01*
X41934Y-39672D01*
X41820Y-39672D01*
X41763Y-39700D01*
X41592Y-39672D02*
X41363Y-39672D01*
X41506Y-39472D02*
X41506Y-39986D01*
X41478Y-40043D01*
X41420Y-40072D01*
X41363Y-40072D01*
X41192Y-40043D02*
X41135Y-40072D01*
X41020Y-40072D01*
X40963Y-40043D01*
X40935Y-39986D01*
X40935Y-39958D01*
X40963Y-39900D01*
X41020Y-39872D01*
X41106Y-39872D01*
X41163Y-39843D01*
X41192Y-39786D01*
X41192Y-39758D01*
X41163Y-39700D01*
X41106Y-39672D01*
X41020Y-39672D01*
X40963Y-39700D01*
X39963Y-40072D02*
X39963Y-39758D01*
X39992Y-39700D01*
X40049Y-39672D01*
X40163Y-39672D01*
X40220Y-39700D01*
X39963Y-40043D02*
X40020Y-40072D01*
X40163Y-40072D01*
X40220Y-40043D01*
X40249Y-39986D01*
X40249Y-39929D01*
X40220Y-39872D01*
X40163Y-39843D01*
X40020Y-39843D01*
X39963Y-39815D01*
X39677Y-39672D02*
X39677Y-40072D01*
X39677Y-39729D02*
X39649Y-39700D01*
X39591Y-39672D01*
X39506Y-39672D01*
X39449Y-39700D01*
X39420Y-39758D01*
X39420Y-40072D01*
X38877Y-40072D02*
X38877Y-39472D01*
X38877Y-40043D02*
X38934Y-40072D01*
X39048Y-40072D01*
X39106Y-40043D01*
X39134Y-40015D01*
X39163Y-39958D01*
X39163Y-39786D01*
X39134Y-39729D01*
X39106Y-39700D01*
X39048Y-39672D01*
X38934Y-39672D01*
X38877Y-39700D01*
X38163Y-40043D02*
X38077Y-40072D01*
X37934Y-40072D01*
X37877Y-40043D01*
X37848Y-40015D01*
X37820Y-39958D01*
X37820Y-39900D01*
X37848Y-39843D01*
X37877Y-39815D01*
X37934Y-39786D01*
X38048Y-39758D01*
X38106Y-39729D01*
X38134Y-39700D01*
X38163Y-39643D01*
X38163Y-39586D01*
X38134Y-39529D01*
X38106Y-39500D01*
X38048Y-39472D01*
X37906Y-39472D01*
X37820Y-39500D01*
X37649Y-39672D02*
X37420Y-39672D01*
X37563Y-39472D02*
X37563Y-39986D01*
X37535Y-40043D01*
X37477Y-40072D01*
X37420Y-40072D01*
X36963Y-39672D02*
X36963Y-40072D01*
X37220Y-39672D02*
X37220Y-39986D01*
X37192Y-40043D01*
X37134Y-40072D01*
X37049Y-40072D01*
X36992Y-40043D01*
X36963Y-40015D01*
X36763Y-39672D02*
X36534Y-39672D01*
X36677Y-40072D02*
X36677Y-39558D01*
X36649Y-39500D01*
X36591Y-39472D01*
X36534Y-39472D01*
X36420Y-39672D02*
X36191Y-39672D01*
X36334Y-40072D02*
X36334Y-39558D01*
X36306Y-39500D01*
X36248Y-39472D01*
X36191Y-39472D01*
X35248Y-40072D02*
X35534Y-40072D01*
X35534Y-39472D01*
X34762Y-40072D02*
X35048Y-40072D01*
X35048Y-39472D01*
X34219Y-40015D02*
X34248Y-40043D01*
X34334Y-40072D01*
X34391Y-40072D01*
X34476Y-40043D01*
X34534Y-39986D01*
X34562Y-39929D01*
X34591Y-39815D01*
X34591Y-39729D01*
X34562Y-39615D01*
X34534Y-39558D01*
X34476Y-39500D01*
X34391Y-39472D01*
X34334Y-39472D01*
X34248Y-39500D01*
X34219Y-39529D01*
X45006Y-40610D02*
X44892Y-41010D01*
X44778Y-40724D01*
X44663Y-41010D01*
X44549Y-40610D01*
X44377Y-40610D02*
X44263Y-41010D01*
X44149Y-40724D01*
X44034Y-41010D01*
X43920Y-40610D01*
X43748Y-40610D02*
X43634Y-41010D01*
X43520Y-40724D01*
X43405Y-41010D01*
X43291Y-40610D01*
X43062Y-40953D02*
X43034Y-40981D01*
X43062Y-41010D01*
X43091Y-40981D01*
X43062Y-40953D01*
X43062Y-41010D01*
X42776Y-40610D02*
X42776Y-41210D01*
X42776Y-40638D02*
X42719Y-40610D01*
X42605Y-40610D01*
X42548Y-40638D01*
X42519Y-40667D01*
X42490Y-40724D01*
X42490Y-40896D01*
X42519Y-40953D01*
X42548Y-40981D01*
X42605Y-41010D01*
X42719Y-41010D01*
X42776Y-40981D01*
X42233Y-41010D02*
X42233Y-40610D01*
X42233Y-40724D02*
X42205Y-40667D01*
X42176Y-40638D01*
X42119Y-40610D01*
X42062Y-40610D01*
X41776Y-41010D02*
X41834Y-40981D01*
X41862Y-40953D01*
X41891Y-40896D01*
X41891Y-40724D01*
X41862Y-40667D01*
X41834Y-40638D01*
X41776Y-40610D01*
X41691Y-40610D01*
X41634Y-40638D01*
X41605Y-40667D01*
X41576Y-40724D01*
X41576Y-40896D01*
X41605Y-40953D01*
X41634Y-40981D01*
X41691Y-41010D01*
X41776Y-41010D01*
X41319Y-40610D02*
X41319Y-41124D01*
X41348Y-41181D01*
X41405Y-41210D01*
X41433Y-41210D01*
X41319Y-40410D02*
X41348Y-40438D01*
X41319Y-40467D01*
X41291Y-40438D01*
X41319Y-40410D01*
X41319Y-40467D01*
X40805Y-40981D02*
X40862Y-41010D01*
X40976Y-41010D01*
X41033Y-40981D01*
X41062Y-40924D01*
X41062Y-40696D01*
X41033Y-40638D01*
X40976Y-40610D01*
X40862Y-40610D01*
X40805Y-40638D01*
X40776Y-40696D01*
X40776Y-40753D01*
X41062Y-40810D01*
X40262Y-40981D02*
X40319Y-41010D01*
X40433Y-41010D01*
X40491Y-40981D01*
X40519Y-40953D01*
X40548Y-40896D01*
X40548Y-40724D01*
X40519Y-40667D01*
X40491Y-40638D01*
X40433Y-40610D01*
X40319Y-40610D01*
X40262Y-40638D01*
X40091Y-40610D02*
X39862Y-40610D01*
X40005Y-40410D02*
X40005Y-40924D01*
X39977Y-40981D01*
X39919Y-41010D01*
X39862Y-41010D01*
X39691Y-40981D02*
X39634Y-41010D01*
X39519Y-41010D01*
X39462Y-40981D01*
X39434Y-40924D01*
X39434Y-40896D01*
X39462Y-40838D01*
X39519Y-40810D01*
X39605Y-40810D01*
X39662Y-40781D01*
X39691Y-40724D01*
X39691Y-40696D01*
X39662Y-40638D01*
X39605Y-40610D01*
X39519Y-40610D01*
X39462Y-40638D01*
X38919Y-41010D02*
X38919Y-40696D01*
X38948Y-40638D01*
X39005Y-40610D01*
X39119Y-40610D01*
X39176Y-40638D01*
X38919Y-40981D02*
X38976Y-41010D01*
X39119Y-41010D01*
X39176Y-40981D01*
X39205Y-40924D01*
X39205Y-40867D01*
X39176Y-40810D01*
X39119Y-40781D01*
X38976Y-40781D01*
X38919Y-40753D01*
X38633Y-40610D02*
X38633Y-41010D01*
X38633Y-40667D02*
X38605Y-40638D01*
X38547Y-40610D01*
X38462Y-40610D01*
X38405Y-40638D01*
X38376Y-40696D01*
X38376Y-41010D01*
X37833Y-41010D02*
X37833Y-40410D01*
X37833Y-40981D02*
X37890Y-41010D01*
X38004Y-41010D01*
X38062Y-40981D01*
X38090Y-40953D01*
X38119Y-40896D01*
X38119Y-40724D01*
X38090Y-40667D01*
X38062Y-40638D01*
X38004Y-40610D01*
X37890Y-40610D01*
X37833Y-40638D01*
X37576Y-40981D02*
X37519Y-41010D01*
X37404Y-41010D01*
X37347Y-40981D01*
X37319Y-40924D01*
X37319Y-40896D01*
X37347Y-40838D01*
X37404Y-40810D01*
X37490Y-40810D01*
X37547Y-40781D01*
X37576Y-40724D01*
X37576Y-40696D01*
X37547Y-40638D01*
X37490Y-40610D01*
X37404Y-40610D01*
X37347Y-40638D01*
X37147Y-40610D02*
X36918Y-40610D01*
X37061Y-40410D02*
X37061Y-40924D01*
X37033Y-40981D01*
X36975Y-41010D01*
X36918Y-41010D01*
X36461Y-40610D02*
X36461Y-41010D01*
X36718Y-40610D02*
X36718Y-40924D01*
X36690Y-40981D01*
X36632Y-41010D01*
X36547Y-41010D01*
X36490Y-40981D01*
X36461Y-40953D01*
X36261Y-40610D02*
X36032Y-40610D01*
X36175Y-41010D02*
X36175Y-40496D01*
X36147Y-40438D01*
X36089Y-40410D01*
X36032Y-40410D01*
X35918Y-40610D02*
X35689Y-40610D01*
X35832Y-41010D02*
X35832Y-40496D01*
X35804Y-40438D01*
X35746Y-40410D01*
X35689Y-40410D01*
X35489Y-40953D02*
X35461Y-40981D01*
X35489Y-41010D01*
X35518Y-40981D01*
X35489Y-40953D01*
X35489Y-41010D01*
X34946Y-40981D02*
X35003Y-41010D01*
X35117Y-41010D01*
X35175Y-40981D01*
X35203Y-40953D01*
X35232Y-40896D01*
X35232Y-40724D01*
X35203Y-40667D01*
X35175Y-40638D01*
X35117Y-40610D01*
X35003Y-40610D01*
X34946Y-40638D01*
X34603Y-41010D02*
X34661Y-40981D01*
X34689Y-40953D01*
X34718Y-40896D01*
X34718Y-40724D01*
X34689Y-40667D01*
X34661Y-40638D01*
X34603Y-40610D01*
X34518Y-40610D01*
X34461Y-40638D01*
X34432Y-40667D01*
X34403Y-40724D01*
X34403Y-40896D01*
X34432Y-40953D01*
X34461Y-40981D01*
X34518Y-41010D01*
X34603Y-41010D01*
X34146Y-41010D02*
X34146Y-40610D01*
X34146Y-40667D02*
X34118Y-40638D01*
X34060Y-40610D01*
X33975Y-40610D01*
X33918Y-40638D01*
X33889Y-40696D01*
X33889Y-41010D01*
X33889Y-40696D02*
X33860Y-40638D01*
X33803Y-40610D01*
X33718Y-40610D01*
X33660Y-40638D01*
X33632Y-40696D01*
X33632Y-41010D01*
G54D10*
G36*
X47100Y-26261D02*
X47453Y-25776D01*
X47938Y-26129D01*
X47585Y-26614D01*
X47100Y-26261D01*
X47100Y-26261D01*
G37*
G54D12*
X48107Y-25386D03*
X48328Y-26783D03*
X48916Y-25973D03*
X49137Y-27370D03*
X49725Y-26561D03*
G54D13*
X25789Y-44056D03*
X25237Y-42401D03*
X24686Y-42401D03*
X24135Y-42401D03*
X25789Y-42401D03*
X25789Y-42952D03*
X25789Y-43504D03*
X24135Y-42952D03*
X24135Y-43504D03*
X25237Y-43504D03*
X24686Y-43504D03*
G54D14*
X41575Y-52953D03*
X42598Y-52795D03*
G54D15*
X39193Y-53593D03*
X39193Y-55561D03*
G54D16*
X50411Y-46121D03*
X47384Y-25223D03*
X51567Y-42571D03*
X43136Y-26530D03*
X52366Y-37667D03*
X46740Y-27261D03*
X52122Y-42847D03*
X42906Y-26142D03*
X51400Y-44967D03*
X53334Y-39240D03*
X53415Y-34205D03*
X45827Y-25039D03*
X52596Y-40396D03*
X31213Y-27092D03*
X27780Y-31164D03*
X34223Y-24176D03*
X52702Y-34526D03*
X27576Y-29589D03*
X27787Y-27494D03*
X31667Y-26508D03*
X29720Y-26960D03*
X29168Y-26510D03*
X30355Y-29815D03*
X30295Y-30876D03*
X27954Y-32652D03*
X29126Y-29212D03*
X31566Y-29150D03*
X41992Y-51661D03*
X36056Y-51969D03*
X30789Y-29964D03*
X28463Y-30646D03*
X39264Y-24703D03*
X29821Y-30004D03*
X41971Y-23308D03*
X42088Y-52587D03*
X31255Y-28779D03*
X27939Y-33219D03*
X29144Y-29692D03*
X23245Y-37006D03*
X25331Y-34635D03*
X30002Y-29555D03*
X41985Y-23766D03*
G54D17*
X46018Y-26591D02*
X45855Y-26428D01*
X45059Y-25946D02*
X43585Y-25946D01*
X43469Y-25830D02*
X42746Y-25830D01*
X43585Y-25946D02*
X43469Y-25830D01*
X45041Y-28660D02*
X45762Y-28660D01*
X43624Y-27439D02*
X43820Y-27439D01*
X42557Y-26019D02*
X42557Y-26265D01*
X43820Y-27439D02*
X45041Y-28660D01*
X42559Y-26339D02*
X42557Y-26265D01*
X51044Y-33942D02*
X51044Y-45488D01*
X47231Y-26591D02*
X47519Y-26195D01*
X45059Y-25946D02*
X45855Y-26428D01*
X42838Y-26653D02*
X43624Y-27439D01*
X47231Y-26591D02*
X46018Y-26591D01*
X51044Y-45488D02*
X50411Y-46121D01*
X45762Y-28660D02*
X51044Y-33942D01*
X42746Y-25830D02*
X42557Y-26019D01*
X42838Y-26653D02*
X42559Y-26339D01*
X48543Y-27470D02*
X48543Y-27344D01*
X51567Y-42571D02*
X51567Y-30494D01*
X48543Y-27344D02*
X48925Y-26962D01*
X48925Y-26962D02*
X48925Y-26754D01*
X48925Y-26754D02*
X48196Y-26025D01*
X48137Y-26025D02*
X47384Y-25272D01*
X47384Y-25272D02*
X47384Y-25223D01*
X48196Y-26025D02*
X48137Y-26025D01*
X51567Y-30494D02*
X48543Y-27470D01*
X43867Y-27261D02*
X46740Y-27261D01*
X48916Y-26402D02*
X52366Y-29852D01*
X52366Y-29852D02*
X52366Y-37667D01*
X48916Y-25973D02*
X48916Y-26402D01*
X43136Y-26530D02*
X43867Y-27261D01*
X52049Y-42774D02*
X52122Y-42847D01*
X49137Y-27370D02*
X52048Y-30281D01*
X52048Y-30281D02*
X52048Y-42774D01*
X52048Y-42774D02*
X52049Y-42774D01*
X43467Y-26142D02*
X44108Y-26783D01*
X51208Y-44775D02*
X51400Y-44967D01*
X44108Y-26783D02*
X48328Y-26783D01*
X42906Y-26142D02*
X43467Y-26142D01*
X48328Y-27487D02*
X51208Y-30367D01*
X51208Y-30367D02*
X51208Y-44775D01*
X48328Y-26783D02*
X48328Y-27487D01*
X53415Y-39159D02*
X53415Y-34205D01*
X53334Y-39240D02*
X53415Y-39159D01*
X45827Y-25039D02*
X46023Y-24843D01*
X27757Y-29589D02*
X27576Y-29589D01*
X39193Y-53593D02*
X41800Y-53593D01*
X30528Y-27777D02*
X31213Y-27092D01*
X28070Y-27777D02*
X30528Y-27777D01*
X28070Y-27777D02*
X28070Y-29276D01*
X41800Y-53593D02*
X42598Y-52795D01*
X49725Y-26064D02*
X48189Y-24843D01*
X49725Y-26064D02*
X49725Y-26561D01*
X46023Y-24843D02*
X48189Y-24843D01*
X28070Y-29276D02*
X27757Y-29589D01*
X27787Y-27494D02*
X28070Y-27777D01*
X52702Y-34526D02*
X52702Y-29538D01*
X52702Y-29538D02*
X49725Y-26561D01*
X34223Y-24375D02*
X34223Y-24176D01*
X44656Y-52795D02*
X42598Y-52795D01*
X52596Y-40396D02*
X52596Y-44855D01*
X31506Y-27092D02*
X34223Y-24375D01*
X52702Y-34526D02*
X52702Y-37774D01*
X52596Y-37880D02*
X52596Y-40396D01*
X52702Y-37774D02*
X52596Y-37880D01*
X52596Y-44855D02*
X44656Y-52795D01*
X27757Y-29589D02*
X27757Y-31141D01*
X31213Y-27092D02*
X31506Y-27092D01*
X27757Y-31141D02*
X27780Y-31164D01*
X29170Y-26508D02*
X29168Y-26510D01*
X31667Y-26508D02*
X29170Y-26508D01*
X29618Y-26960D02*
X29720Y-26960D01*
X29168Y-26510D02*
X29618Y-26960D01*
X30295Y-30876D02*
X30295Y-29875D01*
X30295Y-29875D02*
X30355Y-29815D01*
X27954Y-32652D02*
X28078Y-32528D01*
X27930Y-30794D02*
X27930Y-30408D01*
X27930Y-30408D02*
X29126Y-29212D01*
X28078Y-30942D02*
X27930Y-30794D01*
X28078Y-32528D02*
X28078Y-30942D01*
X41678Y-51347D02*
X41992Y-51661D01*
X34265Y-51347D02*
X41678Y-51347D01*
X31566Y-29150D02*
X31566Y-30490D01*
X27149Y-34907D02*
X27149Y-44231D01*
X31566Y-30490D02*
X27149Y-34907D01*
X27149Y-44231D02*
X34265Y-51347D01*
X26822Y-34771D02*
X30789Y-30804D01*
X26822Y-44404D02*
X26822Y-34771D01*
X36056Y-51969D02*
X34387Y-51969D01*
X34387Y-51969D02*
X26822Y-44404D01*
X30789Y-30804D02*
X30789Y-29964D01*
X28750Y-30646D02*
X28463Y-30646D01*
X29446Y-29950D02*
X28750Y-30646D01*
X34146Y-24703D02*
X29446Y-29403D01*
X39264Y-24703D02*
X34146Y-24703D01*
X29446Y-29403D02*
X29446Y-29950D01*
X41971Y-23308D02*
X40262Y-25017D01*
X34107Y-25017D02*
X29652Y-29472D01*
X40262Y-25017D02*
X34107Y-25017D01*
X29652Y-29835D02*
X29821Y-30004D01*
X29652Y-29472D02*
X29652Y-29835D01*
X34356Y-51670D02*
X41171Y-51670D01*
X41171Y-51670D02*
X42088Y-52587D01*
X26985Y-44299D02*
X34356Y-51670D01*
X31255Y-28779D02*
X31255Y-30569D01*
X31255Y-30569D02*
X26985Y-34839D01*
X26985Y-34839D02*
X26985Y-44299D01*
X29144Y-29692D02*
X28966Y-29692D01*
X28293Y-32865D02*
X27939Y-33219D01*
X28293Y-30899D02*
X28293Y-32865D01*
X28966Y-29692D02*
X28106Y-30552D01*
X28106Y-30712D02*
X28293Y-30899D01*
X28106Y-30552D02*
X28106Y-30712D01*
X25331Y-34920D02*
X25331Y-34635D01*
X23245Y-37006D02*
X25331Y-34920D01*
X31689Y-27868D02*
X30002Y-29555D01*
X37687Y-27868D02*
X31689Y-27868D01*
X41789Y-23766D02*
X37687Y-27868D01*
X41985Y-23766D02*
X41789Y-23766D01*
M02*
