G04 (created by PCBNEW (2012-01-19 BZR 3256)-stable) date 12/30/2012 7:30:30 PM*
G01*
G70*
G90*
%MOIN*%
G04 Gerber Fmt 3.4, Leading zero omitted, Abs format*
%FSLAX34Y34*%
G04 APERTURE LIST*
%ADD10C,0.001000*%
%ADD11C,0.015000*%
%ADD12C,0.008000*%
G04 APERTURE END LIST*
G54D10*
G54D11*
X56693Y-39370D02*
X56363Y-42734D01*
X55385Y-45971D01*
X53798Y-48956D01*
X51661Y-51576D01*
X49056Y-53731D01*
X46082Y-55339D01*
X42853Y-56339D01*
X39490Y-56692D01*
X36124Y-56386D01*
X32881Y-55431D01*
X29885Y-53865D01*
X27250Y-51746D01*
X25077Y-49156D01*
X23448Y-46194D01*
X22426Y-42971D01*
X22049Y-39611D01*
X22332Y-36243D01*
X23264Y-32993D01*
X24809Y-29986D01*
X26909Y-27337D01*
X29484Y-25146D01*
X32435Y-23496D01*
X35651Y-22452D01*
X39008Y-22051D01*
X42378Y-22311D01*
X45634Y-23220D01*
X48652Y-24744D01*
X51316Y-26826D01*
X53525Y-29385D01*
X55195Y-32325D01*
X56262Y-35533D01*
X56686Y-38887D01*
X56693Y-39370D01*
G54D10*
X41477Y-52855D02*
X41673Y-53051D01*
X41673Y-52855D02*
X41477Y-53051D01*
X42500Y-52697D02*
X42696Y-52893D01*
X42696Y-52697D02*
X42500Y-52893D01*
X23370Y-37006D02*
X23367Y-37030D01*
X23360Y-37053D01*
X23349Y-37075D01*
X23333Y-37094D01*
X23314Y-37109D01*
X23293Y-37121D01*
X23270Y-37128D01*
X23245Y-37130D01*
X23222Y-37128D01*
X23199Y-37121D01*
X23177Y-37110D01*
X23158Y-37095D01*
X23142Y-37076D01*
X23131Y-37055D01*
X23123Y-37031D01*
X23121Y-37007D01*
X23123Y-36984D01*
X23129Y-36960D01*
X23140Y-36939D01*
X23156Y-36920D01*
X23174Y-36904D01*
X23195Y-36892D01*
X23219Y-36884D01*
X23243Y-36882D01*
X23266Y-36883D01*
X23290Y-36890D01*
X23311Y-36901D01*
X23331Y-36916D01*
X23347Y-36934D01*
X23359Y-36956D01*
X23366Y-36979D01*
X23369Y-37003D01*
X23370Y-37006D01*
X25456Y-34635D02*
X25453Y-34659D01*
X25446Y-34682D01*
X25435Y-34704D01*
X25419Y-34723D01*
X25400Y-34738D01*
X25379Y-34750D01*
X25356Y-34757D01*
X25331Y-34759D01*
X25308Y-34757D01*
X25285Y-34750D01*
X25263Y-34739D01*
X25244Y-34724D01*
X25228Y-34705D01*
X25217Y-34684D01*
X25209Y-34660D01*
X25207Y-34636D01*
X25209Y-34613D01*
X25215Y-34589D01*
X25226Y-34568D01*
X25242Y-34549D01*
X25260Y-34533D01*
X25281Y-34521D01*
X25305Y-34513D01*
X25329Y-34511D01*
X25352Y-34512D01*
X25376Y-34519D01*
X25397Y-34530D01*
X25417Y-34545D01*
X25433Y-34563D01*
X25445Y-34585D01*
X25452Y-34608D01*
X25455Y-34632D01*
X25456Y-34635D01*
X27701Y-29589D02*
X27698Y-29613D01*
X27691Y-29636D01*
X27680Y-29658D01*
X27664Y-29677D01*
X27645Y-29692D01*
X27624Y-29704D01*
X27601Y-29711D01*
X27576Y-29713D01*
X27553Y-29711D01*
X27530Y-29704D01*
X27508Y-29693D01*
X27489Y-29678D01*
X27473Y-29659D01*
X27462Y-29638D01*
X27454Y-29614D01*
X27452Y-29590D01*
X27454Y-29567D01*
X27460Y-29543D01*
X27471Y-29522D01*
X27487Y-29503D01*
X27505Y-29487D01*
X27526Y-29475D01*
X27550Y-29467D01*
X27574Y-29465D01*
X27597Y-29466D01*
X27621Y-29473D01*
X27642Y-29484D01*
X27662Y-29499D01*
X27678Y-29517D01*
X27690Y-29539D01*
X27697Y-29562D01*
X27700Y-29586D01*
X27701Y-29589D01*
X27905Y-31164D02*
X27902Y-31188D01*
X27895Y-31211D01*
X27884Y-31233D01*
X27868Y-31252D01*
X27849Y-31267D01*
X27828Y-31279D01*
X27805Y-31286D01*
X27780Y-31288D01*
X27757Y-31286D01*
X27734Y-31279D01*
X27712Y-31268D01*
X27693Y-31253D01*
X27677Y-31234D01*
X27666Y-31213D01*
X27658Y-31189D01*
X27656Y-31165D01*
X27658Y-31142D01*
X27664Y-31118D01*
X27675Y-31097D01*
X27691Y-31078D01*
X27709Y-31062D01*
X27730Y-31050D01*
X27754Y-31042D01*
X27778Y-31040D01*
X27801Y-31041D01*
X27825Y-31048D01*
X27846Y-31059D01*
X27866Y-31074D01*
X27882Y-31092D01*
X27894Y-31114D01*
X27901Y-31137D01*
X27904Y-31161D01*
X27905Y-31164D01*
X27912Y-27494D02*
X27909Y-27518D01*
X27902Y-27541D01*
X27891Y-27563D01*
X27875Y-27582D01*
X27856Y-27597D01*
X27835Y-27609D01*
X27812Y-27616D01*
X27787Y-27618D01*
X27764Y-27616D01*
X27741Y-27609D01*
X27719Y-27598D01*
X27700Y-27583D01*
X27684Y-27564D01*
X27673Y-27543D01*
X27665Y-27519D01*
X27663Y-27495D01*
X27665Y-27472D01*
X27671Y-27448D01*
X27682Y-27427D01*
X27698Y-27408D01*
X27716Y-27392D01*
X27737Y-27380D01*
X27761Y-27372D01*
X27785Y-27370D01*
X27808Y-27371D01*
X27832Y-27378D01*
X27853Y-27389D01*
X27873Y-27404D01*
X27889Y-27422D01*
X27901Y-27444D01*
X27908Y-27467D01*
X27911Y-27491D01*
X27912Y-27494D01*
X28064Y-33219D02*
X28061Y-33243D01*
X28054Y-33266D01*
X28043Y-33288D01*
X28027Y-33307D01*
X28008Y-33322D01*
X27987Y-33334D01*
X27964Y-33341D01*
X27939Y-33343D01*
X27916Y-33341D01*
X27893Y-33334D01*
X27871Y-33323D01*
X27852Y-33308D01*
X27836Y-33289D01*
X27825Y-33268D01*
X27817Y-33244D01*
X27815Y-33220D01*
X27817Y-33197D01*
X27823Y-33173D01*
X27834Y-33152D01*
X27850Y-33133D01*
X27868Y-33117D01*
X27889Y-33105D01*
X27913Y-33097D01*
X27937Y-33095D01*
X27960Y-33096D01*
X27984Y-33103D01*
X28005Y-33114D01*
X28025Y-33129D01*
X28041Y-33147D01*
X28053Y-33169D01*
X28060Y-33192D01*
X28063Y-33216D01*
X28064Y-33219D01*
X28079Y-32652D02*
X28076Y-32676D01*
X28069Y-32699D01*
X28058Y-32721D01*
X28042Y-32740D01*
X28023Y-32755D01*
X28002Y-32767D01*
X27979Y-32774D01*
X27954Y-32776D01*
X27931Y-32774D01*
X27908Y-32767D01*
X27886Y-32756D01*
X27867Y-32741D01*
X27851Y-32722D01*
X27840Y-32701D01*
X27832Y-32677D01*
X27830Y-32653D01*
X27832Y-32630D01*
X27838Y-32606D01*
X27849Y-32585D01*
X27865Y-32566D01*
X27883Y-32550D01*
X27904Y-32538D01*
X27928Y-32530D01*
X27952Y-32528D01*
X27975Y-32529D01*
X27999Y-32536D01*
X28020Y-32547D01*
X28040Y-32562D01*
X28056Y-32580D01*
X28068Y-32602D01*
X28075Y-32625D01*
X28078Y-32649D01*
X28079Y-32652D01*
X28588Y-30646D02*
X28585Y-30670D01*
X28578Y-30693D01*
X28567Y-30715D01*
X28551Y-30734D01*
X28532Y-30749D01*
X28511Y-30761D01*
X28488Y-30768D01*
X28463Y-30770D01*
X28440Y-30768D01*
X28417Y-30761D01*
X28395Y-30750D01*
X28376Y-30735D01*
X28360Y-30716D01*
X28349Y-30695D01*
X28341Y-30671D01*
X28339Y-30647D01*
X28341Y-30624D01*
X28347Y-30600D01*
X28358Y-30579D01*
X28374Y-30560D01*
X28392Y-30544D01*
X28413Y-30532D01*
X28437Y-30524D01*
X28461Y-30522D01*
X28484Y-30523D01*
X28508Y-30530D01*
X28529Y-30541D01*
X28549Y-30556D01*
X28565Y-30574D01*
X28577Y-30596D01*
X28584Y-30619D01*
X28587Y-30643D01*
X28588Y-30646D01*
X29251Y-29212D02*
X29248Y-29236D01*
X29241Y-29259D01*
X29230Y-29281D01*
X29214Y-29300D01*
X29195Y-29315D01*
X29174Y-29327D01*
X29151Y-29334D01*
X29126Y-29336D01*
X29103Y-29334D01*
X29080Y-29327D01*
X29058Y-29316D01*
X29039Y-29301D01*
X29023Y-29282D01*
X29012Y-29261D01*
X29004Y-29237D01*
X29002Y-29213D01*
X29004Y-29190D01*
X29010Y-29166D01*
X29021Y-29145D01*
X29037Y-29126D01*
X29055Y-29110D01*
X29076Y-29098D01*
X29100Y-29090D01*
X29124Y-29088D01*
X29147Y-29089D01*
X29171Y-29096D01*
X29192Y-29107D01*
X29212Y-29122D01*
X29228Y-29140D01*
X29240Y-29162D01*
X29247Y-29185D01*
X29250Y-29209D01*
X29251Y-29212D01*
X29269Y-29692D02*
X29266Y-29716D01*
X29259Y-29739D01*
X29248Y-29761D01*
X29232Y-29780D01*
X29213Y-29795D01*
X29192Y-29807D01*
X29169Y-29814D01*
X29144Y-29816D01*
X29121Y-29814D01*
X29098Y-29807D01*
X29076Y-29796D01*
X29057Y-29781D01*
X29041Y-29762D01*
X29030Y-29741D01*
X29022Y-29717D01*
X29020Y-29693D01*
X29022Y-29670D01*
X29028Y-29646D01*
X29039Y-29625D01*
X29055Y-29606D01*
X29073Y-29590D01*
X29094Y-29578D01*
X29118Y-29570D01*
X29142Y-29568D01*
X29165Y-29569D01*
X29189Y-29576D01*
X29210Y-29587D01*
X29230Y-29602D01*
X29246Y-29620D01*
X29258Y-29642D01*
X29265Y-29665D01*
X29268Y-29689D01*
X29269Y-29692D01*
X29293Y-26510D02*
X29290Y-26534D01*
X29283Y-26557D01*
X29272Y-26579D01*
X29256Y-26598D01*
X29237Y-26613D01*
X29216Y-26625D01*
X29193Y-26632D01*
X29168Y-26634D01*
X29145Y-26632D01*
X29122Y-26625D01*
X29100Y-26614D01*
X29081Y-26599D01*
X29065Y-26580D01*
X29054Y-26559D01*
X29046Y-26535D01*
X29044Y-26511D01*
X29046Y-26488D01*
X29052Y-26464D01*
X29063Y-26443D01*
X29079Y-26424D01*
X29097Y-26408D01*
X29118Y-26396D01*
X29142Y-26388D01*
X29166Y-26386D01*
X29189Y-26387D01*
X29213Y-26394D01*
X29234Y-26405D01*
X29254Y-26420D01*
X29270Y-26438D01*
X29282Y-26460D01*
X29289Y-26483D01*
X29292Y-26507D01*
X29293Y-26510D01*
X29845Y-26960D02*
X29842Y-26984D01*
X29835Y-27007D01*
X29824Y-27029D01*
X29808Y-27048D01*
X29789Y-27063D01*
X29768Y-27075D01*
X29745Y-27082D01*
X29720Y-27084D01*
X29697Y-27082D01*
X29674Y-27075D01*
X29652Y-27064D01*
X29633Y-27049D01*
X29617Y-27030D01*
X29606Y-27009D01*
X29598Y-26985D01*
X29596Y-26961D01*
X29598Y-26938D01*
X29604Y-26914D01*
X29615Y-26893D01*
X29631Y-26874D01*
X29649Y-26858D01*
X29670Y-26846D01*
X29694Y-26838D01*
X29718Y-26836D01*
X29741Y-26837D01*
X29765Y-26844D01*
X29786Y-26855D01*
X29806Y-26870D01*
X29822Y-26888D01*
X29834Y-26910D01*
X29841Y-26933D01*
X29844Y-26957D01*
X29845Y-26960D01*
X29946Y-30004D02*
X29943Y-30028D01*
X29936Y-30051D01*
X29925Y-30073D01*
X29909Y-30092D01*
X29890Y-30107D01*
X29869Y-30119D01*
X29846Y-30126D01*
X29821Y-30128D01*
X29798Y-30126D01*
X29775Y-30119D01*
X29753Y-30108D01*
X29734Y-30093D01*
X29718Y-30074D01*
X29707Y-30053D01*
X29699Y-30029D01*
X29697Y-30005D01*
X29699Y-29982D01*
X29705Y-29958D01*
X29716Y-29937D01*
X29732Y-29918D01*
X29750Y-29902D01*
X29771Y-29890D01*
X29795Y-29882D01*
X29819Y-29880D01*
X29842Y-29881D01*
X29866Y-29888D01*
X29887Y-29899D01*
X29907Y-29914D01*
X29923Y-29932D01*
X29935Y-29954D01*
X29942Y-29977D01*
X29945Y-30001D01*
X29946Y-30004D01*
X30127Y-29555D02*
X30124Y-29579D01*
X30117Y-29602D01*
X30106Y-29624D01*
X30090Y-29643D01*
X30071Y-29658D01*
X30050Y-29670D01*
X30027Y-29677D01*
X30002Y-29679D01*
X29979Y-29677D01*
X29956Y-29670D01*
X29934Y-29659D01*
X29915Y-29644D01*
X29899Y-29625D01*
X29888Y-29604D01*
X29880Y-29580D01*
X29878Y-29556D01*
X29880Y-29533D01*
X29886Y-29509D01*
X29897Y-29488D01*
X29913Y-29469D01*
X29931Y-29453D01*
X29952Y-29441D01*
X29976Y-29433D01*
X30000Y-29431D01*
X30023Y-29432D01*
X30047Y-29439D01*
X30068Y-29450D01*
X30088Y-29465D01*
X30104Y-29483D01*
X30116Y-29505D01*
X30123Y-29528D01*
X30126Y-29552D01*
X30127Y-29555D01*
X30420Y-30876D02*
X30417Y-30900D01*
X30410Y-30923D01*
X30399Y-30945D01*
X30383Y-30964D01*
X30364Y-30979D01*
X30343Y-30991D01*
X30320Y-30998D01*
X30295Y-31000D01*
X30272Y-30998D01*
X30249Y-30991D01*
X30227Y-30980D01*
X30208Y-30965D01*
X30192Y-30946D01*
X30181Y-30925D01*
X30173Y-30901D01*
X30171Y-30877D01*
X30173Y-30854D01*
X30179Y-30830D01*
X30190Y-30809D01*
X30206Y-30790D01*
X30224Y-30774D01*
X30245Y-30762D01*
X30269Y-30754D01*
X30293Y-30752D01*
X30316Y-30753D01*
X30340Y-30760D01*
X30361Y-30771D01*
X30381Y-30786D01*
X30397Y-30804D01*
X30409Y-30826D01*
X30416Y-30849D01*
X30419Y-30873D01*
X30420Y-30876D01*
X30480Y-29815D02*
X30477Y-29839D01*
X30470Y-29862D01*
X30459Y-29884D01*
X30443Y-29903D01*
X30424Y-29918D01*
X30403Y-29930D01*
X30380Y-29937D01*
X30355Y-29939D01*
X30332Y-29937D01*
X30309Y-29930D01*
X30287Y-29919D01*
X30268Y-29904D01*
X30252Y-29885D01*
X30241Y-29864D01*
X30233Y-29840D01*
X30231Y-29816D01*
X30233Y-29793D01*
X30239Y-29769D01*
X30250Y-29748D01*
X30266Y-29729D01*
X30284Y-29713D01*
X30305Y-29701D01*
X30329Y-29693D01*
X30353Y-29691D01*
X30376Y-29692D01*
X30400Y-29699D01*
X30421Y-29710D01*
X30441Y-29725D01*
X30457Y-29743D01*
X30469Y-29765D01*
X30476Y-29788D01*
X30479Y-29812D01*
X30480Y-29815D01*
X30914Y-29964D02*
X30911Y-29988D01*
X30904Y-30011D01*
X30893Y-30033D01*
X30877Y-30052D01*
X30858Y-30067D01*
X30837Y-30079D01*
X30814Y-30086D01*
X30789Y-30088D01*
X30766Y-30086D01*
X30743Y-30079D01*
X30721Y-30068D01*
X30702Y-30053D01*
X30686Y-30034D01*
X30675Y-30013D01*
X30667Y-29989D01*
X30665Y-29965D01*
X30667Y-29942D01*
X30673Y-29918D01*
X30684Y-29897D01*
X30700Y-29878D01*
X30718Y-29862D01*
X30739Y-29850D01*
X30763Y-29842D01*
X30787Y-29840D01*
X30810Y-29841D01*
X30834Y-29848D01*
X30855Y-29859D01*
X30875Y-29874D01*
X30891Y-29892D01*
X30903Y-29914D01*
X30910Y-29937D01*
X30913Y-29961D01*
X30914Y-29964D01*
X31338Y-27092D02*
X31335Y-27116D01*
X31328Y-27139D01*
X31317Y-27161D01*
X31301Y-27180D01*
X31282Y-27195D01*
X31261Y-27207D01*
X31238Y-27214D01*
X31213Y-27216D01*
X31190Y-27214D01*
X31167Y-27207D01*
X31145Y-27196D01*
X31126Y-27181D01*
X31110Y-27162D01*
X31099Y-27141D01*
X31091Y-27117D01*
X31089Y-27093D01*
X31091Y-27070D01*
X31097Y-27046D01*
X31108Y-27025D01*
X31124Y-27006D01*
X31142Y-26990D01*
X31163Y-26978D01*
X31187Y-26970D01*
X31211Y-26968D01*
X31234Y-26969D01*
X31258Y-26976D01*
X31279Y-26987D01*
X31299Y-27002D01*
X31315Y-27020D01*
X31327Y-27042D01*
X31334Y-27065D01*
X31337Y-27089D01*
X31338Y-27092D01*
X31380Y-28779D02*
X31377Y-28803D01*
X31370Y-28826D01*
X31359Y-28848D01*
X31343Y-28867D01*
X31324Y-28882D01*
X31303Y-28894D01*
X31280Y-28901D01*
X31255Y-28903D01*
X31232Y-28901D01*
X31209Y-28894D01*
X31187Y-28883D01*
X31168Y-28868D01*
X31152Y-28849D01*
X31141Y-28828D01*
X31133Y-28804D01*
X31131Y-28780D01*
X31133Y-28757D01*
X31139Y-28733D01*
X31150Y-28712D01*
X31166Y-28693D01*
X31184Y-28677D01*
X31205Y-28665D01*
X31229Y-28657D01*
X31253Y-28655D01*
X31276Y-28656D01*
X31300Y-28663D01*
X31321Y-28674D01*
X31341Y-28689D01*
X31357Y-28707D01*
X31369Y-28729D01*
X31376Y-28752D01*
X31379Y-28776D01*
X31380Y-28779D01*
X31691Y-29150D02*
X31688Y-29174D01*
X31681Y-29197D01*
X31670Y-29219D01*
X31654Y-29238D01*
X31635Y-29253D01*
X31614Y-29265D01*
X31591Y-29272D01*
X31566Y-29274D01*
X31543Y-29272D01*
X31520Y-29265D01*
X31498Y-29254D01*
X31479Y-29239D01*
X31463Y-29220D01*
X31452Y-29199D01*
X31444Y-29175D01*
X31442Y-29151D01*
X31444Y-29128D01*
X31450Y-29104D01*
X31461Y-29083D01*
X31477Y-29064D01*
X31495Y-29048D01*
X31516Y-29036D01*
X31540Y-29028D01*
X31564Y-29026D01*
X31587Y-29027D01*
X31611Y-29034D01*
X31632Y-29045D01*
X31652Y-29060D01*
X31668Y-29078D01*
X31680Y-29100D01*
X31687Y-29123D01*
X31690Y-29147D01*
X31691Y-29150D01*
X31792Y-26508D02*
X31789Y-26532D01*
X31782Y-26555D01*
X31771Y-26577D01*
X31755Y-26596D01*
X31736Y-26611D01*
X31715Y-26623D01*
X31692Y-26630D01*
X31667Y-26632D01*
X31644Y-26630D01*
X31621Y-26623D01*
X31599Y-26612D01*
X31580Y-26597D01*
X31564Y-26578D01*
X31553Y-26557D01*
X31545Y-26533D01*
X31543Y-26509D01*
X31545Y-26486D01*
X31551Y-26462D01*
X31562Y-26441D01*
X31578Y-26422D01*
X31596Y-26406D01*
X31617Y-26394D01*
X31641Y-26386D01*
X31665Y-26384D01*
X31688Y-26385D01*
X31712Y-26392D01*
X31733Y-26403D01*
X31753Y-26418D01*
X31769Y-26436D01*
X31781Y-26458D01*
X31788Y-26481D01*
X31791Y-26505D01*
X31792Y-26508D01*
X34348Y-24176D02*
X34345Y-24200D01*
X34338Y-24223D01*
X34327Y-24245D01*
X34311Y-24264D01*
X34292Y-24279D01*
X34271Y-24291D01*
X34248Y-24298D01*
X34223Y-24300D01*
X34200Y-24298D01*
X34177Y-24291D01*
X34155Y-24280D01*
X34136Y-24265D01*
X34120Y-24246D01*
X34109Y-24225D01*
X34101Y-24201D01*
X34099Y-24177D01*
X34101Y-24154D01*
X34107Y-24130D01*
X34118Y-24109D01*
X34134Y-24090D01*
X34152Y-24074D01*
X34173Y-24062D01*
X34197Y-24054D01*
X34221Y-24052D01*
X34244Y-24053D01*
X34268Y-24060D01*
X34289Y-24071D01*
X34309Y-24086D01*
X34325Y-24104D01*
X34337Y-24126D01*
X34344Y-24149D01*
X34347Y-24173D01*
X34348Y-24176D01*
X36181Y-51969D02*
X36178Y-51993D01*
X36171Y-52016D01*
X36160Y-52038D01*
X36144Y-52057D01*
X36125Y-52072D01*
X36104Y-52084D01*
X36081Y-52091D01*
X36056Y-52093D01*
X36033Y-52091D01*
X36010Y-52084D01*
X35988Y-52073D01*
X35969Y-52058D01*
X35953Y-52039D01*
X35942Y-52018D01*
X35934Y-51994D01*
X35932Y-51970D01*
X35934Y-51947D01*
X35940Y-51923D01*
X35951Y-51902D01*
X35967Y-51883D01*
X35985Y-51867D01*
X36006Y-51855D01*
X36030Y-51847D01*
X36054Y-51845D01*
X36077Y-51846D01*
X36101Y-51853D01*
X36122Y-51864D01*
X36142Y-51879D01*
X36158Y-51897D01*
X36170Y-51919D01*
X36177Y-51942D01*
X36180Y-51966D01*
X36181Y-51969D01*
X39389Y-24703D02*
X39386Y-24727D01*
X39379Y-24750D01*
X39368Y-24772D01*
X39352Y-24791D01*
X39333Y-24806D01*
X39312Y-24818D01*
X39289Y-24825D01*
X39264Y-24827D01*
X39241Y-24825D01*
X39218Y-24818D01*
X39196Y-24807D01*
X39177Y-24792D01*
X39161Y-24773D01*
X39150Y-24752D01*
X39142Y-24728D01*
X39140Y-24704D01*
X39142Y-24681D01*
X39148Y-24657D01*
X39159Y-24636D01*
X39175Y-24617D01*
X39193Y-24601D01*
X39214Y-24589D01*
X39238Y-24581D01*
X39262Y-24579D01*
X39285Y-24580D01*
X39309Y-24587D01*
X39330Y-24598D01*
X39350Y-24613D01*
X39366Y-24631D01*
X39378Y-24653D01*
X39385Y-24676D01*
X39388Y-24700D01*
X39389Y-24703D01*
X42096Y-23308D02*
X42093Y-23332D01*
X42086Y-23355D01*
X42075Y-23377D01*
X42059Y-23396D01*
X42040Y-23411D01*
X42019Y-23423D01*
X41996Y-23430D01*
X41971Y-23432D01*
X41948Y-23430D01*
X41925Y-23423D01*
X41903Y-23412D01*
X41884Y-23397D01*
X41868Y-23378D01*
X41857Y-23357D01*
X41849Y-23333D01*
X41847Y-23309D01*
X41849Y-23286D01*
X41855Y-23262D01*
X41866Y-23241D01*
X41882Y-23222D01*
X41900Y-23206D01*
X41921Y-23194D01*
X41945Y-23186D01*
X41969Y-23184D01*
X41992Y-23185D01*
X42016Y-23192D01*
X42037Y-23203D01*
X42057Y-23218D01*
X42073Y-23236D01*
X42085Y-23258D01*
X42092Y-23281D01*
X42095Y-23305D01*
X42096Y-23308D01*
X42110Y-23766D02*
X42107Y-23790D01*
X42100Y-23813D01*
X42089Y-23835D01*
X42073Y-23854D01*
X42054Y-23869D01*
X42033Y-23881D01*
X42010Y-23888D01*
X41985Y-23890D01*
X41962Y-23888D01*
X41939Y-23881D01*
X41917Y-23870D01*
X41898Y-23855D01*
X41882Y-23836D01*
X41871Y-23815D01*
X41863Y-23791D01*
X41861Y-23767D01*
X41863Y-23744D01*
X41869Y-23720D01*
X41880Y-23699D01*
X41896Y-23680D01*
X41914Y-23664D01*
X41935Y-23652D01*
X41959Y-23644D01*
X41983Y-23642D01*
X42006Y-23643D01*
X42030Y-23650D01*
X42051Y-23661D01*
X42071Y-23676D01*
X42087Y-23694D01*
X42099Y-23716D01*
X42106Y-23739D01*
X42109Y-23763D01*
X42110Y-23766D01*
X42117Y-51661D02*
X42114Y-51685D01*
X42107Y-51708D01*
X42096Y-51730D01*
X42080Y-51749D01*
X42061Y-51764D01*
X42040Y-51776D01*
X42017Y-51783D01*
X41992Y-51785D01*
X41969Y-51783D01*
X41946Y-51776D01*
X41924Y-51765D01*
X41905Y-51750D01*
X41889Y-51731D01*
X41878Y-51710D01*
X41870Y-51686D01*
X41868Y-51662D01*
X41870Y-51639D01*
X41876Y-51615D01*
X41887Y-51594D01*
X41903Y-51575D01*
X41921Y-51559D01*
X41942Y-51547D01*
X41966Y-51539D01*
X41990Y-51537D01*
X42013Y-51538D01*
X42037Y-51545D01*
X42058Y-51556D01*
X42078Y-51571D01*
X42094Y-51589D01*
X42106Y-51611D01*
X42113Y-51634D01*
X42116Y-51658D01*
X42117Y-51661D01*
X42213Y-52587D02*
X42210Y-52611D01*
X42203Y-52634D01*
X42192Y-52656D01*
X42176Y-52675D01*
X42157Y-52690D01*
X42136Y-52702D01*
X42113Y-52709D01*
X42088Y-52711D01*
X42065Y-52709D01*
X42042Y-52702D01*
X42020Y-52691D01*
X42001Y-52676D01*
X41985Y-52657D01*
X41974Y-52636D01*
X41966Y-52612D01*
X41964Y-52588D01*
X41966Y-52565D01*
X41972Y-52541D01*
X41983Y-52520D01*
X41999Y-52501D01*
X42017Y-52485D01*
X42038Y-52473D01*
X42062Y-52465D01*
X42086Y-52463D01*
X42109Y-52464D01*
X42133Y-52471D01*
X42154Y-52482D01*
X42174Y-52497D01*
X42190Y-52515D01*
X42202Y-52537D01*
X42209Y-52560D01*
X42212Y-52584D01*
X42213Y-52587D01*
X43031Y-26142D02*
X43028Y-26166D01*
X43021Y-26189D01*
X43010Y-26211D01*
X42994Y-26230D01*
X42975Y-26245D01*
X42954Y-26257D01*
X42931Y-26264D01*
X42906Y-26266D01*
X42883Y-26264D01*
X42860Y-26257D01*
X42838Y-26246D01*
X42819Y-26231D01*
X42803Y-26212D01*
X42792Y-26191D01*
X42784Y-26167D01*
X42782Y-26143D01*
X42784Y-26120D01*
X42790Y-26096D01*
X42801Y-26075D01*
X42817Y-26056D01*
X42835Y-26040D01*
X42856Y-26028D01*
X42880Y-26020D01*
X42904Y-26018D01*
X42927Y-26019D01*
X42951Y-26026D01*
X42972Y-26037D01*
X42992Y-26052D01*
X43008Y-26070D01*
X43020Y-26092D01*
X43027Y-26115D01*
X43030Y-26139D01*
X43031Y-26142D01*
X43261Y-26530D02*
X43258Y-26554D01*
X43251Y-26577D01*
X43240Y-26599D01*
X43224Y-26618D01*
X43205Y-26633D01*
X43184Y-26645D01*
X43161Y-26652D01*
X43136Y-26654D01*
X43113Y-26652D01*
X43090Y-26645D01*
X43068Y-26634D01*
X43049Y-26619D01*
X43033Y-26600D01*
X43022Y-26579D01*
X43014Y-26555D01*
X43012Y-26531D01*
X43014Y-26508D01*
X43020Y-26484D01*
X43031Y-26463D01*
X43047Y-26444D01*
X43065Y-26428D01*
X43086Y-26416D01*
X43110Y-26408D01*
X43134Y-26406D01*
X43157Y-26407D01*
X43181Y-26414D01*
X43202Y-26425D01*
X43222Y-26440D01*
X43238Y-26458D01*
X43250Y-26480D01*
X43257Y-26503D01*
X43260Y-26527D01*
X43261Y-26530D01*
X45952Y-25039D02*
X45949Y-25063D01*
X45942Y-25086D01*
X45931Y-25108D01*
X45915Y-25127D01*
X45896Y-25142D01*
X45875Y-25154D01*
X45852Y-25161D01*
X45827Y-25163D01*
X45804Y-25161D01*
X45781Y-25154D01*
X45759Y-25143D01*
X45740Y-25128D01*
X45724Y-25109D01*
X45713Y-25088D01*
X45705Y-25064D01*
X45703Y-25040D01*
X45705Y-25017D01*
X45711Y-24993D01*
X45722Y-24972D01*
X45738Y-24953D01*
X45756Y-24937D01*
X45777Y-24925D01*
X45801Y-24917D01*
X45825Y-24915D01*
X45848Y-24916D01*
X45872Y-24923D01*
X45893Y-24934D01*
X45913Y-24949D01*
X45929Y-24967D01*
X45941Y-24989D01*
X45948Y-25012D01*
X45951Y-25036D01*
X45952Y-25039D01*
X46865Y-27261D02*
X46862Y-27285D01*
X46855Y-27308D01*
X46844Y-27330D01*
X46828Y-27349D01*
X46809Y-27364D01*
X46788Y-27376D01*
X46765Y-27383D01*
X46740Y-27385D01*
X46717Y-27383D01*
X46694Y-27376D01*
X46672Y-27365D01*
X46653Y-27350D01*
X46637Y-27331D01*
X46626Y-27310D01*
X46618Y-27286D01*
X46616Y-27262D01*
X46618Y-27239D01*
X46624Y-27215D01*
X46635Y-27194D01*
X46651Y-27175D01*
X46669Y-27159D01*
X46690Y-27147D01*
X46714Y-27139D01*
X46738Y-27137D01*
X46761Y-27138D01*
X46785Y-27145D01*
X46806Y-27156D01*
X46826Y-27171D01*
X46842Y-27189D01*
X46854Y-27211D01*
X46861Y-27234D01*
X46864Y-27258D01*
X46865Y-27261D01*
X47509Y-25223D02*
X47506Y-25247D01*
X47499Y-25270D01*
X47488Y-25292D01*
X47472Y-25311D01*
X47453Y-25326D01*
X47432Y-25338D01*
X47409Y-25345D01*
X47384Y-25347D01*
X47361Y-25345D01*
X47338Y-25338D01*
X47316Y-25327D01*
X47297Y-25312D01*
X47281Y-25293D01*
X47270Y-25272D01*
X47262Y-25248D01*
X47260Y-25224D01*
X47262Y-25201D01*
X47268Y-25177D01*
X47279Y-25156D01*
X47295Y-25137D01*
X47313Y-25121D01*
X47334Y-25109D01*
X47358Y-25101D01*
X47382Y-25099D01*
X47405Y-25100D01*
X47429Y-25107D01*
X47450Y-25118D01*
X47470Y-25133D01*
X47486Y-25151D01*
X47498Y-25173D01*
X47505Y-25196D01*
X47508Y-25220D01*
X47509Y-25223D01*
X50536Y-46121D02*
X50533Y-46145D01*
X50526Y-46168D01*
X50515Y-46190D01*
X50499Y-46209D01*
X50480Y-46224D01*
X50459Y-46236D01*
X50436Y-46243D01*
X50411Y-46245D01*
X50388Y-46243D01*
X50365Y-46236D01*
X50343Y-46225D01*
X50324Y-46210D01*
X50308Y-46191D01*
X50297Y-46170D01*
X50289Y-46146D01*
X50287Y-46122D01*
X50289Y-46099D01*
X50295Y-46075D01*
X50306Y-46054D01*
X50322Y-46035D01*
X50340Y-46019D01*
X50361Y-46007D01*
X50385Y-45999D01*
X50409Y-45997D01*
X50432Y-45998D01*
X50456Y-46005D01*
X50477Y-46016D01*
X50497Y-46031D01*
X50513Y-46049D01*
X50525Y-46071D01*
X50532Y-46094D01*
X50535Y-46118D01*
X50536Y-46121D01*
X51525Y-44967D02*
X51522Y-44991D01*
X51515Y-45014D01*
X51504Y-45036D01*
X51488Y-45055D01*
X51469Y-45070D01*
X51448Y-45082D01*
X51425Y-45089D01*
X51400Y-45091D01*
X51377Y-45089D01*
X51354Y-45082D01*
X51332Y-45071D01*
X51313Y-45056D01*
X51297Y-45037D01*
X51286Y-45016D01*
X51278Y-44992D01*
X51276Y-44968D01*
X51278Y-44945D01*
X51284Y-44921D01*
X51295Y-44900D01*
X51311Y-44881D01*
X51329Y-44865D01*
X51350Y-44853D01*
X51374Y-44845D01*
X51398Y-44843D01*
X51421Y-44844D01*
X51445Y-44851D01*
X51466Y-44862D01*
X51486Y-44877D01*
X51502Y-44895D01*
X51514Y-44917D01*
X51521Y-44940D01*
X51524Y-44964D01*
X51525Y-44967D01*
X51692Y-42571D02*
X51689Y-42595D01*
X51682Y-42618D01*
X51671Y-42640D01*
X51655Y-42659D01*
X51636Y-42674D01*
X51615Y-42686D01*
X51592Y-42693D01*
X51567Y-42695D01*
X51544Y-42693D01*
X51521Y-42686D01*
X51499Y-42675D01*
X51480Y-42660D01*
X51464Y-42641D01*
X51453Y-42620D01*
X51445Y-42596D01*
X51443Y-42572D01*
X51445Y-42549D01*
X51451Y-42525D01*
X51462Y-42504D01*
X51478Y-42485D01*
X51496Y-42469D01*
X51517Y-42457D01*
X51541Y-42449D01*
X51565Y-42447D01*
X51588Y-42448D01*
X51612Y-42455D01*
X51633Y-42466D01*
X51653Y-42481D01*
X51669Y-42499D01*
X51681Y-42521D01*
X51688Y-42544D01*
X51691Y-42568D01*
X51692Y-42571D01*
X52247Y-42847D02*
X52244Y-42871D01*
X52237Y-42894D01*
X52226Y-42916D01*
X52210Y-42935D01*
X52191Y-42950D01*
X52170Y-42962D01*
X52147Y-42969D01*
X52122Y-42971D01*
X52099Y-42969D01*
X52076Y-42962D01*
X52054Y-42951D01*
X52035Y-42936D01*
X52019Y-42917D01*
X52008Y-42896D01*
X52000Y-42872D01*
X51998Y-42848D01*
X52000Y-42825D01*
X52006Y-42801D01*
X52017Y-42780D01*
X52033Y-42761D01*
X52051Y-42745D01*
X52072Y-42733D01*
X52096Y-42725D01*
X52120Y-42723D01*
X52143Y-42724D01*
X52167Y-42731D01*
X52188Y-42742D01*
X52208Y-42757D01*
X52224Y-42775D01*
X52236Y-42797D01*
X52243Y-42820D01*
X52246Y-42844D01*
X52247Y-42847D01*
X52491Y-37667D02*
X52488Y-37691D01*
X52481Y-37714D01*
X52470Y-37736D01*
X52454Y-37755D01*
X52435Y-37770D01*
X52414Y-37782D01*
X52391Y-37789D01*
X52366Y-37791D01*
X52343Y-37789D01*
X52320Y-37782D01*
X52298Y-37771D01*
X52279Y-37756D01*
X52263Y-37737D01*
X52252Y-37716D01*
X52244Y-37692D01*
X52242Y-37668D01*
X52244Y-37645D01*
X52250Y-37621D01*
X52261Y-37600D01*
X52277Y-37581D01*
X52295Y-37565D01*
X52316Y-37553D01*
X52340Y-37545D01*
X52364Y-37543D01*
X52387Y-37544D01*
X52411Y-37551D01*
X52432Y-37562D01*
X52452Y-37577D01*
X52468Y-37595D01*
X52480Y-37617D01*
X52487Y-37640D01*
X52490Y-37664D01*
X52491Y-37667D01*
X52721Y-40396D02*
X52718Y-40420D01*
X52711Y-40443D01*
X52700Y-40465D01*
X52684Y-40484D01*
X52665Y-40499D01*
X52644Y-40511D01*
X52621Y-40518D01*
X52596Y-40520D01*
X52573Y-40518D01*
X52550Y-40511D01*
X52528Y-40500D01*
X52509Y-40485D01*
X52493Y-40466D01*
X52482Y-40445D01*
X52474Y-40421D01*
X52472Y-40397D01*
X52474Y-40374D01*
X52480Y-40350D01*
X52491Y-40329D01*
X52507Y-40310D01*
X52525Y-40294D01*
X52546Y-40282D01*
X52570Y-40274D01*
X52594Y-40272D01*
X52617Y-40273D01*
X52641Y-40280D01*
X52662Y-40291D01*
X52682Y-40306D01*
X52698Y-40324D01*
X52710Y-40346D01*
X52717Y-40369D01*
X52720Y-40393D01*
X52721Y-40396D01*
X52827Y-34526D02*
X52824Y-34550D01*
X52817Y-34573D01*
X52806Y-34595D01*
X52790Y-34614D01*
X52771Y-34629D01*
X52750Y-34641D01*
X52727Y-34648D01*
X52702Y-34650D01*
X52679Y-34648D01*
X52656Y-34641D01*
X52634Y-34630D01*
X52615Y-34615D01*
X52599Y-34596D01*
X52588Y-34575D01*
X52580Y-34551D01*
X52578Y-34527D01*
X52580Y-34504D01*
X52586Y-34480D01*
X52597Y-34459D01*
X52613Y-34440D01*
X52631Y-34424D01*
X52652Y-34412D01*
X52676Y-34404D01*
X52700Y-34402D01*
X52723Y-34403D01*
X52747Y-34410D01*
X52768Y-34421D01*
X52788Y-34436D01*
X52804Y-34454D01*
X52816Y-34476D01*
X52823Y-34499D01*
X52826Y-34523D01*
X52827Y-34526D01*
X53459Y-39240D02*
X53456Y-39264D01*
X53449Y-39287D01*
X53438Y-39309D01*
X53422Y-39328D01*
X53403Y-39343D01*
X53382Y-39355D01*
X53359Y-39362D01*
X53334Y-39364D01*
X53311Y-39362D01*
X53288Y-39355D01*
X53266Y-39344D01*
X53247Y-39329D01*
X53231Y-39310D01*
X53220Y-39289D01*
X53212Y-39265D01*
X53210Y-39241D01*
X53212Y-39218D01*
X53218Y-39194D01*
X53229Y-39173D01*
X53245Y-39154D01*
X53263Y-39138D01*
X53284Y-39126D01*
X53308Y-39118D01*
X53332Y-39116D01*
X53355Y-39117D01*
X53379Y-39124D01*
X53400Y-39135D01*
X53420Y-39150D01*
X53436Y-39168D01*
X53448Y-39190D01*
X53455Y-39213D01*
X53458Y-39237D01*
X53459Y-39240D01*
X53540Y-34205D02*
X53537Y-34229D01*
X53530Y-34252D01*
X53519Y-34274D01*
X53503Y-34293D01*
X53484Y-34308D01*
X53463Y-34320D01*
X53440Y-34327D01*
X53415Y-34329D01*
X53392Y-34327D01*
X53369Y-34320D01*
X53347Y-34309D01*
X53328Y-34294D01*
X53312Y-34275D01*
X53301Y-34254D01*
X53293Y-34230D01*
X53291Y-34206D01*
X53293Y-34183D01*
X53299Y-34159D01*
X53310Y-34138D01*
X53326Y-34119D01*
X53344Y-34103D01*
X53365Y-34091D01*
X53389Y-34083D01*
X53413Y-34081D01*
X53436Y-34082D01*
X53460Y-34089D01*
X53481Y-34100D01*
X53501Y-34115D01*
X53517Y-34133D01*
X53529Y-34155D01*
X53536Y-34178D01*
X53539Y-34202D01*
X53540Y-34205D01*
X39193Y-53396D02*
X39193Y-53790D01*
X39390Y-53593D02*
X38996Y-53593D01*
X39193Y-55364D02*
X39193Y-55758D01*
X39390Y-55561D02*
X38996Y-55561D01*
X47719Y-26195D02*
X47715Y-26233D01*
X47703Y-26271D01*
X47685Y-26305D01*
X47660Y-26335D01*
X47630Y-26360D01*
X47596Y-26379D01*
X47559Y-26390D01*
X47520Y-26394D01*
X47482Y-26391D01*
X47445Y-26380D01*
X47410Y-26362D01*
X47380Y-26337D01*
X47354Y-26307D01*
X47336Y-26273D01*
X47324Y-26236D01*
X47320Y-26197D01*
X47323Y-26159D01*
X47334Y-26122D01*
X47351Y-26087D01*
X47376Y-26057D01*
X47405Y-26031D01*
X47439Y-26012D01*
X47477Y-26000D01*
X47515Y-25996D01*
X47553Y-25999D01*
X47591Y-26009D01*
X47626Y-26027D01*
X47656Y-26051D01*
X47682Y-26080D01*
X47701Y-26114D01*
X47714Y-26151D01*
X47718Y-26190D01*
X47719Y-26195D01*
X47319Y-25995D02*
X47719Y-26395D01*
X47719Y-25995D02*
X47319Y-26395D01*
X48307Y-25386D02*
X48303Y-25424D01*
X48291Y-25462D01*
X48273Y-25496D01*
X48248Y-25526D01*
X48218Y-25551D01*
X48184Y-25570D01*
X48147Y-25581D01*
X48108Y-25585D01*
X48070Y-25582D01*
X48033Y-25571D01*
X47998Y-25553D01*
X47968Y-25528D01*
X47942Y-25498D01*
X47924Y-25464D01*
X47912Y-25427D01*
X47908Y-25388D01*
X47911Y-25350D01*
X47922Y-25313D01*
X47939Y-25278D01*
X47964Y-25248D01*
X47993Y-25222D01*
X48027Y-25203D01*
X48065Y-25191D01*
X48103Y-25187D01*
X48141Y-25190D01*
X48179Y-25200D01*
X48214Y-25218D01*
X48244Y-25242D01*
X48270Y-25271D01*
X48289Y-25305D01*
X48302Y-25342D01*
X48306Y-25381D01*
X48307Y-25386D01*
X47907Y-25186D02*
X48307Y-25586D01*
X48307Y-25186D02*
X47907Y-25586D01*
X48528Y-26783D02*
X48524Y-26821D01*
X48512Y-26859D01*
X48494Y-26893D01*
X48469Y-26923D01*
X48439Y-26948D01*
X48405Y-26967D01*
X48368Y-26978D01*
X48329Y-26982D01*
X48291Y-26979D01*
X48254Y-26968D01*
X48219Y-26950D01*
X48189Y-26925D01*
X48163Y-26895D01*
X48145Y-26861D01*
X48133Y-26824D01*
X48129Y-26785D01*
X48132Y-26747D01*
X48143Y-26710D01*
X48160Y-26675D01*
X48185Y-26645D01*
X48214Y-26619D01*
X48248Y-26600D01*
X48286Y-26588D01*
X48324Y-26584D01*
X48362Y-26587D01*
X48400Y-26597D01*
X48435Y-26615D01*
X48465Y-26639D01*
X48491Y-26668D01*
X48510Y-26702D01*
X48523Y-26739D01*
X48527Y-26778D01*
X48528Y-26783D01*
X48128Y-26583D02*
X48528Y-26983D01*
X48528Y-26583D02*
X48128Y-26983D01*
X49116Y-25973D02*
X49112Y-26011D01*
X49100Y-26049D01*
X49082Y-26083D01*
X49057Y-26113D01*
X49027Y-26138D01*
X48993Y-26157D01*
X48956Y-26168D01*
X48917Y-26172D01*
X48879Y-26169D01*
X48842Y-26158D01*
X48807Y-26140D01*
X48777Y-26115D01*
X48751Y-26085D01*
X48733Y-26051D01*
X48721Y-26014D01*
X48717Y-25975D01*
X48720Y-25937D01*
X48731Y-25900D01*
X48748Y-25865D01*
X48773Y-25835D01*
X48802Y-25809D01*
X48836Y-25790D01*
X48874Y-25778D01*
X48912Y-25774D01*
X48950Y-25777D01*
X48988Y-25787D01*
X49023Y-25805D01*
X49053Y-25829D01*
X49079Y-25858D01*
X49098Y-25892D01*
X49111Y-25929D01*
X49115Y-25968D01*
X49116Y-25973D01*
X48716Y-25773D02*
X49116Y-26173D01*
X49116Y-25773D02*
X48716Y-26173D01*
X49337Y-27370D02*
X49333Y-27408D01*
X49321Y-27446D01*
X49303Y-27480D01*
X49278Y-27510D01*
X49248Y-27535D01*
X49214Y-27554D01*
X49177Y-27565D01*
X49138Y-27569D01*
X49100Y-27566D01*
X49063Y-27555D01*
X49028Y-27537D01*
X48998Y-27512D01*
X48972Y-27482D01*
X48954Y-27448D01*
X48942Y-27411D01*
X48938Y-27372D01*
X48941Y-27334D01*
X48952Y-27297D01*
X48969Y-27262D01*
X48994Y-27232D01*
X49023Y-27206D01*
X49057Y-27187D01*
X49095Y-27175D01*
X49133Y-27171D01*
X49171Y-27174D01*
X49209Y-27184D01*
X49244Y-27202D01*
X49274Y-27226D01*
X49300Y-27255D01*
X49319Y-27289D01*
X49332Y-27326D01*
X49336Y-27365D01*
X49337Y-27370D01*
X48937Y-27170D02*
X49337Y-27570D01*
X49337Y-27170D02*
X48937Y-27570D01*
X49925Y-26561D02*
X49921Y-26599D01*
X49909Y-26637D01*
X49891Y-26671D01*
X49866Y-26701D01*
X49836Y-26726D01*
X49802Y-26745D01*
X49765Y-26756D01*
X49726Y-26760D01*
X49688Y-26757D01*
X49651Y-26746D01*
X49616Y-26728D01*
X49586Y-26703D01*
X49560Y-26673D01*
X49542Y-26639D01*
X49530Y-26602D01*
X49526Y-26563D01*
X49529Y-26525D01*
X49540Y-26488D01*
X49557Y-26453D01*
X49582Y-26423D01*
X49611Y-26397D01*
X49645Y-26378D01*
X49683Y-26366D01*
X49721Y-26362D01*
X49759Y-26365D01*
X49797Y-26375D01*
X49832Y-26393D01*
X49862Y-26417D01*
X49888Y-26446D01*
X49907Y-26480D01*
X49920Y-26517D01*
X49924Y-26556D01*
X49925Y-26561D01*
X49525Y-26361D02*
X49925Y-26761D01*
X49925Y-26361D02*
X49525Y-26761D01*
G54D12*
X21768Y-59587D02*
X21768Y-58787D01*
X21959Y-58787D01*
X22073Y-58825D01*
X22149Y-58901D01*
X22188Y-58977D01*
X22226Y-59130D01*
X22226Y-59244D01*
X22188Y-59396D01*
X22149Y-59473D01*
X22073Y-59549D01*
X21959Y-59587D01*
X21768Y-59587D01*
X22568Y-59587D02*
X22568Y-59053D01*
X22568Y-59206D02*
X22607Y-59130D01*
X22645Y-59092D01*
X22721Y-59053D01*
X22797Y-59053D01*
X23063Y-59587D02*
X23063Y-59053D01*
X23063Y-58787D02*
X23025Y-58825D01*
X23063Y-58863D01*
X23102Y-58825D01*
X23063Y-58787D01*
X23063Y-58863D01*
X23559Y-59587D02*
X23483Y-59549D01*
X23444Y-59473D01*
X23444Y-58787D01*
X23978Y-59587D02*
X23902Y-59549D01*
X23863Y-59473D01*
X23863Y-58787D01*
X24892Y-59587D02*
X24892Y-58787D01*
X25159Y-59358D01*
X25426Y-58787D01*
X25426Y-59587D01*
X26149Y-59587D02*
X26149Y-59168D01*
X26111Y-59092D01*
X26035Y-59053D01*
X25883Y-59053D01*
X25806Y-59092D01*
X26149Y-59549D02*
X26073Y-59587D01*
X25883Y-59587D01*
X25806Y-59549D01*
X25768Y-59473D01*
X25768Y-59396D01*
X25806Y-59320D01*
X25883Y-59282D01*
X26073Y-59282D01*
X26149Y-59244D01*
X26530Y-59053D02*
X26530Y-59853D01*
X26530Y-59092D02*
X26607Y-59053D01*
X26759Y-59053D01*
X26835Y-59092D01*
X26873Y-59130D01*
X26911Y-59206D01*
X26911Y-59434D01*
X26873Y-59511D01*
X26835Y-59549D01*
X26759Y-59587D01*
X26607Y-59587D01*
X26530Y-59549D01*
X27254Y-59511D02*
X27293Y-59549D01*
X27254Y-59587D01*
X27216Y-59549D01*
X27254Y-59511D01*
X27254Y-59587D01*
X27254Y-59092D02*
X27293Y-59130D01*
X27254Y-59168D01*
X27216Y-59130D01*
X27254Y-59092D01*
X27254Y-59168D01*
X21181Y-60845D02*
X21377Y-61041D01*
X21377Y-60845D02*
X21181Y-61041D01*
X21921Y-60467D02*
X21997Y-60467D01*
X22073Y-60505D01*
X22111Y-60543D01*
X22149Y-60619D01*
X22188Y-60772D01*
X22188Y-60962D01*
X22149Y-61114D01*
X22111Y-61191D01*
X22073Y-61229D01*
X21997Y-61267D01*
X21921Y-61267D01*
X21845Y-61229D01*
X21807Y-61191D01*
X21768Y-61114D01*
X21730Y-60962D01*
X21730Y-60772D01*
X21768Y-60619D01*
X21807Y-60543D01*
X21845Y-60505D01*
X21921Y-60467D01*
X22530Y-61191D02*
X22569Y-61229D01*
X22530Y-61267D01*
X22492Y-61229D01*
X22530Y-61191D01*
X22530Y-61267D01*
X23064Y-60467D02*
X23140Y-60467D01*
X23216Y-60505D01*
X23254Y-60543D01*
X23292Y-60619D01*
X23331Y-60772D01*
X23331Y-60962D01*
X23292Y-61114D01*
X23254Y-61191D01*
X23216Y-61229D01*
X23140Y-61267D01*
X23064Y-61267D01*
X22988Y-61229D01*
X22950Y-61191D01*
X22911Y-61114D01*
X22873Y-60962D01*
X22873Y-60772D01*
X22911Y-60619D01*
X22950Y-60543D01*
X22988Y-60505D01*
X23064Y-60467D01*
X23635Y-60543D02*
X23673Y-60505D01*
X23750Y-60467D01*
X23940Y-60467D01*
X24016Y-60505D01*
X24054Y-60543D01*
X24093Y-60619D01*
X24093Y-60695D01*
X24054Y-60810D01*
X23597Y-61267D01*
X24093Y-61267D01*
X24588Y-60467D02*
X24664Y-60467D01*
X24740Y-60505D01*
X24778Y-60543D01*
X24816Y-60619D01*
X24855Y-60772D01*
X24855Y-60962D01*
X24816Y-61114D01*
X24778Y-61191D01*
X24740Y-61229D01*
X24664Y-61267D01*
X24588Y-61267D01*
X24512Y-61229D01*
X24474Y-61191D01*
X24435Y-61114D01*
X24397Y-60962D01*
X24397Y-60772D01*
X24435Y-60619D01*
X24474Y-60543D01*
X24512Y-60505D01*
X24588Y-60467D01*
X25159Y-60467D02*
X25159Y-60619D01*
X25464Y-60467D02*
X25464Y-60619D01*
X26989Y-60429D02*
X26303Y-61457D01*
X28018Y-60467D02*
X28094Y-60467D01*
X28170Y-60505D01*
X28208Y-60543D01*
X28246Y-60619D01*
X28285Y-60772D01*
X28285Y-60962D01*
X28246Y-61114D01*
X28208Y-61191D01*
X28170Y-61229D01*
X28094Y-61267D01*
X28018Y-61267D01*
X27942Y-61229D01*
X27904Y-61191D01*
X27865Y-61114D01*
X27827Y-60962D01*
X27827Y-60772D01*
X27865Y-60619D01*
X27904Y-60543D01*
X27942Y-60505D01*
X28018Y-60467D01*
X28627Y-61191D02*
X28666Y-61229D01*
X28627Y-61267D01*
X28589Y-61229D01*
X28627Y-61191D01*
X28627Y-61267D01*
X29389Y-60467D02*
X29008Y-60467D01*
X28970Y-60848D01*
X29008Y-60810D01*
X29085Y-60772D01*
X29275Y-60772D01*
X29351Y-60810D01*
X29389Y-60848D01*
X29428Y-60924D01*
X29428Y-61114D01*
X29389Y-61191D01*
X29351Y-61229D01*
X29275Y-61267D01*
X29085Y-61267D01*
X29008Y-61229D01*
X28970Y-61191D01*
X29923Y-60467D02*
X29999Y-60467D01*
X30075Y-60505D01*
X30113Y-60543D01*
X30151Y-60619D01*
X30190Y-60772D01*
X30190Y-60962D01*
X30151Y-61114D01*
X30113Y-61191D01*
X30075Y-61229D01*
X29999Y-61267D01*
X29923Y-61267D01*
X29847Y-61229D01*
X29809Y-61191D01*
X29770Y-61114D01*
X29732Y-60962D01*
X29732Y-60772D01*
X29770Y-60619D01*
X29809Y-60543D01*
X29847Y-60505D01*
X29923Y-60467D01*
X30532Y-61267D02*
X30532Y-60733D01*
X30532Y-60810D02*
X30571Y-60772D01*
X30647Y-60733D01*
X30761Y-60733D01*
X30837Y-60772D01*
X30875Y-60848D01*
X30875Y-61267D01*
X30875Y-60848D02*
X30913Y-60772D01*
X30990Y-60733D01*
X31104Y-60733D01*
X31180Y-60772D01*
X31218Y-60848D01*
X31218Y-61267D01*
X31599Y-61267D02*
X31599Y-60733D01*
X31599Y-60810D02*
X31638Y-60772D01*
X31714Y-60733D01*
X31828Y-60733D01*
X31904Y-60772D01*
X31942Y-60848D01*
X31942Y-61267D01*
X31942Y-60848D02*
X31980Y-60772D01*
X32057Y-60733D01*
X32171Y-60733D01*
X32247Y-60772D01*
X32285Y-60848D01*
X32285Y-61267D01*
X33505Y-61572D02*
X33467Y-61533D01*
X33391Y-61419D01*
X33353Y-61343D01*
X33315Y-61229D01*
X33276Y-61038D01*
X33276Y-60886D01*
X33315Y-60695D01*
X33353Y-60581D01*
X33391Y-60505D01*
X33467Y-60391D01*
X33505Y-60353D01*
X33771Y-60543D02*
X33809Y-60505D01*
X33886Y-60467D01*
X34076Y-60467D01*
X34152Y-60505D01*
X34190Y-60543D01*
X34229Y-60619D01*
X34229Y-60695D01*
X34190Y-60810D01*
X33733Y-61267D01*
X34229Y-61267D01*
X35181Y-61267D02*
X35181Y-60467D01*
X35524Y-61267D02*
X35524Y-60848D01*
X35486Y-60772D01*
X35410Y-60733D01*
X35296Y-60733D01*
X35220Y-60772D01*
X35181Y-60810D01*
X36020Y-61267D02*
X35944Y-61229D01*
X35905Y-61191D01*
X35867Y-61114D01*
X35867Y-60886D01*
X35905Y-60810D01*
X35944Y-60772D01*
X36020Y-60733D01*
X36134Y-60733D01*
X36210Y-60772D01*
X36248Y-60810D01*
X36286Y-60886D01*
X36286Y-61114D01*
X36248Y-61191D01*
X36210Y-61229D01*
X36134Y-61267D01*
X36020Y-61267D01*
X36744Y-61267D02*
X36668Y-61229D01*
X36629Y-61153D01*
X36629Y-60467D01*
X37353Y-61229D02*
X37277Y-61267D01*
X37125Y-61267D01*
X37048Y-61229D01*
X37010Y-61153D01*
X37010Y-60848D01*
X37048Y-60772D01*
X37125Y-60733D01*
X37277Y-60733D01*
X37353Y-60772D01*
X37391Y-60848D01*
X37391Y-60924D01*
X37010Y-61000D01*
X37696Y-61229D02*
X37773Y-61267D01*
X37925Y-61267D01*
X38001Y-61229D01*
X38039Y-61153D01*
X38039Y-61114D01*
X38001Y-61038D01*
X37925Y-61000D01*
X37811Y-61000D01*
X37734Y-60962D01*
X37696Y-60886D01*
X37696Y-60848D01*
X37734Y-60772D01*
X37811Y-60733D01*
X37925Y-60733D01*
X38001Y-60772D01*
X38306Y-61572D02*
X38344Y-61533D01*
X38421Y-61419D01*
X38459Y-61343D01*
X38497Y-61229D01*
X38535Y-61038D01*
X38535Y-60886D01*
X38497Y-60695D01*
X38459Y-60581D01*
X38421Y-60505D01*
X38344Y-60391D01*
X38306Y-60353D01*
G54D10*
X21378Y-61998D02*
X21375Y-62022D01*
X21368Y-62045D01*
X21357Y-62067D01*
X21341Y-62086D01*
X21322Y-62101D01*
X21301Y-62113D01*
X21278Y-62120D01*
X21253Y-62122D01*
X21230Y-62120D01*
X21207Y-62113D01*
X21185Y-62102D01*
X21166Y-62087D01*
X21150Y-62068D01*
X21139Y-62047D01*
X21131Y-62023D01*
X21129Y-61999D01*
X21131Y-61976D01*
X21137Y-61952D01*
X21148Y-61931D01*
X21164Y-61912D01*
X21182Y-61896D01*
X21203Y-61884D01*
X21227Y-61876D01*
X21251Y-61874D01*
X21274Y-61875D01*
X21298Y-61882D01*
X21319Y-61893D01*
X21339Y-61908D01*
X21355Y-61926D01*
X21367Y-61948D01*
X21374Y-61971D01*
X21377Y-61995D01*
X21378Y-61998D01*
G54D12*
X21921Y-61522D02*
X21997Y-61522D01*
X22073Y-61560D01*
X22111Y-61598D01*
X22149Y-61674D01*
X22188Y-61827D01*
X22188Y-62017D01*
X22149Y-62169D01*
X22111Y-62246D01*
X22073Y-62284D01*
X21997Y-62322D01*
X21921Y-62322D01*
X21845Y-62284D01*
X21807Y-62246D01*
X21768Y-62169D01*
X21730Y-62017D01*
X21730Y-61827D01*
X21768Y-61674D01*
X21807Y-61598D01*
X21845Y-61560D01*
X21921Y-61522D01*
X22530Y-62246D02*
X22569Y-62284D01*
X22530Y-62322D01*
X22492Y-62284D01*
X22530Y-62246D01*
X22530Y-62322D01*
X23064Y-61522D02*
X23140Y-61522D01*
X23216Y-61560D01*
X23254Y-61598D01*
X23292Y-61674D01*
X23331Y-61827D01*
X23331Y-62017D01*
X23292Y-62169D01*
X23254Y-62246D01*
X23216Y-62284D01*
X23140Y-62322D01*
X23064Y-62322D01*
X22988Y-62284D01*
X22950Y-62246D01*
X22911Y-62169D01*
X22873Y-62017D01*
X22873Y-61827D01*
X22911Y-61674D01*
X22950Y-61598D01*
X22988Y-61560D01*
X23064Y-61522D01*
X23635Y-61598D02*
X23673Y-61560D01*
X23750Y-61522D01*
X23940Y-61522D01*
X24016Y-61560D01*
X24054Y-61598D01*
X24093Y-61674D01*
X24093Y-61750D01*
X24054Y-61865D01*
X23597Y-62322D01*
X24093Y-62322D01*
X24816Y-61522D02*
X24435Y-61522D01*
X24397Y-61903D01*
X24435Y-61865D01*
X24512Y-61827D01*
X24702Y-61827D01*
X24778Y-61865D01*
X24816Y-61903D01*
X24855Y-61979D01*
X24855Y-62169D01*
X24816Y-62246D01*
X24778Y-62284D01*
X24702Y-62322D01*
X24512Y-62322D01*
X24435Y-62284D01*
X24397Y-62246D01*
X25159Y-61522D02*
X25159Y-61674D01*
X25464Y-61522D02*
X25464Y-61674D01*
X26989Y-61484D02*
X26303Y-62512D01*
X28018Y-61522D02*
X28094Y-61522D01*
X28170Y-61560D01*
X28208Y-61598D01*
X28246Y-61674D01*
X28285Y-61827D01*
X28285Y-62017D01*
X28246Y-62169D01*
X28208Y-62246D01*
X28170Y-62284D01*
X28094Y-62322D01*
X28018Y-62322D01*
X27942Y-62284D01*
X27904Y-62246D01*
X27865Y-62169D01*
X27827Y-62017D01*
X27827Y-61827D01*
X27865Y-61674D01*
X27904Y-61598D01*
X27942Y-61560D01*
X28018Y-61522D01*
X28627Y-62246D02*
X28666Y-62284D01*
X28627Y-62322D01*
X28589Y-62284D01*
X28627Y-62246D01*
X28627Y-62322D01*
X29351Y-61522D02*
X29199Y-61522D01*
X29123Y-61560D01*
X29085Y-61598D01*
X29008Y-61712D01*
X28970Y-61865D01*
X28970Y-62169D01*
X29008Y-62246D01*
X29047Y-62284D01*
X29123Y-62322D01*
X29275Y-62322D01*
X29351Y-62284D01*
X29389Y-62246D01*
X29428Y-62169D01*
X29428Y-61979D01*
X29389Y-61903D01*
X29351Y-61865D01*
X29275Y-61827D01*
X29123Y-61827D01*
X29047Y-61865D01*
X29008Y-61903D01*
X28970Y-61979D01*
X30113Y-61788D02*
X30113Y-62322D01*
X29923Y-61484D02*
X29732Y-62055D01*
X30228Y-62055D01*
X30532Y-62322D02*
X30532Y-61788D01*
X30532Y-61865D02*
X30571Y-61827D01*
X30647Y-61788D01*
X30761Y-61788D01*
X30837Y-61827D01*
X30875Y-61903D01*
X30875Y-62322D01*
X30875Y-61903D02*
X30913Y-61827D01*
X30990Y-61788D01*
X31104Y-61788D01*
X31180Y-61827D01*
X31218Y-61903D01*
X31218Y-62322D01*
X31599Y-62322D02*
X31599Y-61788D01*
X31599Y-61865D02*
X31638Y-61827D01*
X31714Y-61788D01*
X31828Y-61788D01*
X31904Y-61827D01*
X31942Y-61903D01*
X31942Y-62322D01*
X31942Y-61903D02*
X31980Y-61827D01*
X32057Y-61788D01*
X32171Y-61788D01*
X32247Y-61827D01*
X32285Y-61903D01*
X32285Y-62322D01*
X33505Y-62627D02*
X33467Y-62588D01*
X33391Y-62474D01*
X33353Y-62398D01*
X33315Y-62284D01*
X33276Y-62093D01*
X33276Y-61941D01*
X33315Y-61750D01*
X33353Y-61636D01*
X33391Y-61560D01*
X33467Y-61446D01*
X33505Y-61408D01*
X34152Y-61788D02*
X34152Y-62322D01*
X33962Y-61484D02*
X33771Y-62055D01*
X34267Y-62055D01*
X34533Y-61598D02*
X34571Y-61560D01*
X34648Y-61522D01*
X34838Y-61522D01*
X34914Y-61560D01*
X34952Y-61598D01*
X34991Y-61674D01*
X34991Y-61750D01*
X34952Y-61865D01*
X34495Y-62322D01*
X34991Y-62322D01*
X35943Y-62322D02*
X35943Y-61522D01*
X36286Y-62322D02*
X36286Y-61903D01*
X36248Y-61827D01*
X36172Y-61788D01*
X36058Y-61788D01*
X35982Y-61827D01*
X35943Y-61865D01*
X36782Y-62322D02*
X36706Y-62284D01*
X36667Y-62246D01*
X36629Y-62169D01*
X36629Y-61941D01*
X36667Y-61865D01*
X36706Y-61827D01*
X36782Y-61788D01*
X36896Y-61788D01*
X36972Y-61827D01*
X37010Y-61865D01*
X37048Y-61941D01*
X37048Y-62169D01*
X37010Y-62246D01*
X36972Y-62284D01*
X36896Y-62322D01*
X36782Y-62322D01*
X37506Y-62322D02*
X37430Y-62284D01*
X37391Y-62208D01*
X37391Y-61522D01*
X38115Y-62284D02*
X38039Y-62322D01*
X37887Y-62322D01*
X37810Y-62284D01*
X37772Y-62208D01*
X37772Y-61903D01*
X37810Y-61827D01*
X37887Y-61788D01*
X38039Y-61788D01*
X38115Y-61827D01*
X38153Y-61903D01*
X38153Y-61979D01*
X37772Y-62055D01*
X38458Y-62284D02*
X38535Y-62322D01*
X38687Y-62322D01*
X38763Y-62284D01*
X38801Y-62208D01*
X38801Y-62169D01*
X38763Y-62093D01*
X38687Y-62055D01*
X38573Y-62055D01*
X38496Y-62017D01*
X38458Y-61941D01*
X38458Y-61903D01*
X38496Y-61827D01*
X38573Y-61788D01*
X38687Y-61788D01*
X38763Y-61827D01*
X39068Y-62627D02*
X39106Y-62588D01*
X39183Y-62474D01*
X39221Y-62398D01*
X39259Y-62284D01*
X39297Y-62093D01*
X39297Y-61941D01*
X39259Y-61750D01*
X39221Y-61636D01*
X39183Y-61560D01*
X39106Y-61446D01*
X39068Y-61408D01*
X21181Y-62856D02*
X21181Y-63250D01*
X21378Y-63053D02*
X20984Y-63053D01*
X21921Y-62577D02*
X21997Y-62577D01*
X22073Y-62615D01*
X22111Y-62653D01*
X22149Y-62729D01*
X22188Y-62882D01*
X22188Y-63072D01*
X22149Y-63224D01*
X22111Y-63301D01*
X22073Y-63339D01*
X21997Y-63377D01*
X21921Y-63377D01*
X21845Y-63339D01*
X21807Y-63301D01*
X21768Y-63224D01*
X21730Y-63072D01*
X21730Y-62882D01*
X21768Y-62729D01*
X21807Y-62653D01*
X21845Y-62615D01*
X21921Y-62577D01*
X22530Y-63301D02*
X22569Y-63339D01*
X22530Y-63377D01*
X22492Y-63339D01*
X22530Y-63301D01*
X22530Y-63377D01*
X23064Y-62577D02*
X23140Y-62577D01*
X23216Y-62615D01*
X23254Y-62653D01*
X23292Y-62729D01*
X23331Y-62882D01*
X23331Y-63072D01*
X23292Y-63224D01*
X23254Y-63301D01*
X23216Y-63339D01*
X23140Y-63377D01*
X23064Y-63377D01*
X22988Y-63339D01*
X22950Y-63301D01*
X22911Y-63224D01*
X22873Y-63072D01*
X22873Y-62882D01*
X22911Y-62729D01*
X22950Y-62653D01*
X22988Y-62615D01*
X23064Y-62577D01*
X23597Y-62577D02*
X24093Y-62577D01*
X23826Y-62882D01*
X23940Y-62882D01*
X24016Y-62920D01*
X24054Y-62958D01*
X24093Y-63034D01*
X24093Y-63224D01*
X24054Y-63301D01*
X24016Y-63339D01*
X23940Y-63377D01*
X23712Y-63377D01*
X23635Y-63339D01*
X23597Y-63301D01*
X24474Y-63377D02*
X24626Y-63377D01*
X24702Y-63339D01*
X24740Y-63301D01*
X24816Y-63186D01*
X24855Y-63034D01*
X24855Y-62729D01*
X24816Y-62653D01*
X24778Y-62615D01*
X24702Y-62577D01*
X24550Y-62577D01*
X24474Y-62615D01*
X24435Y-62653D01*
X24397Y-62729D01*
X24397Y-62920D01*
X24435Y-62996D01*
X24474Y-63034D01*
X24550Y-63072D01*
X24702Y-63072D01*
X24778Y-63034D01*
X24816Y-62996D01*
X24855Y-62920D01*
X25159Y-62577D02*
X25159Y-62729D01*
X25464Y-62577D02*
X25464Y-62729D01*
X26989Y-62539D02*
X26303Y-63567D01*
X28285Y-63377D02*
X27827Y-63377D01*
X28056Y-63377D02*
X28056Y-62577D01*
X27980Y-62691D01*
X27904Y-62767D01*
X27827Y-62805D01*
X28627Y-63301D02*
X28666Y-63339D01*
X28627Y-63377D01*
X28589Y-63339D01*
X28627Y-63301D01*
X28627Y-63377D01*
X29161Y-62577D02*
X29237Y-62577D01*
X29313Y-62615D01*
X29351Y-62653D01*
X29389Y-62729D01*
X29428Y-62882D01*
X29428Y-63072D01*
X29389Y-63224D01*
X29351Y-63301D01*
X29313Y-63339D01*
X29237Y-63377D01*
X29161Y-63377D01*
X29085Y-63339D01*
X29047Y-63301D01*
X29008Y-63224D01*
X28970Y-63072D01*
X28970Y-62882D01*
X29008Y-62729D01*
X29047Y-62653D01*
X29085Y-62615D01*
X29161Y-62577D01*
X29923Y-62577D02*
X29999Y-62577D01*
X30075Y-62615D01*
X30113Y-62653D01*
X30151Y-62729D01*
X30190Y-62882D01*
X30190Y-63072D01*
X30151Y-63224D01*
X30113Y-63301D01*
X30075Y-63339D01*
X29999Y-63377D01*
X29923Y-63377D01*
X29847Y-63339D01*
X29809Y-63301D01*
X29770Y-63224D01*
X29732Y-63072D01*
X29732Y-62882D01*
X29770Y-62729D01*
X29809Y-62653D01*
X29847Y-62615D01*
X29923Y-62577D01*
X30532Y-63377D02*
X30532Y-62843D01*
X30532Y-62920D02*
X30571Y-62882D01*
X30647Y-62843D01*
X30761Y-62843D01*
X30837Y-62882D01*
X30875Y-62958D01*
X30875Y-63377D01*
X30875Y-62958D02*
X30913Y-62882D01*
X30990Y-62843D01*
X31104Y-62843D01*
X31180Y-62882D01*
X31218Y-62958D01*
X31218Y-63377D01*
X31599Y-63377D02*
X31599Y-62843D01*
X31599Y-62920D02*
X31638Y-62882D01*
X31714Y-62843D01*
X31828Y-62843D01*
X31904Y-62882D01*
X31942Y-62958D01*
X31942Y-63377D01*
X31942Y-62958D02*
X31980Y-62882D01*
X32057Y-62843D01*
X32171Y-62843D01*
X32247Y-62882D01*
X32285Y-62958D01*
X32285Y-63377D01*
X33505Y-63682D02*
X33467Y-63643D01*
X33391Y-63529D01*
X33353Y-63453D01*
X33315Y-63339D01*
X33276Y-63148D01*
X33276Y-62996D01*
X33315Y-62805D01*
X33353Y-62691D01*
X33391Y-62615D01*
X33467Y-62501D01*
X33505Y-62463D01*
X33771Y-62653D02*
X33809Y-62615D01*
X33886Y-62577D01*
X34076Y-62577D01*
X34152Y-62615D01*
X34190Y-62653D01*
X34229Y-62729D01*
X34229Y-62805D01*
X34190Y-62920D01*
X33733Y-63377D01*
X34229Y-63377D01*
X35181Y-63377D02*
X35181Y-62577D01*
X35524Y-63377D02*
X35524Y-62958D01*
X35486Y-62882D01*
X35410Y-62843D01*
X35296Y-62843D01*
X35220Y-62882D01*
X35181Y-62920D01*
X36020Y-63377D02*
X35944Y-63339D01*
X35905Y-63301D01*
X35867Y-63224D01*
X35867Y-62996D01*
X35905Y-62920D01*
X35944Y-62882D01*
X36020Y-62843D01*
X36134Y-62843D01*
X36210Y-62882D01*
X36248Y-62920D01*
X36286Y-62996D01*
X36286Y-63224D01*
X36248Y-63301D01*
X36210Y-63339D01*
X36134Y-63377D01*
X36020Y-63377D01*
X36744Y-63377D02*
X36668Y-63339D01*
X36629Y-63263D01*
X36629Y-62577D01*
X37353Y-63339D02*
X37277Y-63377D01*
X37125Y-63377D01*
X37048Y-63339D01*
X37010Y-63263D01*
X37010Y-62958D01*
X37048Y-62882D01*
X37125Y-62843D01*
X37277Y-62843D01*
X37353Y-62882D01*
X37391Y-62958D01*
X37391Y-63034D01*
X37010Y-63110D01*
X37696Y-63339D02*
X37773Y-63377D01*
X37925Y-63377D01*
X38001Y-63339D01*
X38039Y-63263D01*
X38039Y-63224D01*
X38001Y-63148D01*
X37925Y-63110D01*
X37811Y-63110D01*
X37734Y-63072D01*
X37696Y-62996D01*
X37696Y-62958D01*
X37734Y-62882D01*
X37811Y-62843D01*
X37925Y-62843D01*
X38001Y-62882D01*
X38306Y-63682D02*
X38344Y-63643D01*
X38421Y-63529D01*
X38459Y-63453D01*
X38497Y-63339D01*
X38535Y-63148D01*
X38535Y-62996D01*
X38497Y-62805D01*
X38459Y-62691D01*
X38421Y-62615D01*
X38344Y-62501D01*
X38306Y-62463D01*
G54D10*
X21378Y-64108D02*
X21374Y-64146D01*
X21362Y-64184D01*
X21344Y-64218D01*
X21319Y-64248D01*
X21289Y-64273D01*
X21255Y-64292D01*
X21218Y-64303D01*
X21179Y-64307D01*
X21141Y-64304D01*
X21104Y-64293D01*
X21069Y-64275D01*
X21039Y-64250D01*
X21013Y-64220D01*
X20995Y-64186D01*
X20983Y-64149D01*
X20979Y-64110D01*
X20982Y-64072D01*
X20993Y-64035D01*
X21010Y-64000D01*
X21035Y-63970D01*
X21064Y-63944D01*
X21098Y-63925D01*
X21136Y-63913D01*
X21174Y-63909D01*
X21212Y-63912D01*
X21250Y-63922D01*
X21285Y-63940D01*
X21315Y-63964D01*
X21341Y-63993D01*
X21360Y-64027D01*
X21373Y-64064D01*
X21377Y-64103D01*
X21378Y-64108D01*
X20978Y-63908D02*
X21378Y-64308D01*
X21378Y-63908D02*
X20978Y-64308D01*
G54D12*
X21921Y-63632D02*
X21997Y-63632D01*
X22073Y-63670D01*
X22111Y-63708D01*
X22149Y-63784D01*
X22188Y-63937D01*
X22188Y-64127D01*
X22149Y-64279D01*
X22111Y-64356D01*
X22073Y-64394D01*
X21997Y-64432D01*
X21921Y-64432D01*
X21845Y-64394D01*
X21807Y-64356D01*
X21768Y-64279D01*
X21730Y-64127D01*
X21730Y-63937D01*
X21768Y-63784D01*
X21807Y-63708D01*
X21845Y-63670D01*
X21921Y-63632D01*
X22530Y-64356D02*
X22569Y-64394D01*
X22530Y-64432D01*
X22492Y-64394D01*
X22530Y-64356D01*
X22530Y-64432D01*
X23064Y-63632D02*
X23140Y-63632D01*
X23216Y-63670D01*
X23254Y-63708D01*
X23292Y-63784D01*
X23331Y-63937D01*
X23331Y-64127D01*
X23292Y-64279D01*
X23254Y-64356D01*
X23216Y-64394D01*
X23140Y-64432D01*
X23064Y-64432D01*
X22988Y-64394D01*
X22950Y-64356D01*
X22911Y-64279D01*
X22873Y-64127D01*
X22873Y-63937D01*
X22911Y-63784D01*
X22950Y-63708D01*
X22988Y-63670D01*
X23064Y-63632D01*
X24016Y-63898D02*
X24016Y-64432D01*
X23826Y-63594D02*
X23635Y-64165D01*
X24131Y-64165D01*
X24588Y-63632D02*
X24664Y-63632D01*
X24740Y-63670D01*
X24778Y-63708D01*
X24816Y-63784D01*
X24855Y-63937D01*
X24855Y-64127D01*
X24816Y-64279D01*
X24778Y-64356D01*
X24740Y-64394D01*
X24664Y-64432D01*
X24588Y-64432D01*
X24512Y-64394D01*
X24474Y-64356D01*
X24435Y-64279D01*
X24397Y-64127D01*
X24397Y-63937D01*
X24435Y-63784D01*
X24474Y-63708D01*
X24512Y-63670D01*
X24588Y-63632D01*
X25159Y-63632D02*
X25159Y-63784D01*
X25464Y-63632D02*
X25464Y-63784D01*
X26989Y-63594D02*
X26303Y-64622D01*
X28285Y-64432D02*
X27827Y-64432D01*
X28056Y-64432D02*
X28056Y-63632D01*
X27980Y-63746D01*
X27904Y-63822D01*
X27827Y-63860D01*
X28627Y-64356D02*
X28666Y-64394D01*
X28627Y-64432D01*
X28589Y-64394D01*
X28627Y-64356D01*
X28627Y-64432D01*
X29161Y-63632D02*
X29237Y-63632D01*
X29313Y-63670D01*
X29351Y-63708D01*
X29389Y-63784D01*
X29428Y-63937D01*
X29428Y-64127D01*
X29389Y-64279D01*
X29351Y-64356D01*
X29313Y-64394D01*
X29237Y-64432D01*
X29161Y-64432D01*
X29085Y-64394D01*
X29047Y-64356D01*
X29008Y-64279D01*
X28970Y-64127D01*
X28970Y-63937D01*
X29008Y-63784D01*
X29047Y-63708D01*
X29085Y-63670D01*
X29161Y-63632D01*
X29732Y-63708D02*
X29770Y-63670D01*
X29847Y-63632D01*
X30037Y-63632D01*
X30113Y-63670D01*
X30151Y-63708D01*
X30190Y-63784D01*
X30190Y-63860D01*
X30151Y-63975D01*
X29694Y-64432D01*
X30190Y-64432D01*
X30532Y-64432D02*
X30532Y-63898D01*
X30532Y-63975D02*
X30571Y-63937D01*
X30647Y-63898D01*
X30761Y-63898D01*
X30837Y-63937D01*
X30875Y-64013D01*
X30875Y-64432D01*
X30875Y-64013D02*
X30913Y-63937D01*
X30990Y-63898D01*
X31104Y-63898D01*
X31180Y-63937D01*
X31218Y-64013D01*
X31218Y-64432D01*
X31599Y-64432D02*
X31599Y-63898D01*
X31599Y-63975D02*
X31638Y-63937D01*
X31714Y-63898D01*
X31828Y-63898D01*
X31904Y-63937D01*
X31942Y-64013D01*
X31942Y-64432D01*
X31942Y-64013D02*
X31980Y-63937D01*
X32057Y-63898D01*
X32171Y-63898D01*
X32247Y-63937D01*
X32285Y-64013D01*
X32285Y-64432D01*
X33505Y-64737D02*
X33467Y-64698D01*
X33391Y-64584D01*
X33353Y-64508D01*
X33315Y-64394D01*
X33276Y-64203D01*
X33276Y-64051D01*
X33315Y-63860D01*
X33353Y-63746D01*
X33391Y-63670D01*
X33467Y-63556D01*
X33505Y-63518D01*
X34152Y-63632D02*
X34000Y-63632D01*
X33924Y-63670D01*
X33886Y-63708D01*
X33809Y-63822D01*
X33771Y-63975D01*
X33771Y-64279D01*
X33809Y-64356D01*
X33848Y-64394D01*
X33924Y-64432D01*
X34076Y-64432D01*
X34152Y-64394D01*
X34190Y-64356D01*
X34229Y-64279D01*
X34229Y-64089D01*
X34190Y-64013D01*
X34152Y-63975D01*
X34076Y-63937D01*
X33924Y-63937D01*
X33848Y-63975D01*
X33809Y-64013D01*
X33771Y-64089D01*
X35181Y-64432D02*
X35181Y-63632D01*
X35524Y-64432D02*
X35524Y-64013D01*
X35486Y-63937D01*
X35410Y-63898D01*
X35296Y-63898D01*
X35220Y-63937D01*
X35181Y-63975D01*
X36020Y-64432D02*
X35944Y-64394D01*
X35905Y-64356D01*
X35867Y-64279D01*
X35867Y-64051D01*
X35905Y-63975D01*
X35944Y-63937D01*
X36020Y-63898D01*
X36134Y-63898D01*
X36210Y-63937D01*
X36248Y-63975D01*
X36286Y-64051D01*
X36286Y-64279D01*
X36248Y-64356D01*
X36210Y-64394D01*
X36134Y-64432D01*
X36020Y-64432D01*
X36744Y-64432D02*
X36668Y-64394D01*
X36629Y-64318D01*
X36629Y-63632D01*
X37353Y-64394D02*
X37277Y-64432D01*
X37125Y-64432D01*
X37048Y-64394D01*
X37010Y-64318D01*
X37010Y-64013D01*
X37048Y-63937D01*
X37125Y-63898D01*
X37277Y-63898D01*
X37353Y-63937D01*
X37391Y-64013D01*
X37391Y-64089D01*
X37010Y-64165D01*
X37696Y-64394D02*
X37773Y-64432D01*
X37925Y-64432D01*
X38001Y-64394D01*
X38039Y-64318D01*
X38039Y-64279D01*
X38001Y-64203D01*
X37925Y-64165D01*
X37811Y-64165D01*
X37734Y-64127D01*
X37696Y-64051D01*
X37696Y-64013D01*
X37734Y-63937D01*
X37811Y-63898D01*
X37925Y-63898D01*
X38001Y-63937D01*
X38306Y-64737D02*
X38344Y-64698D01*
X38421Y-64584D01*
X38459Y-64508D01*
X38497Y-64394D01*
X38535Y-64203D01*
X38535Y-64051D01*
X38497Y-63860D01*
X38459Y-63746D01*
X38421Y-63670D01*
X38344Y-63556D01*
X38306Y-63518D01*
M02*
