G04 (created by PCBNEW (2012-01-19 BZR 3256)-stable) date 5/16/2012 8:33:36 PM*
G01*
G70*
G90*
%MOIN*%
G04 Gerber Fmt 3.4, Leading zero omitted, Abs format*
%FSLAX34Y34*%
G04 APERTURE LIST*
%ADD10C,0.001000*%
%ADD11C,0.015000*%
%ADD12C,0.008000*%
G04 APERTURE END LIST*
G54D10*
G54D11*
X56693Y-39370D02*
X56363Y-42734D01*
X55385Y-45971D01*
X53798Y-48956D01*
X51661Y-51576D01*
X49056Y-53731D01*
X46082Y-55339D01*
X42853Y-56339D01*
X39490Y-56692D01*
X36124Y-56386D01*
X32881Y-55431D01*
X29885Y-53865D01*
X27250Y-51746D01*
X25077Y-49156D01*
X23448Y-46194D01*
X22426Y-42971D01*
X22049Y-39611D01*
X22332Y-36243D01*
X23264Y-32993D01*
X24809Y-29986D01*
X26909Y-27337D01*
X29484Y-25146D01*
X32435Y-23496D01*
X35651Y-22452D01*
X39008Y-22051D01*
X42378Y-22311D01*
X45634Y-23220D01*
X48652Y-24744D01*
X51316Y-26826D01*
X53525Y-29385D01*
X55195Y-32325D01*
X56262Y-35533D01*
X56686Y-38887D01*
X56693Y-39370D01*
G54D10*
X41634Y-53347D02*
X41830Y-53543D01*
X41830Y-53347D02*
X41634Y-53543D01*
X42619Y-53150D02*
X42815Y-53346D01*
X42815Y-53150D02*
X42619Y-53346D01*
X26388Y-32212D02*
X26385Y-32236D01*
X26378Y-32259D01*
X26367Y-32281D01*
X26351Y-32300D01*
X26332Y-32315D01*
X26311Y-32327D01*
X26288Y-32334D01*
X26263Y-32336D01*
X26240Y-32334D01*
X26217Y-32327D01*
X26195Y-32316D01*
X26176Y-32301D01*
X26160Y-32282D01*
X26149Y-32261D01*
X26141Y-32237D01*
X26139Y-32213D01*
X26141Y-32190D01*
X26147Y-32166D01*
X26158Y-32145D01*
X26174Y-32126D01*
X26192Y-32110D01*
X26213Y-32098D01*
X26237Y-32090D01*
X26261Y-32088D01*
X26284Y-32089D01*
X26308Y-32096D01*
X26329Y-32107D01*
X26349Y-32122D01*
X26365Y-32140D01*
X26377Y-32162D01*
X26384Y-32185D01*
X26387Y-32209D01*
X26388Y-32212D01*
X27920Y-27362D02*
X27917Y-27386D01*
X27910Y-27409D01*
X27899Y-27431D01*
X27883Y-27450D01*
X27864Y-27465D01*
X27843Y-27477D01*
X27820Y-27484D01*
X27795Y-27486D01*
X27772Y-27484D01*
X27749Y-27477D01*
X27727Y-27466D01*
X27708Y-27451D01*
X27692Y-27432D01*
X27681Y-27411D01*
X27673Y-27387D01*
X27671Y-27363D01*
X27673Y-27340D01*
X27679Y-27316D01*
X27690Y-27295D01*
X27706Y-27276D01*
X27724Y-27260D01*
X27745Y-27248D01*
X27769Y-27240D01*
X27793Y-27238D01*
X27816Y-27239D01*
X27840Y-27246D01*
X27861Y-27257D01*
X27881Y-27272D01*
X27897Y-27290D01*
X27909Y-27312D01*
X27916Y-27335D01*
X27919Y-27359D01*
X27920Y-27362D01*
X27947Y-46756D02*
X27944Y-46780D01*
X27937Y-46803D01*
X27926Y-46825D01*
X27910Y-46844D01*
X27891Y-46859D01*
X27870Y-46871D01*
X27847Y-46878D01*
X27822Y-46880D01*
X27799Y-46878D01*
X27776Y-46871D01*
X27754Y-46860D01*
X27735Y-46845D01*
X27719Y-46826D01*
X27708Y-46805D01*
X27700Y-46781D01*
X27698Y-46757D01*
X27700Y-46734D01*
X27706Y-46710D01*
X27717Y-46689D01*
X27733Y-46670D01*
X27751Y-46654D01*
X27772Y-46642D01*
X27796Y-46634D01*
X27820Y-46632D01*
X27843Y-46633D01*
X27867Y-46640D01*
X27888Y-46651D01*
X27908Y-46666D01*
X27924Y-46684D01*
X27936Y-46706D01*
X27943Y-46729D01*
X27946Y-46753D01*
X27947Y-46756D01*
X28511Y-28071D02*
X28508Y-28095D01*
X28501Y-28118D01*
X28490Y-28140D01*
X28474Y-28159D01*
X28455Y-28174D01*
X28434Y-28186D01*
X28411Y-28193D01*
X28386Y-28195D01*
X28363Y-28193D01*
X28340Y-28186D01*
X28318Y-28175D01*
X28299Y-28160D01*
X28283Y-28141D01*
X28272Y-28120D01*
X28264Y-28096D01*
X28262Y-28072D01*
X28264Y-28049D01*
X28270Y-28025D01*
X28281Y-28004D01*
X28297Y-27985D01*
X28315Y-27969D01*
X28336Y-27957D01*
X28360Y-27949D01*
X28384Y-27947D01*
X28407Y-27948D01*
X28431Y-27955D01*
X28452Y-27966D01*
X28472Y-27981D01*
X28488Y-27999D01*
X28500Y-28021D01*
X28507Y-28044D01*
X28510Y-28068D01*
X28511Y-28071D01*
X28708Y-30765D02*
X28705Y-30789D01*
X28698Y-30812D01*
X28687Y-30834D01*
X28671Y-30853D01*
X28652Y-30868D01*
X28631Y-30880D01*
X28608Y-30887D01*
X28583Y-30889D01*
X28560Y-30887D01*
X28537Y-30880D01*
X28515Y-30869D01*
X28496Y-30854D01*
X28480Y-30835D01*
X28469Y-30814D01*
X28461Y-30790D01*
X28459Y-30766D01*
X28461Y-30743D01*
X28467Y-30719D01*
X28478Y-30698D01*
X28494Y-30679D01*
X28512Y-30663D01*
X28533Y-30651D01*
X28557Y-30643D01*
X28581Y-30641D01*
X28604Y-30642D01*
X28628Y-30649D01*
X28649Y-30660D01*
X28669Y-30675D01*
X28685Y-30693D01*
X28697Y-30715D01*
X28704Y-30738D01*
X28707Y-30762D01*
X28708Y-30765D01*
X28896Y-32142D02*
X28893Y-32166D01*
X28886Y-32189D01*
X28875Y-32211D01*
X28859Y-32230D01*
X28840Y-32245D01*
X28819Y-32257D01*
X28796Y-32264D01*
X28771Y-32266D01*
X28748Y-32264D01*
X28725Y-32257D01*
X28703Y-32246D01*
X28684Y-32231D01*
X28668Y-32212D01*
X28657Y-32191D01*
X28649Y-32167D01*
X28647Y-32143D01*
X28649Y-32120D01*
X28655Y-32096D01*
X28666Y-32075D01*
X28682Y-32056D01*
X28700Y-32040D01*
X28721Y-32028D01*
X28745Y-32020D01*
X28769Y-32018D01*
X28792Y-32019D01*
X28816Y-32026D01*
X28837Y-32037D01*
X28857Y-32052D01*
X28873Y-32070D01*
X28885Y-32092D01*
X28892Y-32115D01*
X28895Y-32139D01*
X28896Y-32142D01*
X29572Y-29589D02*
X29569Y-29613D01*
X29562Y-29636D01*
X29551Y-29658D01*
X29535Y-29677D01*
X29516Y-29692D01*
X29495Y-29704D01*
X29472Y-29711D01*
X29447Y-29713D01*
X29424Y-29711D01*
X29401Y-29704D01*
X29379Y-29693D01*
X29360Y-29678D01*
X29344Y-29659D01*
X29333Y-29638D01*
X29325Y-29614D01*
X29323Y-29590D01*
X29325Y-29567D01*
X29331Y-29543D01*
X29342Y-29522D01*
X29358Y-29503D01*
X29376Y-29487D01*
X29397Y-29475D01*
X29421Y-29467D01*
X29445Y-29465D01*
X29468Y-29466D01*
X29492Y-29473D01*
X29513Y-29484D01*
X29533Y-29499D01*
X29549Y-29517D01*
X29561Y-29539D01*
X29568Y-29562D01*
X29571Y-29586D01*
X29572Y-29589D01*
X29822Y-30014D02*
X29819Y-30038D01*
X29812Y-30061D01*
X29801Y-30083D01*
X29785Y-30102D01*
X29766Y-30117D01*
X29745Y-30129D01*
X29722Y-30136D01*
X29697Y-30138D01*
X29674Y-30136D01*
X29651Y-30129D01*
X29629Y-30118D01*
X29610Y-30103D01*
X29594Y-30084D01*
X29583Y-30063D01*
X29575Y-30039D01*
X29573Y-30015D01*
X29575Y-29992D01*
X29581Y-29968D01*
X29592Y-29947D01*
X29608Y-29928D01*
X29626Y-29912D01*
X29647Y-29900D01*
X29671Y-29892D01*
X29695Y-29890D01*
X29718Y-29891D01*
X29742Y-29898D01*
X29763Y-29909D01*
X29783Y-29924D01*
X29799Y-29942D01*
X29811Y-29964D01*
X29818Y-29987D01*
X29821Y-30011D01*
X29822Y-30014D01*
X29908Y-28768D02*
X29905Y-28792D01*
X29898Y-28815D01*
X29887Y-28837D01*
X29871Y-28856D01*
X29852Y-28871D01*
X29831Y-28883D01*
X29808Y-28890D01*
X29783Y-28892D01*
X29760Y-28890D01*
X29737Y-28883D01*
X29715Y-28872D01*
X29696Y-28857D01*
X29680Y-28838D01*
X29669Y-28817D01*
X29661Y-28793D01*
X29659Y-28769D01*
X29661Y-28746D01*
X29667Y-28722D01*
X29678Y-28701D01*
X29694Y-28682D01*
X29712Y-28666D01*
X29733Y-28654D01*
X29757Y-28646D01*
X29781Y-28644D01*
X29804Y-28645D01*
X29828Y-28652D01*
X29849Y-28663D01*
X29869Y-28678D01*
X29885Y-28696D01*
X29897Y-28718D01*
X29904Y-28741D01*
X29907Y-28765D01*
X29908Y-28768D01*
X30575Y-30448D02*
X30572Y-30472D01*
X30565Y-30495D01*
X30554Y-30517D01*
X30538Y-30536D01*
X30519Y-30551D01*
X30498Y-30563D01*
X30475Y-30570D01*
X30450Y-30572D01*
X30427Y-30570D01*
X30404Y-30563D01*
X30382Y-30552D01*
X30363Y-30537D01*
X30347Y-30518D01*
X30336Y-30497D01*
X30328Y-30473D01*
X30326Y-30449D01*
X30328Y-30426D01*
X30334Y-30402D01*
X30345Y-30381D01*
X30361Y-30362D01*
X30379Y-30346D01*
X30400Y-30334D01*
X30424Y-30326D01*
X30448Y-30324D01*
X30471Y-30325D01*
X30495Y-30332D01*
X30516Y-30343D01*
X30536Y-30358D01*
X30552Y-30376D01*
X30564Y-30398D01*
X30571Y-30421D01*
X30574Y-30445D01*
X30575Y-30448D01*
X30745Y-29796D02*
X30742Y-29820D01*
X30735Y-29843D01*
X30724Y-29865D01*
X30708Y-29884D01*
X30689Y-29899D01*
X30668Y-29911D01*
X30645Y-29918D01*
X30620Y-29920D01*
X30597Y-29918D01*
X30574Y-29911D01*
X30552Y-29900D01*
X30533Y-29885D01*
X30517Y-29866D01*
X30506Y-29845D01*
X30498Y-29821D01*
X30496Y-29797D01*
X30498Y-29774D01*
X30504Y-29750D01*
X30515Y-29729D01*
X30531Y-29710D01*
X30549Y-29694D01*
X30570Y-29682D01*
X30594Y-29674D01*
X30618Y-29672D01*
X30641Y-29673D01*
X30665Y-29680D01*
X30686Y-29691D01*
X30706Y-29706D01*
X30722Y-29724D01*
X30734Y-29746D01*
X30741Y-29769D01*
X30744Y-29793D01*
X30745Y-29796D01*
X30914Y-26665D02*
X30911Y-26689D01*
X30904Y-26712D01*
X30893Y-26734D01*
X30877Y-26753D01*
X30858Y-26768D01*
X30837Y-26780D01*
X30814Y-26787D01*
X30789Y-26789D01*
X30766Y-26787D01*
X30743Y-26780D01*
X30721Y-26769D01*
X30702Y-26754D01*
X30686Y-26735D01*
X30675Y-26714D01*
X30667Y-26690D01*
X30665Y-26666D01*
X30667Y-26643D01*
X30673Y-26619D01*
X30684Y-26598D01*
X30700Y-26579D01*
X30718Y-26563D01*
X30739Y-26551D01*
X30763Y-26543D01*
X30787Y-26541D01*
X30810Y-26542D01*
X30834Y-26549D01*
X30855Y-26560D01*
X30875Y-26575D01*
X30891Y-26593D01*
X30903Y-26615D01*
X30910Y-26638D01*
X30913Y-26662D01*
X30914Y-26665D01*
X31275Y-25839D02*
X31272Y-25863D01*
X31265Y-25886D01*
X31254Y-25908D01*
X31238Y-25927D01*
X31219Y-25942D01*
X31198Y-25954D01*
X31175Y-25961D01*
X31150Y-25963D01*
X31127Y-25961D01*
X31104Y-25954D01*
X31082Y-25943D01*
X31063Y-25928D01*
X31047Y-25909D01*
X31036Y-25888D01*
X31028Y-25864D01*
X31026Y-25840D01*
X31028Y-25817D01*
X31034Y-25793D01*
X31045Y-25772D01*
X31061Y-25753D01*
X31079Y-25737D01*
X31100Y-25725D01*
X31124Y-25717D01*
X31148Y-25715D01*
X31171Y-25716D01*
X31195Y-25723D01*
X31216Y-25734D01*
X31236Y-25749D01*
X31252Y-25767D01*
X31264Y-25789D01*
X31271Y-25812D01*
X31274Y-25836D01*
X31275Y-25839D01*
X31700Y-26339D02*
X31697Y-26363D01*
X31690Y-26386D01*
X31679Y-26408D01*
X31663Y-26427D01*
X31644Y-26442D01*
X31623Y-26454D01*
X31600Y-26461D01*
X31575Y-26463D01*
X31552Y-26461D01*
X31529Y-26454D01*
X31507Y-26443D01*
X31488Y-26428D01*
X31472Y-26409D01*
X31461Y-26388D01*
X31453Y-26364D01*
X31451Y-26340D01*
X31453Y-26317D01*
X31459Y-26293D01*
X31470Y-26272D01*
X31486Y-26253D01*
X31504Y-26237D01*
X31525Y-26225D01*
X31549Y-26217D01*
X31573Y-26215D01*
X31596Y-26216D01*
X31620Y-26223D01*
X31641Y-26234D01*
X31661Y-26249D01*
X31677Y-26267D01*
X31689Y-26289D01*
X31696Y-26312D01*
X31699Y-26336D01*
X31700Y-26339D01*
X31961Y-27208D02*
X31958Y-27232D01*
X31951Y-27255D01*
X31940Y-27277D01*
X31924Y-27296D01*
X31905Y-27311D01*
X31884Y-27323D01*
X31861Y-27330D01*
X31836Y-27332D01*
X31813Y-27330D01*
X31790Y-27323D01*
X31768Y-27312D01*
X31749Y-27297D01*
X31733Y-27278D01*
X31722Y-27257D01*
X31714Y-27233D01*
X31712Y-27209D01*
X31714Y-27186D01*
X31720Y-27162D01*
X31731Y-27141D01*
X31747Y-27122D01*
X31765Y-27106D01*
X31786Y-27094D01*
X31810Y-27086D01*
X31834Y-27084D01*
X31857Y-27085D01*
X31881Y-27092D01*
X31902Y-27103D01*
X31922Y-27118D01*
X31938Y-27136D01*
X31950Y-27158D01*
X31957Y-27181D01*
X31960Y-27205D01*
X31961Y-27208D01*
X32054Y-24591D02*
X32051Y-24615D01*
X32044Y-24638D01*
X32033Y-24660D01*
X32017Y-24679D01*
X31998Y-24694D01*
X31977Y-24706D01*
X31954Y-24713D01*
X31929Y-24715D01*
X31906Y-24713D01*
X31883Y-24706D01*
X31861Y-24695D01*
X31842Y-24680D01*
X31826Y-24661D01*
X31815Y-24640D01*
X31807Y-24616D01*
X31805Y-24592D01*
X31807Y-24569D01*
X31813Y-24545D01*
X31824Y-24524D01*
X31840Y-24505D01*
X31858Y-24489D01*
X31879Y-24477D01*
X31903Y-24469D01*
X31927Y-24467D01*
X31950Y-24468D01*
X31974Y-24475D01*
X31995Y-24486D01*
X32015Y-24501D01*
X32031Y-24519D01*
X32043Y-24541D01*
X32050Y-24564D01*
X32053Y-24588D01*
X32054Y-24591D01*
X33853Y-50859D02*
X33850Y-50883D01*
X33843Y-50906D01*
X33832Y-50928D01*
X33816Y-50947D01*
X33797Y-50962D01*
X33776Y-50974D01*
X33753Y-50981D01*
X33728Y-50983D01*
X33705Y-50981D01*
X33682Y-50974D01*
X33660Y-50963D01*
X33641Y-50948D01*
X33625Y-50929D01*
X33614Y-50908D01*
X33606Y-50884D01*
X33604Y-50860D01*
X33606Y-50837D01*
X33612Y-50813D01*
X33623Y-50792D01*
X33639Y-50773D01*
X33657Y-50757D01*
X33678Y-50745D01*
X33702Y-50737D01*
X33726Y-50735D01*
X33749Y-50736D01*
X33773Y-50743D01*
X33794Y-50754D01*
X33814Y-50769D01*
X33830Y-50787D01*
X33842Y-50809D01*
X33849Y-50832D01*
X33852Y-50856D01*
X33853Y-50859D01*
X35086Y-24921D02*
X35083Y-24945D01*
X35076Y-24968D01*
X35065Y-24990D01*
X35049Y-25009D01*
X35030Y-25024D01*
X35009Y-25036D01*
X34986Y-25043D01*
X34961Y-25045D01*
X34938Y-25043D01*
X34915Y-25036D01*
X34893Y-25025D01*
X34874Y-25010D01*
X34858Y-24991D01*
X34847Y-24970D01*
X34839Y-24946D01*
X34837Y-24922D01*
X34839Y-24899D01*
X34845Y-24875D01*
X34856Y-24854D01*
X34872Y-24835D01*
X34890Y-24819D01*
X34911Y-24807D01*
X34935Y-24799D01*
X34959Y-24797D01*
X34982Y-24798D01*
X35006Y-24805D01*
X35027Y-24816D01*
X35047Y-24831D01*
X35063Y-24849D01*
X35075Y-24871D01*
X35082Y-24894D01*
X35085Y-24918D01*
X35086Y-24921D01*
X35361Y-23425D02*
X35358Y-23449D01*
X35351Y-23472D01*
X35340Y-23494D01*
X35324Y-23513D01*
X35305Y-23528D01*
X35284Y-23540D01*
X35261Y-23547D01*
X35236Y-23549D01*
X35213Y-23547D01*
X35190Y-23540D01*
X35168Y-23529D01*
X35149Y-23514D01*
X35133Y-23495D01*
X35122Y-23474D01*
X35114Y-23450D01*
X35112Y-23426D01*
X35114Y-23403D01*
X35120Y-23379D01*
X35131Y-23358D01*
X35147Y-23339D01*
X35165Y-23323D01*
X35186Y-23311D01*
X35210Y-23303D01*
X35234Y-23301D01*
X35257Y-23302D01*
X35281Y-23309D01*
X35302Y-23320D01*
X35322Y-23335D01*
X35338Y-23353D01*
X35350Y-23375D01*
X35357Y-23398D01*
X35360Y-23422D01*
X35361Y-23425D01*
X36376Y-52411D02*
X36373Y-52435D01*
X36366Y-52458D01*
X36355Y-52480D01*
X36339Y-52499D01*
X36320Y-52514D01*
X36299Y-52526D01*
X36276Y-52533D01*
X36251Y-52535D01*
X36228Y-52533D01*
X36205Y-52526D01*
X36183Y-52515D01*
X36164Y-52500D01*
X36148Y-52481D01*
X36137Y-52460D01*
X36129Y-52436D01*
X36127Y-52412D01*
X36129Y-52389D01*
X36135Y-52365D01*
X36146Y-52344D01*
X36162Y-52325D01*
X36180Y-52309D01*
X36201Y-52297D01*
X36225Y-52289D01*
X36249Y-52287D01*
X36272Y-52288D01*
X36296Y-52295D01*
X36317Y-52306D01*
X36337Y-52321D01*
X36353Y-52339D01*
X36365Y-52361D01*
X36372Y-52384D01*
X36375Y-52408D01*
X36376Y-52411D01*
X37763Y-23780D02*
X37760Y-23804D01*
X37753Y-23827D01*
X37742Y-23849D01*
X37726Y-23868D01*
X37707Y-23883D01*
X37686Y-23895D01*
X37663Y-23902D01*
X37638Y-23904D01*
X37615Y-23902D01*
X37592Y-23895D01*
X37570Y-23884D01*
X37551Y-23869D01*
X37535Y-23850D01*
X37524Y-23829D01*
X37516Y-23805D01*
X37514Y-23781D01*
X37516Y-23758D01*
X37522Y-23734D01*
X37533Y-23713D01*
X37549Y-23694D01*
X37567Y-23678D01*
X37588Y-23666D01*
X37612Y-23658D01*
X37636Y-23656D01*
X37659Y-23657D01*
X37683Y-23664D01*
X37704Y-23675D01*
X37724Y-23690D01*
X37740Y-23708D01*
X37752Y-23730D01*
X37759Y-23753D01*
X37762Y-23777D01*
X37763Y-23780D01*
X37917Y-52093D02*
X37914Y-52117D01*
X37907Y-52140D01*
X37896Y-52162D01*
X37880Y-52181D01*
X37861Y-52196D01*
X37840Y-52208D01*
X37817Y-52215D01*
X37792Y-52217D01*
X37769Y-52215D01*
X37746Y-52208D01*
X37724Y-52197D01*
X37705Y-52182D01*
X37689Y-52163D01*
X37678Y-52142D01*
X37670Y-52118D01*
X37668Y-52094D01*
X37670Y-52071D01*
X37676Y-52047D01*
X37687Y-52026D01*
X37703Y-52007D01*
X37721Y-51991D01*
X37742Y-51979D01*
X37766Y-51971D01*
X37790Y-51969D01*
X37813Y-51970D01*
X37837Y-51977D01*
X37858Y-51988D01*
X37878Y-52003D01*
X37894Y-52021D01*
X37906Y-52043D01*
X37913Y-52066D01*
X37916Y-52090D01*
X37917Y-52093D01*
X38129Y-51453D02*
X38126Y-51477D01*
X38119Y-51500D01*
X38108Y-51522D01*
X38092Y-51541D01*
X38073Y-51556D01*
X38052Y-51568D01*
X38029Y-51575D01*
X38004Y-51577D01*
X37981Y-51575D01*
X37958Y-51568D01*
X37936Y-51557D01*
X37917Y-51542D01*
X37901Y-51523D01*
X37890Y-51502D01*
X37882Y-51478D01*
X37880Y-51454D01*
X37882Y-51431D01*
X37888Y-51407D01*
X37899Y-51386D01*
X37915Y-51367D01*
X37933Y-51351D01*
X37954Y-51339D01*
X37978Y-51331D01*
X38002Y-51329D01*
X38025Y-51330D01*
X38049Y-51337D01*
X38070Y-51348D01*
X38090Y-51363D01*
X38106Y-51381D01*
X38118Y-51403D01*
X38125Y-51426D01*
X38128Y-51450D01*
X38129Y-51453D01*
X38448Y-25583D02*
X38445Y-25607D01*
X38438Y-25630D01*
X38427Y-25652D01*
X38411Y-25671D01*
X38392Y-25686D01*
X38371Y-25698D01*
X38348Y-25705D01*
X38323Y-25707D01*
X38300Y-25705D01*
X38277Y-25698D01*
X38255Y-25687D01*
X38236Y-25672D01*
X38220Y-25653D01*
X38209Y-25632D01*
X38201Y-25608D01*
X38199Y-25584D01*
X38201Y-25561D01*
X38207Y-25537D01*
X38218Y-25516D01*
X38234Y-25497D01*
X38252Y-25481D01*
X38273Y-25469D01*
X38297Y-25461D01*
X38321Y-25459D01*
X38344Y-25460D01*
X38368Y-25467D01*
X38389Y-25478D01*
X38409Y-25493D01*
X38425Y-25511D01*
X38437Y-25533D01*
X38444Y-25556D01*
X38447Y-25580D01*
X38448Y-25583D01*
X38555Y-52252D02*
X38552Y-52276D01*
X38545Y-52299D01*
X38534Y-52321D01*
X38518Y-52340D01*
X38499Y-52355D01*
X38478Y-52367D01*
X38455Y-52374D01*
X38430Y-52376D01*
X38407Y-52374D01*
X38384Y-52367D01*
X38362Y-52356D01*
X38343Y-52341D01*
X38327Y-52322D01*
X38316Y-52301D01*
X38308Y-52277D01*
X38306Y-52253D01*
X38308Y-52230D01*
X38314Y-52206D01*
X38325Y-52185D01*
X38341Y-52166D01*
X38359Y-52150D01*
X38380Y-52138D01*
X38404Y-52130D01*
X38428Y-52128D01*
X38451Y-52129D01*
X38475Y-52136D01*
X38496Y-52147D01*
X38516Y-52162D01*
X38532Y-52180D01*
X38544Y-52202D01*
X38551Y-52225D01*
X38554Y-52249D01*
X38555Y-52252D01*
X38980Y-25916D02*
X38977Y-25940D01*
X38970Y-25963D01*
X38959Y-25985D01*
X38943Y-26004D01*
X38924Y-26019D01*
X38903Y-26031D01*
X38880Y-26038D01*
X38855Y-26040D01*
X38832Y-26038D01*
X38809Y-26031D01*
X38787Y-26020D01*
X38768Y-26005D01*
X38752Y-25986D01*
X38741Y-25965D01*
X38733Y-25941D01*
X38731Y-25917D01*
X38733Y-25894D01*
X38739Y-25870D01*
X38750Y-25849D01*
X38766Y-25830D01*
X38784Y-25814D01*
X38805Y-25802D01*
X38829Y-25794D01*
X38853Y-25792D01*
X38876Y-25793D01*
X38900Y-25800D01*
X38921Y-25811D01*
X38941Y-25826D01*
X38957Y-25844D01*
X38969Y-25866D01*
X38976Y-25889D01*
X38979Y-25913D01*
X38980Y-25916D01*
X40129Y-25384D02*
X40126Y-25408D01*
X40119Y-25431D01*
X40108Y-25453D01*
X40092Y-25472D01*
X40073Y-25487D01*
X40052Y-25499D01*
X40029Y-25506D01*
X40004Y-25508D01*
X39981Y-25506D01*
X39958Y-25499D01*
X39936Y-25488D01*
X39917Y-25473D01*
X39901Y-25454D01*
X39890Y-25433D01*
X39882Y-25409D01*
X39880Y-25385D01*
X39882Y-25362D01*
X39888Y-25338D01*
X39899Y-25317D01*
X39915Y-25298D01*
X39933Y-25282D01*
X39954Y-25270D01*
X39978Y-25262D01*
X40002Y-25260D01*
X40025Y-25261D01*
X40049Y-25268D01*
X40070Y-25279D01*
X40090Y-25294D01*
X40106Y-25312D01*
X40118Y-25334D01*
X40125Y-25357D01*
X40128Y-25381D01*
X40129Y-25384D01*
X46538Y-25183D02*
X46535Y-25207D01*
X46528Y-25230D01*
X46517Y-25252D01*
X46501Y-25271D01*
X46482Y-25286D01*
X46461Y-25298D01*
X46438Y-25305D01*
X46413Y-25307D01*
X46390Y-25305D01*
X46367Y-25298D01*
X46345Y-25287D01*
X46326Y-25272D01*
X46310Y-25253D01*
X46299Y-25232D01*
X46291Y-25208D01*
X46289Y-25184D01*
X46291Y-25161D01*
X46297Y-25137D01*
X46308Y-25116D01*
X46324Y-25097D01*
X46342Y-25081D01*
X46363Y-25069D01*
X46387Y-25061D01*
X46411Y-25059D01*
X46434Y-25060D01*
X46458Y-25067D01*
X46479Y-25078D01*
X46499Y-25093D01*
X46515Y-25111D01*
X46527Y-25133D01*
X46534Y-25156D01*
X46537Y-25180D01*
X46538Y-25183D01*
X48947Y-28369D02*
X48944Y-28393D01*
X48937Y-28416D01*
X48926Y-28438D01*
X48910Y-28457D01*
X48891Y-28472D01*
X48870Y-28484D01*
X48847Y-28491D01*
X48822Y-28493D01*
X48799Y-28491D01*
X48776Y-28484D01*
X48754Y-28473D01*
X48735Y-28458D01*
X48719Y-28439D01*
X48708Y-28418D01*
X48700Y-28394D01*
X48698Y-28370D01*
X48700Y-28347D01*
X48706Y-28323D01*
X48717Y-28302D01*
X48733Y-28283D01*
X48751Y-28267D01*
X48772Y-28255D01*
X48796Y-28247D01*
X48820Y-28245D01*
X48843Y-28246D01*
X48867Y-28253D01*
X48888Y-28264D01*
X48908Y-28279D01*
X48924Y-28297D01*
X48936Y-28319D01*
X48943Y-28342D01*
X48946Y-28366D01*
X48947Y-28369D01*
X49720Y-33617D02*
X49717Y-33641D01*
X49710Y-33664D01*
X49699Y-33686D01*
X49683Y-33705D01*
X49664Y-33720D01*
X49643Y-33732D01*
X49620Y-33739D01*
X49595Y-33741D01*
X49572Y-33739D01*
X49549Y-33732D01*
X49527Y-33721D01*
X49508Y-33706D01*
X49492Y-33687D01*
X49481Y-33666D01*
X49473Y-33642D01*
X49471Y-33618D01*
X49473Y-33595D01*
X49479Y-33571D01*
X49490Y-33550D01*
X49506Y-33531D01*
X49524Y-33515D01*
X49545Y-33503D01*
X49569Y-33495D01*
X49593Y-33493D01*
X49616Y-33494D01*
X49640Y-33501D01*
X49661Y-33512D01*
X49681Y-33527D01*
X49697Y-33545D01*
X49709Y-33567D01*
X49716Y-33590D01*
X49719Y-33614D01*
X49720Y-33617D01*
X49933Y-50311D02*
X49930Y-50335D01*
X49923Y-50358D01*
X49912Y-50380D01*
X49896Y-50399D01*
X49877Y-50414D01*
X49856Y-50426D01*
X49833Y-50433D01*
X49808Y-50435D01*
X49785Y-50433D01*
X49762Y-50426D01*
X49740Y-50415D01*
X49721Y-50400D01*
X49705Y-50381D01*
X49694Y-50360D01*
X49686Y-50336D01*
X49684Y-50312D01*
X49686Y-50289D01*
X49692Y-50265D01*
X49703Y-50244D01*
X49719Y-50225D01*
X49737Y-50209D01*
X49758Y-50197D01*
X49782Y-50189D01*
X49806Y-50187D01*
X49829Y-50188D01*
X49853Y-50195D01*
X49874Y-50206D01*
X49894Y-50221D01*
X49910Y-50239D01*
X49922Y-50261D01*
X49929Y-50284D01*
X49932Y-50308D01*
X49933Y-50311D01*
X49971Y-27224D02*
X49968Y-27248D01*
X49961Y-27271D01*
X49950Y-27293D01*
X49934Y-27312D01*
X49915Y-27327D01*
X49894Y-27339D01*
X49871Y-27346D01*
X49846Y-27348D01*
X49823Y-27346D01*
X49800Y-27339D01*
X49778Y-27328D01*
X49759Y-27313D01*
X49743Y-27294D01*
X49732Y-27273D01*
X49724Y-27249D01*
X49722Y-27225D01*
X49724Y-27202D01*
X49730Y-27178D01*
X49741Y-27157D01*
X49757Y-27138D01*
X49775Y-27122D01*
X49796Y-27110D01*
X49820Y-27102D01*
X49844Y-27100D01*
X49867Y-27101D01*
X49891Y-27108D01*
X49912Y-27119D01*
X49932Y-27134D01*
X49948Y-27152D01*
X49960Y-27174D01*
X49967Y-27197D01*
X49970Y-27221D01*
X49971Y-27224D01*
X50861Y-44682D02*
X50858Y-44706D01*
X50851Y-44729D01*
X50840Y-44751D01*
X50824Y-44770D01*
X50805Y-44785D01*
X50784Y-44797D01*
X50761Y-44804D01*
X50736Y-44806D01*
X50713Y-44804D01*
X50690Y-44797D01*
X50668Y-44786D01*
X50649Y-44771D01*
X50633Y-44752D01*
X50622Y-44731D01*
X50614Y-44707D01*
X50612Y-44683D01*
X50614Y-44660D01*
X50620Y-44636D01*
X50631Y-44615D01*
X50647Y-44596D01*
X50665Y-44580D01*
X50686Y-44568D01*
X50710Y-44560D01*
X50734Y-44558D01*
X50757Y-44559D01*
X50781Y-44566D01*
X50802Y-44577D01*
X50822Y-44592D01*
X50838Y-44610D01*
X50850Y-44632D01*
X50857Y-44655D01*
X50860Y-44679D01*
X50861Y-44682D01*
X51206Y-42767D02*
X51203Y-42791D01*
X51196Y-42814D01*
X51185Y-42836D01*
X51169Y-42855D01*
X51150Y-42870D01*
X51129Y-42882D01*
X51106Y-42889D01*
X51081Y-42891D01*
X51058Y-42889D01*
X51035Y-42882D01*
X51013Y-42871D01*
X50994Y-42856D01*
X50978Y-42837D01*
X50967Y-42816D01*
X50959Y-42792D01*
X50957Y-42768D01*
X50959Y-42745D01*
X50965Y-42721D01*
X50976Y-42700D01*
X50992Y-42681D01*
X51010Y-42665D01*
X51031Y-42653D01*
X51055Y-42645D01*
X51079Y-42643D01*
X51102Y-42644D01*
X51126Y-42651D01*
X51147Y-42662D01*
X51167Y-42677D01*
X51183Y-42695D01*
X51195Y-42717D01*
X51202Y-42740D01*
X51205Y-42764D01*
X51206Y-42767D01*
X51365Y-45164D02*
X51362Y-45188D01*
X51355Y-45211D01*
X51344Y-45233D01*
X51328Y-45252D01*
X51309Y-45267D01*
X51288Y-45279D01*
X51265Y-45286D01*
X51240Y-45288D01*
X51217Y-45286D01*
X51194Y-45279D01*
X51172Y-45268D01*
X51153Y-45253D01*
X51137Y-45234D01*
X51126Y-45213D01*
X51118Y-45189D01*
X51116Y-45165D01*
X51118Y-45142D01*
X51124Y-45118D01*
X51135Y-45097D01*
X51151Y-45078D01*
X51169Y-45062D01*
X51190Y-45050D01*
X51214Y-45042D01*
X51238Y-45040D01*
X51261Y-45041D01*
X51285Y-45048D01*
X51306Y-45059D01*
X51326Y-45074D01*
X51342Y-45092D01*
X51354Y-45114D01*
X51361Y-45137D01*
X51364Y-45161D01*
X51365Y-45164D01*
X51826Y-28537D02*
X51823Y-28561D01*
X51816Y-28584D01*
X51805Y-28606D01*
X51789Y-28625D01*
X51770Y-28640D01*
X51749Y-28652D01*
X51726Y-28659D01*
X51701Y-28661D01*
X51678Y-28659D01*
X51655Y-28652D01*
X51633Y-28641D01*
X51614Y-28626D01*
X51598Y-28607D01*
X51587Y-28586D01*
X51579Y-28562D01*
X51577Y-28538D01*
X51579Y-28515D01*
X51585Y-28491D01*
X51596Y-28470D01*
X51612Y-28451D01*
X51630Y-28435D01*
X51651Y-28423D01*
X51675Y-28415D01*
X51699Y-28413D01*
X51722Y-28414D01*
X51746Y-28421D01*
X51767Y-28432D01*
X51787Y-28447D01*
X51803Y-28465D01*
X51815Y-28487D01*
X51822Y-28510D01*
X51825Y-28534D01*
X51826Y-28537D01*
X52180Y-42825D02*
X52177Y-42849D01*
X52170Y-42872D01*
X52159Y-42894D01*
X52143Y-42913D01*
X52124Y-42928D01*
X52103Y-42940D01*
X52080Y-42947D01*
X52055Y-42949D01*
X52032Y-42947D01*
X52009Y-42940D01*
X51987Y-42929D01*
X51968Y-42914D01*
X51952Y-42895D01*
X51941Y-42874D01*
X51933Y-42850D01*
X51931Y-42826D01*
X51933Y-42803D01*
X51939Y-42779D01*
X51950Y-42758D01*
X51966Y-42739D01*
X51984Y-42723D01*
X52005Y-42711D01*
X52029Y-42703D01*
X52053Y-42701D01*
X52076Y-42702D01*
X52100Y-42709D01*
X52121Y-42720D01*
X52141Y-42735D01*
X52157Y-42753D01*
X52169Y-42775D01*
X52176Y-42798D01*
X52179Y-42822D01*
X52180Y-42825D01*
X52478Y-39181D02*
X52475Y-39205D01*
X52468Y-39228D01*
X52457Y-39250D01*
X52441Y-39269D01*
X52422Y-39284D01*
X52401Y-39296D01*
X52378Y-39303D01*
X52353Y-39305D01*
X52330Y-39303D01*
X52307Y-39296D01*
X52285Y-39285D01*
X52266Y-39270D01*
X52250Y-39251D01*
X52239Y-39230D01*
X52231Y-39206D01*
X52229Y-39182D01*
X52231Y-39159D01*
X52237Y-39135D01*
X52248Y-39114D01*
X52264Y-39095D01*
X52282Y-39079D01*
X52303Y-39067D01*
X52327Y-39059D01*
X52351Y-39057D01*
X52374Y-39058D01*
X52398Y-39065D01*
X52419Y-39076D01*
X52439Y-39091D01*
X52455Y-39109D01*
X52467Y-39131D01*
X52474Y-39154D01*
X52477Y-39178D01*
X52478Y-39181D01*
X54571Y-34483D02*
X54568Y-34507D01*
X54561Y-34530D01*
X54550Y-34552D01*
X54534Y-34571D01*
X54515Y-34586D01*
X54494Y-34598D01*
X54471Y-34605D01*
X54446Y-34607D01*
X54423Y-34605D01*
X54400Y-34598D01*
X54378Y-34587D01*
X54359Y-34572D01*
X54343Y-34553D01*
X54332Y-34532D01*
X54324Y-34508D01*
X54322Y-34484D01*
X54324Y-34461D01*
X54330Y-34437D01*
X54341Y-34416D01*
X54357Y-34397D01*
X54375Y-34381D01*
X54396Y-34369D01*
X54420Y-34361D01*
X54444Y-34359D01*
X54467Y-34360D01*
X54491Y-34367D01*
X54512Y-34378D01*
X54532Y-34393D01*
X54548Y-34411D01*
X54560Y-34433D01*
X54567Y-34456D01*
X54570Y-34480D01*
X54571Y-34483D01*
X54952Y-39952D02*
X54949Y-39976D01*
X54942Y-39999D01*
X54931Y-40021D01*
X54915Y-40040D01*
X54896Y-40055D01*
X54875Y-40067D01*
X54852Y-40074D01*
X54827Y-40076D01*
X54804Y-40074D01*
X54781Y-40067D01*
X54759Y-40056D01*
X54740Y-40041D01*
X54724Y-40022D01*
X54713Y-40001D01*
X54705Y-39977D01*
X54703Y-39953D01*
X54705Y-39930D01*
X54711Y-39906D01*
X54722Y-39885D01*
X54738Y-39866D01*
X54756Y-39850D01*
X54777Y-39838D01*
X54801Y-39830D01*
X54825Y-39828D01*
X54848Y-39829D01*
X54872Y-39836D01*
X54893Y-39847D01*
X54913Y-39862D01*
X54929Y-39880D01*
X54941Y-39902D01*
X54948Y-39925D01*
X54951Y-39949D01*
X54952Y-39952D01*
X47519Y-25995D02*
X47519Y-26395D01*
X47719Y-26195D02*
X47319Y-26195D01*
X48107Y-25186D02*
X48107Y-25586D01*
X48307Y-25386D02*
X47907Y-25386D01*
X48328Y-26583D02*
X48328Y-26983D01*
X48528Y-26783D02*
X48128Y-26783D01*
X48916Y-25773D02*
X48916Y-26173D01*
X49116Y-25973D02*
X48716Y-25973D01*
X49137Y-27170D02*
X49137Y-27570D01*
X49337Y-27370D02*
X48937Y-27370D01*
X49725Y-26361D02*
X49725Y-26761D01*
X49925Y-26561D02*
X49525Y-26561D01*
X39636Y-53593D02*
X39627Y-53679D01*
X39602Y-53761D01*
X39561Y-53838D01*
X39507Y-53905D01*
X39440Y-53960D01*
X39364Y-54001D01*
X39282Y-54026D01*
X39196Y-54035D01*
X39110Y-54028D01*
X39028Y-54003D01*
X38951Y-53963D01*
X38884Y-53909D01*
X38828Y-53843D01*
X38786Y-53767D01*
X38760Y-53685D01*
X38751Y-53599D01*
X38758Y-53514D01*
X38782Y-53430D01*
X38821Y-53354D01*
X38875Y-53286D01*
X38941Y-53230D01*
X39016Y-53188D01*
X39098Y-53161D01*
X39184Y-53151D01*
X39269Y-53157D01*
X39353Y-53180D01*
X39430Y-53219D01*
X39498Y-53273D01*
X39554Y-53338D01*
X39597Y-53413D01*
X39624Y-53495D01*
X39635Y-53581D01*
X39636Y-53593D01*
X38750Y-53150D02*
X39636Y-54036D01*
X39636Y-53150D02*
X38750Y-54036D01*
X39636Y-55561D02*
X39627Y-55647D01*
X39602Y-55729D01*
X39561Y-55806D01*
X39507Y-55873D01*
X39440Y-55928D01*
X39364Y-55969D01*
X39282Y-55994D01*
X39196Y-56003D01*
X39110Y-55996D01*
X39028Y-55971D01*
X38951Y-55931D01*
X38884Y-55877D01*
X38828Y-55811D01*
X38786Y-55735D01*
X38760Y-55653D01*
X38751Y-55567D01*
X38758Y-55482D01*
X38782Y-55398D01*
X38821Y-55322D01*
X38875Y-55254D01*
X38941Y-55198D01*
X39016Y-55156D01*
X39098Y-55129D01*
X39184Y-55119D01*
X39269Y-55125D01*
X39353Y-55148D01*
X39430Y-55187D01*
X39498Y-55241D01*
X39554Y-55306D01*
X39597Y-55381D01*
X39624Y-55463D01*
X39635Y-55549D01*
X39636Y-55561D01*
X38750Y-55118D02*
X39636Y-56004D01*
X39636Y-55118D02*
X38750Y-56004D01*
G54D12*
X21768Y-57973D02*
X21768Y-57173D01*
X21959Y-57173D01*
X22073Y-57211D01*
X22149Y-57287D01*
X22188Y-57363D01*
X22226Y-57516D01*
X22226Y-57630D01*
X22188Y-57782D01*
X22149Y-57859D01*
X22073Y-57935D01*
X21959Y-57973D01*
X21768Y-57973D01*
X22568Y-57973D02*
X22568Y-57439D01*
X22568Y-57592D02*
X22607Y-57516D01*
X22645Y-57478D01*
X22721Y-57439D01*
X22797Y-57439D01*
X23063Y-57973D02*
X23063Y-57439D01*
X23063Y-57173D02*
X23025Y-57211D01*
X23063Y-57249D01*
X23102Y-57211D01*
X23063Y-57173D01*
X23063Y-57249D01*
X23559Y-57973D02*
X23483Y-57935D01*
X23444Y-57859D01*
X23444Y-57173D01*
X23978Y-57973D02*
X23902Y-57935D01*
X23863Y-57859D01*
X23863Y-57173D01*
X24892Y-57973D02*
X24892Y-57173D01*
X25159Y-57744D01*
X25426Y-57173D01*
X25426Y-57973D01*
X26149Y-57973D02*
X26149Y-57554D01*
X26111Y-57478D01*
X26035Y-57439D01*
X25883Y-57439D01*
X25806Y-57478D01*
X26149Y-57935D02*
X26073Y-57973D01*
X25883Y-57973D01*
X25806Y-57935D01*
X25768Y-57859D01*
X25768Y-57782D01*
X25806Y-57706D01*
X25883Y-57668D01*
X26073Y-57668D01*
X26149Y-57630D01*
X26530Y-57439D02*
X26530Y-58239D01*
X26530Y-57478D02*
X26607Y-57439D01*
X26759Y-57439D01*
X26835Y-57478D01*
X26873Y-57516D01*
X26911Y-57592D01*
X26911Y-57820D01*
X26873Y-57897D01*
X26835Y-57935D01*
X26759Y-57973D01*
X26607Y-57973D01*
X26530Y-57935D01*
X27254Y-57897D02*
X27293Y-57935D01*
X27254Y-57973D01*
X27216Y-57935D01*
X27254Y-57897D01*
X27254Y-57973D01*
X27254Y-57478D02*
X27293Y-57516D01*
X27254Y-57554D01*
X27216Y-57516D01*
X27254Y-57478D01*
X27254Y-57554D01*
X21181Y-59231D02*
X21377Y-59427D01*
X21377Y-59231D02*
X21181Y-59427D01*
X21921Y-58853D02*
X21997Y-58853D01*
X22073Y-58891D01*
X22111Y-58929D01*
X22149Y-59005D01*
X22188Y-59158D01*
X22188Y-59348D01*
X22149Y-59500D01*
X22111Y-59577D01*
X22073Y-59615D01*
X21997Y-59653D01*
X21921Y-59653D01*
X21845Y-59615D01*
X21807Y-59577D01*
X21768Y-59500D01*
X21730Y-59348D01*
X21730Y-59158D01*
X21768Y-59005D01*
X21807Y-58929D01*
X21845Y-58891D01*
X21921Y-58853D01*
X22530Y-59577D02*
X22569Y-59615D01*
X22530Y-59653D01*
X22492Y-59615D01*
X22530Y-59577D01*
X22530Y-59653D01*
X23064Y-58853D02*
X23140Y-58853D01*
X23216Y-58891D01*
X23254Y-58929D01*
X23292Y-59005D01*
X23331Y-59158D01*
X23331Y-59348D01*
X23292Y-59500D01*
X23254Y-59577D01*
X23216Y-59615D01*
X23140Y-59653D01*
X23064Y-59653D01*
X22988Y-59615D01*
X22950Y-59577D01*
X22911Y-59500D01*
X22873Y-59348D01*
X22873Y-59158D01*
X22911Y-59005D01*
X22950Y-58929D01*
X22988Y-58891D01*
X23064Y-58853D01*
X23635Y-58929D02*
X23673Y-58891D01*
X23750Y-58853D01*
X23940Y-58853D01*
X24016Y-58891D01*
X24054Y-58929D01*
X24093Y-59005D01*
X24093Y-59081D01*
X24054Y-59196D01*
X23597Y-59653D01*
X24093Y-59653D01*
X24588Y-58853D02*
X24664Y-58853D01*
X24740Y-58891D01*
X24778Y-58929D01*
X24816Y-59005D01*
X24855Y-59158D01*
X24855Y-59348D01*
X24816Y-59500D01*
X24778Y-59577D01*
X24740Y-59615D01*
X24664Y-59653D01*
X24588Y-59653D01*
X24512Y-59615D01*
X24474Y-59577D01*
X24435Y-59500D01*
X24397Y-59348D01*
X24397Y-59158D01*
X24435Y-59005D01*
X24474Y-58929D01*
X24512Y-58891D01*
X24588Y-58853D01*
X25159Y-58853D02*
X25159Y-59005D01*
X25464Y-58853D02*
X25464Y-59005D01*
X26989Y-58815D02*
X26303Y-59843D01*
X28018Y-58853D02*
X28094Y-58853D01*
X28170Y-58891D01*
X28208Y-58929D01*
X28246Y-59005D01*
X28285Y-59158D01*
X28285Y-59348D01*
X28246Y-59500D01*
X28208Y-59577D01*
X28170Y-59615D01*
X28094Y-59653D01*
X28018Y-59653D01*
X27942Y-59615D01*
X27904Y-59577D01*
X27865Y-59500D01*
X27827Y-59348D01*
X27827Y-59158D01*
X27865Y-59005D01*
X27904Y-58929D01*
X27942Y-58891D01*
X28018Y-58853D01*
X28627Y-59577D02*
X28666Y-59615D01*
X28627Y-59653D01*
X28589Y-59615D01*
X28627Y-59577D01*
X28627Y-59653D01*
X29389Y-58853D02*
X29008Y-58853D01*
X28970Y-59234D01*
X29008Y-59196D01*
X29085Y-59158D01*
X29275Y-59158D01*
X29351Y-59196D01*
X29389Y-59234D01*
X29428Y-59310D01*
X29428Y-59500D01*
X29389Y-59577D01*
X29351Y-59615D01*
X29275Y-59653D01*
X29085Y-59653D01*
X29008Y-59615D01*
X28970Y-59577D01*
X29923Y-58853D02*
X29999Y-58853D01*
X30075Y-58891D01*
X30113Y-58929D01*
X30151Y-59005D01*
X30190Y-59158D01*
X30190Y-59348D01*
X30151Y-59500D01*
X30113Y-59577D01*
X30075Y-59615D01*
X29999Y-59653D01*
X29923Y-59653D01*
X29847Y-59615D01*
X29809Y-59577D01*
X29770Y-59500D01*
X29732Y-59348D01*
X29732Y-59158D01*
X29770Y-59005D01*
X29809Y-58929D01*
X29847Y-58891D01*
X29923Y-58853D01*
X30532Y-59653D02*
X30532Y-59119D01*
X30532Y-59196D02*
X30571Y-59158D01*
X30647Y-59119D01*
X30761Y-59119D01*
X30837Y-59158D01*
X30875Y-59234D01*
X30875Y-59653D01*
X30875Y-59234D02*
X30913Y-59158D01*
X30990Y-59119D01*
X31104Y-59119D01*
X31180Y-59158D01*
X31218Y-59234D01*
X31218Y-59653D01*
X31599Y-59653D02*
X31599Y-59119D01*
X31599Y-59196D02*
X31638Y-59158D01*
X31714Y-59119D01*
X31828Y-59119D01*
X31904Y-59158D01*
X31942Y-59234D01*
X31942Y-59653D01*
X31942Y-59234D02*
X31980Y-59158D01*
X32057Y-59119D01*
X32171Y-59119D01*
X32247Y-59158D01*
X32285Y-59234D01*
X32285Y-59653D01*
X33505Y-59958D02*
X33467Y-59919D01*
X33391Y-59805D01*
X33353Y-59729D01*
X33315Y-59615D01*
X33276Y-59424D01*
X33276Y-59272D01*
X33315Y-59081D01*
X33353Y-58967D01*
X33391Y-58891D01*
X33467Y-58777D01*
X33505Y-58739D01*
X33771Y-58929D02*
X33809Y-58891D01*
X33886Y-58853D01*
X34076Y-58853D01*
X34152Y-58891D01*
X34190Y-58929D01*
X34229Y-59005D01*
X34229Y-59081D01*
X34190Y-59196D01*
X33733Y-59653D01*
X34229Y-59653D01*
X35181Y-59653D02*
X35181Y-58853D01*
X35524Y-59653D02*
X35524Y-59234D01*
X35486Y-59158D01*
X35410Y-59119D01*
X35296Y-59119D01*
X35220Y-59158D01*
X35181Y-59196D01*
X36020Y-59653D02*
X35944Y-59615D01*
X35905Y-59577D01*
X35867Y-59500D01*
X35867Y-59272D01*
X35905Y-59196D01*
X35944Y-59158D01*
X36020Y-59119D01*
X36134Y-59119D01*
X36210Y-59158D01*
X36248Y-59196D01*
X36286Y-59272D01*
X36286Y-59500D01*
X36248Y-59577D01*
X36210Y-59615D01*
X36134Y-59653D01*
X36020Y-59653D01*
X36744Y-59653D02*
X36668Y-59615D01*
X36629Y-59539D01*
X36629Y-58853D01*
X37353Y-59615D02*
X37277Y-59653D01*
X37125Y-59653D01*
X37048Y-59615D01*
X37010Y-59539D01*
X37010Y-59234D01*
X37048Y-59158D01*
X37125Y-59119D01*
X37277Y-59119D01*
X37353Y-59158D01*
X37391Y-59234D01*
X37391Y-59310D01*
X37010Y-59386D01*
X37696Y-59615D02*
X37773Y-59653D01*
X37925Y-59653D01*
X38001Y-59615D01*
X38039Y-59539D01*
X38039Y-59500D01*
X38001Y-59424D01*
X37925Y-59386D01*
X37811Y-59386D01*
X37734Y-59348D01*
X37696Y-59272D01*
X37696Y-59234D01*
X37734Y-59158D01*
X37811Y-59119D01*
X37925Y-59119D01*
X38001Y-59158D01*
X38306Y-59958D02*
X38344Y-59919D01*
X38421Y-59805D01*
X38459Y-59729D01*
X38497Y-59615D01*
X38535Y-59424D01*
X38535Y-59272D01*
X38497Y-59081D01*
X38459Y-58967D01*
X38421Y-58891D01*
X38344Y-58777D01*
X38306Y-58739D01*
G54D10*
X21378Y-60384D02*
X21375Y-60408D01*
X21368Y-60431D01*
X21357Y-60453D01*
X21341Y-60472D01*
X21322Y-60487D01*
X21301Y-60499D01*
X21278Y-60506D01*
X21253Y-60508D01*
X21230Y-60506D01*
X21207Y-60499D01*
X21185Y-60488D01*
X21166Y-60473D01*
X21150Y-60454D01*
X21139Y-60433D01*
X21131Y-60409D01*
X21129Y-60385D01*
X21131Y-60362D01*
X21137Y-60338D01*
X21148Y-60317D01*
X21164Y-60298D01*
X21182Y-60282D01*
X21203Y-60270D01*
X21227Y-60262D01*
X21251Y-60260D01*
X21274Y-60261D01*
X21298Y-60268D01*
X21319Y-60279D01*
X21339Y-60294D01*
X21355Y-60312D01*
X21367Y-60334D01*
X21374Y-60357D01*
X21377Y-60381D01*
X21378Y-60384D01*
G54D12*
X21921Y-59908D02*
X21997Y-59908D01*
X22073Y-59946D01*
X22111Y-59984D01*
X22149Y-60060D01*
X22188Y-60213D01*
X22188Y-60403D01*
X22149Y-60555D01*
X22111Y-60632D01*
X22073Y-60670D01*
X21997Y-60708D01*
X21921Y-60708D01*
X21845Y-60670D01*
X21807Y-60632D01*
X21768Y-60555D01*
X21730Y-60403D01*
X21730Y-60213D01*
X21768Y-60060D01*
X21807Y-59984D01*
X21845Y-59946D01*
X21921Y-59908D01*
X22530Y-60632D02*
X22569Y-60670D01*
X22530Y-60708D01*
X22492Y-60670D01*
X22530Y-60632D01*
X22530Y-60708D01*
X23064Y-59908D02*
X23140Y-59908D01*
X23216Y-59946D01*
X23254Y-59984D01*
X23292Y-60060D01*
X23331Y-60213D01*
X23331Y-60403D01*
X23292Y-60555D01*
X23254Y-60632D01*
X23216Y-60670D01*
X23140Y-60708D01*
X23064Y-60708D01*
X22988Y-60670D01*
X22950Y-60632D01*
X22911Y-60555D01*
X22873Y-60403D01*
X22873Y-60213D01*
X22911Y-60060D01*
X22950Y-59984D01*
X22988Y-59946D01*
X23064Y-59908D01*
X23635Y-59984D02*
X23673Y-59946D01*
X23750Y-59908D01*
X23940Y-59908D01*
X24016Y-59946D01*
X24054Y-59984D01*
X24093Y-60060D01*
X24093Y-60136D01*
X24054Y-60251D01*
X23597Y-60708D01*
X24093Y-60708D01*
X24816Y-59908D02*
X24435Y-59908D01*
X24397Y-60289D01*
X24435Y-60251D01*
X24512Y-60213D01*
X24702Y-60213D01*
X24778Y-60251D01*
X24816Y-60289D01*
X24855Y-60365D01*
X24855Y-60555D01*
X24816Y-60632D01*
X24778Y-60670D01*
X24702Y-60708D01*
X24512Y-60708D01*
X24435Y-60670D01*
X24397Y-60632D01*
X25159Y-59908D02*
X25159Y-60060D01*
X25464Y-59908D02*
X25464Y-60060D01*
X26989Y-59870D02*
X26303Y-60898D01*
X28018Y-59908D02*
X28094Y-59908D01*
X28170Y-59946D01*
X28208Y-59984D01*
X28246Y-60060D01*
X28285Y-60213D01*
X28285Y-60403D01*
X28246Y-60555D01*
X28208Y-60632D01*
X28170Y-60670D01*
X28094Y-60708D01*
X28018Y-60708D01*
X27942Y-60670D01*
X27904Y-60632D01*
X27865Y-60555D01*
X27827Y-60403D01*
X27827Y-60213D01*
X27865Y-60060D01*
X27904Y-59984D01*
X27942Y-59946D01*
X28018Y-59908D01*
X28627Y-60632D02*
X28666Y-60670D01*
X28627Y-60708D01*
X28589Y-60670D01*
X28627Y-60632D01*
X28627Y-60708D01*
X29351Y-59908D02*
X29199Y-59908D01*
X29123Y-59946D01*
X29085Y-59984D01*
X29008Y-60098D01*
X28970Y-60251D01*
X28970Y-60555D01*
X29008Y-60632D01*
X29047Y-60670D01*
X29123Y-60708D01*
X29275Y-60708D01*
X29351Y-60670D01*
X29389Y-60632D01*
X29428Y-60555D01*
X29428Y-60365D01*
X29389Y-60289D01*
X29351Y-60251D01*
X29275Y-60213D01*
X29123Y-60213D01*
X29047Y-60251D01*
X29008Y-60289D01*
X28970Y-60365D01*
X30113Y-60174D02*
X30113Y-60708D01*
X29923Y-59870D02*
X29732Y-60441D01*
X30228Y-60441D01*
X30532Y-60708D02*
X30532Y-60174D01*
X30532Y-60251D02*
X30571Y-60213D01*
X30647Y-60174D01*
X30761Y-60174D01*
X30837Y-60213D01*
X30875Y-60289D01*
X30875Y-60708D01*
X30875Y-60289D02*
X30913Y-60213D01*
X30990Y-60174D01*
X31104Y-60174D01*
X31180Y-60213D01*
X31218Y-60289D01*
X31218Y-60708D01*
X31599Y-60708D02*
X31599Y-60174D01*
X31599Y-60251D02*
X31638Y-60213D01*
X31714Y-60174D01*
X31828Y-60174D01*
X31904Y-60213D01*
X31942Y-60289D01*
X31942Y-60708D01*
X31942Y-60289D02*
X31980Y-60213D01*
X32057Y-60174D01*
X32171Y-60174D01*
X32247Y-60213D01*
X32285Y-60289D01*
X32285Y-60708D01*
X33505Y-61013D02*
X33467Y-60974D01*
X33391Y-60860D01*
X33353Y-60784D01*
X33315Y-60670D01*
X33276Y-60479D01*
X33276Y-60327D01*
X33315Y-60136D01*
X33353Y-60022D01*
X33391Y-59946D01*
X33467Y-59832D01*
X33505Y-59794D01*
X34152Y-60174D02*
X34152Y-60708D01*
X33962Y-59870D02*
X33771Y-60441D01*
X34267Y-60441D01*
X34724Y-59908D02*
X34800Y-59908D01*
X34876Y-59946D01*
X34914Y-59984D01*
X34952Y-60060D01*
X34991Y-60213D01*
X34991Y-60403D01*
X34952Y-60555D01*
X34914Y-60632D01*
X34876Y-60670D01*
X34800Y-60708D01*
X34724Y-60708D01*
X34648Y-60670D01*
X34610Y-60632D01*
X34571Y-60555D01*
X34533Y-60403D01*
X34533Y-60213D01*
X34571Y-60060D01*
X34610Y-59984D01*
X34648Y-59946D01*
X34724Y-59908D01*
X35943Y-60708D02*
X35943Y-59908D01*
X36286Y-60708D02*
X36286Y-60289D01*
X36248Y-60213D01*
X36172Y-60174D01*
X36058Y-60174D01*
X35982Y-60213D01*
X35943Y-60251D01*
X36782Y-60708D02*
X36706Y-60670D01*
X36667Y-60632D01*
X36629Y-60555D01*
X36629Y-60327D01*
X36667Y-60251D01*
X36706Y-60213D01*
X36782Y-60174D01*
X36896Y-60174D01*
X36972Y-60213D01*
X37010Y-60251D01*
X37048Y-60327D01*
X37048Y-60555D01*
X37010Y-60632D01*
X36972Y-60670D01*
X36896Y-60708D01*
X36782Y-60708D01*
X37506Y-60708D02*
X37430Y-60670D01*
X37391Y-60594D01*
X37391Y-59908D01*
X38115Y-60670D02*
X38039Y-60708D01*
X37887Y-60708D01*
X37810Y-60670D01*
X37772Y-60594D01*
X37772Y-60289D01*
X37810Y-60213D01*
X37887Y-60174D01*
X38039Y-60174D01*
X38115Y-60213D01*
X38153Y-60289D01*
X38153Y-60365D01*
X37772Y-60441D01*
X38458Y-60670D02*
X38535Y-60708D01*
X38687Y-60708D01*
X38763Y-60670D01*
X38801Y-60594D01*
X38801Y-60555D01*
X38763Y-60479D01*
X38687Y-60441D01*
X38573Y-60441D01*
X38496Y-60403D01*
X38458Y-60327D01*
X38458Y-60289D01*
X38496Y-60213D01*
X38573Y-60174D01*
X38687Y-60174D01*
X38763Y-60213D01*
X39068Y-61013D02*
X39106Y-60974D01*
X39183Y-60860D01*
X39221Y-60784D01*
X39259Y-60670D01*
X39297Y-60479D01*
X39297Y-60327D01*
X39259Y-60136D01*
X39221Y-60022D01*
X39183Y-59946D01*
X39106Y-59832D01*
X39068Y-59794D01*
X21178Y-61239D02*
X21178Y-61639D01*
X21378Y-61439D02*
X20978Y-61439D01*
X21921Y-60963D02*
X21997Y-60963D01*
X22073Y-61001D01*
X22111Y-61039D01*
X22149Y-61115D01*
X22188Y-61268D01*
X22188Y-61458D01*
X22149Y-61610D01*
X22111Y-61687D01*
X22073Y-61725D01*
X21997Y-61763D01*
X21921Y-61763D01*
X21845Y-61725D01*
X21807Y-61687D01*
X21768Y-61610D01*
X21730Y-61458D01*
X21730Y-61268D01*
X21768Y-61115D01*
X21807Y-61039D01*
X21845Y-61001D01*
X21921Y-60963D01*
X22530Y-61687D02*
X22569Y-61725D01*
X22530Y-61763D01*
X22492Y-61725D01*
X22530Y-61687D01*
X22530Y-61763D01*
X23064Y-60963D02*
X23140Y-60963D01*
X23216Y-61001D01*
X23254Y-61039D01*
X23292Y-61115D01*
X23331Y-61268D01*
X23331Y-61458D01*
X23292Y-61610D01*
X23254Y-61687D01*
X23216Y-61725D01*
X23140Y-61763D01*
X23064Y-61763D01*
X22988Y-61725D01*
X22950Y-61687D01*
X22911Y-61610D01*
X22873Y-61458D01*
X22873Y-61268D01*
X22911Y-61115D01*
X22950Y-61039D01*
X22988Y-61001D01*
X23064Y-60963D01*
X24016Y-61229D02*
X24016Y-61763D01*
X23826Y-60925D02*
X23635Y-61496D01*
X24131Y-61496D01*
X24588Y-60963D02*
X24664Y-60963D01*
X24740Y-61001D01*
X24778Y-61039D01*
X24816Y-61115D01*
X24855Y-61268D01*
X24855Y-61458D01*
X24816Y-61610D01*
X24778Y-61687D01*
X24740Y-61725D01*
X24664Y-61763D01*
X24588Y-61763D01*
X24512Y-61725D01*
X24474Y-61687D01*
X24435Y-61610D01*
X24397Y-61458D01*
X24397Y-61268D01*
X24435Y-61115D01*
X24474Y-61039D01*
X24512Y-61001D01*
X24588Y-60963D01*
X25159Y-60963D02*
X25159Y-61115D01*
X25464Y-60963D02*
X25464Y-61115D01*
X26989Y-60925D02*
X26303Y-61953D01*
X28285Y-61763D02*
X27827Y-61763D01*
X28056Y-61763D02*
X28056Y-60963D01*
X27980Y-61077D01*
X27904Y-61153D01*
X27827Y-61191D01*
X28627Y-61687D02*
X28666Y-61725D01*
X28627Y-61763D01*
X28589Y-61725D01*
X28627Y-61687D01*
X28627Y-61763D01*
X29161Y-60963D02*
X29237Y-60963D01*
X29313Y-61001D01*
X29351Y-61039D01*
X29389Y-61115D01*
X29428Y-61268D01*
X29428Y-61458D01*
X29389Y-61610D01*
X29351Y-61687D01*
X29313Y-61725D01*
X29237Y-61763D01*
X29161Y-61763D01*
X29085Y-61725D01*
X29047Y-61687D01*
X29008Y-61610D01*
X28970Y-61458D01*
X28970Y-61268D01*
X29008Y-61115D01*
X29047Y-61039D01*
X29085Y-61001D01*
X29161Y-60963D01*
X29732Y-61039D02*
X29770Y-61001D01*
X29847Y-60963D01*
X30037Y-60963D01*
X30113Y-61001D01*
X30151Y-61039D01*
X30190Y-61115D01*
X30190Y-61191D01*
X30151Y-61306D01*
X29694Y-61763D01*
X30190Y-61763D01*
X30532Y-61763D02*
X30532Y-61229D01*
X30532Y-61306D02*
X30571Y-61268D01*
X30647Y-61229D01*
X30761Y-61229D01*
X30837Y-61268D01*
X30875Y-61344D01*
X30875Y-61763D01*
X30875Y-61344D02*
X30913Y-61268D01*
X30990Y-61229D01*
X31104Y-61229D01*
X31180Y-61268D01*
X31218Y-61344D01*
X31218Y-61763D01*
X31599Y-61763D02*
X31599Y-61229D01*
X31599Y-61306D02*
X31638Y-61268D01*
X31714Y-61229D01*
X31828Y-61229D01*
X31904Y-61268D01*
X31942Y-61344D01*
X31942Y-61763D01*
X31942Y-61344D02*
X31980Y-61268D01*
X32057Y-61229D01*
X32171Y-61229D01*
X32247Y-61268D01*
X32285Y-61344D01*
X32285Y-61763D01*
X33505Y-62068D02*
X33467Y-62029D01*
X33391Y-61915D01*
X33353Y-61839D01*
X33315Y-61725D01*
X33276Y-61534D01*
X33276Y-61382D01*
X33315Y-61191D01*
X33353Y-61077D01*
X33391Y-61001D01*
X33467Y-60887D01*
X33505Y-60849D01*
X34152Y-60963D02*
X34000Y-60963D01*
X33924Y-61001D01*
X33886Y-61039D01*
X33809Y-61153D01*
X33771Y-61306D01*
X33771Y-61610D01*
X33809Y-61687D01*
X33848Y-61725D01*
X33924Y-61763D01*
X34076Y-61763D01*
X34152Y-61725D01*
X34190Y-61687D01*
X34229Y-61610D01*
X34229Y-61420D01*
X34190Y-61344D01*
X34152Y-61306D01*
X34076Y-61268D01*
X33924Y-61268D01*
X33848Y-61306D01*
X33809Y-61344D01*
X33771Y-61420D01*
X35181Y-61763D02*
X35181Y-60963D01*
X35524Y-61763D02*
X35524Y-61344D01*
X35486Y-61268D01*
X35410Y-61229D01*
X35296Y-61229D01*
X35220Y-61268D01*
X35181Y-61306D01*
X36020Y-61763D02*
X35944Y-61725D01*
X35905Y-61687D01*
X35867Y-61610D01*
X35867Y-61382D01*
X35905Y-61306D01*
X35944Y-61268D01*
X36020Y-61229D01*
X36134Y-61229D01*
X36210Y-61268D01*
X36248Y-61306D01*
X36286Y-61382D01*
X36286Y-61610D01*
X36248Y-61687D01*
X36210Y-61725D01*
X36134Y-61763D01*
X36020Y-61763D01*
X36744Y-61763D02*
X36668Y-61725D01*
X36629Y-61649D01*
X36629Y-60963D01*
X37353Y-61725D02*
X37277Y-61763D01*
X37125Y-61763D01*
X37048Y-61725D01*
X37010Y-61649D01*
X37010Y-61344D01*
X37048Y-61268D01*
X37125Y-61229D01*
X37277Y-61229D01*
X37353Y-61268D01*
X37391Y-61344D01*
X37391Y-61420D01*
X37010Y-61496D01*
X37696Y-61725D02*
X37773Y-61763D01*
X37925Y-61763D01*
X38001Y-61725D01*
X38039Y-61649D01*
X38039Y-61610D01*
X38001Y-61534D01*
X37925Y-61496D01*
X37811Y-61496D01*
X37734Y-61458D01*
X37696Y-61382D01*
X37696Y-61344D01*
X37734Y-61268D01*
X37811Y-61229D01*
X37925Y-61229D01*
X38001Y-61268D01*
X38306Y-62068D02*
X38344Y-62029D01*
X38421Y-61915D01*
X38459Y-61839D01*
X38497Y-61725D01*
X38535Y-61534D01*
X38535Y-61382D01*
X38497Y-61191D01*
X38459Y-61077D01*
X38421Y-61001D01*
X38344Y-60887D01*
X38306Y-60849D01*
G54D10*
X21378Y-62494D02*
X21369Y-62580D01*
X21344Y-62662D01*
X21303Y-62739D01*
X21249Y-62806D01*
X21182Y-62861D01*
X21106Y-62902D01*
X21024Y-62927D01*
X20938Y-62936D01*
X20852Y-62929D01*
X20770Y-62904D01*
X20693Y-62864D01*
X20626Y-62810D01*
X20570Y-62744D01*
X20528Y-62668D01*
X20502Y-62586D01*
X20493Y-62500D01*
X20500Y-62415D01*
X20524Y-62331D01*
X20563Y-62255D01*
X20617Y-62187D01*
X20683Y-62131D01*
X20758Y-62089D01*
X20840Y-62062D01*
X20926Y-62052D01*
X21011Y-62058D01*
X21095Y-62081D01*
X21172Y-62120D01*
X21240Y-62174D01*
X21296Y-62239D01*
X21339Y-62314D01*
X21366Y-62396D01*
X21377Y-62482D01*
X21378Y-62494D01*
X20492Y-62051D02*
X21378Y-62937D01*
X21378Y-62051D02*
X20492Y-62937D01*
G54D12*
X21921Y-62018D02*
X21997Y-62018D01*
X22073Y-62056D01*
X22111Y-62094D01*
X22149Y-62170D01*
X22188Y-62323D01*
X22188Y-62513D01*
X22149Y-62665D01*
X22111Y-62742D01*
X22073Y-62780D01*
X21997Y-62818D01*
X21921Y-62818D01*
X21845Y-62780D01*
X21807Y-62742D01*
X21768Y-62665D01*
X21730Y-62513D01*
X21730Y-62323D01*
X21768Y-62170D01*
X21807Y-62094D01*
X21845Y-62056D01*
X21921Y-62018D01*
X22530Y-62742D02*
X22569Y-62780D01*
X22530Y-62818D01*
X22492Y-62780D01*
X22530Y-62742D01*
X22530Y-62818D01*
X23064Y-62018D02*
X23140Y-62018D01*
X23216Y-62056D01*
X23254Y-62094D01*
X23292Y-62170D01*
X23331Y-62323D01*
X23331Y-62513D01*
X23292Y-62665D01*
X23254Y-62742D01*
X23216Y-62780D01*
X23140Y-62818D01*
X23064Y-62818D01*
X22988Y-62780D01*
X22950Y-62742D01*
X22911Y-62665D01*
X22873Y-62513D01*
X22873Y-62323D01*
X22911Y-62170D01*
X22950Y-62094D01*
X22988Y-62056D01*
X23064Y-62018D01*
X23788Y-62361D02*
X23712Y-62323D01*
X23673Y-62284D01*
X23635Y-62208D01*
X23635Y-62170D01*
X23673Y-62094D01*
X23712Y-62056D01*
X23788Y-62018D01*
X23940Y-62018D01*
X24016Y-62056D01*
X24054Y-62094D01*
X24093Y-62170D01*
X24093Y-62208D01*
X24054Y-62284D01*
X24016Y-62323D01*
X23940Y-62361D01*
X23788Y-62361D01*
X23712Y-62399D01*
X23673Y-62437D01*
X23635Y-62513D01*
X23635Y-62665D01*
X23673Y-62742D01*
X23712Y-62780D01*
X23788Y-62818D01*
X23940Y-62818D01*
X24016Y-62780D01*
X24054Y-62742D01*
X24093Y-62665D01*
X24093Y-62513D01*
X24054Y-62437D01*
X24016Y-62399D01*
X23940Y-62361D01*
X24474Y-62818D02*
X24626Y-62818D01*
X24702Y-62780D01*
X24740Y-62742D01*
X24816Y-62627D01*
X24855Y-62475D01*
X24855Y-62170D01*
X24816Y-62094D01*
X24778Y-62056D01*
X24702Y-62018D01*
X24550Y-62018D01*
X24474Y-62056D01*
X24435Y-62094D01*
X24397Y-62170D01*
X24397Y-62361D01*
X24435Y-62437D01*
X24474Y-62475D01*
X24550Y-62513D01*
X24702Y-62513D01*
X24778Y-62475D01*
X24816Y-62437D01*
X24855Y-62361D01*
X25159Y-62018D02*
X25159Y-62170D01*
X25464Y-62018D02*
X25464Y-62170D01*
X26989Y-61980D02*
X26303Y-63008D01*
X27827Y-62094D02*
X27865Y-62056D01*
X27942Y-62018D01*
X28132Y-62018D01*
X28208Y-62056D01*
X28246Y-62094D01*
X28285Y-62170D01*
X28285Y-62246D01*
X28246Y-62361D01*
X27789Y-62818D01*
X28285Y-62818D01*
X28627Y-62742D02*
X28666Y-62780D01*
X28627Y-62818D01*
X28589Y-62780D01*
X28627Y-62742D01*
X28627Y-62818D01*
X28970Y-62094D02*
X29008Y-62056D01*
X29085Y-62018D01*
X29275Y-62018D01*
X29351Y-62056D01*
X29389Y-62094D01*
X29428Y-62170D01*
X29428Y-62246D01*
X29389Y-62361D01*
X28932Y-62818D01*
X29428Y-62818D01*
X30151Y-62018D02*
X29770Y-62018D01*
X29732Y-62399D01*
X29770Y-62361D01*
X29847Y-62323D01*
X30037Y-62323D01*
X30113Y-62361D01*
X30151Y-62399D01*
X30190Y-62475D01*
X30190Y-62665D01*
X30151Y-62742D01*
X30113Y-62780D01*
X30037Y-62818D01*
X29847Y-62818D01*
X29770Y-62780D01*
X29732Y-62742D01*
X30532Y-62818D02*
X30532Y-62284D01*
X30532Y-62361D02*
X30571Y-62323D01*
X30647Y-62284D01*
X30761Y-62284D01*
X30837Y-62323D01*
X30875Y-62399D01*
X30875Y-62818D01*
X30875Y-62399D02*
X30913Y-62323D01*
X30990Y-62284D01*
X31104Y-62284D01*
X31180Y-62323D01*
X31218Y-62399D01*
X31218Y-62818D01*
X31599Y-62818D02*
X31599Y-62284D01*
X31599Y-62361D02*
X31638Y-62323D01*
X31714Y-62284D01*
X31828Y-62284D01*
X31904Y-62323D01*
X31942Y-62399D01*
X31942Y-62818D01*
X31942Y-62399D02*
X31980Y-62323D01*
X32057Y-62284D01*
X32171Y-62284D01*
X32247Y-62323D01*
X32285Y-62399D01*
X32285Y-62818D01*
X33505Y-63123D02*
X33467Y-63084D01*
X33391Y-62970D01*
X33353Y-62894D01*
X33315Y-62780D01*
X33276Y-62589D01*
X33276Y-62437D01*
X33315Y-62246D01*
X33353Y-62132D01*
X33391Y-62056D01*
X33467Y-61942D01*
X33505Y-61904D01*
X33771Y-62094D02*
X33809Y-62056D01*
X33886Y-62018D01*
X34076Y-62018D01*
X34152Y-62056D01*
X34190Y-62094D01*
X34229Y-62170D01*
X34229Y-62246D01*
X34190Y-62361D01*
X33733Y-62818D01*
X34229Y-62818D01*
X35181Y-62818D02*
X35181Y-62018D01*
X35524Y-62818D02*
X35524Y-62399D01*
X35486Y-62323D01*
X35410Y-62284D01*
X35296Y-62284D01*
X35220Y-62323D01*
X35181Y-62361D01*
X36020Y-62818D02*
X35944Y-62780D01*
X35905Y-62742D01*
X35867Y-62665D01*
X35867Y-62437D01*
X35905Y-62361D01*
X35944Y-62323D01*
X36020Y-62284D01*
X36134Y-62284D01*
X36210Y-62323D01*
X36248Y-62361D01*
X36286Y-62437D01*
X36286Y-62665D01*
X36248Y-62742D01*
X36210Y-62780D01*
X36134Y-62818D01*
X36020Y-62818D01*
X36744Y-62818D02*
X36668Y-62780D01*
X36629Y-62704D01*
X36629Y-62018D01*
X37353Y-62780D02*
X37277Y-62818D01*
X37125Y-62818D01*
X37048Y-62780D01*
X37010Y-62704D01*
X37010Y-62399D01*
X37048Y-62323D01*
X37125Y-62284D01*
X37277Y-62284D01*
X37353Y-62323D01*
X37391Y-62399D01*
X37391Y-62475D01*
X37010Y-62551D01*
X37696Y-62780D02*
X37773Y-62818D01*
X37925Y-62818D01*
X38001Y-62780D01*
X38039Y-62704D01*
X38039Y-62665D01*
X38001Y-62589D01*
X37925Y-62551D01*
X37811Y-62551D01*
X37734Y-62513D01*
X37696Y-62437D01*
X37696Y-62399D01*
X37734Y-62323D01*
X37811Y-62284D01*
X37925Y-62284D01*
X38001Y-62323D01*
X38306Y-63123D02*
X38344Y-63084D01*
X38421Y-62970D01*
X38459Y-62894D01*
X38497Y-62780D01*
X38535Y-62589D01*
X38535Y-62437D01*
X38497Y-62246D01*
X38459Y-62132D01*
X38421Y-62056D01*
X38344Y-61942D01*
X38306Y-61904D01*
M02*
