G04 (created by PCBNEW-RS274X (2012-01-19 BZR 3256)-stable) date 5/16/2012 8:33:29 PM*
G01*
G70*
G90*
%MOIN*%
G04 Gerber Fmt 3.4, Leading zero omitted, Abs format*
%FSLAX34Y34*%
G04 APERTURE LIST*
%ADD10C,0.006000*%
%ADD11C,0.009800*%
%ADD12C,0.060000*%
%ADD13C,0.137800*%
%ADD14C,0.078700*%
%ADD15R,0.047200X0.047200*%
%ADD16C,0.035000*%
%ADD17C,0.008000*%
%ADD18C,0.018000*%
G04 APERTURE END LIST*
G54D10*
G54D11*
X41434Y-38139D02*
X41463Y-38167D01*
X41549Y-38196D01*
X41606Y-38196D01*
X41691Y-38167D01*
X41749Y-38110D01*
X41777Y-38053D01*
X41806Y-37939D01*
X41806Y-37853D01*
X41777Y-37739D01*
X41749Y-37682D01*
X41691Y-37624D01*
X41606Y-37596D01*
X41549Y-37596D01*
X41463Y-37624D01*
X41434Y-37653D01*
X41177Y-38196D02*
X41177Y-37596D01*
X41177Y-37882D02*
X40834Y-37882D01*
X40834Y-38196D02*
X40834Y-37596D01*
X40577Y-38024D02*
X40291Y-38024D01*
X40634Y-38196D02*
X40434Y-37596D01*
X40234Y-38196D01*
X40034Y-38196D02*
X40034Y-37596D01*
X39834Y-38024D01*
X39634Y-37596D01*
X39634Y-38196D01*
X39348Y-37882D02*
X39148Y-37882D01*
X39062Y-38196D02*
X39348Y-38196D01*
X39348Y-37596D01*
X39062Y-37596D01*
X38519Y-38196D02*
X38805Y-38196D01*
X38805Y-37596D01*
X38319Y-37882D02*
X38119Y-37882D01*
X38033Y-38196D02*
X38319Y-38196D01*
X38319Y-37596D01*
X38033Y-37596D01*
X37662Y-37596D02*
X37548Y-37596D01*
X37490Y-37624D01*
X37433Y-37682D01*
X37405Y-37796D01*
X37405Y-37996D01*
X37433Y-38110D01*
X37490Y-38167D01*
X37548Y-38196D01*
X37662Y-38196D01*
X37719Y-38167D01*
X37776Y-38110D01*
X37805Y-37996D01*
X37805Y-37796D01*
X37776Y-37682D01*
X37719Y-37624D01*
X37662Y-37596D01*
X37147Y-38196D02*
X37147Y-37596D01*
X36804Y-38196D01*
X36804Y-37596D01*
X44334Y-40072D02*
X44334Y-39472D01*
X44106Y-39472D01*
X44048Y-39500D01*
X44020Y-39529D01*
X43991Y-39586D01*
X43991Y-39672D01*
X44020Y-39729D01*
X44048Y-39758D01*
X44106Y-39786D01*
X44334Y-39786D01*
X43734Y-40072D02*
X43734Y-39672D01*
X43734Y-39786D02*
X43706Y-39729D01*
X43677Y-39700D01*
X43620Y-39672D01*
X43563Y-39672D01*
X43277Y-40072D02*
X43335Y-40043D01*
X43363Y-40015D01*
X43392Y-39958D01*
X43392Y-39786D01*
X43363Y-39729D01*
X43335Y-39700D01*
X43277Y-39672D01*
X43192Y-39672D01*
X43135Y-39700D01*
X43106Y-39729D01*
X43077Y-39786D01*
X43077Y-39958D01*
X43106Y-40015D01*
X43135Y-40043D01*
X43192Y-40072D01*
X43277Y-40072D01*
X42820Y-39672D02*
X42820Y-40186D01*
X42849Y-40243D01*
X42906Y-40272D01*
X42934Y-40272D01*
X42820Y-39472D02*
X42849Y-39500D01*
X42820Y-39529D01*
X42792Y-39500D01*
X42820Y-39472D01*
X42820Y-39529D01*
X42306Y-40043D02*
X42363Y-40072D01*
X42477Y-40072D01*
X42534Y-40043D01*
X42563Y-39986D01*
X42563Y-39758D01*
X42534Y-39700D01*
X42477Y-39672D01*
X42363Y-39672D01*
X42306Y-39700D01*
X42277Y-39758D01*
X42277Y-39815D01*
X42563Y-39872D01*
X41763Y-40043D02*
X41820Y-40072D01*
X41934Y-40072D01*
X41992Y-40043D01*
X42020Y-40015D01*
X42049Y-39958D01*
X42049Y-39786D01*
X42020Y-39729D01*
X41992Y-39700D01*
X41934Y-39672D01*
X41820Y-39672D01*
X41763Y-39700D01*
X41592Y-39672D02*
X41363Y-39672D01*
X41506Y-39472D02*
X41506Y-39986D01*
X41478Y-40043D01*
X41420Y-40072D01*
X41363Y-40072D01*
X41192Y-40043D02*
X41135Y-40072D01*
X41020Y-40072D01*
X40963Y-40043D01*
X40935Y-39986D01*
X40935Y-39958D01*
X40963Y-39900D01*
X41020Y-39872D01*
X41106Y-39872D01*
X41163Y-39843D01*
X41192Y-39786D01*
X41192Y-39758D01*
X41163Y-39700D01*
X41106Y-39672D01*
X41020Y-39672D01*
X40963Y-39700D01*
X39963Y-40072D02*
X39963Y-39758D01*
X39992Y-39700D01*
X40049Y-39672D01*
X40163Y-39672D01*
X40220Y-39700D01*
X39963Y-40043D02*
X40020Y-40072D01*
X40163Y-40072D01*
X40220Y-40043D01*
X40249Y-39986D01*
X40249Y-39929D01*
X40220Y-39872D01*
X40163Y-39843D01*
X40020Y-39843D01*
X39963Y-39815D01*
X39677Y-39672D02*
X39677Y-40072D01*
X39677Y-39729D02*
X39649Y-39700D01*
X39591Y-39672D01*
X39506Y-39672D01*
X39449Y-39700D01*
X39420Y-39758D01*
X39420Y-40072D01*
X38877Y-40072D02*
X38877Y-39472D01*
X38877Y-40043D02*
X38934Y-40072D01*
X39048Y-40072D01*
X39106Y-40043D01*
X39134Y-40015D01*
X39163Y-39958D01*
X39163Y-39786D01*
X39134Y-39729D01*
X39106Y-39700D01*
X39048Y-39672D01*
X38934Y-39672D01*
X38877Y-39700D01*
X38163Y-40043D02*
X38077Y-40072D01*
X37934Y-40072D01*
X37877Y-40043D01*
X37848Y-40015D01*
X37820Y-39958D01*
X37820Y-39900D01*
X37848Y-39843D01*
X37877Y-39815D01*
X37934Y-39786D01*
X38048Y-39758D01*
X38106Y-39729D01*
X38134Y-39700D01*
X38163Y-39643D01*
X38163Y-39586D01*
X38134Y-39529D01*
X38106Y-39500D01*
X38048Y-39472D01*
X37906Y-39472D01*
X37820Y-39500D01*
X37649Y-39672D02*
X37420Y-39672D01*
X37563Y-39472D02*
X37563Y-39986D01*
X37535Y-40043D01*
X37477Y-40072D01*
X37420Y-40072D01*
X36963Y-39672D02*
X36963Y-40072D01*
X37220Y-39672D02*
X37220Y-39986D01*
X37192Y-40043D01*
X37134Y-40072D01*
X37049Y-40072D01*
X36992Y-40043D01*
X36963Y-40015D01*
X36763Y-39672D02*
X36534Y-39672D01*
X36677Y-40072D02*
X36677Y-39558D01*
X36649Y-39500D01*
X36591Y-39472D01*
X36534Y-39472D01*
X36420Y-39672D02*
X36191Y-39672D01*
X36334Y-40072D02*
X36334Y-39558D01*
X36306Y-39500D01*
X36248Y-39472D01*
X36191Y-39472D01*
X35248Y-40072D02*
X35534Y-40072D01*
X35534Y-39472D01*
X34762Y-40072D02*
X35048Y-40072D01*
X35048Y-39472D01*
X34219Y-40015D02*
X34248Y-40043D01*
X34334Y-40072D01*
X34391Y-40072D01*
X34476Y-40043D01*
X34534Y-39986D01*
X34562Y-39929D01*
X34591Y-39815D01*
X34591Y-39729D01*
X34562Y-39615D01*
X34534Y-39558D01*
X34476Y-39500D01*
X34391Y-39472D01*
X34334Y-39472D01*
X34248Y-39500D01*
X34219Y-39529D01*
X45006Y-40610D02*
X44892Y-41010D01*
X44778Y-40724D01*
X44663Y-41010D01*
X44549Y-40610D01*
X44377Y-40610D02*
X44263Y-41010D01*
X44149Y-40724D01*
X44034Y-41010D01*
X43920Y-40610D01*
X43748Y-40610D02*
X43634Y-41010D01*
X43520Y-40724D01*
X43405Y-41010D01*
X43291Y-40610D01*
X43062Y-40953D02*
X43034Y-40981D01*
X43062Y-41010D01*
X43091Y-40981D01*
X43062Y-40953D01*
X43062Y-41010D01*
X42776Y-40610D02*
X42776Y-41210D01*
X42776Y-40638D02*
X42719Y-40610D01*
X42605Y-40610D01*
X42548Y-40638D01*
X42519Y-40667D01*
X42490Y-40724D01*
X42490Y-40896D01*
X42519Y-40953D01*
X42548Y-40981D01*
X42605Y-41010D01*
X42719Y-41010D01*
X42776Y-40981D01*
X42233Y-41010D02*
X42233Y-40610D01*
X42233Y-40724D02*
X42205Y-40667D01*
X42176Y-40638D01*
X42119Y-40610D01*
X42062Y-40610D01*
X41776Y-41010D02*
X41834Y-40981D01*
X41862Y-40953D01*
X41891Y-40896D01*
X41891Y-40724D01*
X41862Y-40667D01*
X41834Y-40638D01*
X41776Y-40610D01*
X41691Y-40610D01*
X41634Y-40638D01*
X41605Y-40667D01*
X41576Y-40724D01*
X41576Y-40896D01*
X41605Y-40953D01*
X41634Y-40981D01*
X41691Y-41010D01*
X41776Y-41010D01*
X41319Y-40610D02*
X41319Y-41124D01*
X41348Y-41181D01*
X41405Y-41210D01*
X41433Y-41210D01*
X41319Y-40410D02*
X41348Y-40438D01*
X41319Y-40467D01*
X41291Y-40438D01*
X41319Y-40410D01*
X41319Y-40467D01*
X40805Y-40981D02*
X40862Y-41010D01*
X40976Y-41010D01*
X41033Y-40981D01*
X41062Y-40924D01*
X41062Y-40696D01*
X41033Y-40638D01*
X40976Y-40610D01*
X40862Y-40610D01*
X40805Y-40638D01*
X40776Y-40696D01*
X40776Y-40753D01*
X41062Y-40810D01*
X40262Y-40981D02*
X40319Y-41010D01*
X40433Y-41010D01*
X40491Y-40981D01*
X40519Y-40953D01*
X40548Y-40896D01*
X40548Y-40724D01*
X40519Y-40667D01*
X40491Y-40638D01*
X40433Y-40610D01*
X40319Y-40610D01*
X40262Y-40638D01*
X40091Y-40610D02*
X39862Y-40610D01*
X40005Y-40410D02*
X40005Y-40924D01*
X39977Y-40981D01*
X39919Y-41010D01*
X39862Y-41010D01*
X39691Y-40981D02*
X39634Y-41010D01*
X39519Y-41010D01*
X39462Y-40981D01*
X39434Y-40924D01*
X39434Y-40896D01*
X39462Y-40838D01*
X39519Y-40810D01*
X39605Y-40810D01*
X39662Y-40781D01*
X39691Y-40724D01*
X39691Y-40696D01*
X39662Y-40638D01*
X39605Y-40610D01*
X39519Y-40610D01*
X39462Y-40638D01*
X38919Y-41010D02*
X38919Y-40696D01*
X38948Y-40638D01*
X39005Y-40610D01*
X39119Y-40610D01*
X39176Y-40638D01*
X38919Y-40981D02*
X38976Y-41010D01*
X39119Y-41010D01*
X39176Y-40981D01*
X39205Y-40924D01*
X39205Y-40867D01*
X39176Y-40810D01*
X39119Y-40781D01*
X38976Y-40781D01*
X38919Y-40753D01*
X38633Y-40610D02*
X38633Y-41010D01*
X38633Y-40667D02*
X38605Y-40638D01*
X38547Y-40610D01*
X38462Y-40610D01*
X38405Y-40638D01*
X38376Y-40696D01*
X38376Y-41010D01*
X37833Y-41010D02*
X37833Y-40410D01*
X37833Y-40981D02*
X37890Y-41010D01*
X38004Y-41010D01*
X38062Y-40981D01*
X38090Y-40953D01*
X38119Y-40896D01*
X38119Y-40724D01*
X38090Y-40667D01*
X38062Y-40638D01*
X38004Y-40610D01*
X37890Y-40610D01*
X37833Y-40638D01*
X37576Y-40981D02*
X37519Y-41010D01*
X37404Y-41010D01*
X37347Y-40981D01*
X37319Y-40924D01*
X37319Y-40896D01*
X37347Y-40838D01*
X37404Y-40810D01*
X37490Y-40810D01*
X37547Y-40781D01*
X37576Y-40724D01*
X37576Y-40696D01*
X37547Y-40638D01*
X37490Y-40610D01*
X37404Y-40610D01*
X37347Y-40638D01*
X37147Y-40610D02*
X36918Y-40610D01*
X37061Y-40410D02*
X37061Y-40924D01*
X37033Y-40981D01*
X36975Y-41010D01*
X36918Y-41010D01*
X36461Y-40610D02*
X36461Y-41010D01*
X36718Y-40610D02*
X36718Y-40924D01*
X36690Y-40981D01*
X36632Y-41010D01*
X36547Y-41010D01*
X36490Y-40981D01*
X36461Y-40953D01*
X36261Y-40610D02*
X36032Y-40610D01*
X36175Y-41010D02*
X36175Y-40496D01*
X36147Y-40438D01*
X36089Y-40410D01*
X36032Y-40410D01*
X35918Y-40610D02*
X35689Y-40610D01*
X35832Y-41010D02*
X35832Y-40496D01*
X35804Y-40438D01*
X35746Y-40410D01*
X35689Y-40410D01*
X35489Y-40953D02*
X35461Y-40981D01*
X35489Y-41010D01*
X35518Y-40981D01*
X35489Y-40953D01*
X35489Y-41010D01*
X34946Y-40981D02*
X35003Y-41010D01*
X35117Y-41010D01*
X35175Y-40981D01*
X35203Y-40953D01*
X35232Y-40896D01*
X35232Y-40724D01*
X35203Y-40667D01*
X35175Y-40638D01*
X35117Y-40610D01*
X35003Y-40610D01*
X34946Y-40638D01*
X34603Y-41010D02*
X34661Y-40981D01*
X34689Y-40953D01*
X34718Y-40896D01*
X34718Y-40724D01*
X34689Y-40667D01*
X34661Y-40638D01*
X34603Y-40610D01*
X34518Y-40610D01*
X34461Y-40638D01*
X34432Y-40667D01*
X34403Y-40724D01*
X34403Y-40896D01*
X34432Y-40953D01*
X34461Y-40981D01*
X34518Y-41010D01*
X34603Y-41010D01*
X34146Y-41010D02*
X34146Y-40610D01*
X34146Y-40667D02*
X34118Y-40638D01*
X34060Y-40610D01*
X33975Y-40610D01*
X33918Y-40638D01*
X33889Y-40696D01*
X33889Y-41010D01*
X33889Y-40696D02*
X33860Y-40638D01*
X33803Y-40610D01*
X33718Y-40610D01*
X33660Y-40638D01*
X33632Y-40696D01*
X33632Y-41010D01*
G54D10*
G36*
X47100Y-26261D02*
X47453Y-25776D01*
X47938Y-26129D01*
X47585Y-26614D01*
X47100Y-26261D01*
X47100Y-26261D01*
G37*
G54D12*
X48107Y-25386D03*
X48328Y-26783D03*
X48916Y-25973D03*
X49137Y-27370D03*
X49725Y-26561D03*
G54D13*
X39193Y-53593D03*
X39193Y-55561D03*
G54D14*
X41732Y-53445D03*
X42717Y-53248D03*
G54D15*
X25789Y-44056D03*
X25237Y-42401D03*
X24686Y-42401D03*
X24135Y-42401D03*
X25789Y-42401D03*
X25789Y-42952D03*
X25789Y-43504D03*
X24135Y-42952D03*
X24135Y-43504D03*
X25237Y-43504D03*
X24686Y-43504D03*
G54D16*
X50736Y-44682D03*
X49595Y-33617D03*
X46413Y-25183D03*
X31929Y-24591D03*
X51081Y-42767D03*
X31150Y-25839D03*
X52055Y-42825D03*
X49846Y-27224D03*
X48822Y-28369D03*
X30789Y-26665D03*
X51240Y-45164D03*
X34961Y-24921D03*
X54827Y-39952D03*
X36251Y-52411D03*
X54446Y-34483D03*
X49808Y-50311D03*
X37638Y-23780D03*
X26263Y-32212D03*
X27795Y-27362D03*
X28386Y-28071D03*
X51701Y-28537D03*
X52353Y-39181D03*
X27822Y-46756D03*
X35236Y-23425D03*
X31575Y-26339D03*
X33728Y-50859D03*
X38323Y-25583D03*
X28583Y-30765D03*
X29783Y-28768D03*
X31836Y-27208D03*
X38855Y-25916D03*
X29447Y-29589D03*
X40004Y-25384D03*
X29697Y-30014D03*
X38430Y-52252D03*
X28771Y-32142D03*
X37792Y-52093D03*
X30620Y-29796D03*
X30450Y-30448D03*
X38004Y-51453D03*
G54D17*
X50620Y-41048D02*
X50620Y-44566D01*
X50734Y-33643D02*
X50734Y-40934D01*
X47519Y-26195D02*
X47519Y-30428D01*
X50734Y-40934D02*
X50620Y-41048D01*
X50620Y-44566D02*
X50736Y-44682D01*
X47519Y-30428D02*
X50734Y-33643D01*
X46413Y-29746D02*
X49595Y-32928D01*
X49595Y-32928D02*
X49595Y-33617D01*
X46413Y-25183D02*
X46413Y-29746D01*
X48916Y-25973D02*
X48916Y-26938D01*
X31473Y-26665D02*
X35780Y-26665D01*
X31929Y-24591D02*
X31161Y-25839D01*
X48916Y-25595D02*
X48916Y-25973D01*
X48916Y-26938D02*
X48523Y-27331D01*
X37832Y-24613D02*
X47934Y-24613D01*
X31150Y-26342D02*
X31473Y-26665D01*
X47934Y-24613D02*
X48916Y-25595D01*
X48523Y-27331D02*
X48523Y-28667D01*
X31161Y-25839D02*
X31150Y-25839D01*
X51081Y-31225D02*
X51081Y-42767D01*
X35780Y-26665D02*
X37832Y-24613D01*
X48523Y-28667D02*
X51081Y-31225D01*
X31150Y-25839D02*
X31150Y-26342D01*
X48822Y-28369D02*
X49137Y-28054D01*
X49846Y-27224D02*
X49137Y-27370D01*
X49137Y-28054D02*
X49137Y-27370D01*
X52055Y-31602D02*
X52055Y-42825D01*
X48822Y-28369D02*
X52055Y-31602D01*
X50783Y-41116D02*
X50783Y-44014D01*
X36654Y-26828D02*
X38668Y-24814D01*
X46799Y-24814D02*
X48328Y-26343D01*
X50783Y-44014D02*
X51240Y-44471D01*
X38668Y-24814D02*
X46799Y-24814D01*
X48328Y-26783D02*
X48328Y-31005D01*
X30789Y-26665D02*
X30952Y-26828D01*
X50897Y-41002D02*
X50783Y-41116D01*
X48328Y-31005D02*
X50897Y-33574D01*
X50897Y-33574D02*
X50897Y-41002D01*
X30952Y-26828D02*
X36654Y-26828D01*
X51240Y-44471D02*
X51240Y-45164D01*
X48328Y-26343D02*
X48328Y-26783D01*
X34961Y-24921D02*
X37638Y-23780D01*
X54606Y-46063D02*
X52835Y-48858D01*
X36390Y-52550D02*
X47569Y-52550D01*
X36251Y-52411D02*
X36390Y-52550D01*
X47569Y-52550D02*
X49808Y-50311D01*
X54827Y-39952D02*
X54615Y-39952D01*
X54615Y-39952D02*
X54606Y-46063D01*
X52835Y-48858D02*
X49808Y-50311D01*
X54446Y-39783D02*
X54615Y-39952D01*
X54446Y-34483D02*
X54446Y-39783D01*
X49725Y-26561D02*
X51701Y-28537D01*
X35236Y-23425D02*
X31575Y-26339D01*
X27795Y-27362D02*
X28386Y-28071D01*
X26893Y-29564D02*
X28386Y-28071D01*
X26893Y-32212D02*
X26893Y-29564D01*
X26893Y-32212D02*
X26263Y-32212D01*
X26893Y-45827D02*
X26893Y-32212D01*
G54D18*
X39990Y-53110D02*
X39193Y-53593D01*
G54D17*
X31925Y-50859D02*
X33728Y-50859D01*
X27822Y-46756D02*
X31925Y-50859D01*
X36462Y-53593D02*
X39193Y-53593D01*
X27822Y-46756D02*
X26893Y-45827D01*
G54D18*
X41811Y-52854D02*
X39990Y-53110D01*
X42717Y-53248D02*
X41811Y-52854D01*
G54D17*
X33728Y-50859D02*
X36462Y-53593D01*
X52353Y-29189D02*
X52353Y-39181D01*
X51701Y-28537D02*
X52353Y-29189D01*
X28583Y-30018D02*
X29423Y-29178D01*
X36572Y-27334D02*
X38323Y-25583D01*
X29423Y-29178D02*
X30330Y-29178D01*
X30330Y-29178D02*
X32174Y-27334D01*
X32174Y-27334D02*
X36572Y-27334D01*
X28583Y-30765D02*
X28583Y-30018D01*
X30276Y-28768D02*
X29783Y-28768D01*
X31836Y-27208D02*
X30276Y-28768D01*
X30150Y-29589D02*
X32241Y-27498D01*
X29447Y-29589D02*
X30150Y-29589D01*
X37273Y-27498D02*
X38855Y-25916D01*
X32241Y-27498D02*
X37273Y-27498D01*
X29697Y-30014D02*
X29956Y-30014D01*
X37726Y-27662D02*
X40004Y-25384D01*
X32308Y-27662D02*
X37726Y-27662D01*
X29956Y-30014D02*
X32308Y-27662D01*
X37960Y-51782D02*
X38430Y-52252D01*
X32691Y-49031D02*
X35442Y-51782D01*
X35442Y-51782D02*
X37960Y-51782D01*
X32223Y-49031D02*
X32691Y-49031D01*
X27638Y-44446D02*
X32223Y-49031D01*
X27638Y-33275D02*
X27638Y-44446D01*
X28771Y-32142D02*
X27638Y-33275D01*
X27475Y-32941D02*
X30620Y-29796D01*
X32501Y-49209D02*
X32170Y-49209D01*
X32170Y-49209D02*
X27475Y-44514D01*
X27475Y-44514D02*
X27475Y-32941D01*
X35385Y-52093D02*
X32501Y-49209D01*
X37792Y-52093D02*
X35385Y-52093D01*
X35495Y-51453D02*
X32150Y-48108D01*
X30450Y-30921D02*
X30450Y-30448D01*
X27802Y-33569D02*
X30450Y-30921D01*
X27802Y-44378D02*
X27802Y-33569D01*
X32150Y-48108D02*
X31532Y-48108D01*
X38004Y-51453D02*
X35495Y-51453D01*
X31532Y-48108D02*
X27802Y-44378D01*
M02*
