G04 (created by PCBNEW-RS274X (2012-01-19 BZR 3256)-stable) date 5/16/2012 8:33:29 PM*
G01*
G70*
G90*
%MOIN*%
G04 Gerber Fmt 3.4, Leading zero omitted, Abs format*
%FSLAX34Y34*%
G04 APERTURE LIST*
%ADD10C,0.006000*%
%ADD11R,0.059400X0.047600*%
%ADD12C,0.080000*%
%ADD13R,0.037700X0.079100*%
%ADD14C,0.157800*%
%ADD15R,0.040000X0.050000*%
%ADD16C,0.067200*%
%ADD17R,0.086900X0.071200*%
%ADD18R,0.086900X0.075100*%
%ADD19R,0.055000X0.075000*%
%ADD20R,0.114500X0.114500*%
%ADD21R,0.090900X0.090900*%
%ADD22C,0.098700*%
G04 APERTURE END LIST*
G54D10*
G54D11*
X32965Y-51772D03*
X33965Y-51397D03*
X33965Y-52147D03*
G54D10*
G36*
X46960Y-26283D02*
X47431Y-25636D01*
X48078Y-26107D01*
X47607Y-26754D01*
X46960Y-26283D01*
X46960Y-26283D01*
G37*
G54D12*
X48107Y-25386D03*
X48328Y-26783D03*
X48916Y-25973D03*
X49137Y-27370D03*
X49725Y-26561D03*
G54D13*
X52264Y-43406D03*
X52764Y-43406D03*
X53264Y-43406D03*
X53764Y-43406D03*
X51764Y-43406D03*
X51264Y-43406D03*
X50764Y-43406D03*
X50764Y-45768D03*
X51264Y-45768D03*
X51764Y-45768D03*
X52264Y-45768D03*
X52764Y-45768D03*
X53264Y-45768D03*
X53764Y-45768D03*
G54D14*
X39193Y-53593D03*
X39193Y-55561D03*
G54D15*
X36239Y-53846D03*
X36989Y-53846D03*
X36239Y-52846D03*
X36614Y-53846D03*
X36989Y-52846D03*
G54D16*
X47165Y-47165D03*
X47444Y-45216D03*
G54D10*
G36*
X24694Y-33027D02*
X25371Y-33247D01*
X25102Y-34073D01*
X24425Y-33853D01*
X24694Y-33027D01*
X24694Y-33027D01*
G37*
G36*
X24110Y-34825D02*
X24787Y-35045D01*
X24518Y-35871D01*
X23841Y-35651D01*
X24110Y-34825D01*
X24110Y-34825D01*
G37*
G36*
X23492Y-34624D02*
X24206Y-34856D01*
X23938Y-35682D01*
X23224Y-35450D01*
X23492Y-34624D01*
X23492Y-34624D01*
G37*
G36*
X24690Y-35013D02*
X25404Y-35245D01*
X25136Y-36071D01*
X24422Y-35839D01*
X24690Y-35013D01*
X24690Y-35013D01*
G37*
G36*
X25293Y-33222D02*
X25970Y-33442D01*
X25701Y-34268D01*
X25024Y-34048D01*
X25293Y-33222D01*
X25293Y-33222D01*
G37*
G36*
X24095Y-32833D02*
X24772Y-33053D01*
X24503Y-33879D01*
X23826Y-33659D01*
X24095Y-32833D01*
X24095Y-32833D01*
G37*
G54D17*
X38425Y-23917D03*
X40315Y-23917D03*
G54D18*
X40315Y-24547D03*
X40315Y-23287D03*
G54D17*
X38425Y-23287D03*
X38425Y-24547D03*
G54D10*
G36*
X53369Y-33050D02*
X54046Y-32830D01*
X54315Y-33656D01*
X53638Y-33876D01*
X53369Y-33050D01*
X53369Y-33050D01*
G37*
G36*
X53953Y-34848D02*
X54630Y-34628D01*
X54899Y-35454D01*
X54222Y-35674D01*
X53953Y-34848D01*
X53953Y-34848D01*
G37*
G36*
X53336Y-35048D02*
X54050Y-34816D01*
X54318Y-35642D01*
X53604Y-35874D01*
X53336Y-35048D01*
X53336Y-35048D01*
G37*
G36*
X54534Y-34659D02*
X55248Y-34427D01*
X55516Y-35253D01*
X54802Y-35485D01*
X54534Y-34659D01*
X54534Y-34659D01*
G37*
G36*
X53968Y-32856D02*
X54645Y-32636D01*
X54914Y-33462D01*
X54237Y-33682D01*
X53968Y-32856D01*
X53968Y-32856D01*
G37*
G36*
X52770Y-33245D02*
X53447Y-33025D01*
X53716Y-33851D01*
X53039Y-34071D01*
X52770Y-33245D01*
X52770Y-33245D01*
G37*
G36*
X49627Y-50575D02*
X50045Y-51151D01*
X49343Y-51661D01*
X48925Y-51085D01*
X49627Y-50575D01*
X49627Y-50575D01*
G37*
G36*
X48097Y-51685D02*
X48515Y-52261D01*
X47813Y-52771D01*
X47395Y-52195D01*
X48097Y-51685D01*
X48097Y-51685D01*
G37*
G36*
X47716Y-51161D02*
X48157Y-51767D01*
X47454Y-52277D01*
X47013Y-51671D01*
X47716Y-51161D01*
X47716Y-51161D01*
G37*
G36*
X48457Y-52180D02*
X48898Y-52786D01*
X48195Y-53296D01*
X47754Y-52690D01*
X48457Y-52180D01*
X48457Y-52180D01*
G37*
G36*
X49997Y-51084D02*
X50415Y-51660D01*
X49713Y-52170D01*
X49295Y-51594D01*
X49997Y-51084D01*
X49997Y-51084D01*
G37*
G36*
X49256Y-50065D02*
X49674Y-50641D01*
X48972Y-51151D01*
X48554Y-50575D01*
X49256Y-50065D01*
X49256Y-50065D01*
G37*
G36*
X31148Y-51998D02*
X30730Y-52574D01*
X30028Y-52064D01*
X30446Y-51488D01*
X31148Y-51998D01*
X31148Y-51998D01*
G37*
G36*
X29618Y-50888D02*
X29200Y-51464D01*
X28498Y-50954D01*
X28916Y-50378D01*
X29618Y-50888D01*
X29618Y-50888D01*
G37*
G36*
X30001Y-50363D02*
X29560Y-50969D01*
X28857Y-50459D01*
X29298Y-49853D01*
X30001Y-50363D01*
X30001Y-50363D01*
G37*
G36*
X29260Y-51382D02*
X28819Y-51988D01*
X28116Y-51478D01*
X28557Y-50872D01*
X29260Y-51382D01*
X29260Y-51382D01*
G37*
G36*
X30777Y-52508D02*
X30359Y-53084D01*
X29657Y-52574D01*
X30075Y-51998D01*
X30777Y-52508D01*
X30777Y-52508D01*
G37*
G36*
X31518Y-51489D02*
X31100Y-52065D01*
X30398Y-51555D01*
X30816Y-50979D01*
X31518Y-51489D01*
X31518Y-51489D01*
G37*
G54D19*
X54384Y-39862D03*
X53634Y-39862D03*
X52059Y-39862D03*
X52809Y-39862D03*
G54D20*
X54087Y-41240D03*
X52355Y-41240D03*
G54D10*
G36*
X44158Y-24692D02*
X43955Y-25250D01*
X43324Y-25020D01*
X43527Y-24462D01*
X44158Y-24692D01*
X44158Y-24692D01*
G37*
G36*
X44616Y-23435D02*
X44413Y-23993D01*
X43782Y-23763D01*
X43985Y-23205D01*
X44616Y-23435D01*
X44616Y-23435D01*
G37*
G36*
X45934Y-25339D02*
X45731Y-25897D01*
X45100Y-25667D01*
X45303Y-25109D01*
X45934Y-25339D01*
X45934Y-25339D01*
G37*
G36*
X46392Y-24082D02*
X46189Y-24640D01*
X45558Y-24410D01*
X45761Y-23852D01*
X46392Y-24082D01*
X46392Y-24082D01*
G37*
G36*
X52252Y-29458D02*
X52672Y-29038D01*
X53148Y-29514D01*
X52728Y-29934D01*
X52252Y-29458D01*
X52252Y-29458D01*
G37*
G36*
X51306Y-30404D02*
X51726Y-29984D01*
X52202Y-30460D01*
X51782Y-30880D01*
X51306Y-30404D01*
X51306Y-30404D01*
G37*
G36*
X50916Y-28122D02*
X51336Y-27702D01*
X51812Y-28178D01*
X51392Y-28598D01*
X50916Y-28122D01*
X50916Y-28122D01*
G37*
G36*
X49970Y-29068D02*
X50390Y-28648D01*
X50866Y-29124D01*
X50446Y-29544D01*
X49970Y-29068D01*
X49970Y-29068D01*
G37*
G36*
X53589Y-31273D02*
X52726Y-31554D01*
X52445Y-30691D01*
X53308Y-30410D01*
X53589Y-31273D01*
X53589Y-31273D01*
G37*
G36*
X54051Y-32695D02*
X53188Y-32976D01*
X52907Y-32113D01*
X53770Y-31832D01*
X54051Y-32695D01*
X54051Y-32695D01*
G37*
G36*
X25395Y-33215D02*
X25676Y-32352D01*
X26539Y-32633D01*
X26258Y-33496D01*
X25395Y-33215D01*
X25395Y-33215D01*
G37*
G36*
X23973Y-32753D02*
X24254Y-31890D01*
X25117Y-32171D01*
X24836Y-33034D01*
X23973Y-32753D01*
X23973Y-32753D01*
G37*
G36*
X24569Y-39507D02*
X23706Y-39226D01*
X23987Y-38363D01*
X24850Y-38644D01*
X24569Y-39507D01*
X24569Y-39507D01*
G37*
G36*
X24107Y-40929D02*
X23244Y-40648D01*
X23525Y-39785D01*
X24388Y-40066D01*
X24107Y-40929D01*
X24107Y-40929D01*
G37*
G36*
X23553Y-36770D02*
X22690Y-36489D01*
X22971Y-35626D01*
X23834Y-35907D01*
X23553Y-36770D01*
X23553Y-36770D01*
G37*
G36*
X23091Y-38192D02*
X22228Y-37911D01*
X22509Y-37048D01*
X23372Y-37329D01*
X23091Y-38192D01*
X23091Y-38192D01*
G37*
G36*
X24061Y-38141D02*
X23198Y-37860D01*
X23479Y-36997D01*
X24342Y-37278D01*
X24061Y-38141D01*
X24061Y-38141D01*
G37*
G36*
X23599Y-39563D02*
X22736Y-39282D01*
X23017Y-38419D01*
X23880Y-38700D01*
X23599Y-39563D01*
X23599Y-39563D01*
G37*
G36*
X31439Y-24364D02*
X31893Y-25150D01*
X31107Y-25604D01*
X30653Y-24818D01*
X31439Y-24364D01*
X31439Y-24364D01*
G37*
G36*
X32735Y-23616D02*
X33189Y-24402D01*
X32403Y-24856D01*
X31949Y-24070D01*
X32735Y-23616D01*
X32735Y-23616D01*
G37*
G36*
X27278Y-27203D02*
X27862Y-27899D01*
X27166Y-28483D01*
X26582Y-27787D01*
X27278Y-27203D01*
X27278Y-27203D01*
G37*
G36*
X28424Y-26241D02*
X29008Y-26937D01*
X28312Y-27521D01*
X27728Y-26825D01*
X28424Y-26241D01*
X28424Y-26241D01*
G37*
G36*
X28068Y-29894D02*
X28664Y-29394D01*
X28898Y-29672D01*
X28302Y-30172D01*
X28068Y-29894D01*
X28068Y-29894D01*
G37*
G36*
X28232Y-30090D02*
X28828Y-29590D01*
X29062Y-29868D01*
X28466Y-30368D01*
X28232Y-30090D01*
X28232Y-30090D01*
G37*
G36*
X28397Y-30287D02*
X28993Y-29787D01*
X29227Y-30065D01*
X28631Y-30565D01*
X28397Y-30287D01*
X28397Y-30287D01*
G37*
G36*
X28561Y-30483D02*
X29157Y-29983D01*
X29391Y-30261D01*
X28795Y-30761D01*
X28561Y-30483D01*
X28561Y-30483D01*
G37*
G36*
X29263Y-27894D02*
X29859Y-27394D01*
X30093Y-27672D01*
X29497Y-28172D01*
X29263Y-27894D01*
X29263Y-27894D01*
G37*
G36*
X27574Y-29306D02*
X28170Y-28806D01*
X28404Y-29084D01*
X27808Y-29584D01*
X27574Y-29306D01*
X27574Y-29306D01*
G37*
G36*
X27738Y-29502D02*
X28334Y-29002D01*
X28568Y-29280D01*
X27972Y-29780D01*
X27738Y-29502D01*
X27738Y-29502D01*
G37*
G36*
X27903Y-29698D02*
X28499Y-29198D01*
X28733Y-29476D01*
X28137Y-29976D01*
X27903Y-29698D01*
X27903Y-29698D01*
G37*
G36*
X30414Y-29262D02*
X31010Y-28762D01*
X31244Y-29040D01*
X30648Y-29540D01*
X30414Y-29262D01*
X30414Y-29262D01*
G37*
G36*
X30250Y-29066D02*
X30846Y-28566D01*
X31080Y-28844D01*
X30484Y-29344D01*
X30250Y-29066D01*
X30250Y-29066D01*
G37*
G36*
X30085Y-28870D02*
X30681Y-28370D01*
X30915Y-28648D01*
X30319Y-29148D01*
X30085Y-28870D01*
X30085Y-28870D01*
G37*
G36*
X29920Y-28674D02*
X30516Y-28174D01*
X30750Y-28452D01*
X30154Y-28952D01*
X29920Y-28674D01*
X29920Y-28674D01*
G37*
G36*
X29756Y-28478D02*
X30352Y-27978D01*
X30586Y-28256D01*
X29990Y-28756D01*
X29756Y-28478D01*
X29756Y-28478D01*
G37*
G36*
X29591Y-28281D02*
X30187Y-27781D01*
X30421Y-28059D01*
X29825Y-28559D01*
X29591Y-28281D01*
X29591Y-28281D01*
G37*
G36*
X28726Y-30679D02*
X29322Y-30179D01*
X29556Y-30457D01*
X28960Y-30957D01*
X28726Y-30679D01*
X28726Y-30679D01*
G37*
G36*
X29425Y-28087D02*
X30021Y-27587D01*
X30255Y-27865D01*
X29659Y-28365D01*
X29425Y-28087D01*
X29425Y-28087D01*
G37*
G36*
X27409Y-29110D02*
X28005Y-28610D01*
X28239Y-28888D01*
X27643Y-29388D01*
X27409Y-29110D01*
X27409Y-29110D01*
G37*
G36*
X28890Y-30875D02*
X29486Y-30375D01*
X29720Y-30653D01*
X29124Y-31153D01*
X28890Y-30875D01*
X28890Y-30875D01*
G37*
G36*
X30579Y-29458D02*
X31175Y-28958D01*
X31409Y-29236D01*
X30813Y-29736D01*
X30579Y-29458D01*
X30579Y-29458D01*
G37*
G36*
X29098Y-27693D02*
X29694Y-27193D01*
X29928Y-27471D01*
X29332Y-27971D01*
X29098Y-27693D01*
X29098Y-27693D01*
G37*
G36*
X27245Y-28915D02*
X27841Y-28415D01*
X28075Y-28693D01*
X27479Y-29193D01*
X27245Y-28915D01*
X27245Y-28915D01*
G37*
G36*
X29054Y-31070D02*
X29650Y-30570D01*
X29884Y-30848D01*
X29288Y-31348D01*
X29054Y-31070D01*
X29054Y-31070D01*
G37*
G36*
X30743Y-29653D02*
X31339Y-29153D01*
X31573Y-29431D01*
X30977Y-29931D01*
X30743Y-29653D01*
X30743Y-29653D01*
G37*
G36*
X28934Y-27498D02*
X29530Y-26998D01*
X29764Y-27276D01*
X29168Y-27776D01*
X28934Y-27498D01*
X28934Y-27498D01*
G37*
G36*
X27081Y-28718D02*
X27677Y-28218D01*
X27911Y-28496D01*
X27315Y-28996D01*
X27081Y-28718D01*
X27081Y-28718D01*
G37*
G36*
X29219Y-31266D02*
X29815Y-30766D01*
X30049Y-31044D01*
X29453Y-31544D01*
X29219Y-31266D01*
X29219Y-31266D01*
G37*
G36*
X30907Y-29850D02*
X31503Y-29350D01*
X31737Y-29628D01*
X31141Y-30128D01*
X30907Y-29850D01*
X30907Y-29850D01*
G37*
G36*
X28769Y-27302D02*
X29365Y-26802D01*
X29599Y-27080D01*
X29003Y-27580D01*
X28769Y-27302D01*
X28769Y-27302D01*
G37*
G36*
X33132Y-25455D02*
X32678Y-24669D01*
X33464Y-24215D01*
X33918Y-25001D01*
X33132Y-25455D01*
X33132Y-25455D01*
G37*
G36*
X31836Y-26203D02*
X31382Y-25417D01*
X32168Y-24963D01*
X32622Y-25749D01*
X31836Y-26203D01*
X31836Y-26203D01*
G37*
G36*
X34234Y-25837D02*
X33780Y-25051D01*
X34566Y-24597D01*
X35020Y-25383D01*
X34234Y-25837D01*
X34234Y-25837D01*
G37*
G36*
X32938Y-26585D02*
X32484Y-25799D01*
X33270Y-25345D01*
X33724Y-26131D01*
X32938Y-26585D01*
X32938Y-26585D01*
G37*
G36*
X48397Y-44359D02*
X49183Y-44813D01*
X48729Y-45599D01*
X47943Y-45145D01*
X48397Y-44359D01*
X48397Y-44359D01*
G37*
G36*
X49145Y-43063D02*
X49931Y-43517D01*
X49477Y-44303D01*
X48691Y-43849D01*
X49145Y-43063D01*
X49145Y-43063D01*
G37*
G54D21*
X35669Y-50984D03*
X37165Y-50984D03*
G54D10*
G36*
X30286Y-50146D02*
X30820Y-49412D01*
X31554Y-49946D01*
X31020Y-50680D01*
X30286Y-50146D01*
X30286Y-50146D01*
G37*
G36*
X29076Y-49266D02*
X29610Y-48532D01*
X30344Y-49066D01*
X29810Y-49800D01*
X29076Y-49266D01*
X29076Y-49266D01*
G37*
G36*
X28080Y-47295D02*
X27546Y-48029D01*
X26812Y-47495D01*
X27346Y-46761D01*
X28080Y-47295D01*
X28080Y-47295D01*
G37*
G36*
X29290Y-48175D02*
X28756Y-48909D01*
X28022Y-48375D01*
X28556Y-47641D01*
X29290Y-48175D01*
X29290Y-48175D01*
G37*
G36*
X27727Y-49260D02*
X28261Y-48526D01*
X28995Y-49060D01*
X28461Y-49794D01*
X27727Y-49260D01*
X27727Y-49260D01*
G37*
G36*
X26517Y-48380D02*
X27051Y-47646D01*
X27785Y-48180D01*
X27251Y-48914D01*
X26517Y-48380D01*
X26517Y-48380D01*
G37*
G36*
X27432Y-50146D02*
X27966Y-49412D01*
X28700Y-49946D01*
X28166Y-50680D01*
X27432Y-50146D01*
X27432Y-50146D01*
G37*
G36*
X26222Y-49266D02*
X26756Y-48532D01*
X27490Y-49066D01*
X26956Y-49800D01*
X26222Y-49266D01*
X26222Y-49266D01*
G37*
G36*
X27136Y-51032D02*
X27670Y-50298D01*
X28404Y-50832D01*
X27870Y-51566D01*
X27136Y-51032D01*
X27136Y-51032D01*
G37*
G36*
X25926Y-50152D02*
X26460Y-49418D01*
X27194Y-49952D01*
X26660Y-50686D01*
X25926Y-50152D01*
X25926Y-50152D01*
G37*
G54D21*
X52579Y-46673D03*
X51083Y-46673D03*
X48228Y-47559D03*
X49724Y-47559D03*
X37165Y-51870D03*
X35669Y-51870D03*
G54D10*
G36*
X35980Y-54955D02*
X35822Y-55849D01*
X34928Y-55691D01*
X35086Y-54797D01*
X35980Y-54955D01*
X35980Y-54955D01*
G37*
G36*
X37454Y-55215D02*
X37296Y-56109D01*
X36402Y-55951D01*
X36560Y-55057D01*
X37454Y-55215D01*
X37454Y-55215D01*
G37*
G36*
X46273Y-52458D02*
X45739Y-51724D01*
X46473Y-51190D01*
X47007Y-51924D01*
X46273Y-52458D01*
X46273Y-52458D01*
G37*
G36*
X45063Y-53338D02*
X44529Y-52604D01*
X45263Y-52070D01*
X45797Y-52804D01*
X45063Y-53338D01*
X45063Y-53338D01*
G37*
G36*
X46863Y-53245D02*
X46329Y-52511D01*
X47063Y-51977D01*
X47597Y-52711D01*
X46863Y-53245D01*
X46863Y-53245D01*
G37*
G36*
X45653Y-54125D02*
X45119Y-53391D01*
X45853Y-52857D01*
X46387Y-53591D01*
X45653Y-54125D01*
X45653Y-54125D01*
G37*
G36*
X47454Y-54033D02*
X46920Y-53299D01*
X47654Y-52765D01*
X48188Y-53499D01*
X47454Y-54033D01*
X47454Y-54033D01*
G37*
G36*
X46244Y-54913D02*
X45710Y-54179D01*
X46444Y-53645D01*
X46978Y-54379D01*
X46244Y-54913D01*
X46244Y-54913D01*
G37*
G36*
X51686Y-50598D02*
X51152Y-49864D01*
X51886Y-49330D01*
X52420Y-50064D01*
X51686Y-50598D01*
X51686Y-50598D01*
G37*
G36*
X50476Y-51478D02*
X49942Y-50744D01*
X50676Y-50210D01*
X51210Y-50944D01*
X50476Y-51478D01*
X50476Y-51478D01*
G37*
G36*
X47131Y-25283D02*
X46345Y-24829D01*
X46799Y-24043D01*
X47585Y-24497D01*
X47131Y-25283D01*
X47131Y-25283D01*
G37*
G36*
X46383Y-26579D02*
X45597Y-26125D01*
X46051Y-25339D01*
X46837Y-25793D01*
X46383Y-26579D01*
X46383Y-26579D01*
G37*
G54D21*
X52106Y-47559D03*
X50610Y-47559D03*
G54D10*
G36*
X50856Y-27967D02*
X50214Y-27325D01*
X50856Y-26683D01*
X51498Y-27325D01*
X50856Y-27967D01*
X50856Y-27967D01*
G37*
G36*
X49798Y-29025D02*
X49156Y-28383D01*
X49798Y-27741D01*
X50440Y-28383D01*
X49798Y-29025D01*
X49798Y-29025D01*
G37*
G54D21*
X55600Y-41448D03*
X55600Y-39952D03*
X54921Y-44842D03*
X54921Y-43346D03*
G54D10*
G36*
X53983Y-37080D02*
X53120Y-37361D01*
X52839Y-36498D01*
X53702Y-36217D01*
X53983Y-37080D01*
X53983Y-37080D01*
G37*
G36*
X54445Y-38502D02*
X53582Y-38783D01*
X53301Y-37920D01*
X54164Y-37639D01*
X54445Y-38502D01*
X54445Y-38502D01*
G37*
G36*
X55951Y-36489D02*
X55088Y-36770D01*
X54807Y-35907D01*
X55670Y-35626D01*
X55951Y-36489D01*
X55951Y-36489D01*
G37*
G36*
X56413Y-37911D02*
X55550Y-38192D01*
X55269Y-37329D01*
X56132Y-37048D01*
X56413Y-37911D01*
X56413Y-37911D01*
G37*
G36*
X54967Y-36785D02*
X54104Y-37066D01*
X53823Y-36203D01*
X54686Y-35922D01*
X54967Y-36785D01*
X54967Y-36785D01*
G37*
G36*
X55429Y-38207D02*
X54566Y-38488D01*
X54285Y-37625D01*
X55148Y-37344D01*
X55429Y-38207D01*
X55429Y-38207D01*
G37*
G36*
X52061Y-32381D02*
X52924Y-32100D01*
X53205Y-32963D01*
X52342Y-33244D01*
X52061Y-32381D01*
X52061Y-32381D01*
G37*
G36*
X51599Y-30959D02*
X52462Y-30678D01*
X52743Y-31541D01*
X51880Y-31822D01*
X51599Y-30959D01*
X51599Y-30959D01*
G37*
G36*
X49778Y-29632D02*
X49136Y-30274D01*
X48494Y-29632D01*
X49136Y-28990D01*
X49778Y-29632D01*
X49778Y-29632D01*
G37*
G36*
X50836Y-30690D02*
X50194Y-31332D01*
X49552Y-30690D01*
X50194Y-30048D01*
X50836Y-30690D01*
X50836Y-30690D01*
G37*
G36*
X44533Y-25581D02*
X44135Y-26397D01*
X43319Y-25999D01*
X43717Y-25183D01*
X44533Y-25581D01*
X44533Y-25581D01*
G37*
G36*
X45877Y-26237D02*
X45479Y-27053D01*
X44663Y-26655D01*
X45061Y-25839D01*
X45877Y-26237D01*
X45877Y-26237D01*
G37*
G36*
X47837Y-29079D02*
X48371Y-28345D01*
X49105Y-28879D01*
X48571Y-29613D01*
X47837Y-29079D01*
X47837Y-29079D01*
G37*
G36*
X46627Y-28199D02*
X47161Y-27465D01*
X47895Y-27999D01*
X47361Y-28733D01*
X46627Y-28199D01*
X46627Y-28199D01*
G37*
G54D21*
X41352Y-23200D03*
X42848Y-23200D03*
G54D10*
G36*
X36320Y-22824D02*
X36478Y-23718D01*
X35584Y-23876D01*
X35426Y-22982D01*
X36320Y-22824D01*
X36320Y-22824D01*
G37*
G36*
X37794Y-22564D02*
X37952Y-23458D01*
X37058Y-23616D01*
X36900Y-22722D01*
X37794Y-22564D01*
X37794Y-22564D01*
G37*
G54D21*
X41352Y-24100D03*
X42848Y-24100D03*
X41352Y-25000D03*
X42848Y-25000D03*
G54D22*
X41732Y-53445D03*
X42717Y-53248D03*
G54D10*
G36*
X41861Y-55150D02*
X41673Y-54182D01*
X42023Y-54114D01*
X42211Y-55082D01*
X41861Y-55150D01*
X41861Y-55150D01*
G37*
G36*
X42113Y-55101D02*
X41925Y-54133D01*
X42275Y-54065D01*
X42463Y-55033D01*
X42113Y-55101D01*
X42113Y-55101D01*
G37*
G36*
X42364Y-55052D02*
X42176Y-54084D01*
X42526Y-54016D01*
X42714Y-54984D01*
X42364Y-55052D01*
X42364Y-55052D01*
G37*
G36*
X42615Y-55003D02*
X42427Y-54035D01*
X42777Y-53967D01*
X42965Y-54935D01*
X42615Y-55003D01*
X42615Y-55003D01*
G37*
G36*
X42866Y-54955D02*
X42678Y-53987D01*
X43028Y-53919D01*
X43216Y-54887D01*
X42866Y-54955D01*
X42866Y-54955D01*
G37*
G36*
X40683Y-55379D02*
X40495Y-54411D01*
X41657Y-54185D01*
X41845Y-55153D01*
X40683Y-55379D01*
X40683Y-55379D01*
G37*
G36*
X43233Y-54883D02*
X43045Y-53915D01*
X44207Y-53689D01*
X44395Y-54657D01*
X43233Y-54883D01*
X43233Y-54883D01*
G37*
G36*
X43843Y-55848D02*
X43662Y-54918D01*
X44629Y-54730D01*
X44810Y-55660D01*
X43843Y-55848D01*
X43843Y-55848D01*
G37*
G36*
X40674Y-56464D02*
X40493Y-55534D01*
X41460Y-55346D01*
X41641Y-56276D01*
X40674Y-56464D01*
X40674Y-56464D01*
G37*
G36*
X26130Y-43841D02*
X25518Y-43229D01*
X26130Y-42617D01*
X26742Y-43229D01*
X26130Y-43841D01*
X26130Y-43841D01*
G37*
G36*
X25740Y-44230D02*
X25128Y-43618D01*
X25740Y-43006D01*
X26352Y-43618D01*
X25740Y-44230D01*
X25740Y-44230D01*
G37*
G36*
X24961Y-43451D02*
X24349Y-42839D01*
X24961Y-42227D01*
X25573Y-42839D01*
X24961Y-43451D01*
X24961Y-43451D01*
G37*
G36*
X25351Y-44620D02*
X24739Y-44008D01*
X25351Y-43396D01*
X25963Y-44008D01*
X25351Y-44620D01*
X25351Y-44620D01*
G37*
G36*
X24961Y-45011D02*
X24349Y-44399D01*
X24961Y-43787D01*
X25573Y-44399D01*
X24961Y-45011D01*
X24961Y-45011D01*
G37*
G36*
X24181Y-43450D02*
X23569Y-42838D01*
X24181Y-42226D01*
X24793Y-42838D01*
X24181Y-43450D01*
X24181Y-43450D01*
G37*
G36*
X24571Y-43061D02*
X23959Y-42449D01*
X24571Y-41837D01*
X25183Y-42449D01*
X24571Y-43061D01*
X24571Y-43061D01*
G37*
G36*
X24960Y-42671D02*
X24348Y-42059D01*
X24960Y-41447D01*
X25572Y-42059D01*
X24960Y-42671D01*
X24960Y-42671D01*
G37*
G36*
X23791Y-43841D02*
X23179Y-43229D01*
X23791Y-42617D01*
X24403Y-43229D01*
X23791Y-43841D01*
X23791Y-43841D01*
G37*
G36*
X24180Y-44230D02*
X23568Y-43618D01*
X24180Y-43006D01*
X24792Y-43618D01*
X24180Y-44230D01*
X24180Y-44230D01*
G37*
G36*
X24571Y-44621D02*
X23959Y-44009D01*
X24571Y-43397D01*
X25183Y-44009D01*
X24571Y-44621D01*
X24571Y-44621D01*
G37*
G36*
X25350Y-43061D02*
X24738Y-42449D01*
X25350Y-41837D01*
X25962Y-42449D01*
X25350Y-43061D01*
X25350Y-43061D01*
G37*
G36*
X25740Y-43451D02*
X25128Y-42839D01*
X25740Y-42227D01*
X26352Y-42839D01*
X25740Y-43451D01*
X25740Y-43451D01*
G37*
G36*
X24961Y-44230D02*
X24349Y-43618D01*
X24961Y-43006D01*
X25573Y-43618D01*
X24961Y-44230D01*
X24961Y-44230D01*
G37*
G36*
X25351Y-43841D02*
X24739Y-43229D01*
X25351Y-42617D01*
X25963Y-43229D01*
X25351Y-43841D01*
X25351Y-43841D01*
G37*
G36*
X24571Y-43840D02*
X23959Y-43228D01*
X24571Y-42616D01*
X25183Y-43228D01*
X24571Y-43840D01*
X24571Y-43840D01*
G37*
M02*
