M48
INCH,TZ
T1C0.020
T2C0.025
T3C0.040
T4C0.089
%
G90
G05
T1
X4.173Y-5.345
X4.272Y-5.325
T2
X2.626Y-3.221
X2.780Y-2.736
X2.782Y-4.676
X2.839Y-2.807
X2.858Y-3.077
X2.877Y-3.214
X2.945Y-2.959
X2.970Y-3.001
X2.978Y-2.877
X3.045Y-3.045
X3.062Y-2.980
X3.079Y-2.667
X3.115Y-2.584
X3.158Y-2.634
X3.184Y-2.721
X3.193Y-2.459
X3.373Y-5.086
X3.496Y-2.492
X3.524Y-2.343
X3.625Y-5.241
X3.764Y-2.378
X3.779Y-5.209
X3.800Y-5.145
X3.832Y-2.558
X3.843Y-5.225
X3.886Y-2.592
X4.000Y-2.538
X4.641Y-2.518
X4.882Y-2.837
X4.960Y-3.362
X4.981Y-5.031
X4.985Y-2.722
X5.074Y-4.468
X5.108Y-4.277
X5.124Y-4.516
X5.170Y-2.854
X5.206Y-4.283
X5.235Y-3.918
X5.445Y-3.448
X5.483Y-3.995
T3
X4.752Y-2.619
X4.811Y-2.539
X4.833Y-2.678
X4.892Y-2.597
X4.914Y-2.737
X4.973Y-2.656
T4
X3.919Y-5.359
X3.919Y-5.556
T0
M30
