G04 (created by PCBNEW-RS274X (2012-01-19 BZR 3256)-stable) date 5/16/2012 8:33:29 PM*
G01*
G70*
G90*
%MOIN*%
G04 Gerber Fmt 3.4, Leading zero omitted, Abs format*
%FSLAX34Y34*%
G04 APERTURE LIST*
%ADD10C,0.006000*%
%ADD11C,0.039400*%
%ADD12C,0.078700*%
%ADD13C,0.007900*%
%ADD14R,0.039400X0.027600*%
%ADD15C,0.060000*%
%ADD16R,0.017700X0.059100*%
%ADD17C,0.137800*%
%ADD18R,0.020000X0.030000*%
%ADD19C,0.047200*%
%ADD20R,0.066900X0.051200*%
%ADD21R,0.066900X0.055100*%
%ADD22R,0.035000X0.055000*%
%ADD23R,0.094500X0.094500*%
%ADD24R,0.070900X0.070900*%
%ADD25C,0.078700*%
%ADD26C,0.035000*%
%ADD27C,0.008000*%
%ADD28C,0.018000*%
G04 APERTURE END LIST*
G54D10*
G54D11*
X46887Y-32966D02*
X46887Y-34638D01*
X45774Y-31853D02*
X44102Y-31853D01*
X32966Y-31853D02*
X34081Y-31853D01*
X31853Y-32966D02*
X31853Y-34081D01*
X32966Y-46887D02*
X34081Y-46887D01*
X31853Y-44659D02*
X31853Y-45774D01*
X31436Y-45077D02*
X33663Y-47304D01*
X45077Y-31436D02*
X47444Y-33802D01*
X31436Y-33663D02*
X33663Y-31436D01*
X47722Y-37699D02*
X48835Y-38813D01*
X48557Y-40205D02*
X48835Y-39927D01*
X39927Y-29905D02*
X41041Y-31018D01*
X38813Y-29905D02*
X37561Y-31157D01*
X29905Y-38813D02*
X31018Y-37699D01*
X30044Y-40067D02*
X30879Y-40902D01*
X37978Y-48000D02*
X38673Y-48696D01*
X40762Y-48000D02*
X40067Y-48696D01*
X48000Y-40762D02*
X48557Y-40205D01*
X48000Y-37978D02*
X48557Y-38535D01*
X45077Y-31436D02*
X44798Y-31714D01*
X33663Y-31436D02*
X34220Y-31993D01*
X31436Y-33663D02*
X31853Y-34081D01*
X31296Y-45216D02*
X31714Y-44798D01*
X33524Y-47444D02*
X34081Y-46887D01*
X46608Y-34359D02*
X47444Y-33524D01*
X42989Y-37978D02*
X49114Y-37978D01*
X42989Y-37978D02*
X48835Y-37700D01*
G54D12*
X37700Y-29905D02*
X40483Y-29905D01*
X48835Y-41040D02*
X48835Y-37143D01*
X37700Y-48835D02*
X40483Y-48835D01*
X29905Y-37700D02*
X29905Y-41040D01*
X36308Y-31853D02*
X36865Y-32410D01*
X37700Y-34915D02*
X34081Y-31296D01*
X34081Y-31296D02*
X37700Y-29905D01*
X37700Y-29905D02*
X37700Y-34359D01*
X37700Y-34359D02*
X34916Y-31576D01*
X34916Y-31576D02*
X37421Y-30740D01*
X37421Y-30740D02*
X37421Y-33524D01*
X37421Y-33524D02*
X35751Y-31853D01*
X35751Y-31853D02*
X36865Y-31297D01*
X36865Y-31297D02*
X36865Y-32410D01*
X34915Y-37700D02*
X31296Y-34081D01*
X31296Y-34081D02*
X29905Y-37700D01*
X29905Y-37700D02*
X34359Y-37700D01*
X34359Y-37700D02*
X31576Y-34916D01*
X31576Y-34916D02*
X30740Y-37421D01*
X30740Y-37421D02*
X33524Y-37421D01*
X33524Y-37421D02*
X31853Y-35751D01*
X31853Y-35751D02*
X31575Y-37143D01*
X31575Y-37143D02*
X32689Y-37143D01*
X32689Y-37143D02*
X32131Y-36586D01*
X34915Y-41040D02*
X31296Y-44659D01*
X31296Y-44659D02*
X30462Y-42710D01*
X30462Y-42710D02*
X29905Y-41040D01*
X29905Y-41040D02*
X34359Y-41040D01*
X34359Y-41040D02*
X31576Y-43824D01*
X31576Y-43824D02*
X30740Y-41319D01*
X30740Y-41319D02*
X33524Y-41319D01*
X33524Y-41319D02*
X31575Y-43268D01*
X31575Y-43268D02*
X31297Y-41875D01*
X31297Y-41875D02*
X32410Y-41875D01*
X32410Y-41875D02*
X31853Y-42432D01*
X37700Y-43825D02*
X37700Y-48835D01*
X37700Y-48835D02*
X36030Y-48278D01*
X36030Y-48278D02*
X34081Y-47444D01*
X34081Y-47444D02*
X37422Y-44103D01*
X37422Y-44103D02*
X37143Y-48278D01*
X37143Y-48278D02*
X34637Y-47443D01*
X34637Y-47443D02*
X36864Y-45216D01*
X36864Y-45216D02*
X36586Y-47722D01*
X36586Y-47722D02*
X35195Y-47443D01*
X35195Y-47443D02*
X36308Y-46330D01*
X36308Y-46330D02*
X36030Y-47165D01*
X48835Y-37143D02*
X48557Y-36308D01*
X42432Y-46887D02*
X43545Y-48000D01*
X43545Y-48000D02*
X42432Y-48557D01*
X42432Y-48557D02*
X42432Y-47443D01*
X42432Y-47443D02*
X42711Y-47722D01*
X41875Y-45773D02*
X41876Y-48557D01*
X41597Y-45495D02*
X43824Y-47722D01*
X41319Y-44659D02*
X41319Y-48557D01*
X41319Y-44659D02*
X44381Y-47722D01*
X41040Y-43825D02*
X41040Y-48835D01*
X41040Y-43825D02*
X44659Y-47444D01*
X48835Y-41040D02*
X48557Y-42432D01*
X47722Y-43267D02*
X48278Y-43268D01*
X47444Y-42989D02*
X48000Y-43545D01*
X46608Y-42710D02*
X48278Y-42710D01*
X46051Y-42154D02*
X47722Y-43824D01*
X45494Y-42154D02*
X48279Y-42154D01*
X44938Y-41597D02*
X47443Y-44103D01*
X44381Y-41597D02*
X48835Y-41597D01*
X44103Y-41318D02*
X47444Y-44659D01*
X43825Y-41040D02*
X48835Y-41040D01*
X47444Y-35751D02*
X48000Y-35195D01*
X47444Y-35751D02*
X48000Y-35751D01*
X46608Y-36030D02*
X47722Y-34916D01*
X46051Y-36586D02*
X48278Y-36030D01*
X45216Y-36864D02*
X47443Y-34637D01*
X44938Y-37143D02*
X48279Y-36586D01*
X43825Y-37700D02*
X48835Y-37143D01*
X44103Y-37422D02*
X47444Y-34081D01*
X41040Y-29905D02*
X42710Y-30462D01*
X42710Y-30462D02*
X44659Y-31296D01*
X42989Y-31296D02*
X42989Y-30740D01*
X42710Y-31575D02*
X43545Y-30740D01*
X42154Y-32689D02*
X42432Y-30183D01*
X42154Y-32689D02*
X43824Y-31018D01*
X41597Y-33802D02*
X44103Y-31297D01*
X41597Y-33802D02*
X41876Y-30183D01*
X41040Y-34915D02*
X41319Y-30183D01*
X41040Y-34915D02*
X44381Y-31575D01*
G54D11*
X42989Y-40762D02*
X49114Y-40762D01*
X42989Y-40762D02*
X47444Y-45216D01*
X40762Y-42989D02*
X45216Y-47444D01*
X40762Y-42989D02*
X40762Y-49114D01*
X37978Y-42989D02*
X37978Y-49114D01*
X37978Y-42989D02*
X33802Y-47165D01*
X35751Y-40762D02*
X31575Y-44938D01*
X35751Y-40762D02*
X29626Y-40762D01*
X35751Y-37978D02*
X29626Y-37978D01*
X35751Y-37978D02*
X31575Y-33802D01*
X37978Y-35751D02*
X33802Y-31575D01*
X37978Y-35751D02*
X37978Y-29626D01*
X40762Y-35751D02*
X44938Y-31575D01*
X42989Y-37978D02*
X49114Y-37421D01*
X42989Y-37978D02*
X47165Y-33802D01*
X40762Y-35751D02*
X40762Y-29626D01*
G54D13*
X39370Y-39370D02*
X31575Y-39370D01*
X39370Y-39370D02*
X39370Y-47165D01*
X39370Y-39370D02*
X47165Y-39370D01*
X39370Y-39370D02*
X39370Y-31575D01*
G54D11*
X31296Y-45214D02*
X31836Y-45896D01*
X32434Y-46528D01*
X33084Y-47105D01*
X33782Y-47624D01*
X34523Y-48079D01*
X35300Y-48469D01*
X36109Y-48789D01*
X36942Y-49037D01*
X37794Y-49212D01*
X38658Y-49312D01*
X39526Y-49336D01*
X40394Y-49285D01*
X41254Y-49158D01*
X42100Y-48956D01*
X42925Y-48682D01*
X43724Y-48336D01*
X44488Y-47923D01*
X45214Y-47444D01*
X47444Y-45214D02*
X47923Y-44488D01*
X48336Y-43724D01*
X48682Y-42925D01*
X48956Y-42100D01*
X49158Y-41254D01*
X49285Y-40394D01*
X49336Y-39526D01*
X49312Y-38658D01*
X49212Y-37794D01*
X49037Y-36942D01*
X48789Y-36109D01*
X48469Y-35300D01*
X48079Y-34523D01*
X47624Y-33782D01*
X47105Y-33084D01*
X46528Y-32434D01*
X45896Y-31836D01*
X45214Y-31296D01*
G54D13*
X39370Y-39370D02*
X47165Y-47165D01*
X39370Y-39370D02*
X45216Y-33524D01*
X39370Y-39370D02*
X33524Y-45216D01*
X39370Y-39370D02*
X33524Y-33524D01*
G54D11*
X33240Y-31580D02*
X32585Y-32144D01*
X31981Y-32763D01*
X31433Y-33432D01*
X30946Y-34147D01*
X30522Y-34901D01*
X30166Y-35689D01*
X29881Y-36505D01*
X29667Y-37343D01*
X29527Y-38197D01*
X29462Y-39059D01*
X29473Y-39923D01*
X29559Y-40783D01*
X29719Y-41633D01*
X29953Y-42466D01*
X30259Y-43275D01*
X30634Y-44054D01*
X31076Y-44797D01*
X31580Y-45500D01*
X45500Y-31580D02*
X44797Y-31076D01*
X44054Y-30634D01*
X43275Y-30259D01*
X42466Y-29953D01*
X41633Y-29719D01*
X40783Y-29559D01*
X39923Y-29473D01*
X39059Y-29462D01*
X38197Y-29527D01*
X37343Y-29667D01*
X36505Y-29881D01*
X35689Y-30166D01*
X34901Y-30522D01*
X34147Y-30946D01*
X33432Y-31433D01*
X32763Y-31981D01*
X32144Y-32585D01*
X31580Y-33240D01*
G54D14*
X32965Y-51772D03*
X33965Y-51397D03*
X33965Y-52147D03*
G54D10*
G36*
X47100Y-26261D02*
X47453Y-25776D01*
X47938Y-26129D01*
X47585Y-26614D01*
X47100Y-26261D01*
X47100Y-26261D01*
G37*
G54D15*
X48107Y-25386D03*
X48328Y-26783D03*
X48916Y-25973D03*
X49137Y-27370D03*
X49725Y-26561D03*
G54D16*
X52264Y-43406D03*
X52764Y-43406D03*
X53264Y-43406D03*
X53764Y-43406D03*
X51764Y-43406D03*
X51264Y-43406D03*
X50764Y-43406D03*
X50764Y-45768D03*
X51264Y-45768D03*
X51764Y-45768D03*
X52264Y-45768D03*
X52764Y-45768D03*
X53264Y-45768D03*
X53764Y-45768D03*
G54D17*
X39193Y-53593D03*
X39193Y-55561D03*
G54D18*
X36239Y-53846D03*
X36989Y-53846D03*
X36239Y-52846D03*
X36614Y-53846D03*
X36989Y-52846D03*
G54D19*
X47165Y-47165D03*
X47444Y-45216D03*
G54D10*
G36*
X24758Y-33153D02*
X25245Y-33311D01*
X25038Y-33947D01*
X24551Y-33789D01*
X24758Y-33153D01*
X24758Y-33153D01*
G37*
G36*
X24174Y-34951D02*
X24661Y-35109D01*
X24454Y-35745D01*
X23967Y-35587D01*
X24174Y-34951D01*
X24174Y-34951D01*
G37*
G36*
X23557Y-34750D02*
X24080Y-34920D01*
X23873Y-35556D01*
X23350Y-35386D01*
X23557Y-34750D01*
X23557Y-34750D01*
G37*
G36*
X24755Y-35139D02*
X25278Y-35309D01*
X25071Y-35945D01*
X24548Y-35775D01*
X24755Y-35139D01*
X24755Y-35139D01*
G37*
G36*
X25357Y-33348D02*
X25844Y-33506D01*
X25637Y-34142D01*
X25150Y-33984D01*
X25357Y-33348D01*
X25357Y-33348D01*
G37*
G36*
X24159Y-32959D02*
X24646Y-33117D01*
X24439Y-33753D01*
X23952Y-33595D01*
X24159Y-32959D01*
X24159Y-32959D01*
G37*
G54D20*
X38425Y-23917D03*
X40315Y-23917D03*
G54D21*
X40315Y-24547D03*
X40315Y-23287D03*
G54D20*
X38425Y-23287D03*
X38425Y-24547D03*
G54D10*
G36*
X53495Y-33114D02*
X53982Y-32956D01*
X54189Y-33592D01*
X53702Y-33750D01*
X53495Y-33114D01*
X53495Y-33114D01*
G37*
G36*
X54079Y-34912D02*
X54566Y-34754D01*
X54773Y-35390D01*
X54286Y-35548D01*
X54079Y-34912D01*
X54079Y-34912D01*
G37*
G36*
X53462Y-35112D02*
X53985Y-34942D01*
X54192Y-35578D01*
X53669Y-35748D01*
X53462Y-35112D01*
X53462Y-35112D01*
G37*
G36*
X54660Y-34723D02*
X55183Y-34553D01*
X55390Y-35189D01*
X54867Y-35359D01*
X54660Y-34723D01*
X54660Y-34723D01*
G37*
G36*
X54094Y-32920D02*
X54581Y-32762D01*
X54788Y-33398D01*
X54301Y-33556D01*
X54094Y-32920D01*
X54094Y-32920D01*
G37*
G36*
X52896Y-33309D02*
X53383Y-33151D01*
X53590Y-33787D01*
X53103Y-33945D01*
X52896Y-33309D01*
X52896Y-33309D01*
G37*
G36*
X49605Y-50715D02*
X49906Y-51129D01*
X49365Y-51521D01*
X49064Y-51107D01*
X49605Y-50715D01*
X49605Y-50715D01*
G37*
G36*
X48075Y-51825D02*
X48376Y-52239D01*
X47835Y-52631D01*
X47534Y-52217D01*
X48075Y-51825D01*
X48075Y-51825D01*
G37*
G36*
X47694Y-51300D02*
X48017Y-51745D01*
X47476Y-52138D01*
X47153Y-51693D01*
X47694Y-51300D01*
X47694Y-51300D01*
G37*
G36*
X48435Y-52319D02*
X48758Y-52764D01*
X48217Y-53157D01*
X47894Y-52712D01*
X48435Y-52319D01*
X48435Y-52319D01*
G37*
G36*
X49975Y-51224D02*
X50276Y-51638D01*
X49735Y-52030D01*
X49434Y-51616D01*
X49975Y-51224D01*
X49975Y-51224D01*
G37*
G36*
X49234Y-50205D02*
X49535Y-50619D01*
X48994Y-51011D01*
X48693Y-50597D01*
X49234Y-50205D01*
X49234Y-50205D01*
G37*
G36*
X31009Y-52020D02*
X30708Y-52434D01*
X30167Y-52042D01*
X30468Y-51628D01*
X31009Y-52020D01*
X31009Y-52020D01*
G37*
G36*
X29479Y-50910D02*
X29178Y-51324D01*
X28637Y-50932D01*
X28938Y-50518D01*
X29479Y-50910D01*
X29479Y-50910D01*
G37*
G36*
X29861Y-50385D02*
X29538Y-50830D01*
X28997Y-50437D01*
X29320Y-49992D01*
X29861Y-50385D01*
X29861Y-50385D01*
G37*
G36*
X29120Y-51404D02*
X28797Y-51849D01*
X28256Y-51456D01*
X28579Y-51011D01*
X29120Y-51404D01*
X29120Y-51404D01*
G37*
G36*
X30638Y-52530D02*
X30337Y-52944D01*
X29796Y-52552D01*
X30097Y-52138D01*
X30638Y-52530D01*
X30638Y-52530D01*
G37*
G36*
X31379Y-51511D02*
X31078Y-51925D01*
X30537Y-51533D01*
X30838Y-51119D01*
X31379Y-51511D01*
X31379Y-51511D01*
G37*
G54D22*
X54384Y-39862D03*
X53634Y-39862D03*
X52059Y-39862D03*
X52809Y-39862D03*
G54D23*
X54087Y-41240D03*
X52355Y-41240D03*
G54D10*
G36*
X44030Y-24752D02*
X43895Y-25122D01*
X43452Y-24960D01*
X43587Y-24590D01*
X44030Y-24752D01*
X44030Y-24752D01*
G37*
G36*
X44488Y-23495D02*
X44353Y-23865D01*
X43910Y-23703D01*
X44045Y-23333D01*
X44488Y-23495D01*
X44488Y-23495D01*
G37*
G36*
X45806Y-25399D02*
X45671Y-25769D01*
X45228Y-25607D01*
X45363Y-25237D01*
X45806Y-25399D01*
X45806Y-25399D01*
G37*
G36*
X46264Y-24142D02*
X46129Y-24512D01*
X45686Y-24350D01*
X45821Y-23980D01*
X46264Y-24142D01*
X46264Y-24142D01*
G37*
G36*
X52394Y-29458D02*
X52672Y-29180D01*
X53006Y-29514D01*
X52728Y-29792D01*
X52394Y-29458D01*
X52394Y-29458D01*
G37*
G36*
X51448Y-30404D02*
X51726Y-30126D01*
X52060Y-30460D01*
X51782Y-30738D01*
X51448Y-30404D01*
X51448Y-30404D01*
G37*
G36*
X51058Y-28122D02*
X51336Y-27844D01*
X51670Y-28178D01*
X51392Y-28456D01*
X51058Y-28122D01*
X51058Y-28122D01*
G37*
G36*
X50112Y-29068D02*
X50390Y-28790D01*
X50724Y-29124D01*
X50446Y-29402D01*
X50112Y-29068D01*
X50112Y-29068D01*
G37*
G36*
X53463Y-31209D02*
X52790Y-31428D01*
X52571Y-30755D01*
X53244Y-30536D01*
X53463Y-31209D01*
X53463Y-31209D01*
G37*
G36*
X53925Y-32631D02*
X53252Y-32850D01*
X53033Y-32177D01*
X53706Y-31958D01*
X53925Y-32631D01*
X53925Y-32631D01*
G37*
G36*
X25521Y-33151D02*
X25740Y-32478D01*
X26413Y-32697D01*
X26194Y-33370D01*
X25521Y-33151D01*
X25521Y-33151D01*
G37*
G36*
X24099Y-32689D02*
X24318Y-32016D01*
X24991Y-32235D01*
X24772Y-32908D01*
X24099Y-32689D01*
X24099Y-32689D01*
G37*
G36*
X24505Y-39381D02*
X23832Y-39162D01*
X24051Y-38489D01*
X24724Y-38708D01*
X24505Y-39381D01*
X24505Y-39381D01*
G37*
G36*
X24043Y-40803D02*
X23370Y-40584D01*
X23589Y-39911D01*
X24262Y-40130D01*
X24043Y-40803D01*
X24043Y-40803D01*
G37*
G36*
X23489Y-36644D02*
X22816Y-36425D01*
X23035Y-35752D01*
X23708Y-35971D01*
X23489Y-36644D01*
X23489Y-36644D01*
G37*
G36*
X23027Y-38066D02*
X22354Y-37847D01*
X22573Y-37174D01*
X23246Y-37393D01*
X23027Y-38066D01*
X23027Y-38066D01*
G37*
G36*
X23997Y-38015D02*
X23324Y-37796D01*
X23543Y-37123D01*
X24216Y-37342D01*
X23997Y-38015D01*
X23997Y-38015D01*
G37*
G36*
X23535Y-39437D02*
X22862Y-39218D01*
X23081Y-38545D01*
X23754Y-38764D01*
X23535Y-39437D01*
X23535Y-39437D01*
G37*
G36*
X31403Y-24500D02*
X31757Y-25114D01*
X31143Y-25468D01*
X30789Y-24854D01*
X31403Y-24500D01*
X31403Y-24500D01*
G37*
G36*
X32699Y-23752D02*
X33053Y-24366D01*
X32439Y-24720D01*
X32085Y-24106D01*
X32699Y-23752D01*
X32699Y-23752D01*
G37*
G36*
X27266Y-27344D02*
X27721Y-27887D01*
X27178Y-28342D01*
X26723Y-27799D01*
X27266Y-27344D01*
X27266Y-27344D01*
G37*
G36*
X28412Y-26382D02*
X28867Y-26925D01*
X28324Y-27380D01*
X27869Y-26837D01*
X28412Y-26382D01*
X28412Y-26382D01*
G37*
G36*
X28209Y-29906D02*
X28652Y-29534D01*
X28757Y-29660D01*
X28314Y-30032D01*
X28209Y-29906D01*
X28209Y-29906D01*
G37*
G36*
X28373Y-30102D02*
X28816Y-29730D01*
X28921Y-29856D01*
X28478Y-30228D01*
X28373Y-30102D01*
X28373Y-30102D01*
G37*
G36*
X28538Y-30299D02*
X28981Y-29927D01*
X29086Y-30053D01*
X28643Y-30425D01*
X28538Y-30299D01*
X28538Y-30299D01*
G37*
G36*
X28702Y-30495D02*
X29145Y-30123D01*
X29250Y-30249D01*
X28807Y-30621D01*
X28702Y-30495D01*
X28702Y-30495D01*
G37*
G36*
X29404Y-27906D02*
X29847Y-27534D01*
X29952Y-27660D01*
X29509Y-28032D01*
X29404Y-27906D01*
X29404Y-27906D01*
G37*
G36*
X27715Y-29318D02*
X28158Y-28946D01*
X28263Y-29072D01*
X27820Y-29444D01*
X27715Y-29318D01*
X27715Y-29318D01*
G37*
G36*
X27879Y-29514D02*
X28322Y-29142D01*
X28427Y-29268D01*
X27984Y-29640D01*
X27879Y-29514D01*
X27879Y-29514D01*
G37*
G36*
X28044Y-29710D02*
X28487Y-29338D01*
X28592Y-29464D01*
X28149Y-29836D01*
X28044Y-29710D01*
X28044Y-29710D01*
G37*
G36*
X30555Y-29274D02*
X30998Y-28902D01*
X31103Y-29028D01*
X30660Y-29400D01*
X30555Y-29274D01*
X30555Y-29274D01*
G37*
G36*
X30391Y-29078D02*
X30834Y-28706D01*
X30939Y-28832D01*
X30496Y-29204D01*
X30391Y-29078D01*
X30391Y-29078D01*
G37*
G36*
X30226Y-28882D02*
X30669Y-28510D01*
X30774Y-28636D01*
X30331Y-29008D01*
X30226Y-28882D01*
X30226Y-28882D01*
G37*
G36*
X30061Y-28686D02*
X30504Y-28314D01*
X30609Y-28440D01*
X30166Y-28812D01*
X30061Y-28686D01*
X30061Y-28686D01*
G37*
G36*
X29897Y-28490D02*
X30340Y-28118D01*
X30445Y-28244D01*
X30002Y-28616D01*
X29897Y-28490D01*
X29897Y-28490D01*
G37*
G36*
X29732Y-28293D02*
X30175Y-27921D01*
X30280Y-28047D01*
X29837Y-28419D01*
X29732Y-28293D01*
X29732Y-28293D01*
G37*
G36*
X28867Y-30691D02*
X29310Y-30319D01*
X29415Y-30445D01*
X28972Y-30817D01*
X28867Y-30691D01*
X28867Y-30691D01*
G37*
G36*
X29566Y-28099D02*
X30009Y-27727D01*
X30114Y-27853D01*
X29671Y-28225D01*
X29566Y-28099D01*
X29566Y-28099D01*
G37*
G36*
X27550Y-29122D02*
X27993Y-28750D01*
X28098Y-28876D01*
X27655Y-29248D01*
X27550Y-29122D01*
X27550Y-29122D01*
G37*
G36*
X29031Y-30887D02*
X29474Y-30515D01*
X29579Y-30641D01*
X29136Y-31013D01*
X29031Y-30887D01*
X29031Y-30887D01*
G37*
G36*
X30720Y-29470D02*
X31163Y-29098D01*
X31268Y-29224D01*
X30825Y-29596D01*
X30720Y-29470D01*
X30720Y-29470D01*
G37*
G36*
X29239Y-27705D02*
X29682Y-27333D01*
X29787Y-27459D01*
X29344Y-27831D01*
X29239Y-27705D01*
X29239Y-27705D01*
G37*
G36*
X27386Y-28927D02*
X27829Y-28555D01*
X27934Y-28681D01*
X27491Y-29053D01*
X27386Y-28927D01*
X27386Y-28927D01*
G37*
G36*
X29195Y-31082D02*
X29638Y-30710D01*
X29743Y-30836D01*
X29300Y-31208D01*
X29195Y-31082D01*
X29195Y-31082D01*
G37*
G36*
X30884Y-29665D02*
X31327Y-29293D01*
X31432Y-29419D01*
X30989Y-29791D01*
X30884Y-29665D01*
X30884Y-29665D01*
G37*
G36*
X29075Y-27510D02*
X29518Y-27138D01*
X29623Y-27264D01*
X29180Y-27636D01*
X29075Y-27510D01*
X29075Y-27510D01*
G37*
G36*
X27222Y-28730D02*
X27665Y-28358D01*
X27770Y-28484D01*
X27327Y-28856D01*
X27222Y-28730D01*
X27222Y-28730D01*
G37*
G36*
X29360Y-31278D02*
X29803Y-30906D01*
X29908Y-31032D01*
X29465Y-31404D01*
X29360Y-31278D01*
X29360Y-31278D01*
G37*
G36*
X31048Y-29862D02*
X31491Y-29490D01*
X31596Y-29616D01*
X31153Y-29988D01*
X31048Y-29862D01*
X31048Y-29862D01*
G37*
G36*
X28910Y-27314D02*
X29353Y-26942D01*
X29458Y-27068D01*
X29015Y-27440D01*
X28910Y-27314D01*
X28910Y-27314D01*
G37*
G36*
X33168Y-25319D02*
X32814Y-24705D01*
X33428Y-24351D01*
X33782Y-24965D01*
X33168Y-25319D01*
X33168Y-25319D01*
G37*
G36*
X31872Y-26067D02*
X31518Y-25453D01*
X32132Y-25099D01*
X32486Y-25713D01*
X31872Y-26067D01*
X31872Y-26067D01*
G37*
G36*
X34270Y-25701D02*
X33916Y-25087D01*
X34530Y-24733D01*
X34884Y-25347D01*
X34270Y-25701D01*
X34270Y-25701D01*
G37*
G36*
X32974Y-26449D02*
X32620Y-25835D01*
X33234Y-25481D01*
X33588Y-26095D01*
X32974Y-26449D01*
X32974Y-26449D01*
G37*
G36*
X48433Y-44495D02*
X49047Y-44849D01*
X48693Y-45463D01*
X48079Y-45109D01*
X48433Y-44495D01*
X48433Y-44495D01*
G37*
G36*
X49181Y-43199D02*
X49795Y-43553D01*
X49441Y-44167D01*
X48827Y-43813D01*
X49181Y-43199D01*
X49181Y-43199D01*
G37*
G54D24*
X35669Y-50984D03*
X37165Y-50984D03*
G54D10*
G36*
X30426Y-50124D02*
X30842Y-49552D01*
X31414Y-49968D01*
X30998Y-50540D01*
X30426Y-50124D01*
X30426Y-50124D01*
G37*
G36*
X29216Y-49244D02*
X29632Y-48672D01*
X30204Y-49088D01*
X29788Y-49660D01*
X29216Y-49244D01*
X29216Y-49244D01*
G37*
G36*
X27940Y-47317D02*
X27524Y-47889D01*
X26952Y-47473D01*
X27368Y-46901D01*
X27940Y-47317D01*
X27940Y-47317D01*
G37*
G36*
X29150Y-48197D02*
X28734Y-48769D01*
X28162Y-48353D01*
X28578Y-47781D01*
X29150Y-48197D01*
X29150Y-48197D01*
G37*
G36*
X27867Y-49238D02*
X28283Y-48666D01*
X28855Y-49082D01*
X28439Y-49654D01*
X27867Y-49238D01*
X27867Y-49238D01*
G37*
G36*
X26657Y-48358D02*
X27073Y-47786D01*
X27645Y-48202D01*
X27229Y-48774D01*
X26657Y-48358D01*
X26657Y-48358D01*
G37*
G36*
X27572Y-50124D02*
X27988Y-49552D01*
X28560Y-49968D01*
X28144Y-50540D01*
X27572Y-50124D01*
X27572Y-50124D01*
G37*
G36*
X26362Y-49244D02*
X26778Y-48672D01*
X27350Y-49088D01*
X26934Y-49660D01*
X26362Y-49244D01*
X26362Y-49244D01*
G37*
G36*
X27276Y-51010D02*
X27692Y-50438D01*
X28264Y-50854D01*
X27848Y-51426D01*
X27276Y-51010D01*
X27276Y-51010D01*
G37*
G36*
X26066Y-50130D02*
X26482Y-49558D01*
X27054Y-49974D01*
X26638Y-50546D01*
X26066Y-50130D01*
X26066Y-50130D01*
G37*
G54D24*
X52579Y-46673D03*
X51083Y-46673D03*
X48228Y-47559D03*
X49724Y-47559D03*
X37165Y-51870D03*
X35669Y-51870D03*
G54D10*
G36*
X35864Y-55036D02*
X35741Y-55733D01*
X35044Y-55610D01*
X35167Y-54913D01*
X35864Y-55036D01*
X35864Y-55036D01*
G37*
G36*
X37338Y-55296D02*
X37215Y-55993D01*
X36518Y-55870D01*
X36641Y-55173D01*
X37338Y-55296D01*
X37338Y-55296D01*
G37*
G36*
X46295Y-52318D02*
X45879Y-51746D01*
X46451Y-51330D01*
X46867Y-51902D01*
X46295Y-52318D01*
X46295Y-52318D01*
G37*
G36*
X45085Y-53198D02*
X44669Y-52626D01*
X45241Y-52210D01*
X45657Y-52782D01*
X45085Y-53198D01*
X45085Y-53198D01*
G37*
G36*
X46885Y-53105D02*
X46469Y-52533D01*
X47041Y-52117D01*
X47457Y-52689D01*
X46885Y-53105D01*
X46885Y-53105D01*
G37*
G36*
X45675Y-53985D02*
X45259Y-53413D01*
X45831Y-52997D01*
X46247Y-53569D01*
X45675Y-53985D01*
X45675Y-53985D01*
G37*
G36*
X47476Y-53893D02*
X47060Y-53321D01*
X47632Y-52905D01*
X48048Y-53477D01*
X47476Y-53893D01*
X47476Y-53893D01*
G37*
G36*
X46266Y-54773D02*
X45850Y-54201D01*
X46422Y-53785D01*
X46838Y-54357D01*
X46266Y-54773D01*
X46266Y-54773D01*
G37*
G36*
X51708Y-50458D02*
X51292Y-49886D01*
X51864Y-49470D01*
X52280Y-50042D01*
X51708Y-50458D01*
X51708Y-50458D01*
G37*
G36*
X50498Y-51338D02*
X50082Y-50766D01*
X50654Y-50350D01*
X51070Y-50922D01*
X50498Y-51338D01*
X50498Y-51338D01*
G37*
G36*
X47095Y-25147D02*
X46481Y-24793D01*
X46835Y-24179D01*
X47449Y-24533D01*
X47095Y-25147D01*
X47095Y-25147D01*
G37*
G36*
X46347Y-26443D02*
X45733Y-26089D01*
X46087Y-25475D01*
X46701Y-25829D01*
X46347Y-26443D01*
X46347Y-26443D01*
G37*
G54D24*
X52106Y-47559D03*
X50610Y-47559D03*
G54D10*
G36*
X50856Y-27826D02*
X50355Y-27325D01*
X50856Y-26824D01*
X51357Y-27325D01*
X50856Y-27826D01*
X50856Y-27826D01*
G37*
G36*
X49798Y-28884D02*
X49297Y-28383D01*
X49798Y-27882D01*
X50299Y-28383D01*
X49798Y-28884D01*
X49798Y-28884D01*
G37*
G54D24*
X55600Y-41448D03*
X55600Y-39952D03*
X54921Y-44842D03*
X54921Y-43346D03*
G54D10*
G36*
X53857Y-37016D02*
X53184Y-37235D01*
X52965Y-36562D01*
X53638Y-36343D01*
X53857Y-37016D01*
X53857Y-37016D01*
G37*
G36*
X54319Y-38438D02*
X53646Y-38657D01*
X53427Y-37984D01*
X54100Y-37765D01*
X54319Y-38438D01*
X54319Y-38438D01*
G37*
G36*
X55825Y-36425D02*
X55152Y-36644D01*
X54933Y-35971D01*
X55606Y-35752D01*
X55825Y-36425D01*
X55825Y-36425D01*
G37*
G36*
X56287Y-37847D02*
X55614Y-38066D01*
X55395Y-37393D01*
X56068Y-37174D01*
X56287Y-37847D01*
X56287Y-37847D01*
G37*
G36*
X54841Y-36721D02*
X54168Y-36940D01*
X53949Y-36267D01*
X54622Y-36048D01*
X54841Y-36721D01*
X54841Y-36721D01*
G37*
G36*
X55303Y-38143D02*
X54630Y-38362D01*
X54411Y-37689D01*
X55084Y-37470D01*
X55303Y-38143D01*
X55303Y-38143D01*
G37*
G36*
X52187Y-32445D02*
X52860Y-32226D01*
X53079Y-32899D01*
X52406Y-33118D01*
X52187Y-32445D01*
X52187Y-32445D01*
G37*
G36*
X51725Y-31023D02*
X52398Y-30804D01*
X52617Y-31477D01*
X51944Y-31696D01*
X51725Y-31023D01*
X51725Y-31023D01*
G37*
G36*
X49637Y-29632D02*
X49136Y-30133D01*
X48635Y-29632D01*
X49136Y-29131D01*
X49637Y-29632D01*
X49637Y-29632D01*
G37*
G36*
X50695Y-30690D02*
X50194Y-31191D01*
X49693Y-30690D01*
X50194Y-30189D01*
X50695Y-30690D01*
X50695Y-30690D01*
G37*
G36*
X44399Y-25627D02*
X44089Y-26263D01*
X43453Y-25953D01*
X43763Y-25317D01*
X44399Y-25627D01*
X44399Y-25627D01*
G37*
G36*
X45743Y-26283D02*
X45433Y-26919D01*
X44797Y-26609D01*
X45107Y-25973D01*
X45743Y-26283D01*
X45743Y-26283D01*
G37*
G36*
X47977Y-29057D02*
X48393Y-28485D01*
X48965Y-28901D01*
X48549Y-29473D01*
X47977Y-29057D01*
X47977Y-29057D01*
G37*
G36*
X46767Y-28177D02*
X47183Y-27605D01*
X47755Y-28021D01*
X47339Y-28593D01*
X46767Y-28177D01*
X46767Y-28177D01*
G37*
G54D24*
X41352Y-23200D03*
X42848Y-23200D03*
G54D10*
G36*
X36239Y-22940D02*
X36362Y-23637D01*
X35665Y-23760D01*
X35542Y-23063D01*
X36239Y-22940D01*
X36239Y-22940D01*
G37*
G36*
X37713Y-22680D02*
X37836Y-23377D01*
X37139Y-23500D01*
X37016Y-22803D01*
X37713Y-22680D01*
X37713Y-22680D01*
G37*
G54D24*
X41352Y-24100D03*
X42848Y-24100D03*
X41352Y-25000D03*
X42848Y-25000D03*
G54D25*
X41732Y-53445D03*
X42717Y-53248D03*
G54D10*
G36*
X41940Y-55033D02*
X41790Y-54261D01*
X41944Y-54231D01*
X42094Y-55003D01*
X41940Y-55033D01*
X41940Y-55033D01*
G37*
G36*
X42192Y-54984D02*
X42042Y-54212D01*
X42196Y-54182D01*
X42346Y-54954D01*
X42192Y-54984D01*
X42192Y-54984D01*
G37*
G36*
X42443Y-54935D02*
X42293Y-54163D01*
X42447Y-54133D01*
X42597Y-54905D01*
X42443Y-54935D01*
X42443Y-54935D01*
G37*
G36*
X42694Y-54886D02*
X42544Y-54114D01*
X42698Y-54084D01*
X42848Y-54856D01*
X42694Y-54886D01*
X42694Y-54886D01*
G37*
G36*
X42945Y-54838D02*
X42795Y-54066D01*
X42949Y-54036D01*
X43099Y-54808D01*
X42945Y-54838D01*
X42945Y-54838D01*
G37*
G36*
X40762Y-55262D02*
X40612Y-54490D01*
X41578Y-54302D01*
X41728Y-55074D01*
X40762Y-55262D01*
X40762Y-55262D01*
G37*
G36*
X43312Y-54766D02*
X43162Y-53994D01*
X44128Y-53806D01*
X44278Y-54578D01*
X43312Y-54766D01*
X43312Y-54766D01*
G37*
G36*
X43922Y-55731D02*
X43779Y-54997D01*
X44550Y-54847D01*
X44693Y-55581D01*
X43922Y-55731D01*
X43922Y-55731D01*
G37*
G36*
X40753Y-56347D02*
X40610Y-55613D01*
X41381Y-55463D01*
X41524Y-56197D01*
X40753Y-56347D01*
X40753Y-56347D01*
G37*
G36*
X24961Y-44733D02*
X24627Y-44399D01*
X24961Y-44065D01*
X25295Y-44399D01*
X24961Y-44733D01*
X24961Y-44733D01*
G37*
G36*
X24181Y-43172D02*
X23847Y-42838D01*
X24181Y-42504D01*
X24515Y-42838D01*
X24181Y-43172D01*
X24181Y-43172D01*
G37*
G36*
X24571Y-42783D02*
X24237Y-42449D01*
X24571Y-42115D01*
X24905Y-42449D01*
X24571Y-42783D01*
X24571Y-42783D01*
G37*
G36*
X24960Y-42393D02*
X24626Y-42059D01*
X24960Y-41725D01*
X25294Y-42059D01*
X24960Y-42393D01*
X24960Y-42393D01*
G37*
G36*
X23791Y-43563D02*
X23457Y-43229D01*
X23791Y-42895D01*
X24125Y-43229D01*
X23791Y-43563D01*
X23791Y-43563D01*
G37*
G36*
X24180Y-43952D02*
X23846Y-43618D01*
X24180Y-43284D01*
X24514Y-43618D01*
X24180Y-43952D01*
X24180Y-43952D01*
G37*
G36*
X24571Y-44343D02*
X24237Y-44009D01*
X24571Y-43675D01*
X24905Y-44009D01*
X24571Y-44343D01*
X24571Y-44343D01*
G37*
G36*
X25350Y-42783D02*
X25016Y-42449D01*
X25350Y-42115D01*
X25684Y-42449D01*
X25350Y-42783D01*
X25350Y-42783D01*
G37*
G36*
X25740Y-43173D02*
X25406Y-42839D01*
X25740Y-42505D01*
X26074Y-42839D01*
X25740Y-43173D01*
X25740Y-43173D01*
G37*
G36*
X24961Y-43952D02*
X24627Y-43618D01*
X24961Y-43284D01*
X25295Y-43618D01*
X24961Y-43952D01*
X24961Y-43952D01*
G37*
G36*
X25351Y-43563D02*
X25017Y-43229D01*
X25351Y-42895D01*
X25685Y-43229D01*
X25351Y-43563D01*
X25351Y-43563D01*
G37*
G54D26*
X50736Y-44682D03*
X49595Y-33617D03*
X46413Y-25183D03*
X31929Y-24591D03*
X51081Y-42767D03*
X31150Y-25839D03*
X52055Y-42825D03*
X49846Y-27224D03*
X48822Y-28369D03*
X30789Y-26665D03*
X51240Y-45164D03*
X34961Y-24921D03*
X54827Y-39952D03*
X36251Y-52411D03*
X54446Y-34483D03*
X49808Y-50311D03*
X37638Y-23780D03*
X26263Y-32212D03*
X27795Y-27362D03*
X28386Y-28071D03*
X51701Y-28537D03*
X52353Y-39181D03*
X27822Y-46756D03*
X35236Y-23425D03*
X31575Y-26339D03*
X33728Y-50859D03*
X38323Y-25583D03*
X28583Y-30765D03*
X29783Y-28768D03*
X31836Y-27208D03*
X38855Y-25916D03*
X29447Y-29589D03*
X40004Y-25384D03*
X29697Y-30014D03*
X38430Y-52252D03*
X28771Y-32142D03*
X37792Y-52093D03*
X30620Y-29796D03*
X30450Y-30448D03*
X38004Y-51453D03*
G54D27*
X50736Y-45740D02*
X50736Y-44682D01*
X50764Y-45768D02*
X50736Y-45740D01*
X46965Y-24663D02*
X46933Y-24663D01*
X51264Y-43406D02*
X51379Y-43291D01*
X44199Y-23599D02*
X45975Y-24246D01*
X51379Y-43291D02*
X51379Y-35401D01*
X51379Y-35401D02*
X49595Y-33617D01*
X45975Y-24246D02*
X46965Y-24663D01*
X46933Y-24663D02*
X46413Y-25183D01*
X50764Y-43084D02*
X51081Y-42767D01*
X50764Y-43406D02*
X50764Y-43084D01*
X31150Y-25839D02*
X29349Y-27387D01*
X32569Y-24236D02*
X31929Y-24591D01*
X41983Y-27044D02*
X41549Y-26610D01*
X50856Y-27325D02*
X49846Y-27224D01*
X47963Y-28359D02*
X47770Y-28552D01*
X51754Y-30432D02*
X50418Y-29096D01*
X33104Y-25965D02*
X32547Y-26203D01*
X52171Y-31250D02*
X51754Y-30432D01*
X48822Y-28369D02*
X48812Y-28359D01*
X52264Y-43406D02*
X52264Y-43034D01*
X45280Y-27504D02*
X44820Y-27044D01*
X35197Y-26203D02*
X32547Y-26203D01*
X32547Y-26203D02*
X32323Y-26299D01*
X35604Y-26610D02*
X35197Y-26203D01*
X45594Y-27504D02*
X45280Y-27504D01*
X46808Y-28718D02*
X45594Y-27504D01*
X41549Y-26610D02*
X35604Y-26610D01*
X48812Y-28359D02*
X47963Y-28359D01*
X47647Y-28552D02*
X47481Y-28718D01*
X47481Y-28718D02*
X46808Y-28718D01*
X52264Y-43034D02*
X52055Y-42825D01*
X47770Y-28552D02*
X47647Y-28552D01*
X32323Y-26299D02*
X30006Y-28170D01*
X44820Y-27044D02*
X41983Y-27044D01*
X50418Y-29096D02*
X50856Y-27325D01*
X51240Y-45164D02*
X51264Y-45188D01*
X30676Y-26648D02*
X29513Y-27582D01*
X32002Y-25583D02*
X30676Y-26648D01*
X30693Y-26665D02*
X30789Y-26665D01*
X30676Y-26648D02*
X30693Y-26665D01*
X51264Y-45188D02*
X51264Y-45768D01*
X51772Y-46181D02*
X51764Y-45768D01*
X51083Y-46673D02*
X51772Y-46181D01*
X31273Y-24984D02*
X33298Y-24835D01*
X49798Y-29556D02*
X49798Y-28383D01*
X31273Y-24984D02*
X30740Y-25902D01*
X37638Y-23780D02*
X37426Y-23090D01*
X53479Y-32404D02*
X54441Y-33159D01*
G54D28*
X30588Y-52031D02*
X30958Y-51522D01*
G54D27*
X49411Y-50311D02*
X49114Y-50608D01*
X28368Y-26881D02*
X28874Y-26881D01*
X34400Y-25217D02*
X34961Y-24921D01*
X24299Y-33356D02*
X24898Y-33550D01*
X37426Y-23090D02*
X38425Y-23287D01*
X27824Y-28999D02*
X28110Y-28740D01*
X49485Y-51118D02*
X49114Y-50608D01*
X30588Y-52031D02*
X30217Y-52541D01*
X34400Y-25217D02*
X33298Y-24835D01*
X49855Y-51627D02*
X49485Y-51118D01*
X28031Y-28150D02*
X28368Y-26881D01*
X27496Y-28607D02*
X28031Y-28150D01*
G54D28*
X30217Y-52541D02*
X30588Y-52031D01*
G54D27*
X31638Y-51283D02*
X30958Y-51522D01*
X33965Y-51397D02*
X31638Y-51283D01*
X28110Y-28740D02*
X28110Y-28583D01*
X28110Y-28583D02*
X27953Y-28425D01*
X27953Y-28425D02*
X27756Y-28386D01*
X38425Y-23287D02*
X38425Y-23917D01*
X30740Y-25902D02*
X29184Y-27191D01*
X53842Y-33353D02*
X53243Y-33548D01*
X30406Y-50709D02*
X30958Y-51522D01*
X29710Y-49166D02*
X30406Y-50709D01*
X24898Y-33550D02*
X25497Y-33745D01*
X25082Y-32462D02*
X28153Y-29391D01*
X24545Y-32462D02*
X25082Y-32462D01*
X24545Y-32462D02*
X24299Y-33356D01*
X50576Y-50844D02*
X49855Y-51627D01*
X55600Y-39952D02*
X54827Y-39952D01*
X30958Y-51522D02*
X30588Y-52031D01*
X36506Y-52608D02*
X36614Y-53846D01*
X28307Y-28780D02*
X28110Y-28740D01*
X28465Y-28937D02*
X28307Y-28780D01*
X28465Y-29134D02*
X28465Y-28937D01*
X28153Y-29391D02*
X28465Y-29134D01*
X47520Y-25228D02*
X48107Y-25386D01*
X46217Y-25959D02*
X47520Y-25228D01*
G54D28*
X36614Y-53846D02*
X36239Y-53846D01*
G54D27*
X38425Y-23917D02*
X38425Y-24547D01*
X49808Y-50311D02*
X49411Y-50311D01*
X28874Y-26881D02*
X29184Y-27191D01*
X35669Y-51870D02*
X33965Y-51397D01*
X36092Y-52243D02*
X36506Y-52608D01*
X36092Y-52243D02*
X36251Y-52402D01*
X35669Y-51870D02*
X36092Y-52243D01*
X28656Y-48275D02*
X29710Y-49166D01*
X27756Y-28386D02*
X27496Y-28607D01*
X36251Y-52402D02*
X36251Y-52411D01*
X36486Y-26446D02*
X34961Y-24921D01*
X45270Y-26446D02*
X36486Y-26446D01*
X50933Y-31846D02*
X50933Y-30691D01*
X52635Y-33548D02*
X50933Y-31846D01*
X53243Y-33548D02*
X52635Y-33548D01*
X45744Y-26202D02*
X46217Y-25959D01*
X47410Y-27868D02*
X47410Y-27950D01*
X45744Y-26202D02*
X47410Y-27868D01*
X49365Y-27950D02*
X47410Y-27950D01*
X49798Y-28383D02*
X49365Y-27950D01*
X47410Y-27950D02*
X47261Y-28099D01*
X45270Y-26446D02*
X45744Y-26202D01*
X54441Y-33159D02*
X54142Y-33256D01*
X50933Y-30691D02*
X49798Y-29556D01*
X54142Y-33256D02*
X53842Y-33353D01*
X54142Y-34125D02*
X54142Y-33256D01*
X54446Y-34429D02*
X54142Y-34125D01*
X54446Y-34483D02*
X54446Y-34429D01*
X50394Y-44055D02*
X51615Y-44055D01*
X50022Y-43683D02*
X50394Y-44055D01*
X49311Y-43683D02*
X50022Y-43683D01*
X51764Y-43906D02*
X51764Y-43406D01*
X51615Y-44055D02*
X51764Y-43906D01*
X53264Y-43406D02*
X53264Y-42063D01*
X54087Y-41240D02*
X54384Y-39862D01*
X53264Y-42063D02*
X54087Y-41240D01*
X52764Y-41649D02*
X52355Y-41240D01*
X52764Y-43406D02*
X52764Y-41649D01*
X52355Y-41240D02*
X52059Y-39862D01*
X49724Y-47559D02*
X50610Y-47559D01*
X50610Y-47559D02*
X51555Y-47224D01*
X51555Y-47224D02*
X51693Y-46850D01*
X51693Y-46850D02*
X52087Y-46181D01*
X52087Y-46181D02*
X52264Y-45768D01*
X52106Y-47559D02*
X52579Y-46673D01*
X53248Y-46161D02*
X53264Y-45768D01*
X52579Y-46673D02*
X53248Y-46161D01*
X27660Y-28804D02*
X27402Y-29016D01*
X39193Y-53593D02*
X36989Y-52846D01*
X29678Y-27783D02*
X29840Y-27976D01*
X54921Y-44842D02*
X53764Y-45768D01*
X27244Y-29016D02*
X26929Y-28661D01*
X26929Y-28661D02*
X27222Y-27843D01*
X52809Y-39862D02*
X52912Y-39862D01*
X51701Y-28537D02*
X51726Y-28512D01*
X53017Y-30982D02*
X52633Y-32672D01*
X27717Y-29409D02*
X27989Y-29195D01*
X27222Y-27843D02*
X27795Y-27362D01*
X52700Y-29486D02*
X53017Y-30982D01*
X27402Y-29016D02*
X27244Y-29016D01*
G54D28*
X42717Y-53248D02*
X42947Y-54437D01*
G54D27*
X52912Y-39862D02*
X53024Y-39862D01*
X29370Y-28949D02*
X29996Y-29575D01*
X27402Y-29213D02*
X27559Y-29370D01*
X27402Y-29016D02*
X27402Y-29213D01*
X43926Y-25790D02*
X43741Y-24856D01*
X37165Y-51870D02*
X36989Y-52846D01*
X25967Y-32508D02*
X26263Y-32212D01*
X38338Y-26215D02*
X43501Y-26215D01*
X28386Y-28071D02*
X29370Y-28031D01*
X29370Y-28031D02*
X29678Y-27783D01*
X35518Y-23395D02*
X35236Y-23425D01*
X27822Y-46756D02*
X27822Y-47019D01*
X31998Y-50748D02*
X30920Y-50046D01*
X33728Y-50859D02*
X31998Y-50748D01*
X35669Y-50984D02*
X33728Y-50859D01*
X35518Y-23395D02*
X38338Y-26215D01*
X29370Y-28031D02*
X29370Y-28949D01*
X29989Y-30257D02*
X29989Y-30800D01*
X29996Y-30250D02*
X29989Y-30257D01*
X51364Y-28150D02*
X51726Y-28512D01*
X27559Y-29370D02*
X27717Y-29409D01*
X29989Y-30800D02*
X29634Y-31155D01*
X44969Y-49964D02*
X43809Y-51124D01*
X29996Y-29575D02*
X29996Y-30250D01*
X37911Y-51124D02*
X37165Y-51870D01*
X27822Y-47019D02*
X27446Y-47395D01*
X43809Y-51124D02*
X37911Y-51124D01*
X43501Y-26215D02*
X43926Y-25790D01*
X35952Y-23350D02*
X35518Y-23395D01*
X51786Y-49964D02*
X44969Y-49964D01*
X45517Y-25503D02*
X43741Y-24856D01*
X31575Y-26339D02*
X29840Y-27976D01*
X52912Y-39740D02*
X52353Y-39181D01*
X52912Y-39862D02*
X52912Y-39740D01*
X25967Y-32924D02*
X25967Y-32508D01*
X51726Y-28512D02*
X52700Y-29486D01*
X53024Y-39862D02*
X53634Y-39862D01*
X53024Y-39862D02*
X53024Y-45200D01*
X53000Y-45200D02*
X53024Y-45200D01*
X52764Y-45436D02*
X53000Y-45200D01*
X52764Y-45768D02*
X52764Y-45436D01*
X53764Y-45364D02*
X53764Y-45768D01*
X53600Y-45200D02*
X53764Y-45364D01*
X53024Y-45200D02*
X53600Y-45200D01*
X53764Y-47986D02*
X51786Y-49964D01*
X53764Y-45768D02*
X53764Y-47986D01*
X54921Y-43346D02*
X53764Y-43406D01*
X54921Y-42127D02*
X55600Y-41448D01*
X54921Y-43346D02*
X54921Y-42127D01*
X33965Y-52147D02*
X36239Y-52846D01*
X35454Y-55323D02*
X33965Y-52147D01*
X24047Y-40357D02*
X23816Y-40357D01*
X26899Y-37505D02*
X24047Y-40357D01*
X26899Y-31727D02*
X26899Y-37505D01*
X28647Y-29979D02*
X26899Y-31727D01*
X28976Y-30372D02*
X28583Y-30765D01*
X41994Y-25547D02*
X41855Y-25686D01*
X39144Y-25686D02*
X39041Y-25583D01*
X41855Y-25686D02*
X39144Y-25686D01*
X39041Y-25583D02*
X38323Y-25583D01*
X42848Y-24100D02*
X41994Y-24954D01*
X41994Y-24954D02*
X41994Y-25547D01*
X55399Y-37178D02*
X55841Y-37620D01*
X54559Y-37178D02*
X55399Y-37178D01*
X54355Y-37382D02*
X54559Y-37178D01*
X53150Y-37382D02*
X54355Y-37382D01*
X52557Y-36789D02*
X53150Y-37382D01*
X52557Y-35573D02*
X52557Y-36789D01*
X44356Y-27372D02*
X52557Y-35573D01*
X32187Y-27372D02*
X44356Y-27372D01*
X32052Y-27507D02*
X32187Y-27372D01*
X30335Y-28563D02*
X31391Y-27507D01*
X31391Y-27507D02*
X32052Y-27507D01*
X44424Y-27208D02*
X31836Y-27208D01*
X47906Y-30690D02*
X44424Y-27208D01*
X50194Y-30690D02*
X47906Y-30690D01*
X29783Y-28755D02*
X29783Y-28768D01*
X30171Y-28367D02*
X29783Y-28755D01*
X31322Y-30123D02*
X31322Y-29739D01*
X26719Y-50052D02*
X28036Y-48735D01*
X27821Y-44711D02*
X27821Y-33624D01*
X27821Y-33624D02*
X31322Y-30123D01*
X26560Y-50052D02*
X26719Y-50052D01*
X28036Y-47990D02*
X28432Y-47594D01*
X28036Y-48735D02*
X28036Y-47990D01*
X28432Y-47594D02*
X28432Y-45322D01*
X28432Y-45322D02*
X27821Y-44711D01*
X55025Y-34956D02*
X55379Y-36198D01*
X47444Y-45216D02*
X48326Y-45216D01*
X48326Y-45216D02*
X48563Y-44979D01*
X40768Y-25000D02*
X40315Y-24547D01*
X41352Y-25000D02*
X40768Y-25000D01*
X24314Y-35348D02*
X23770Y-37569D01*
X23715Y-35153D02*
X23262Y-36198D01*
X48228Y-47559D02*
X47559Y-47559D01*
X47559Y-47559D02*
X47165Y-47165D01*
X47554Y-53399D02*
X48326Y-52738D01*
X28066Y-50046D02*
X29058Y-50921D01*
X46963Y-52611D02*
X47955Y-52228D01*
X46373Y-51824D02*
X47585Y-51719D01*
X40402Y-23200D02*
X40315Y-23287D01*
X41352Y-23200D02*
X40402Y-23200D01*
X54426Y-35151D02*
X54395Y-36494D01*
X23897Y-39580D02*
X23308Y-38991D01*
X24593Y-39580D02*
X23897Y-39580D01*
X26736Y-37437D02*
X24593Y-39580D01*
X26736Y-31530D02*
X26736Y-37437D01*
X28483Y-29783D02*
X26736Y-31530D01*
X53827Y-35345D02*
X53411Y-36789D01*
X24913Y-35542D02*
X24278Y-38935D01*
X28812Y-30176D02*
X29399Y-29589D01*
X29399Y-29589D02*
X29447Y-29589D01*
X41932Y-25916D02*
X42848Y-25000D01*
X38855Y-25916D02*
X41932Y-25916D01*
X40498Y-24100D02*
X40315Y-23917D01*
X41352Y-24100D02*
X40498Y-24100D01*
X40107Y-25487D02*
X40004Y-25384D01*
X41748Y-25487D02*
X40107Y-25487D01*
X41830Y-25405D02*
X41748Y-25487D01*
X41830Y-24218D02*
X41830Y-25405D01*
X42848Y-23200D02*
X41830Y-24218D01*
X29695Y-30014D02*
X29697Y-30014D01*
X29141Y-30568D02*
X29695Y-30014D01*
X44988Y-54279D02*
X42961Y-52252D01*
X42961Y-52252D02*
X38430Y-52252D01*
X46344Y-54279D02*
X44988Y-54279D01*
X29007Y-32142D02*
X28771Y-32142D01*
X30152Y-30997D02*
X29007Y-32142D01*
X30152Y-30325D02*
X30152Y-30997D01*
X30165Y-30312D02*
X30152Y-30325D01*
X30165Y-29815D02*
X30165Y-30312D01*
X30829Y-29151D02*
X30165Y-29815D01*
X48471Y-28979D02*
X49136Y-29632D01*
X53482Y-38211D02*
X53873Y-38211D01*
X52062Y-36791D02*
X53482Y-38211D01*
X52062Y-35543D02*
X52062Y-36791D01*
X44271Y-27752D02*
X52062Y-35543D01*
X32407Y-27752D02*
X44271Y-27752D01*
X32224Y-27935D02*
X32407Y-27752D01*
X31685Y-27935D02*
X32224Y-27935D01*
X30665Y-28955D02*
X31685Y-27935D01*
X44913Y-53491D02*
X45753Y-53491D01*
X37792Y-52093D02*
X37931Y-51954D01*
X37931Y-51954D02*
X43376Y-51954D01*
X43376Y-51954D02*
X44913Y-53491D01*
X30620Y-29721D02*
X30620Y-29796D01*
X30994Y-29347D02*
X30620Y-29721D01*
X27770Y-50932D02*
X28688Y-51430D01*
X27657Y-32771D02*
X29469Y-30959D01*
X27657Y-46150D02*
X27657Y-32771D01*
X28224Y-46717D02*
X27657Y-46150D01*
X28224Y-47385D02*
X28224Y-46717D01*
X27872Y-47737D02*
X28224Y-47385D01*
X27872Y-48571D02*
X27872Y-47737D01*
X27277Y-49166D02*
X27872Y-48571D01*
X26856Y-49166D02*
X27277Y-49166D01*
X26809Y-47938D02*
X27151Y-48280D01*
X26809Y-47156D02*
X26809Y-47938D01*
X27474Y-46491D02*
X26809Y-47156D01*
X27474Y-32595D02*
X27474Y-46491D01*
X29305Y-30764D02*
X27474Y-32595D01*
X29429Y-50411D02*
X28361Y-49160D01*
X54487Y-37546D02*
X54857Y-37916D01*
X53082Y-37546D02*
X54487Y-37546D01*
X52226Y-36690D02*
X53082Y-37546D01*
X52226Y-35474D02*
X52226Y-36690D01*
X44340Y-27588D02*
X52226Y-35474D01*
X32340Y-27588D02*
X44340Y-27588D01*
X32177Y-27751D02*
X32340Y-27588D01*
X31508Y-27751D02*
X32177Y-27751D01*
X30500Y-28759D02*
X31508Y-27751D01*
X30919Y-29781D02*
X31158Y-29542D01*
X30450Y-30448D02*
X30919Y-29979D01*
X30919Y-29979D02*
X30919Y-29781D01*
X43912Y-51453D02*
X38004Y-51453D01*
X45163Y-52704D02*
X43912Y-51453D01*
X22570Y-37390D02*
X22800Y-37620D01*
X22807Y-35166D02*
X22570Y-37390D01*
X23775Y-34198D02*
X22807Y-35166D01*
X25421Y-34552D02*
X23775Y-34198D01*
X26573Y-33400D02*
X25421Y-34552D01*
X26573Y-31332D02*
X26573Y-33400D01*
X28318Y-29587D02*
X26573Y-31332D01*
X36928Y-55583D02*
X39193Y-55561D01*
G54D28*
X41831Y-54075D02*
X41942Y-54632D01*
X41732Y-53445D02*
X41831Y-54075D01*
X40305Y-54242D02*
X39193Y-55561D01*
X41732Y-53445D02*
X40305Y-54242D01*
G54D27*
X38100Y-53947D02*
X39193Y-55561D01*
X36752Y-53228D02*
X38100Y-53947D01*
X36683Y-52451D02*
X36752Y-53228D01*
X36516Y-52244D02*
X36683Y-52451D01*
X36506Y-51467D02*
X36516Y-52244D01*
X37165Y-50984D02*
X36506Y-51467D01*
M02*
