G04 (created by PCBNEW-RS274X (2012-01-19 BZR 3256)-stable) date 12/30/2012 11:34:10 PM*
G01*
G70*
G90*
%MOIN*%
G04 Gerber Fmt 3.4, Leading zero omitted, Abs format*
%FSLAX34Y34*%
G04 APERTURE LIST*
%ADD10C,0.006000*%
%ADD11C,0.039400*%
%ADD12C,0.078700*%
%ADD13C,0.007900*%
%ADD14C,0.060000*%
%ADD15R,0.017700X0.059100*%
%ADD16C,0.047200*%
%ADD17R,0.035000X0.055000*%
%ADD18R,0.094500X0.094500*%
%ADD19R,0.070900X0.070900*%
%ADD20C,0.049200*%
%ADD21C,0.078700*%
%ADD22R,0.078700X0.051200*%
%ADD23C,0.035000*%
%ADD24C,0.008000*%
G04 APERTURE END LIST*
G54D10*
G54D11*
X46887Y-32966D02*
X46887Y-34638D01*
X45774Y-31853D02*
X44102Y-31853D01*
X32966Y-31853D02*
X34081Y-31853D01*
X31853Y-32966D02*
X31853Y-34081D01*
X32966Y-46887D02*
X34081Y-46887D01*
X31853Y-44659D02*
X31853Y-45774D01*
X31436Y-45077D02*
X33663Y-47304D01*
X45077Y-31436D02*
X47444Y-33802D01*
X31436Y-33663D02*
X33663Y-31436D01*
X47722Y-37699D02*
X48835Y-38813D01*
X48557Y-40205D02*
X48835Y-39927D01*
X39927Y-29905D02*
X41041Y-31018D01*
X38813Y-29905D02*
X37561Y-31157D01*
X29905Y-38813D02*
X31018Y-37699D01*
X30044Y-40067D02*
X30879Y-40902D01*
X37978Y-48000D02*
X38673Y-48696D01*
X40762Y-48000D02*
X40067Y-48696D01*
X48000Y-40762D02*
X48557Y-40205D01*
X48000Y-37978D02*
X48557Y-38535D01*
X45077Y-31436D02*
X44798Y-31714D01*
X33663Y-31436D02*
X34220Y-31993D01*
X31436Y-33663D02*
X31853Y-34081D01*
X31296Y-45216D02*
X31714Y-44798D01*
X33524Y-47444D02*
X34081Y-46887D01*
X46608Y-34359D02*
X47444Y-33524D01*
X42989Y-37978D02*
X49114Y-37978D01*
X42989Y-37978D02*
X48835Y-37700D01*
G54D12*
X37700Y-29905D02*
X40483Y-29905D01*
X48835Y-41040D02*
X48835Y-37143D01*
X37700Y-48835D02*
X40483Y-48835D01*
X29905Y-37700D02*
X29905Y-41040D01*
X36308Y-31853D02*
X36865Y-32410D01*
X37700Y-34915D02*
X34081Y-31296D01*
X34081Y-31296D02*
X37700Y-29905D01*
X37700Y-29905D02*
X37700Y-34359D01*
X37700Y-34359D02*
X34916Y-31576D01*
X34916Y-31576D02*
X37421Y-30740D01*
X37421Y-30740D02*
X37421Y-33524D01*
X37421Y-33524D02*
X35751Y-31853D01*
X35751Y-31853D02*
X36865Y-31297D01*
X36865Y-31297D02*
X36865Y-32410D01*
X34915Y-37700D02*
X31296Y-34081D01*
X31296Y-34081D02*
X29905Y-37700D01*
X29905Y-37700D02*
X34359Y-37700D01*
X34359Y-37700D02*
X31576Y-34916D01*
X31576Y-34916D02*
X30740Y-37421D01*
X30740Y-37421D02*
X33524Y-37421D01*
X33524Y-37421D02*
X31853Y-35751D01*
X31853Y-35751D02*
X31575Y-37143D01*
X31575Y-37143D02*
X32689Y-37143D01*
X32689Y-37143D02*
X32131Y-36586D01*
X34915Y-41040D02*
X31296Y-44659D01*
X31296Y-44659D02*
X30462Y-42710D01*
X30462Y-42710D02*
X29905Y-41040D01*
X29905Y-41040D02*
X34359Y-41040D01*
X34359Y-41040D02*
X31576Y-43824D01*
X31576Y-43824D02*
X30740Y-41319D01*
X30740Y-41319D02*
X33524Y-41319D01*
X33524Y-41319D02*
X31575Y-43268D01*
X31575Y-43268D02*
X31297Y-41875D01*
X31297Y-41875D02*
X32410Y-41875D01*
X32410Y-41875D02*
X31853Y-42432D01*
X37700Y-43825D02*
X37700Y-48835D01*
X37700Y-48835D02*
X36030Y-48278D01*
X36030Y-48278D02*
X34081Y-47444D01*
X34081Y-47444D02*
X37422Y-44103D01*
X37422Y-44103D02*
X37143Y-48278D01*
X37143Y-48278D02*
X34637Y-47443D01*
X34637Y-47443D02*
X36864Y-45216D01*
X36864Y-45216D02*
X36586Y-47722D01*
X36586Y-47722D02*
X35195Y-47443D01*
X35195Y-47443D02*
X36308Y-46330D01*
X36308Y-46330D02*
X36030Y-47165D01*
X48835Y-37143D02*
X48557Y-36308D01*
X42432Y-46887D02*
X43545Y-48000D01*
X43545Y-48000D02*
X42432Y-48557D01*
X42432Y-48557D02*
X42432Y-47443D01*
X42432Y-47443D02*
X42711Y-47722D01*
X41875Y-45773D02*
X41876Y-48557D01*
X41597Y-45495D02*
X43824Y-47722D01*
X41319Y-44659D02*
X41319Y-48557D01*
X41319Y-44659D02*
X44381Y-47722D01*
X41040Y-43825D02*
X41040Y-48835D01*
X41040Y-43825D02*
X44659Y-47444D01*
X48835Y-41040D02*
X48557Y-42432D01*
X47722Y-43267D02*
X48278Y-43268D01*
X47444Y-42989D02*
X48000Y-43545D01*
X46608Y-42710D02*
X48278Y-42710D01*
X46051Y-42154D02*
X47722Y-43824D01*
X45494Y-42154D02*
X48279Y-42154D01*
X44938Y-41597D02*
X47443Y-44103D01*
X44381Y-41597D02*
X48835Y-41597D01*
X44103Y-41318D02*
X47444Y-44659D01*
X43825Y-41040D02*
X48835Y-41040D01*
X47444Y-35751D02*
X48000Y-35195D01*
X47444Y-35751D02*
X48000Y-35751D01*
X46608Y-36030D02*
X47722Y-34916D01*
X46051Y-36586D02*
X48278Y-36030D01*
X45216Y-36864D02*
X47443Y-34637D01*
X44938Y-37143D02*
X48279Y-36586D01*
X43825Y-37700D02*
X48835Y-37143D01*
X44103Y-37422D02*
X47444Y-34081D01*
X41040Y-29905D02*
X42710Y-30462D01*
X42710Y-30462D02*
X44659Y-31296D01*
X42989Y-31296D02*
X42989Y-30740D01*
X42710Y-31575D02*
X43545Y-30740D01*
X42154Y-32689D02*
X42432Y-30183D01*
X42154Y-32689D02*
X43824Y-31018D01*
X41597Y-33802D02*
X44103Y-31297D01*
X41597Y-33802D02*
X41876Y-30183D01*
X41040Y-34915D02*
X41319Y-30183D01*
X41040Y-34915D02*
X44381Y-31575D01*
G54D11*
X42989Y-40762D02*
X49114Y-40762D01*
X42989Y-40762D02*
X47444Y-45216D01*
X40762Y-42989D02*
X45216Y-47444D01*
X40762Y-42989D02*
X40762Y-49114D01*
X37978Y-42989D02*
X37978Y-49114D01*
X37978Y-42989D02*
X33802Y-47165D01*
X35751Y-40762D02*
X31575Y-44938D01*
X35751Y-40762D02*
X29626Y-40762D01*
X35751Y-37978D02*
X29626Y-37978D01*
X35751Y-37978D02*
X31575Y-33802D01*
X37978Y-35751D02*
X33802Y-31575D01*
X37978Y-35751D02*
X37978Y-29626D01*
X40762Y-35751D02*
X44938Y-31575D01*
X42989Y-37978D02*
X49114Y-37421D01*
X42989Y-37978D02*
X47165Y-33802D01*
X40762Y-35751D02*
X40762Y-29626D01*
G54D13*
X39370Y-39370D02*
X31575Y-39370D01*
X39370Y-39370D02*
X39370Y-47165D01*
X39370Y-39370D02*
X47165Y-39370D01*
X39370Y-39370D02*
X39370Y-31575D01*
G54D11*
X31296Y-45214D02*
X31836Y-45896D01*
X32434Y-46528D01*
X33084Y-47105D01*
X33782Y-47624D01*
X34523Y-48079D01*
X35300Y-48469D01*
X36109Y-48789D01*
X36942Y-49037D01*
X37794Y-49212D01*
X38658Y-49312D01*
X39526Y-49336D01*
X40394Y-49285D01*
X41254Y-49158D01*
X42100Y-48956D01*
X42925Y-48682D01*
X43724Y-48336D01*
X44488Y-47923D01*
X45214Y-47444D01*
X47444Y-45214D02*
X47923Y-44488D01*
X48336Y-43724D01*
X48682Y-42925D01*
X48956Y-42100D01*
X49158Y-41254D01*
X49285Y-40394D01*
X49336Y-39526D01*
X49312Y-38658D01*
X49212Y-37794D01*
X49037Y-36942D01*
X48789Y-36109D01*
X48469Y-35300D01*
X48079Y-34523D01*
X47624Y-33782D01*
X47105Y-33084D01*
X46528Y-32434D01*
X45896Y-31836D01*
X45214Y-31296D01*
G54D13*
X39370Y-39370D02*
X47165Y-47165D01*
X39370Y-39370D02*
X45216Y-33524D01*
X39370Y-39370D02*
X33524Y-45216D01*
X39370Y-39370D02*
X33524Y-33524D01*
G54D11*
X33240Y-31580D02*
X32585Y-32144D01*
X31981Y-32763D01*
X31433Y-33432D01*
X30946Y-34147D01*
X30522Y-34901D01*
X30166Y-35689D01*
X29881Y-36505D01*
X29667Y-37343D01*
X29527Y-38197D01*
X29462Y-39059D01*
X29473Y-39923D01*
X29559Y-40783D01*
X29719Y-41633D01*
X29953Y-42466D01*
X30259Y-43275D01*
X30634Y-44054D01*
X31076Y-44797D01*
X31580Y-45500D01*
X45500Y-31580D02*
X44797Y-31076D01*
X44054Y-30634D01*
X43275Y-30259D01*
X42466Y-29953D01*
X41633Y-29719D01*
X40783Y-29559D01*
X39923Y-29473D01*
X39059Y-29462D01*
X38197Y-29527D01*
X37343Y-29667D01*
X36505Y-29881D01*
X35689Y-30166D01*
X34901Y-30522D01*
X34147Y-30946D01*
X33432Y-31433D01*
X32763Y-31981D01*
X32144Y-32585D01*
X31580Y-33240D01*
G54D10*
G36*
X47100Y-26261D02*
X47453Y-25776D01*
X47938Y-26129D01*
X47585Y-26614D01*
X47100Y-26261D01*
X47100Y-26261D01*
G37*
G54D14*
X48107Y-25386D03*
X48328Y-26783D03*
X48916Y-25973D03*
X49137Y-27370D03*
X49725Y-26561D03*
G54D15*
X52264Y-43406D03*
X52764Y-43406D03*
X53264Y-43406D03*
X53764Y-43406D03*
X51764Y-43406D03*
X51264Y-43406D03*
X50764Y-43406D03*
X50764Y-45768D03*
X51264Y-45768D03*
X51764Y-45768D03*
X52264Y-45768D03*
X52764Y-45768D03*
X53264Y-45768D03*
X53764Y-45768D03*
G54D16*
X47165Y-47165D03*
X47444Y-45216D03*
G54D17*
X54384Y-39862D03*
X53634Y-39862D03*
X52059Y-39862D03*
X52809Y-39862D03*
G54D18*
X54087Y-41240D03*
X52355Y-41240D03*
G54D10*
G36*
X44030Y-24752D02*
X43895Y-25122D01*
X43452Y-24960D01*
X43587Y-24590D01*
X44030Y-24752D01*
X44030Y-24752D01*
G37*
G36*
X44488Y-23495D02*
X44353Y-23865D01*
X43910Y-23703D01*
X44045Y-23333D01*
X44488Y-23495D01*
X44488Y-23495D01*
G37*
G36*
X45806Y-25399D02*
X45671Y-25769D01*
X45228Y-25607D01*
X45363Y-25237D01*
X45806Y-25399D01*
X45806Y-25399D01*
G37*
G36*
X46264Y-24142D02*
X46129Y-24512D01*
X45686Y-24350D01*
X45821Y-23980D01*
X46264Y-24142D01*
X46264Y-24142D01*
G37*
G36*
X52394Y-29458D02*
X52672Y-29180D01*
X53006Y-29514D01*
X52728Y-29792D01*
X52394Y-29458D01*
X52394Y-29458D01*
G37*
G36*
X51448Y-30404D02*
X51726Y-30126D01*
X52060Y-30460D01*
X51782Y-30738D01*
X51448Y-30404D01*
X51448Y-30404D01*
G37*
G36*
X51058Y-28122D02*
X51336Y-27844D01*
X51670Y-28178D01*
X51392Y-28456D01*
X51058Y-28122D01*
X51058Y-28122D01*
G37*
G36*
X50112Y-29068D02*
X50390Y-28790D01*
X50724Y-29124D01*
X50446Y-29402D01*
X50112Y-29068D01*
X50112Y-29068D01*
G37*
G36*
X53463Y-31209D02*
X52790Y-31428D01*
X52571Y-30755D01*
X53244Y-30536D01*
X53463Y-31209D01*
X53463Y-31209D01*
G37*
G36*
X53925Y-32631D02*
X53252Y-32850D01*
X53033Y-32177D01*
X53706Y-31958D01*
X53925Y-32631D01*
X53925Y-32631D01*
G37*
G36*
X25541Y-33096D02*
X25760Y-32423D01*
X26433Y-32642D01*
X26214Y-33315D01*
X25541Y-33096D01*
X25541Y-33096D01*
G37*
G36*
X24119Y-32634D02*
X24338Y-31961D01*
X25011Y-32180D01*
X24792Y-32853D01*
X24119Y-32634D01*
X24119Y-32634D01*
G37*
G36*
X24505Y-39381D02*
X23832Y-39162D01*
X24051Y-38489D01*
X24724Y-38708D01*
X24505Y-39381D01*
X24505Y-39381D01*
G37*
G36*
X24043Y-40803D02*
X23370Y-40584D01*
X23589Y-39911D01*
X24262Y-40130D01*
X24043Y-40803D01*
X24043Y-40803D01*
G37*
G36*
X23489Y-36644D02*
X22816Y-36425D01*
X23035Y-35752D01*
X23708Y-35971D01*
X23489Y-36644D01*
X23489Y-36644D01*
G37*
G36*
X23027Y-38066D02*
X22354Y-37847D01*
X22573Y-37174D01*
X23246Y-37393D01*
X23027Y-38066D01*
X23027Y-38066D01*
G37*
G36*
X23997Y-38015D02*
X23324Y-37796D01*
X23543Y-37123D01*
X24216Y-37342D01*
X23997Y-38015D01*
X23997Y-38015D01*
G37*
G36*
X23535Y-39437D02*
X22862Y-39218D01*
X23081Y-38545D01*
X23754Y-38764D01*
X23535Y-39437D01*
X23535Y-39437D01*
G37*
G36*
X30802Y-25536D02*
X30396Y-24956D01*
X30976Y-24550D01*
X31382Y-25130D01*
X30802Y-25536D01*
X30802Y-25536D01*
G37*
G36*
X29576Y-26394D02*
X29170Y-25814D01*
X29750Y-25408D01*
X30156Y-25988D01*
X29576Y-26394D01*
X29576Y-26394D01*
G37*
G36*
X27266Y-27344D02*
X27721Y-27887D01*
X27178Y-28342D01*
X26723Y-27799D01*
X27266Y-27344D01*
X27266Y-27344D01*
G37*
G36*
X28412Y-26382D02*
X28867Y-26925D01*
X28324Y-27380D01*
X27869Y-26837D01*
X28412Y-26382D01*
X28412Y-26382D01*
G37*
G36*
X28209Y-29906D02*
X28652Y-29534D01*
X28757Y-29660D01*
X28314Y-30032D01*
X28209Y-29906D01*
X28209Y-29906D01*
G37*
G36*
X28373Y-30102D02*
X28816Y-29730D01*
X28921Y-29856D01*
X28478Y-30228D01*
X28373Y-30102D01*
X28373Y-30102D01*
G37*
G36*
X28538Y-30299D02*
X28981Y-29927D01*
X29086Y-30053D01*
X28643Y-30425D01*
X28538Y-30299D01*
X28538Y-30299D01*
G37*
G36*
X28702Y-30495D02*
X29145Y-30123D01*
X29250Y-30249D01*
X28807Y-30621D01*
X28702Y-30495D01*
X28702Y-30495D01*
G37*
G36*
X29404Y-27906D02*
X29847Y-27534D01*
X29952Y-27660D01*
X29509Y-28032D01*
X29404Y-27906D01*
X29404Y-27906D01*
G37*
G36*
X27715Y-29318D02*
X28158Y-28946D01*
X28263Y-29072D01*
X27820Y-29444D01*
X27715Y-29318D01*
X27715Y-29318D01*
G37*
G36*
X27879Y-29514D02*
X28322Y-29142D01*
X28427Y-29268D01*
X27984Y-29640D01*
X27879Y-29514D01*
X27879Y-29514D01*
G37*
G36*
X28044Y-29710D02*
X28487Y-29338D01*
X28592Y-29464D01*
X28149Y-29836D01*
X28044Y-29710D01*
X28044Y-29710D01*
G37*
G36*
X30555Y-29274D02*
X30998Y-28902D01*
X31103Y-29028D01*
X30660Y-29400D01*
X30555Y-29274D01*
X30555Y-29274D01*
G37*
G36*
X30391Y-29078D02*
X30834Y-28706D01*
X30939Y-28832D01*
X30496Y-29204D01*
X30391Y-29078D01*
X30391Y-29078D01*
G37*
G36*
X30226Y-28882D02*
X30669Y-28510D01*
X30774Y-28636D01*
X30331Y-29008D01*
X30226Y-28882D01*
X30226Y-28882D01*
G37*
G36*
X30061Y-28686D02*
X30504Y-28314D01*
X30609Y-28440D01*
X30166Y-28812D01*
X30061Y-28686D01*
X30061Y-28686D01*
G37*
G36*
X29897Y-28490D02*
X30340Y-28118D01*
X30445Y-28244D01*
X30002Y-28616D01*
X29897Y-28490D01*
X29897Y-28490D01*
G37*
G36*
X29732Y-28293D02*
X30175Y-27921D01*
X30280Y-28047D01*
X29837Y-28419D01*
X29732Y-28293D01*
X29732Y-28293D01*
G37*
G36*
X28867Y-30691D02*
X29310Y-30319D01*
X29415Y-30445D01*
X28972Y-30817D01*
X28867Y-30691D01*
X28867Y-30691D01*
G37*
G36*
X29566Y-28099D02*
X30009Y-27727D01*
X30114Y-27853D01*
X29671Y-28225D01*
X29566Y-28099D01*
X29566Y-28099D01*
G37*
G36*
X27550Y-29122D02*
X27993Y-28750D01*
X28098Y-28876D01*
X27655Y-29248D01*
X27550Y-29122D01*
X27550Y-29122D01*
G37*
G36*
X29031Y-30887D02*
X29474Y-30515D01*
X29579Y-30641D01*
X29136Y-31013D01*
X29031Y-30887D01*
X29031Y-30887D01*
G37*
G36*
X30720Y-29470D02*
X31163Y-29098D01*
X31268Y-29224D01*
X30825Y-29596D01*
X30720Y-29470D01*
X30720Y-29470D01*
G37*
G36*
X29239Y-27705D02*
X29682Y-27333D01*
X29787Y-27459D01*
X29344Y-27831D01*
X29239Y-27705D01*
X29239Y-27705D01*
G37*
G36*
X27386Y-28927D02*
X27829Y-28555D01*
X27934Y-28681D01*
X27491Y-29053D01*
X27386Y-28927D01*
X27386Y-28927D01*
G37*
G36*
X29195Y-31082D02*
X29638Y-30710D01*
X29743Y-30836D01*
X29300Y-31208D01*
X29195Y-31082D01*
X29195Y-31082D01*
G37*
G36*
X30884Y-29665D02*
X31327Y-29293D01*
X31432Y-29419D01*
X30989Y-29791D01*
X30884Y-29665D01*
X30884Y-29665D01*
G37*
G36*
X29075Y-27510D02*
X29518Y-27138D01*
X29623Y-27264D01*
X29180Y-27636D01*
X29075Y-27510D01*
X29075Y-27510D01*
G37*
G36*
X27222Y-28730D02*
X27665Y-28358D01*
X27770Y-28484D01*
X27327Y-28856D01*
X27222Y-28730D01*
X27222Y-28730D01*
G37*
G36*
X29360Y-31278D02*
X29803Y-30906D01*
X29908Y-31032D01*
X29465Y-31404D01*
X29360Y-31278D01*
X29360Y-31278D01*
G37*
G36*
X31048Y-29862D02*
X31491Y-29490D01*
X31596Y-29616D01*
X31153Y-29988D01*
X31048Y-29862D01*
X31048Y-29862D01*
G37*
G36*
X28910Y-27314D02*
X29353Y-26942D01*
X29458Y-27068D01*
X29015Y-27440D01*
X28910Y-27314D01*
X28910Y-27314D01*
G37*
G36*
X32180Y-25733D02*
X31774Y-25153D01*
X32354Y-24747D01*
X32760Y-25327D01*
X32180Y-25733D01*
X32180Y-25733D01*
G37*
G36*
X30954Y-26591D02*
X30548Y-26011D01*
X31128Y-25605D01*
X31534Y-26185D01*
X30954Y-26591D01*
X30954Y-26591D01*
G37*
G36*
X33557Y-25930D02*
X33151Y-25350D01*
X33731Y-24944D01*
X34137Y-25524D01*
X33557Y-25930D01*
X33557Y-25930D01*
G37*
G36*
X32331Y-26788D02*
X31925Y-26208D01*
X32505Y-25802D01*
X32911Y-26382D01*
X32331Y-26788D01*
X32331Y-26788D01*
G37*
G36*
X48433Y-44495D02*
X49047Y-44849D01*
X48693Y-45463D01*
X48079Y-45109D01*
X48433Y-44495D01*
X48433Y-44495D01*
G37*
G36*
X49181Y-43199D02*
X49795Y-43553D01*
X49441Y-44167D01*
X48827Y-43813D01*
X49181Y-43199D01*
X49181Y-43199D01*
G37*
G36*
X34674Y-51678D02*
X34375Y-52319D01*
X33734Y-52020D01*
X34033Y-51379D01*
X34674Y-51678D01*
X34674Y-51678D01*
G37*
G36*
X36030Y-52310D02*
X35731Y-52951D01*
X35090Y-52652D01*
X35389Y-52011D01*
X36030Y-52310D01*
X36030Y-52310D01*
G37*
G36*
X30426Y-50124D02*
X30842Y-49552D01*
X31414Y-49968D01*
X30998Y-50540D01*
X30426Y-50124D01*
X30426Y-50124D01*
G37*
G36*
X29216Y-49244D02*
X29632Y-48672D01*
X30204Y-49088D01*
X29788Y-49660D01*
X29216Y-49244D01*
X29216Y-49244D01*
G37*
G36*
X27867Y-49238D02*
X28283Y-48666D01*
X28855Y-49082D01*
X28439Y-49654D01*
X27867Y-49238D01*
X27867Y-49238D01*
G37*
G36*
X26657Y-48358D02*
X27073Y-47786D01*
X27645Y-48202D01*
X27229Y-48774D01*
X26657Y-48358D01*
X26657Y-48358D01*
G37*
G36*
X27572Y-50124D02*
X27988Y-49552D01*
X28560Y-49968D01*
X28144Y-50540D01*
X27572Y-50124D01*
X27572Y-50124D01*
G37*
G36*
X26362Y-49244D02*
X26778Y-48672D01*
X27350Y-49088D01*
X26934Y-49660D01*
X26362Y-49244D01*
X26362Y-49244D01*
G37*
G36*
X27276Y-51010D02*
X27692Y-50438D01*
X28264Y-50854D01*
X27848Y-51426D01*
X27276Y-51010D01*
X27276Y-51010D01*
G37*
G36*
X26066Y-50130D02*
X26482Y-49558D01*
X27054Y-49974D01*
X26638Y-50546D01*
X26066Y-50130D01*
X26066Y-50130D01*
G37*
G54D19*
X52579Y-46673D03*
X51083Y-46673D03*
X48228Y-47559D03*
X49724Y-47559D03*
G54D10*
G36*
X34320Y-52505D02*
X34021Y-53146D01*
X33380Y-52847D01*
X33679Y-52206D01*
X34320Y-52505D01*
X34320Y-52505D01*
G37*
G36*
X35676Y-53137D02*
X35377Y-53778D01*
X34736Y-53479D01*
X35035Y-52838D01*
X35676Y-53137D01*
X35676Y-53137D01*
G37*
G36*
X35864Y-55036D02*
X35741Y-55733D01*
X35044Y-55610D01*
X35167Y-54913D01*
X35864Y-55036D01*
X35864Y-55036D01*
G37*
G36*
X37338Y-55296D02*
X37215Y-55993D01*
X36518Y-55870D01*
X36641Y-55173D01*
X37338Y-55296D01*
X37338Y-55296D01*
G37*
G36*
X46295Y-52318D02*
X45879Y-51746D01*
X46451Y-51330D01*
X46867Y-51902D01*
X46295Y-52318D01*
X46295Y-52318D01*
G37*
G36*
X45085Y-53198D02*
X44669Y-52626D01*
X45241Y-52210D01*
X45657Y-52782D01*
X45085Y-53198D01*
X45085Y-53198D01*
G37*
G36*
X46885Y-53105D02*
X46469Y-52533D01*
X47041Y-52117D01*
X47457Y-52689D01*
X46885Y-53105D01*
X46885Y-53105D01*
G37*
G36*
X45675Y-53985D02*
X45259Y-53413D01*
X45831Y-52997D01*
X46247Y-53569D01*
X45675Y-53985D01*
X45675Y-53985D01*
G37*
G36*
X47476Y-53893D02*
X47060Y-53321D01*
X47632Y-52905D01*
X48048Y-53477D01*
X47476Y-53893D01*
X47476Y-53893D01*
G37*
G36*
X46266Y-54773D02*
X45850Y-54201D01*
X46422Y-53785D01*
X46838Y-54357D01*
X46266Y-54773D01*
X46266Y-54773D01*
G37*
G36*
X51708Y-50458D02*
X51292Y-49886D01*
X51864Y-49470D01*
X52280Y-50042D01*
X51708Y-50458D01*
X51708Y-50458D01*
G37*
G36*
X50498Y-51338D02*
X50082Y-50766D01*
X50654Y-50350D01*
X51070Y-50922D01*
X50498Y-51338D01*
X50498Y-51338D01*
G37*
G36*
X47095Y-25147D02*
X46481Y-24793D01*
X46835Y-24179D01*
X47449Y-24533D01*
X47095Y-25147D01*
X47095Y-25147D01*
G37*
G36*
X46347Y-26443D02*
X45733Y-26089D01*
X46087Y-25475D01*
X46701Y-25829D01*
X46347Y-26443D01*
X46347Y-26443D01*
G37*
G54D19*
X52106Y-47559D03*
X50610Y-47559D03*
G54D10*
G36*
X50856Y-27826D02*
X50355Y-27325D01*
X50856Y-26824D01*
X51357Y-27325D01*
X50856Y-27826D01*
X50856Y-27826D01*
G37*
G36*
X49798Y-28884D02*
X49297Y-28383D01*
X49798Y-27882D01*
X50299Y-28383D01*
X49798Y-28884D01*
X49798Y-28884D01*
G37*
G54D19*
X55600Y-41448D03*
X55600Y-39952D03*
X54921Y-44842D03*
X54921Y-43346D03*
G54D10*
G36*
X53857Y-37016D02*
X53184Y-37235D01*
X52965Y-36562D01*
X53638Y-36343D01*
X53857Y-37016D01*
X53857Y-37016D01*
G37*
G36*
X54319Y-38438D02*
X53646Y-38657D01*
X53427Y-37984D01*
X54100Y-37765D01*
X54319Y-38438D01*
X54319Y-38438D01*
G37*
G36*
X55825Y-36425D02*
X55152Y-36644D01*
X54933Y-35971D01*
X55606Y-35752D01*
X55825Y-36425D01*
X55825Y-36425D01*
G37*
G36*
X56287Y-37847D02*
X55614Y-38066D01*
X55395Y-37393D01*
X56068Y-37174D01*
X56287Y-37847D01*
X56287Y-37847D01*
G37*
G36*
X54841Y-36721D02*
X54168Y-36940D01*
X53949Y-36267D01*
X54622Y-36048D01*
X54841Y-36721D01*
X54841Y-36721D01*
G37*
G36*
X55303Y-38143D02*
X54630Y-38362D01*
X54411Y-37689D01*
X55084Y-37470D01*
X55303Y-38143D01*
X55303Y-38143D01*
G37*
G36*
X52187Y-32445D02*
X52860Y-32226D01*
X53079Y-32899D01*
X52406Y-33118D01*
X52187Y-32445D01*
X52187Y-32445D01*
G37*
G36*
X51725Y-31023D02*
X52398Y-30804D01*
X52617Y-31477D01*
X51944Y-31696D01*
X51725Y-31023D01*
X51725Y-31023D01*
G37*
G36*
X49637Y-29632D02*
X49136Y-30133D01*
X48635Y-29632D01*
X49136Y-29131D01*
X49637Y-29632D01*
X49637Y-29632D01*
G37*
G36*
X50695Y-30690D02*
X50194Y-31191D01*
X49693Y-30690D01*
X50194Y-30189D01*
X50695Y-30690D01*
X50695Y-30690D01*
G37*
G36*
X44399Y-25627D02*
X44089Y-26263D01*
X43453Y-25953D01*
X43763Y-25317D01*
X44399Y-25627D01*
X44399Y-25627D01*
G37*
G36*
X45743Y-26283D02*
X45433Y-26919D01*
X44797Y-26609D01*
X45107Y-25973D01*
X45743Y-26283D01*
X45743Y-26283D01*
G37*
G36*
X47977Y-29057D02*
X48393Y-28485D01*
X48965Y-28901D01*
X48549Y-29473D01*
X47977Y-29057D01*
X47977Y-29057D01*
G37*
G36*
X46767Y-28177D02*
X47183Y-27605D01*
X47755Y-28021D01*
X47339Y-28593D01*
X46767Y-28177D01*
X46767Y-28177D01*
G37*
G54D19*
X41352Y-23200D03*
X42848Y-23200D03*
G54D10*
G36*
X36164Y-22948D02*
X36287Y-23645D01*
X35590Y-23768D01*
X35467Y-23071D01*
X36164Y-22948D01*
X36164Y-22948D01*
G37*
G36*
X37638Y-22688D02*
X37761Y-23385D01*
X37064Y-23508D01*
X36941Y-22811D01*
X37638Y-22688D01*
X37638Y-22688D01*
G37*
G54D19*
X41352Y-24100D03*
X42848Y-24100D03*
X41352Y-25000D03*
X42848Y-25000D03*
G54D10*
G36*
X41822Y-54718D02*
X41672Y-53946D01*
X41826Y-53916D01*
X41976Y-54688D01*
X41822Y-54718D01*
X41822Y-54718D01*
G37*
G36*
X42074Y-54669D02*
X41924Y-53897D01*
X42078Y-53867D01*
X42228Y-54639D01*
X42074Y-54669D01*
X42074Y-54669D01*
G37*
G36*
X42325Y-54620D02*
X42175Y-53848D01*
X42329Y-53818D01*
X42479Y-54590D01*
X42325Y-54620D01*
X42325Y-54620D01*
G37*
G36*
X42576Y-54571D02*
X42426Y-53799D01*
X42580Y-53769D01*
X42730Y-54541D01*
X42576Y-54571D01*
X42576Y-54571D01*
G37*
G36*
X42827Y-54523D02*
X42677Y-53751D01*
X42831Y-53721D01*
X42981Y-54493D01*
X42827Y-54523D01*
X42827Y-54523D01*
G37*
G36*
X40644Y-54947D02*
X40494Y-54175D01*
X41460Y-53987D01*
X41610Y-54759D01*
X40644Y-54947D01*
X40644Y-54947D01*
G37*
G36*
X43194Y-54451D02*
X43044Y-53679D01*
X44010Y-53491D01*
X44160Y-54263D01*
X43194Y-54451D01*
X43194Y-54451D01*
G37*
G36*
X43804Y-55416D02*
X43661Y-54682D01*
X44432Y-54532D01*
X44575Y-55266D01*
X43804Y-55416D01*
X43804Y-55416D01*
G37*
G36*
X40635Y-56032D02*
X40492Y-55298D01*
X41263Y-55148D01*
X41406Y-55882D01*
X40635Y-56032D01*
X40635Y-56032D01*
G37*
G36*
X24961Y-44733D02*
X24627Y-44399D01*
X24961Y-44065D01*
X25295Y-44399D01*
X24961Y-44733D01*
X24961Y-44733D01*
G37*
G36*
X24181Y-43172D02*
X23847Y-42838D01*
X24181Y-42504D01*
X24515Y-42838D01*
X24181Y-43172D01*
X24181Y-43172D01*
G37*
G36*
X24571Y-42783D02*
X24237Y-42449D01*
X24571Y-42115D01*
X24905Y-42449D01*
X24571Y-42783D01*
X24571Y-42783D01*
G37*
G36*
X24960Y-42393D02*
X24626Y-42059D01*
X24960Y-41725D01*
X25294Y-42059D01*
X24960Y-42393D01*
X24960Y-42393D01*
G37*
G36*
X23791Y-43563D02*
X23457Y-43229D01*
X23791Y-42895D01*
X24125Y-43229D01*
X23791Y-43563D01*
X23791Y-43563D01*
G37*
G36*
X24180Y-43952D02*
X23846Y-43618D01*
X24180Y-43284D01*
X24514Y-43618D01*
X24180Y-43952D01*
X24180Y-43952D01*
G37*
G36*
X24571Y-44343D02*
X24237Y-44009D01*
X24571Y-43675D01*
X24905Y-44009D01*
X24571Y-44343D01*
X24571Y-44343D01*
G37*
G36*
X25350Y-42783D02*
X25016Y-42449D01*
X25350Y-42115D01*
X25684Y-42449D01*
X25350Y-42783D01*
X25350Y-42783D01*
G37*
G36*
X25740Y-43173D02*
X25406Y-42839D01*
X25740Y-42505D01*
X26074Y-42839D01*
X25740Y-43173D01*
X25740Y-43173D01*
G37*
G36*
X24961Y-43952D02*
X24627Y-43618D01*
X24961Y-43284D01*
X25295Y-43618D01*
X24961Y-43952D01*
X24961Y-43952D01*
G37*
G36*
X25351Y-43563D02*
X25017Y-43229D01*
X25351Y-42895D01*
X25685Y-43229D01*
X25351Y-43563D01*
X25351Y-43563D01*
G37*
G54D20*
X41575Y-52953D03*
X42598Y-52795D03*
G54D21*
X39193Y-53593D03*
X39193Y-55561D03*
G54D10*
G36*
X32173Y-53992D02*
X31976Y-54334D01*
X31737Y-54196D01*
X31934Y-53854D01*
X32173Y-53992D01*
X32173Y-53992D01*
G37*
G36*
X32348Y-52938D02*
X32151Y-53280D01*
X31912Y-53142D01*
X32109Y-52800D01*
X32348Y-52938D01*
X32348Y-52938D01*
G37*
G36*
X32998Y-53313D02*
X32801Y-53655D01*
X32562Y-53517D01*
X32759Y-53175D01*
X32998Y-53313D01*
X32998Y-53313D01*
G37*
G36*
X37684Y-53203D02*
X37615Y-53591D01*
X37418Y-53557D01*
X37487Y-53169D01*
X37684Y-53203D01*
X37684Y-53203D01*
G37*
G36*
X36947Y-53073D02*
X36878Y-53461D01*
X36681Y-53427D01*
X36750Y-53039D01*
X36947Y-53073D01*
X36947Y-53073D01*
G37*
G36*
X37493Y-54289D02*
X37424Y-54677D01*
X37227Y-54643D01*
X37296Y-54255D01*
X37493Y-54289D01*
X37493Y-54289D01*
G37*
G36*
X37316Y-53138D02*
X37247Y-53526D01*
X37050Y-53492D01*
X37119Y-53104D01*
X37316Y-53138D01*
X37316Y-53138D01*
G37*
G36*
X36756Y-54159D02*
X36687Y-54547D01*
X36490Y-54513D01*
X36559Y-54125D01*
X36756Y-54159D01*
X36756Y-54159D01*
G37*
G36*
X31103Y-52090D02*
X30802Y-52504D01*
X30167Y-52042D01*
X30468Y-51628D01*
X31103Y-52090D01*
X31103Y-52090D01*
G37*
G36*
X29479Y-50910D02*
X29178Y-51324D01*
X28543Y-50862D01*
X28844Y-50448D01*
X29479Y-50910D01*
X29479Y-50910D01*
G37*
G36*
X29849Y-50400D02*
X29548Y-50814D01*
X28913Y-50352D01*
X29214Y-49938D01*
X29849Y-50400D01*
X29849Y-50400D01*
G37*
G36*
X29108Y-51420D02*
X28807Y-51834D01*
X28172Y-51372D01*
X28473Y-50958D01*
X29108Y-51420D01*
X29108Y-51420D01*
G37*
G36*
X30733Y-52600D02*
X30432Y-53014D01*
X29797Y-52552D01*
X30098Y-52138D01*
X30733Y-52600D01*
X30733Y-52600D01*
G37*
G36*
X31474Y-51580D02*
X31173Y-51994D01*
X30538Y-51532D01*
X30839Y-51118D01*
X31474Y-51580D01*
X31474Y-51580D01*
G37*
G36*
X49699Y-50645D02*
X50000Y-51059D01*
X49365Y-51521D01*
X49064Y-51107D01*
X49699Y-50645D01*
X49699Y-50645D01*
G37*
G36*
X48075Y-51825D02*
X48376Y-52239D01*
X47741Y-52701D01*
X47440Y-52287D01*
X48075Y-51825D01*
X48075Y-51825D01*
G37*
G36*
X47704Y-51315D02*
X48005Y-51729D01*
X47370Y-52191D01*
X47069Y-51777D01*
X47704Y-51315D01*
X47704Y-51315D01*
G37*
G36*
X48445Y-52335D02*
X48746Y-52749D01*
X48111Y-53211D01*
X47810Y-52797D01*
X48445Y-52335D01*
X48445Y-52335D01*
G37*
G36*
X50070Y-51155D02*
X50371Y-51569D01*
X49736Y-52031D01*
X49435Y-51617D01*
X50070Y-51155D01*
X50070Y-51155D01*
G37*
G36*
X49329Y-50135D02*
X49630Y-50549D01*
X48995Y-51011D01*
X48694Y-50597D01*
X49329Y-50135D01*
X49329Y-50135D01*
G37*
G36*
X53459Y-33002D02*
X53946Y-32844D01*
X54189Y-33592D01*
X53702Y-33750D01*
X53459Y-33002D01*
X53459Y-33002D01*
G37*
G36*
X54079Y-34912D02*
X54566Y-34754D01*
X54809Y-35502D01*
X54322Y-35660D01*
X54079Y-34912D01*
X54079Y-34912D01*
G37*
G36*
X53480Y-35107D02*
X53967Y-34949D01*
X54210Y-35697D01*
X53723Y-35855D01*
X53480Y-35107D01*
X53480Y-35107D01*
G37*
G36*
X54678Y-34717D02*
X55165Y-34559D01*
X55408Y-35307D01*
X54921Y-35465D01*
X54678Y-34717D01*
X54678Y-34717D01*
G37*
G36*
X54058Y-32807D02*
X54545Y-32649D01*
X54788Y-33397D01*
X54301Y-33555D01*
X54058Y-32807D01*
X54058Y-32807D01*
G37*
G36*
X52860Y-33197D02*
X53347Y-33039D01*
X53590Y-33787D01*
X53103Y-33945D01*
X52860Y-33197D01*
X52860Y-33197D01*
G37*
G54D22*
X38366Y-23917D03*
X40374Y-23917D03*
X40374Y-24547D03*
X40374Y-23287D03*
X38366Y-23287D03*
X38366Y-24547D03*
G54D10*
G36*
X24794Y-33041D02*
X25281Y-33199D01*
X25038Y-33947D01*
X24551Y-33789D01*
X24794Y-33041D01*
X24794Y-33041D01*
G37*
G36*
X24174Y-34951D02*
X24661Y-35109D01*
X24418Y-35857D01*
X23931Y-35699D01*
X24174Y-34951D01*
X24174Y-34951D01*
G37*
G36*
X23575Y-34756D02*
X24062Y-34914D01*
X23819Y-35662D01*
X23332Y-35504D01*
X23575Y-34756D01*
X23575Y-34756D01*
G37*
G36*
X24773Y-35146D02*
X25260Y-35304D01*
X25017Y-36052D01*
X24530Y-35894D01*
X24773Y-35146D01*
X24773Y-35146D01*
G37*
G36*
X25393Y-33236D02*
X25880Y-33394D01*
X25637Y-34142D01*
X25150Y-33984D01*
X25393Y-33236D01*
X25393Y-33236D01*
G37*
G36*
X24195Y-32846D02*
X24682Y-33004D01*
X24439Y-33752D01*
X23952Y-33594D01*
X24195Y-32846D01*
X24195Y-32846D01*
G37*
G36*
X30938Y-49416D02*
X31354Y-48844D01*
X31926Y-49260D01*
X31510Y-49832D01*
X30938Y-49416D01*
X30938Y-49416D01*
G37*
G36*
X29728Y-48536D02*
X30144Y-47964D01*
X30716Y-48380D01*
X30300Y-48952D01*
X29728Y-48536D01*
X29728Y-48536D01*
G37*
G36*
X34002Y-25920D02*
X34408Y-26500D01*
X33828Y-26906D01*
X33422Y-26326D01*
X34002Y-25920D01*
X34002Y-25920D01*
G37*
G36*
X35228Y-25062D02*
X35634Y-25642D01*
X35054Y-26048D01*
X34648Y-25468D01*
X35228Y-25062D01*
X35228Y-25062D01*
G37*
G54D23*
X50411Y-46121D03*
X47384Y-25223D03*
X51567Y-42571D03*
X43136Y-26530D03*
X52366Y-37667D03*
X46740Y-27261D03*
X52122Y-42847D03*
X42906Y-26142D03*
X51400Y-44967D03*
X53334Y-39240D03*
X53415Y-34205D03*
X45827Y-25039D03*
X52596Y-40396D03*
X31213Y-27092D03*
X27780Y-31164D03*
X34223Y-24176D03*
X52702Y-34526D03*
X27576Y-29589D03*
X27787Y-27494D03*
X31667Y-26508D03*
X29720Y-26960D03*
X29168Y-26510D03*
X30355Y-29815D03*
X30295Y-30876D03*
X27954Y-32652D03*
X29126Y-29212D03*
X31566Y-29150D03*
X41992Y-51661D03*
X36056Y-51969D03*
X30789Y-29964D03*
X28463Y-30646D03*
X39264Y-24703D03*
X29821Y-30004D03*
X41971Y-23308D03*
X42088Y-52587D03*
X31255Y-28779D03*
X27939Y-33219D03*
X29144Y-29692D03*
X23245Y-37006D03*
X25331Y-34635D03*
X30002Y-29555D03*
X41985Y-23766D03*
G54D24*
X50669Y-46181D02*
X50411Y-46121D01*
X50748Y-46102D02*
X50669Y-46181D01*
X50764Y-45768D02*
X50748Y-46102D01*
X46965Y-24663D02*
X46679Y-24663D01*
X45975Y-24246D02*
X46965Y-24663D01*
X51264Y-42874D02*
X51567Y-42571D01*
X46679Y-24663D02*
X47239Y-25223D01*
X44199Y-23599D02*
X45975Y-24246D01*
X51264Y-43406D02*
X51264Y-42874D01*
X47239Y-25223D02*
X47384Y-25223D01*
X33644Y-25437D02*
X33881Y-25437D01*
X34974Y-26530D02*
X43136Y-26530D01*
X33881Y-25437D02*
X34974Y-26530D01*
X48916Y-25973D02*
X48916Y-26795D01*
X51052Y-38981D02*
X51052Y-42699D01*
X51052Y-42699D02*
X50764Y-42987D01*
X52366Y-37667D02*
X51052Y-38981D01*
X50764Y-43406D02*
X50764Y-42987D01*
X48450Y-27261D02*
X46740Y-27261D01*
X48916Y-26795D02*
X48450Y-27261D01*
X50856Y-27325D02*
X50856Y-27334D01*
X50856Y-28658D02*
X50418Y-29096D01*
X52264Y-43406D02*
X52264Y-42987D01*
X52124Y-42847D02*
X52122Y-42847D01*
X52171Y-31250D02*
X52171Y-30849D01*
X49137Y-27370D02*
X50820Y-27370D01*
X51754Y-30432D02*
X50418Y-29096D01*
X52264Y-42987D02*
X52124Y-42847D01*
X52171Y-30849D02*
X51754Y-30432D01*
X50820Y-27370D02*
X50856Y-27334D01*
X50856Y-27334D02*
X50856Y-28658D01*
X51264Y-45768D02*
X51264Y-45349D01*
X35463Y-26016D02*
X35551Y-26142D01*
X35728Y-26142D02*
X42906Y-26142D01*
X35551Y-26142D02*
X35728Y-26142D01*
X51400Y-45213D02*
X51264Y-45349D01*
X35463Y-26016D02*
X35464Y-26015D01*
X35141Y-25555D02*
X35463Y-26016D01*
X51400Y-44967D02*
X51400Y-45213D01*
X51732Y-46220D02*
X51764Y-45768D01*
X51083Y-46673D02*
X51732Y-46220D01*
X32727Y-24918D02*
X33150Y-24606D01*
X41899Y-25569D02*
X41817Y-25651D01*
X44134Y-24252D02*
X46102Y-24764D01*
X43305Y-25488D02*
X42211Y-25488D01*
X30889Y-25043D02*
X31349Y-24721D01*
X42211Y-25488D02*
X42130Y-25569D01*
X41869Y-51363D02*
X41678Y-51554D01*
X45270Y-26446D02*
X46217Y-25959D01*
X32267Y-25240D02*
X32727Y-24918D01*
X46102Y-24764D02*
X46417Y-25472D01*
X42747Y-50828D02*
X49347Y-50828D01*
X33150Y-24606D02*
X36266Y-24596D01*
X31349Y-24721D02*
X31944Y-24779D01*
X31944Y-24779D02*
X32267Y-25240D01*
X41817Y-25651D02*
X40317Y-25651D01*
X36266Y-24596D02*
X37764Y-23098D01*
X27824Y-28999D02*
X28110Y-28740D01*
X24565Y-32407D02*
X24317Y-33299D01*
X43327Y-24539D02*
X43327Y-25466D01*
X39873Y-25568D02*
X39807Y-25502D01*
X52593Y-33492D02*
X53225Y-33492D01*
X43456Y-24410D02*
X43327Y-24539D01*
X49798Y-29210D02*
X51570Y-30982D01*
X34540Y-51073D02*
X34046Y-51073D01*
X46417Y-25472D02*
X46217Y-25959D01*
X42130Y-25569D02*
X41899Y-25569D01*
X35022Y-51555D02*
X41678Y-51555D01*
X41678Y-51554D02*
X41678Y-51555D01*
X37764Y-23098D02*
X38177Y-23098D01*
X38177Y-23098D02*
X38366Y-23287D01*
X30890Y-48563D02*
X30827Y-48661D01*
X29710Y-49166D02*
X30079Y-49488D01*
X29134Y-26929D02*
X28953Y-26960D01*
X27126Y-28898D02*
X27496Y-28607D01*
X47261Y-28099D02*
X45270Y-26446D01*
X51570Y-30982D02*
X51570Y-32469D01*
X27496Y-28607D02*
X27729Y-28408D01*
X35022Y-51555D02*
X34540Y-51073D01*
X31536Y-48563D02*
X30890Y-48563D01*
X30591Y-48701D02*
X30222Y-48458D01*
X30827Y-48661D02*
X30591Y-48701D01*
X27756Y-28386D02*
X27496Y-28607D01*
X24760Y-31808D02*
X27126Y-28898D01*
X40317Y-25651D02*
X40234Y-25568D01*
X28110Y-28583D02*
X27953Y-28425D01*
X35206Y-53308D02*
X35797Y-53583D01*
X51570Y-32469D02*
X52593Y-33492D01*
X28031Y-28150D02*
X28368Y-26881D01*
X27729Y-28408D02*
X28031Y-28150D01*
X43456Y-24410D02*
X44134Y-24252D01*
X53225Y-33492D02*
X53824Y-33297D01*
X49798Y-28383D02*
X49798Y-29210D01*
X37351Y-23098D02*
X37764Y-23098D01*
X24565Y-32407D02*
X24760Y-31808D01*
X37130Y-53585D02*
X35796Y-53585D01*
X28307Y-28780D02*
X28110Y-28740D01*
X27953Y-28425D02*
X27756Y-28386D01*
X28110Y-28740D02*
X28110Y-28583D01*
X35796Y-53584D02*
X35797Y-53583D01*
X28368Y-26881D02*
X28874Y-26881D01*
X37367Y-53347D02*
X37367Y-53348D01*
X37367Y-53348D02*
X37130Y-53585D01*
X38366Y-24232D02*
X39636Y-25502D01*
X37183Y-53315D02*
X37367Y-53347D01*
X52004Y-39240D02*
X53334Y-39240D01*
X42441Y-50827D02*
X42747Y-50828D01*
X34046Y-51073D02*
X31536Y-48563D01*
X46217Y-25959D02*
X46750Y-25797D01*
X40234Y-25568D02*
X39873Y-25568D01*
X54411Y-39240D02*
X55123Y-39952D01*
X53334Y-39240D02*
X54411Y-39240D01*
X39807Y-25502D02*
X39636Y-25502D01*
X30437Y-25359D02*
X30315Y-26024D01*
X28874Y-26881D02*
X28953Y-26960D01*
X29070Y-27077D02*
X29184Y-27191D01*
X53225Y-33492D02*
X53423Y-34101D01*
X43327Y-25466D02*
X43305Y-25488D01*
X41869Y-51363D02*
X42441Y-50827D01*
X53415Y-34108D02*
X53415Y-34205D01*
X30315Y-26024D02*
X29134Y-26929D01*
X35022Y-51848D02*
X34950Y-51920D01*
X35206Y-53308D02*
X35206Y-52953D01*
X29710Y-49166D02*
X30222Y-48458D01*
X51377Y-44558D02*
X51670Y-44558D01*
X51670Y-44558D02*
X52477Y-43751D01*
X53824Y-33297D02*
X54423Y-33102D01*
X49228Y-49835D02*
X49228Y-46707D01*
X51751Y-39493D02*
X52004Y-39240D01*
X46750Y-25797D02*
X48107Y-25386D01*
X49228Y-46707D02*
X51377Y-44558D01*
X24760Y-31808D02*
X24761Y-31805D01*
X30635Y-52066D02*
X30265Y-52576D01*
X38366Y-23917D02*
X38366Y-24232D01*
X24317Y-33299D02*
X24916Y-33494D01*
X49162Y-50573D02*
X49228Y-49835D01*
X49347Y-50828D02*
X49532Y-51083D01*
X28465Y-29134D02*
X28465Y-28937D01*
X30866Y-53031D02*
X31063Y-53583D01*
X52477Y-43751D02*
X52477Y-42486D01*
X49903Y-51593D02*
X50576Y-50844D01*
X34950Y-51920D02*
X34950Y-52697D01*
X37367Y-53347D02*
X37551Y-53380D01*
X24760Y-31805D02*
X24761Y-31805D01*
X55600Y-39952D02*
X55123Y-39952D01*
X53479Y-32404D02*
X53824Y-33297D01*
X31063Y-53583D02*
X31955Y-54094D01*
X24916Y-33494D02*
X25515Y-33689D01*
X35206Y-52953D02*
X34950Y-52697D01*
X51751Y-41760D02*
X51751Y-39493D01*
X53423Y-34101D02*
X53422Y-34101D01*
X52477Y-42486D02*
X51751Y-41760D01*
X28953Y-26960D02*
X29070Y-27077D01*
X49162Y-50573D02*
X49347Y-50828D01*
X49532Y-51083D02*
X49903Y-51593D01*
X30889Y-25043D02*
X30437Y-25359D01*
X35796Y-53585D02*
X35796Y-53584D01*
X28153Y-29391D02*
X28465Y-29134D01*
X31006Y-51556D02*
X30635Y-52066D01*
X30079Y-49488D02*
X30433Y-51142D01*
X38366Y-23287D02*
X38366Y-23917D01*
X30433Y-51142D02*
X31006Y-51556D01*
X30437Y-25359D02*
X30429Y-25365D01*
X35022Y-51848D02*
X35022Y-51555D01*
X30265Y-52576D02*
X30866Y-53031D01*
X47261Y-28099D02*
X49798Y-28383D01*
X28465Y-28937D02*
X28307Y-28780D01*
X38366Y-24232D02*
X38366Y-24547D01*
X53422Y-34101D02*
X53415Y-34108D01*
X50000Y-43825D02*
X49311Y-43683D01*
X49998Y-43825D02*
X50000Y-43825D01*
X51764Y-43406D02*
X51772Y-43740D01*
X51654Y-43858D02*
X50000Y-43825D01*
X51772Y-43740D02*
X51654Y-43858D01*
X54087Y-41240D02*
X54384Y-39862D01*
X53268Y-42047D02*
X54087Y-41240D01*
X53264Y-43406D02*
X53268Y-42047D01*
X52355Y-41240D02*
X52059Y-39862D01*
X52764Y-43406D02*
X52756Y-42047D01*
X52756Y-42047D02*
X52355Y-41240D01*
X51890Y-46457D02*
X52205Y-46102D01*
X50610Y-47559D02*
X51102Y-47559D01*
X51890Y-46811D02*
X51890Y-46457D01*
X51102Y-47559D02*
X51890Y-46811D01*
X52205Y-46102D02*
X52264Y-45768D01*
X49724Y-47559D02*
X50610Y-47559D01*
X53268Y-46181D02*
X52579Y-46673D01*
X52579Y-46673D02*
X52106Y-47559D01*
X53264Y-45768D02*
X53268Y-46181D01*
X55118Y-33661D02*
X54843Y-34370D01*
X54843Y-34370D02*
X53954Y-34526D01*
X53954Y-34526D02*
X52702Y-34526D01*
X52918Y-31418D02*
X53089Y-31589D01*
X53089Y-31589D02*
X54606Y-32008D01*
X34449Y-53780D02*
X34291Y-52874D01*
X38834Y-53952D02*
X38740Y-54016D01*
X39193Y-53593D02*
X38834Y-53952D01*
X36943Y-54016D02*
X36679Y-54016D01*
X38740Y-54016D02*
X36943Y-54016D01*
X34724Y-54016D02*
X34449Y-53780D01*
X35479Y-54016D02*
X35512Y-54016D01*
X35512Y-54016D02*
X36679Y-54016D01*
X34223Y-24176D02*
X34603Y-24176D01*
X35877Y-23358D02*
X35323Y-23456D01*
X27559Y-29572D02*
X27576Y-29589D01*
X34603Y-24176D02*
X35323Y-23456D01*
X52977Y-45039D02*
X53583Y-45039D01*
X42996Y-27092D02*
X43644Y-26444D01*
X45517Y-25503D02*
X45517Y-25349D01*
X30006Y-28170D02*
X30337Y-27893D01*
X53583Y-45039D02*
X53780Y-45276D01*
X52764Y-45768D02*
X52756Y-45276D01*
X52756Y-45276D02*
X52913Y-45039D01*
X52918Y-31418D02*
X53017Y-30982D01*
X36623Y-54336D02*
X36679Y-54016D01*
X53780Y-45276D02*
X53764Y-45768D01*
X52633Y-32672D02*
X52918Y-31418D01*
X27576Y-29589D02*
X26182Y-30983D01*
X26182Y-30983D02*
X26182Y-32267D01*
X26182Y-32267D02*
X26183Y-32267D01*
X25987Y-32869D02*
X26183Y-32267D01*
X27559Y-29370D02*
X27559Y-29572D01*
X31213Y-27092D02*
X42996Y-27092D01*
X45517Y-25349D02*
X45827Y-25039D01*
X52913Y-45039D02*
X52977Y-45039D01*
X43644Y-26444D02*
X43644Y-26369D01*
X54331Y-44843D02*
X53780Y-45276D01*
X27222Y-27843D02*
X27620Y-27509D01*
X52837Y-40155D02*
X52977Y-40295D01*
X52977Y-40295D02*
X52977Y-45039D01*
X52809Y-39862D02*
X52809Y-40127D01*
X52809Y-40127D02*
X52837Y-40155D01*
X52837Y-40155D02*
X52596Y-40396D01*
X30337Y-27893D02*
X31138Y-27092D01*
X31138Y-27092D02*
X31213Y-27092D01*
X53017Y-30982D02*
X53017Y-29803D01*
X30006Y-28170D02*
X29676Y-28447D01*
X28048Y-31432D02*
X29304Y-31432D01*
X51364Y-28150D02*
X52700Y-29486D01*
X43741Y-24856D02*
X43926Y-25790D01*
X34204Y-51849D02*
X33850Y-52676D01*
X45517Y-25503D02*
X43741Y-24856D01*
X43926Y-25790D02*
X43644Y-26369D01*
X53017Y-29803D02*
X52700Y-29486D01*
X42829Y-54122D02*
X42598Y-52795D01*
X30920Y-50046D02*
X31432Y-49338D01*
X54606Y-32008D02*
X55118Y-33661D01*
X27660Y-28804D02*
X27402Y-29016D01*
X27402Y-29016D02*
X27402Y-29213D01*
X27402Y-29213D02*
X27559Y-29370D01*
X52809Y-39862D02*
X53634Y-39862D01*
X54921Y-44842D02*
X54331Y-44843D01*
X30920Y-50046D02*
X34204Y-51849D01*
X29678Y-27783D02*
X29840Y-27976D01*
X27780Y-31164D02*
X28048Y-31432D01*
X54606Y-46890D02*
X54921Y-44842D01*
X27559Y-29370D02*
X27717Y-29409D01*
X27717Y-29409D02*
X27989Y-29195D01*
X35512Y-54016D02*
X34724Y-54016D01*
X34291Y-52874D02*
X33850Y-52676D01*
X29676Y-28447D02*
X29559Y-28330D01*
X29559Y-28330D02*
X29559Y-28301D01*
X29559Y-28301D02*
X29511Y-28253D01*
X51786Y-49964D02*
X53386Y-48819D01*
X29840Y-27976D02*
X29511Y-28253D01*
X27635Y-27494D02*
X27787Y-27494D01*
X27620Y-27509D02*
X27635Y-27494D01*
X53386Y-48819D02*
X54606Y-46890D01*
X29634Y-31155D02*
X29304Y-31432D01*
X32418Y-26295D02*
X31849Y-26508D01*
X29349Y-27387D02*
X29679Y-27110D01*
X31849Y-26508D02*
X31667Y-26508D01*
X29204Y-26474D02*
X29204Y-26224D01*
X29663Y-25901D02*
X29203Y-26223D01*
X29679Y-27110D02*
X29679Y-27057D01*
X29204Y-26224D02*
X29203Y-26223D01*
X29168Y-26510D02*
X29204Y-26474D01*
X29679Y-27057D02*
X29720Y-27016D01*
X29720Y-27016D02*
X29720Y-26960D01*
X33915Y-26413D02*
X33262Y-26928D01*
X33262Y-26928D02*
X31663Y-26928D01*
X31363Y-26558D02*
X31041Y-26098D01*
X31663Y-26928D02*
X31363Y-26628D01*
X31363Y-26628D02*
X31363Y-26558D01*
X29513Y-27582D02*
X31041Y-26098D01*
X54921Y-43346D02*
X54921Y-43740D01*
X53937Y-43976D02*
X54685Y-43976D01*
X53780Y-43819D02*
X53937Y-43976D01*
X53780Y-43819D02*
X53764Y-43406D01*
X54921Y-43740D02*
X54685Y-43976D01*
X55600Y-41448D02*
X54921Y-43346D01*
X44650Y-27837D02*
X50311Y-33498D01*
X50342Y-35045D02*
X52925Y-37628D01*
X54764Y-38858D02*
X53583Y-38858D01*
X50354Y-33543D02*
X50342Y-35045D01*
X29905Y-30577D02*
X31329Y-30577D01*
X29469Y-30959D02*
X29800Y-30682D01*
X29800Y-30682D02*
X29905Y-30577D01*
X52925Y-37628D02*
X52925Y-38112D01*
X55000Y-38307D02*
X54764Y-38858D01*
X31329Y-30577D02*
X32904Y-29002D01*
X34169Y-27837D02*
X44650Y-27837D01*
X32904Y-29002D02*
X33004Y-29002D01*
X55000Y-38307D02*
X54857Y-37916D01*
X53583Y-38858D02*
X52925Y-38112D01*
X54857Y-38076D02*
X54857Y-37916D01*
X50311Y-33498D02*
X50354Y-33543D01*
X33004Y-29002D02*
X34169Y-27837D01*
X27151Y-48280D02*
X27476Y-47832D01*
X27749Y-35849D02*
X27749Y-34201D01*
X27477Y-42055D02*
X27144Y-41722D01*
X27477Y-47833D02*
X27477Y-42055D01*
X27144Y-41722D02*
X27144Y-37706D01*
X27476Y-47832D02*
X27477Y-47833D01*
X30336Y-29231D02*
X30337Y-29232D01*
X30337Y-29306D02*
X30355Y-29324D01*
X27586Y-36012D02*
X27749Y-35849D01*
X27749Y-34201D02*
X30294Y-31656D01*
X30294Y-31656D02*
X30294Y-30876D01*
X30337Y-29232D02*
X30337Y-29306D01*
X30355Y-29324D02*
X30355Y-29815D01*
X30665Y-28955D02*
X30336Y-29231D01*
X30294Y-30876D02*
X30295Y-30876D01*
X27586Y-37264D02*
X27586Y-36012D01*
X27144Y-37706D02*
X27586Y-37264D01*
X30006Y-28840D02*
X29634Y-29212D01*
X26715Y-37673D02*
X26715Y-41838D01*
X27586Y-33189D02*
X27598Y-33031D01*
X27598Y-33031D02*
X27641Y-32965D01*
X26223Y-49606D02*
X26220Y-49724D01*
X26220Y-49724D02*
X26560Y-50052D01*
X27954Y-32652D02*
X27641Y-32965D01*
X30006Y-28840D02*
X30335Y-28563D01*
X29634Y-29212D02*
X29126Y-29212D01*
X26223Y-49606D02*
X26223Y-49617D01*
X27342Y-34560D02*
X27342Y-35794D01*
X26223Y-45794D02*
X26223Y-49606D01*
X27259Y-36108D02*
X27259Y-37129D01*
X27260Y-35876D02*
X27260Y-36107D01*
X26867Y-45150D02*
X26223Y-45794D01*
X27423Y-34479D02*
X27342Y-34560D01*
X27423Y-33950D02*
X27423Y-34479D01*
X27586Y-33787D02*
X27423Y-33950D01*
X26867Y-41990D02*
X26867Y-45150D01*
X26715Y-41838D02*
X26867Y-41990D01*
X27260Y-36107D02*
X27259Y-36108D01*
X27586Y-33189D02*
X27586Y-33787D01*
X27586Y-33186D02*
X27586Y-33189D01*
X27342Y-35794D02*
X27260Y-35876D01*
X27259Y-37129D02*
X26715Y-37673D01*
X29636Y-30487D02*
X29792Y-30331D01*
X53873Y-38211D02*
X53750Y-38211D01*
X50630Y-33583D02*
X50471Y-33427D01*
X50471Y-33427D02*
X50474Y-33430D01*
X32705Y-28839D02*
X32935Y-28839D01*
X44717Y-27673D02*
X50471Y-33427D01*
X50720Y-34507D02*
X50720Y-35181D01*
X34101Y-27673D02*
X44717Y-27673D01*
X50709Y-33661D02*
X50630Y-33583D01*
X29792Y-30331D02*
X31213Y-30331D01*
X29305Y-30764D02*
X29636Y-30487D01*
X31213Y-30331D02*
X32705Y-28839D01*
X50720Y-34507D02*
X50709Y-33661D01*
X50720Y-35181D02*
X53750Y-38211D01*
X32935Y-28839D02*
X34101Y-27673D01*
X44370Y-51654D02*
X44120Y-51661D01*
X41992Y-51661D02*
X44120Y-51661D01*
X31488Y-29228D02*
X31566Y-29150D01*
X45163Y-52704D02*
X44370Y-51654D01*
X31488Y-29265D02*
X31158Y-29542D01*
X31488Y-29265D02*
X31488Y-29228D01*
X43501Y-52126D02*
X37569Y-52126D01*
X30665Y-29624D02*
X30689Y-29648D01*
X37569Y-52126D02*
X37412Y-51969D01*
X30689Y-29648D02*
X30689Y-29684D01*
X30689Y-29684D02*
X30789Y-29784D01*
X45310Y-53812D02*
X45118Y-53819D01*
X30789Y-29784D02*
X30789Y-29964D01*
X45118Y-53819D02*
X43501Y-52126D01*
X30665Y-29624D02*
X30994Y-29347D01*
X45753Y-53491D02*
X45310Y-53812D01*
X37412Y-51969D02*
X36056Y-51969D01*
X45310Y-53812D02*
X45306Y-53815D01*
X27260Y-34411D02*
X27179Y-34492D01*
X27441Y-31102D02*
X27422Y-31503D01*
X27657Y-30866D02*
X27490Y-31033D01*
X27096Y-35959D02*
X27096Y-37061D01*
X27490Y-31033D02*
X27441Y-31102D01*
X24291Y-40512D02*
X23816Y-40357D01*
X26552Y-38067D02*
X26535Y-38307D01*
X27097Y-35808D02*
X27097Y-35958D01*
X27097Y-35958D02*
X27096Y-35959D01*
X27260Y-33882D02*
X27260Y-34411D01*
X27422Y-31503D02*
X27422Y-33720D01*
X27179Y-34492D02*
X27179Y-35726D01*
X27096Y-37061D02*
X26552Y-37605D01*
X27179Y-35726D02*
X27097Y-35808D01*
X27490Y-31033D02*
X27482Y-31041D01*
X27422Y-33720D02*
X27260Y-33882D01*
X27707Y-30866D02*
X27657Y-30866D01*
X26552Y-37605D02*
X26552Y-38067D01*
X26485Y-38365D02*
X24291Y-40512D01*
X28317Y-30256D02*
X27707Y-30866D01*
X28647Y-29979D02*
X28317Y-30256D01*
X26535Y-38307D02*
X26485Y-38365D01*
X55043Y-35012D02*
X55379Y-36198D01*
X54444Y-35207D02*
X54395Y-36494D01*
X23697Y-35209D02*
X23262Y-36198D01*
X41352Y-25000D02*
X40827Y-25000D01*
X40827Y-25000D02*
X40374Y-24547D01*
X23770Y-37569D02*
X24296Y-35404D01*
X48326Y-45216D02*
X48563Y-44979D01*
X47444Y-45216D02*
X48326Y-45216D01*
X48228Y-47559D02*
X47559Y-47559D01*
X47559Y-47559D02*
X47165Y-47165D01*
X28066Y-50046D02*
X29011Y-50886D01*
X28361Y-49160D02*
X29381Y-50376D01*
X48278Y-52773D02*
X47554Y-53399D01*
X47537Y-51753D02*
X46373Y-51824D01*
X40374Y-23287D02*
X41265Y-23287D01*
X41265Y-23287D02*
X41352Y-23200D01*
X48471Y-28979D02*
X49136Y-29632D01*
X53845Y-35402D02*
X53411Y-36789D01*
X44796Y-27509D02*
X51514Y-34227D01*
X55079Y-37008D02*
X53285Y-37515D01*
X33803Y-27509D02*
X44796Y-27509D01*
X51514Y-35744D02*
X53285Y-37515D01*
X31653Y-29461D02*
X31322Y-29739D01*
X31654Y-29462D02*
X31850Y-29462D01*
X55841Y-37620D02*
X55669Y-37244D01*
X31653Y-29461D02*
X31654Y-29462D01*
X31850Y-29462D02*
X33803Y-27509D01*
X55669Y-37244D02*
X55079Y-37008D01*
X51514Y-34227D02*
X51514Y-35744D01*
X27688Y-30578D02*
X27688Y-30604D01*
X28153Y-30060D02*
X27767Y-30446D01*
X26727Y-31640D02*
X27319Y-30973D01*
X26727Y-33560D02*
X26564Y-33723D01*
X27767Y-30446D02*
X27767Y-30499D01*
X28483Y-29783D02*
X28153Y-30060D01*
X26389Y-37677D02*
X24545Y-39521D01*
X27688Y-30604D02*
X27319Y-30973D01*
X27767Y-30499D02*
X27688Y-30578D01*
X26564Y-33723D02*
X26564Y-37362D01*
X26389Y-37537D02*
X26389Y-37677D01*
X24545Y-39521D02*
X23838Y-39521D01*
X26564Y-37362D02*
X26389Y-37537D01*
X23838Y-39521D02*
X23308Y-38991D01*
X26727Y-31640D02*
X26727Y-33560D01*
X24895Y-35599D02*
X24278Y-38935D01*
X42848Y-25000D02*
X42370Y-25000D01*
X42370Y-25000D02*
X42237Y-25000D01*
X28812Y-30176D02*
X28483Y-30453D01*
X39600Y-24703D02*
X39264Y-24703D01*
X40385Y-25488D02*
X39600Y-24703D01*
X41749Y-25488D02*
X40385Y-25488D01*
X42237Y-25000D02*
X41749Y-25488D01*
X28483Y-30453D02*
X28463Y-30473D01*
X28463Y-30473D02*
X28463Y-30646D01*
X40374Y-23917D02*
X41169Y-23917D01*
X41169Y-23917D02*
X41352Y-24100D01*
X42262Y-23308D02*
X41971Y-23308D01*
X42370Y-23200D02*
X42262Y-23308D01*
X29758Y-30004D02*
X29821Y-30004D01*
X29471Y-30291D02*
X29758Y-30004D01*
X42848Y-23200D02*
X42370Y-23200D01*
X29141Y-30568D02*
X29471Y-30291D01*
X31624Y-27402D02*
X31743Y-27283D01*
X31141Y-27402D02*
X31624Y-27402D01*
X30176Y-28367D02*
X31141Y-27402D01*
X44842Y-27283D02*
X48249Y-30690D01*
X48249Y-30690D02*
X50194Y-30690D01*
X30171Y-28367D02*
X30176Y-28367D01*
X31743Y-27283D02*
X44842Y-27283D01*
X28640Y-51396D02*
X27770Y-50932D01*
X46024Y-54528D02*
X45591Y-54528D01*
X45342Y-54279D02*
X43471Y-52408D01*
X31160Y-28874D02*
X31255Y-28779D01*
X30829Y-29151D02*
X31160Y-28874D01*
X42267Y-52408D02*
X42088Y-52587D01*
X43471Y-52408D02*
X42267Y-52408D01*
X46024Y-54528D02*
X46344Y-54279D01*
X45591Y-54528D02*
X45342Y-54279D01*
X47908Y-52263D02*
X46963Y-52611D01*
X26878Y-37741D02*
X26878Y-41770D01*
X27423Y-35944D02*
X27423Y-37196D01*
X26856Y-49166D02*
X26409Y-48841D01*
X29983Y-29179D02*
X29979Y-29183D01*
X29546Y-29590D02*
X29449Y-29685D01*
X29893Y-29257D02*
X29879Y-29257D01*
X27939Y-33665D02*
X27586Y-34018D01*
X27586Y-34018D02*
X27586Y-34547D01*
X27505Y-35862D02*
X27423Y-35944D01*
X26409Y-48102D02*
X26409Y-48841D01*
X29967Y-29183D02*
X29893Y-29257D01*
X27041Y-47470D02*
X26409Y-48102D01*
X30171Y-29036D02*
X30500Y-28759D01*
X29879Y-29257D02*
X29546Y-29590D01*
X27423Y-37196D02*
X26878Y-37741D01*
X26878Y-41770D02*
X27041Y-41933D01*
X27939Y-33219D02*
X27939Y-33665D01*
X30171Y-29036D02*
X30028Y-29179D01*
X27586Y-34547D02*
X27505Y-34628D01*
X30028Y-29179D02*
X29983Y-29179D01*
X27041Y-41933D02*
X27041Y-47470D01*
X29387Y-29692D02*
X29144Y-29692D01*
X27505Y-34628D02*
X27505Y-35862D01*
X29979Y-29183D02*
X29967Y-29183D01*
X29449Y-29685D02*
X29387Y-29692D01*
X23245Y-37006D02*
X22992Y-37165D01*
X22992Y-37165D02*
X22800Y-37620D01*
X26564Y-33402D02*
X26564Y-31572D01*
X25331Y-34635D02*
X26564Y-33402D01*
X26696Y-31209D02*
X27988Y-29917D01*
X28318Y-29587D02*
X27988Y-29864D01*
X26696Y-31209D02*
X26575Y-31339D01*
X26575Y-31339D02*
X26564Y-31572D01*
X27988Y-29917D02*
X27988Y-29864D01*
X23244Y-37006D02*
X23245Y-37006D01*
X35454Y-55323D02*
X34719Y-55226D01*
X37283Y-54803D02*
X35454Y-55323D01*
X37360Y-54466D02*
X37283Y-54803D01*
X33081Y-53588D02*
X32780Y-53415D01*
X33081Y-53588D02*
X34719Y-55226D01*
X39897Y-52756D02*
X40094Y-52953D01*
X41824Y-54317D02*
X41575Y-52953D01*
X40094Y-52953D02*
X41575Y-52953D01*
X36928Y-55583D02*
X39193Y-55561D01*
X40094Y-52953D02*
X40094Y-54660D01*
X35560Y-52481D02*
X36151Y-52756D01*
X36151Y-52756D02*
X39897Y-52756D01*
X40094Y-54660D02*
X39193Y-55561D01*
X29836Y-29565D02*
X29992Y-29565D01*
X29307Y-30094D02*
X29836Y-29565D01*
X29992Y-29565D02*
X30002Y-29555D01*
X42036Y-23766D02*
X42370Y-24100D01*
X41985Y-23766D02*
X42036Y-23766D01*
X28976Y-30372D02*
X29307Y-30094D01*
X42848Y-24100D02*
X42370Y-24100D01*
M02*
